<?xml version="1.0" standalone="no"?>
<!DOCTYPE svg PUBLIC "-//W3C//DTD SVG 1.1//EN" "http://www.w3.org/Graphics/SVG/1.1/DTD/svg11.dtd" >
<svg xmlns="http://www.w3.org/2000/svg" xmlns:xlink="http://www.w3.org/1999/xlink" version="1.1">
<metadata>
Created by FontForge 20170731 at Mon Mar 21 19:30:50 2022
 By Aleksey,,,
Font software Copyright 1998, 2007 Monotype Imaging Inc. All rights reserved.
</metadata>
<defs>
<font id="RotisSemiSansStd-Light" horiz-adv-x="684" >
  <font-face 
    font-family="Rotis SemiSans Std Light"
    font-weight="300"
    font-stretch="normal"
    units-per-em="2048"
    panose-1="2 14 3 3 3 2 2 2 3 4"
    ascent="1638"
    descent="-410"
    x-height="975"
    cap-height="1413"
    bbox="-72 -526 2230 1866"
    underline-thickness="102"
    underline-position="-307"
    unicode-range="U+0020-FB04"
  />
<missing-glyph horiz-adv-x="1024" 
d="M997 0h-972v1362h972v-1362zM512 768l330 498h-662zM123 186l330 496l-330 496v-992zM901 184v994l-332 -496zM842 98l-330 496l-332 -496h662z" />
    <glyph glyph-name="f_f" unicode="ff" horiz-adv-x="1183" 
d="M897 0h-113v891h-430v-891h-112v891h-166v84h166v143q0 154 77.5 227.5t231.5 73.5q43 0 129 -16v-100l-33 12t-34 12t-31 8t-37 4q-60 0 -99 -17.5t-59 -52t-27.5 -75t-7.5 -98.5q0 -19 1 -59.5t1 -61.5h430v143q0 301 310 301q43 0 129 -16v-100l-33 12t-34.5 12
t-31.5 8t-37 4q-60 0 -99 -17.5t-58.5 -52t-27 -75t-7.5 -98.5q0 -19 1 -59.5t1 -61.5h272v-84h-272v-891z" />
    <glyph glyph-name="fi" unicode="fi" horiz-adv-x="1056" 
d="M903 1247h-143v166h143v-166zM887 0h-113v975h113v-975zM354 0h-112v891h-166v84h166v143q0 154 77.5 227.5t231.5 73.5q43 0 129 -16v-100l-33 12t-34 12t-31 8t-37 4q-60 0 -99 -17.5t-59 -52t-27.5 -75t-7.5 -98.5q0 -19 1 -59.5t1 -61.5h273v-84h-273v-891z" />
    <glyph glyph-name="fl" unicode="fl" horiz-adv-x="1067" 
d="M897 0h-113v1413h113v-1413zM354 0h-112v891h-166v84h166v143q0 154 77.5 227.5t231.5 73.5q43 0 129 -16v-100l-33 12t-34 12t-31 8t-37 4q-60 0 -99 -17.5t-59 -52t-27.5 -75t-7.5 -98.5q0 -19 1 -59.5t1 -61.5h273v-84h-273v-891z" />
    <glyph glyph-name="f_f_i" unicode="ffi" horiz-adv-x="1638" 
d="M1483 1247h-144v166h144v-166zM1468 0h-112v975h112v-975zM897 0h-113v891h-430v-891h-112v891h-166v84h166v143q0 154 77.5 227.5t231.5 73.5q43 0 129 -16v-100l-33 12t-34 12t-31 8t-37 4q-60 0 -99 -17.5t-59 -52t-27.5 -75t-7.5 -98.5q0 -19 1 -59.5t1 -61.5h430
v143q0 301 310 301q43 0 129 -16v-100l-33 12t-34.5 12t-31.5 8t-37 4q-60 0 -99 -17.5t-58.5 -52t-27 -75t-7.5 -98.5q0 -19 1 -59.5t1 -61.5h272v-84h-272v-891z" />
    <glyph glyph-name="f_f_l" unicode="ffl" horiz-adv-x="1638" 
d="M1468 0h-112v1413h112v-1413zM897 0h-113v891h-430v-891h-112v891h-166v84h166v143q0 154 77.5 227.5t231.5 73.5q43 0 129 -16v-100l-33 12t-34 12t-31 8t-37 4q-60 0 -99 -17.5t-59 -52t-27.5 -75t-7.5 -98.5q0 -19 1 -59.5t1 -61.5h430v143q0 301 310 301
q43 0 129 -16v-100l-33 12t-34.5 12t-31.5 8t-37 4q-60 0 -99 -17.5t-58.5 -52t-27 -75t-7.5 -98.5q0 -19 1 -59.5t1 -61.5h272v-84h-272v-891z" />
    <glyph glyph-name=".notdef" horiz-adv-x="1024" 
d="M997 0h-972v1362h972v-1362zM512 768l330 498h-662zM123 186l330 496l-330 496v-992zM901 184v994l-332 -496zM842 98l-330 496l-332 -496h662z" />
    <glyph glyph-name=".null" horiz-adv-x="0" 
 />
    <glyph glyph-name="nonmarkingreturn" horiz-adv-x="682" 
 />
    <glyph glyph-name="space" unicode=" " horiz-adv-x="493" 
 />
    <glyph glyph-name="exclam" unicode="!" horiz-adv-x="532" 
d="M393 367h-102l-23 1046h148zM424 0h-164v164h164v-164z" />
    <glyph glyph-name="quotedbl" unicode="&#x22;" horiz-adv-x="645" 
d="M498 991h-86l-31 422h147zM233 991h-86l-30 422h147z" />
    <glyph glyph-name="numbersign" unicode="#" horiz-adv-x="1177" 
d="M608 0h-106l121 461h-177l-120 -461h-107l119 461h-215l22 90h220l47 192h-215l22 91h219l123 464h107l-123 -464h178l119 464h106l-123 -464h230l-25 -91h-227l-51 -192h231l-25 -90h-229zM647 551l47 192h-174l-51 -192h178z" />
    <glyph glyph-name="dollar" unicode="$" horiz-adv-x="1062" 
d="M565 -186h-86v163q-147 6 -242 78t-116 213h147q20 -175 211 -211v598q-83 20 -139.5 43.5t-105.5 63t-73 100t-24 144.5q0 153 94 249t248 111v147h86v-147q96 -3 183.5 -45.5t134.5 -118.5q37 -56 37 -117h-148q0 81 -63 138.5t-144 62.5v-559q53 -18 85.5 -30t77 -32
t72 -39.5t57.5 -48t46.5 -61t27.5 -76.5t11 -96q0 -166 -105.5 -266.5t-271.5 -100.5v-163zM479 752v534q-95 -11 -152 -91.5t-57 -180.5q0 -191 209 -262zM565 627v-570q48 0 101 31q66 39 101.5 105.5t35.5 144.5q0 112 -61.5 178.5t-176.5 110.5z" />
    <glyph glyph-name="percent" unicode="%" horiz-adv-x="1595" 
d="M1253 -23q-55 0 -99 14t-74 37.5t-52 59t-34.5 72t-20 84t-10 88t-2.5 90.5q0 51 2 91.5t9 91.5t19.5 89t34.5 77t52 64t74.5 40.5t100.5 15.5t100.5 -15.5t75 -40.5t52.5 -63.5t34 -77.5t19.5 -89t9.5 -91t2 -92q0 -71 -5 -126.5t-23 -118.5t-48.5 -104t-85.5 -68.5
t-131 -27.5zM645 0h-98l403 1298h97zM342 408q-76 0 -131 27.5t-85.5 68.5t-48.5 103.5t-23 118t-5 126.5q0 51 2 92t9.5 91t19.5 89t34 77.5t52.5 63.5t75 40.5t100.5 15.5t100.5 -15.5t75 -40.5t52.5 -63.5t34 -77.5t19.5 -89t9.5 -91t2 -92q0 -71 -5 -126.5t-23 -118
t-48.5 -103.5t-85.5 -68.5t-131 -27.5zM1247 61q37 0 66.5 14t49 35t33.5 53.5t21.5 63t12 69.5t5.5 66.5t1 61.5q0 35 -1 62.5t-5 69t-11.5 73.5t-21.5 67t-33.5 58t-49.5 38t-67 15q-41 0 -72.5 -19t-50 -54.5t-30 -71.5t-16 -86t-6 -80.5t-1.5 -71.5t1.5 -70t6 -77
t16 -81t30 -66.5t50 -51t72.5 -17.5zM336 492q43 0 75.5 17t52.5 49t32.5 66t18.5 80t7.5 78t1.5 72q0 35 -1 62.5t-5 69.5t-11 73.5t-21.5 66.5t-33.5 58t-49 38t-67 15q-36 0 -64.5 -15.5t-46.5 -38t-31 -59t-19.5 -67t-10 -74.5t-4 -68.5t-0.5 -60.5q0 -35 0.5 -59.5
t4.5 -65.5t10.5 -70t19.5 -62.5t31 -54.5t46 -35.5t64 -14.5z" />
    <glyph glyph-name="ampersand" unicode="&#x26;" horiz-adv-x="1253" 
d="M1237 70v-76q-53 -17 -96 -17q-64 0 -108.5 15t-70.5 39t-40.5 66t-18.5 84t-4 104v403h-342q-156 0 -234.5 -71t-78.5 -226q0 -151 77.5 -242.5t225.5 -91.5q90 0 162 35v-92q-95 -23 -197 -23q-188 0 -298 106.5t-110 293.5q0 130 52 218.5t168 139.5
q-97 28 -154 105.5t-57 179.5q0 163 113 253.5t280 90.5q114 0 203 -27v-92q-107 39 -199 39q-118 0 -194 -74t-76 -192q0 -111 77.5 -178.5t188.5 -67.5h393v322l113 77v-399h225v-84h-225v-414q0 -49 4.5 -82.5t19.5 -67t47 -50.5t82 -17q35 0 72 13z" />
    <glyph glyph-name="quotesingle" unicode="'" horiz-adv-x="378" 
d="M233 991h-86l-30 422h147z" />
    <glyph glyph-name="parenleft" unicode="(" horiz-adv-x="532" 
d="M467 -213v-80q-49 10 -91 37.5t-72 64t-54 89t-39.5 102.5t-26.5 116t-16.5 117.5t-9 119.5t-4 109.5t-0.5 98.5v176q0 77 2 139t9 146t19.5 149.5t36.5 136.5t56 121.5t80.5 89.5t109.5 54v-80q-34 -21 -62 -55.5t-46 -68.5t-32 -86.5t-20.5 -87.5t-12.5 -96t-7 -86.5
t-4 -82.5q-4 -148 -4 -221v-256q0 -83 2 -144t12.5 -151t29.5 -154t55.5 -125t88.5 -92z" />
    <glyph glyph-name="parenright" unicode=")" horiz-adv-x="532" 
d="M66 -293v80q34 21 62 55.5t46 68.5t32 86.5t20.5 87.5t12.5 96t7 86.5t4 82.5q4 148 4 221v256q0 83 -2 144t-12.5 151t-29.5 154t-55.5 125t-88.5 92v80q45 -10 83 -32.5t66.5 -56.5t52.5 -73t40 -90.5t28.5 -98t20 -106.5t12.5 -106.5t7 -106t2.5 -96.5t0.5 -88v-176
q0 -77 -2 -139t-9 -146t-19.5 -149.5t-36.5 -136.5t-56 -121.5t-80.5 -89.5t-109.5 -54z" />
    <glyph glyph-name="asterisk" unicode="*" horiz-adv-x="645" 
d="M514 918l-78 -46l-110 191l-115 -191l-76 46l113 192h-225v86h225l-113 195l76 45l115 -197l110 197l78 -45l-115 -195h224v-86h-224z" />
    <glyph glyph-name="plus" unicode="+" horiz-adv-x="1177" 
d="M645 0h-113v434h-409v103h409v409h113v-409h410v-103h-410v-434z" />
    <glyph glyph-name="comma" unicode="," horiz-adv-x="378" 
d="M215 -272h-109l23 442h147z" />
    <glyph glyph-name="hyphen" unicode="-" horiz-adv-x="796" 
d="M680 440h-563v115h563v-115z" />
    <glyph glyph-name="period" unicode="." horiz-adv-x="378" 
d="M274 0h-170v170h170v-170z" />
    <glyph glyph-name="slash" unicode="/" horiz-adv-x="569" 
d="M164 -279h-115l354 1838h117z" />
    <glyph glyph-name="zero" unicode="0" horiz-adv-x="987" 
d="M504 -23q-81 0 -146.5 23t-110 60t-77.5 93.5t-52 113.5t-30 130.5t-14.5 134.5t-3.5 134q0 68 3.5 127t15 128t30 124t50.5 108t74.5 89t105 57.5t138.5 21.5q431 0 431 -694q0 -67 -4 -125.5t-15 -126.5t-29.5 -123t-50.5 -107.5t-74.5 -88.5t-104 -57.5t-136.5 -21.5z
M498 68q280 0 280 563q0 600 -293 600q-52 0 -94 -21.5t-70 -56t-49.5 -84t-33 -98t-18.5 -105.5t-9 -100t-2 -88q0 -50 1.5 -95t8.5 -109.5t18.5 -117t33.5 -108.5t51.5 -93.5t74.5 -62t101 -24.5z" />
    <glyph glyph-name="one" unicode="1" horiz-adv-x="987" 
d="M631 0h-127v1163l-232 -166v127l254 174h105v-1298z" />
    <glyph glyph-name="two" unicode="2" horiz-adv-x="987" 
d="M860 0h-733v104q74 71 140.5 142t149.5 172.5t142 194t100 196.5t41 190q0 100 -61 166t-160 66q-98 0 -146 -57t-61 -160h-149q17 152 113 229.5t251 77.5q162 0 254.5 -95t92.5 -257q0 -46 -10.5 -96t-27 -94.5t-44.5 -96t-53.5 -92t-65.5 -92t-69.5 -87t-75 -85.5
t-72.5 -78.5t-72.5 -75.5t-64.5 -68h581v-104z" />
    <glyph glyph-name="three" unicode="3" horiz-adv-x="987" 
d="M588 680v-4q124 -22 186 -111.5t62 -218.5q0 -177 -98.5 -273t-276.5 -96q-72 0 -134 16t-113.5 49t-84 88.5t-39.5 129.5h152q3 -93 60.5 -142.5t152.5 -49.5q123 0 182 76.5t59 203.5q0 71 -22 133.5t-74 106t-125 43.5h-59v90h39q104 0 161.5 70.5t57.5 177.5
q0 109 -58 185.5t-163 76.5q-171 0 -197 -184h-150q0 50 27 102q44 85 131 128.5t189 43.5q166 0 263 -90t97 -254q0 -112 -59 -194.5t-166 -102.5z" />
    <glyph glyph-name="four" unicode="4" horiz-adv-x="987" 
d="M725 0h-113v385h-514v100l504 813h123v-809h229v-104h-229v-385zM612 489v627h-4l-385 -627h389z" />
    <glyph glyph-name="five" unicode="5" horiz-adv-x="987" 
d="M133 256h152q7 -88 64.5 -138t146.5 -50q137 0 200.5 85t63.5 226q0 60 -14.5 114t-44 98.5t-78.5 70.5t-113 26q-62 0 -120.5 -30.5t-80.5 -82.5h-119l35 723h602v-94h-489l-29 -491q88 65 219 65q168 0 269.5 -114.5t101.5 -284.5q0 -190 -108.5 -296t-298.5 -106
q-313 0 -359 279z" />
    <glyph glyph-name="six" unicode="6" horiz-adv-x="987" 
d="M899 1044h-149q0 78 -53.5 132.5t-131.5 54.5q-60 0 -107.5 -24.5t-78.5 -62t-53.5 -94.5t-34 -109t-18 -120t-8 -112.5t-1.5 -100.5h4q43 84 126.5 128t183.5 44q173 0 262.5 -109.5t89.5 -285.5q0 -187 -101 -297.5t-286 -110.5q-79 0 -142.5 22t-106 57t-73.5 90
t-48 109t-27 125.5t-12.5 128.5t-2.5 130q0 72 4 133.5t15.5 133.5t31 129t53 112t78.5 92t110 59.5t146 22.5q95 0 173 -40.5t122 -119.5q32 -60 35 -117zM545 68q82 0 139.5 48.5t82 117.5t24.5 149q0 76 -27 144t-85 115.5t-136 47.5q-73 0 -133 -45t-91.5 -112
t-31.5 -138q0 -59 16.5 -116t47 -105t81 -77t113.5 -29z" />
    <glyph glyph-name="seven" unicode="7" horiz-adv-x="987" 
d="M373 0h-146l498 1194h-588v104h727v-104z" />
    <glyph glyph-name="eight" unicode="8" horiz-adv-x="987" 
d="M623 674v-4q128 -26 193 -114.5t65 -221.5q0 -167 -105.5 -262t-273.5 -95q-178 0 -287 98.5t-109 274.5q0 123 70 211t189 111v4q-114 24 -172 105t-58 200q0 157 105 248.5t264 91.5q156 0 252 -91.5t96 -246.5q0 -111 -62 -202t-167 -107zM487 719q110 0 168 72
t58 184q0 105 -58.5 180.5t-160.5 75.5t-161 -77.5t-59 -182.5q0 -104 56.5 -178t156.5 -74zM502 68q118 0 178.5 72.5t60.5 193.5q0 122 -64 204.5t-181 82.5q-112 0 -181 -82t-69 -195q0 -119 69.5 -197.5t186.5 -78.5z" />
    <glyph glyph-name="nine" unicode="9" horiz-adv-x="987" 
d="M739 698h-4q-29 -78 -120.5 -126t-182.5 -48q-167 0 -260.5 110.5t-93.5 280.5q0 184 102 295t283 111q87 0 155 -27t111.5 -77t73 -109.5t44 -136.5t20 -144.5t5.5 -146.5q0 -73 -3 -133.5t-14 -135t-29 -133.5t-50.5 -117.5t-76.5 -97t-109 -62.5t-146 -24
q-104 0 -187.5 44t-129.5 133q-28 59 -31 106h150q0 -88 56 -140t144 -52q56 0 101.5 25.5t75.5 65t52.5 97.5t34 112.5t18.5 121t9 112.5t2 96zM457 614q108 0 188 83.5t80 191.5q0 60 -17.5 119.5t-50 109.5t-85 81.5t-115.5 31.5q-61 0 -108.5 -26.5t-75.5 -70.5
t-42 -96.5t-14 -109.5q0 -58 14 -111.5t42 -100t75.5 -74.5t108.5 -28z" />
    <glyph glyph-name="colon" unicode=":" horiz-adv-x="493" 
d="M389 805h-170v170h170v-170zM389 0h-170v170h170v-170z" />
    <glyph glyph-name="semicolon" unicode=";" horiz-adv-x="493" 
d="M391 805h-170v170h170v-170zM322 -272h-109l23 442h147z" />
    <glyph glyph-name="less" unicode="&#x3c;" horiz-adv-x="1177" 
d="M1055 0l-932 422v102l932 422v-102l-815 -371l815 -371v-102z" />
    <glyph glyph-name="equal" unicode="=" horiz-adv-x="1177" 
d="M1055 575h-932v103h932v-103zM1055 293h-932v102h932v-102z" />
    <glyph glyph-name="greater" unicode="&#x3e;" horiz-adv-x="1177" 
d="M1055 422l-932 -422v102l815 371l-815 371v102l932 -422v-102z" />
    <glyph glyph-name="question" unicode="?" horiz-adv-x="796" 
d="M387 367h-111v149q0 57 12 96.5t29.5 65t61.5 74.5q49 56 96 114q9 11 40 48.5t42 53t29.5 47t25 61.5t6.5 65q0 91 -62 143.5t-155 52.5q-63 0 -135.5 -26t-126.5 -66v141q132 50 256 50q73 0 137 -18t115.5 -53t81 -94.5t29.5 -135.5q0 -64 -27.5 -128.5t-68.5 -115.5
t-89.5 -107t-89.5 -103t-68.5 -103.5t-27.5 -108.5v-102zM414 0h-164v164h164v-164z" />
    <glyph glyph-name="at" unicode="@" horiz-adv-x="1658" 
d="M1147 68q-99 0 -145 42t-50 97q-97 -146 -239 -146q-63 0 -111 26.5t-75.5 71t-40.5 97.5t-13 113q0 70 12.5 143.5t41.5 148.5t71 133.5t107 95t143 36.5q81 0 127.5 -35t79.5 -109q23 116 24 125h101l-111 -561q-12 -47 -12 -80q0 -98 100 -98q39 0 86.5 29t92 81
t74.5 138.5t30 187.5q0 106 -41 201t-114 165t-180.5 111t-234.5 41q-129 0 -246 -49.5t-204.5 -135.5t-139 -210t-51.5 -266q0 -189 78 -327.5t213 -208.5t309 -70q97 0 184 13.5t141 32.5t94.5 38.5t57.5 32.5l17 14l43 -78q-6 -6 -19 -16.5t-61.5 -37t-106 -47
t-154.5 -37t-206 -16.5q-147 0 -274 47t-222 135.5t-149.5 224.5t-54.5 304q0 167 64 311.5t169 240.5t240 151t278 55q189 0 342 -79t240.5 -221t87.5 -319q0 -104 -26 -193.5t-67.5 -151t-94 -106t-105 -65t-100.5 -20.5zM733 154q56 0 103.5 29.5t78.5 75t52.5 103.5
t31 114t9.5 106q0 43 -7.5 83.5t-23.5 80t-49 64t-78 24.5q-69 0 -124 -51.5t-84.5 -128t-44.5 -151.5t-15 -136q0 -84 36.5 -148.5t114.5 -64.5z" />
    <glyph glyph-name="A" unicode="A" horiz-adv-x="1101" 
d="M1081 0h-127l-153 469h-527l-153 -469h-103l459 1413h146zM770 563l-229 719h-4l-232 -719h465z" />
    <glyph glyph-name="B" unicode="B" horiz-adv-x="1062" 
d="M522 0h-342v1413h293q422 0 422 -348q0 -72 -29 -141t-86.5 -118.5t-130.5 -57.5v-5q87 -3 159 -56.5t111 -134t39 -165.5q0 -191 -120 -289t-316 -98zM307 784h115q72 0 131.5 15t107 47t74.5 88t27 131q0 124 -72.5 189t-197.5 65h-185v-535zM307 98h185q147 0 237 73
t90 218q0 137 -89.5 219t-227.5 82h-195v-592z" />
    <glyph glyph-name="C" unicode="C" horiz-adv-x="1062" 
d="M977 205v-133q-134 -95 -334 -95q-124 0 -220 46.5t-155 120.5t-97 176.5t-52.5 205t-14.5 215.5q0 102 14.5 196.5t50.5 187t91.5 160t143.5 109.5t200 42q182 0 305 -112.5t123 -293.5h-155q0 137 -72 224t-205 87q-72 0 -130 -26.5t-95.5 -74t-64.5 -104t-40.5 -125.5
t-19.5 -129.5t-6 -123.5q0 -73 7 -144.5t23.5 -152t47.5 -147.5t75 -123t111.5 -87.5t150.5 -31.5q93 0 166.5 33t151.5 100z" />
    <glyph glyph-name="D" unicode="D" horiz-adv-x="1175" 
d="M446 0h-266v1413h242q181 0 306.5 -44.5t201 -136t108.5 -219t33 -306.5q0 -170 -31.5 -296t-103 -220.5t-194 -142.5t-296.5 -48zM307 98h105q153 0 255.5 37.5t160 116t81 183t23.5 255.5q0 77 -5 140t-21.5 138.5t-44.5 132.5t-79 107t-120 76q-97 35 -250 35h-105
v-1221z" />
    <glyph glyph-name="E" unicode="E" horiz-adv-x="911" 
d="M825 0h-645v1413h627v-94h-500v-533h475v-94h-475v-594h518v-98z" />
    <glyph glyph-name="F" unicode="F" horiz-adv-x="796" 
d="M307 0h-127v1413h613v-94h-486v-533h461v-94h-461v-692z" />
    <glyph glyph-name="G" unicode="G" horiz-adv-x="1214" 
d="M934 174v516h-352v94h479v-669q-69 -71 -185.5 -104.5t-234.5 -33.5q-105 0 -190 31t-142.5 87.5t-98.5 127.5t-63.5 160t-32.5 175t-10 181q0 106 15 202t52 188t94 159t147.5 107.5t205.5 40.5q144 0 257 -58t172 -180q40 -79 40 -170h-155q1 145 -82.5 229t-228.5 84
q-90 0 -159.5 -40.5t-109.5 -102t-65.5 -146t-34 -161t-8.5 -158.5q0 -73 7 -143t23.5 -147.5t48 -141.5t75.5 -117t111 -82.5t150 -29.5q173 0 275 102z" />
    <glyph glyph-name="H" unicode="H" horiz-adv-x="1214" 
d="M1034 0h-127v684h-600v-684h-127v1413h127v-635h600v635h127v-1413z" />
    <glyph glyph-name="I" unicode="I" horiz-adv-x="493" 
d="M309 0h-127v1413h127v-1413z" />
    <glyph glyph-name="J" unicode="J" 
d="M393 315v1098h127v-1122q0 -314 -352 -314q-72 0 -168 21v135l22 -8q21 -8 23.5 -9t21 -7.5t24.5 -8t21.5 -5.5t24.5 -5t22 -2.5t25 -1.5q110 0 159.5 58.5t49.5 170.5z" />
    <glyph glyph-name="K" unicode="K" horiz-adv-x="1026" 
d="M1026 0h-154l-561 694h-4v-694h-127v1413h127v-641h4l512 641h135l-540 -665z" />
    <glyph glyph-name="L" unicode="L" horiz-adv-x="796" 
d="M805 0h-625v1413h127v-1315h498v-98z" />
    <glyph glyph-name="M" unicode="M" horiz-adv-x="1556" 
d="M1376 0h-127v1305h-4l-416 -1305h-122l-416 1305h-4v-1305h-107v1413h189l401 -1259h4l406 1259h196v-1413z" />
    <glyph glyph-name="N" unicode="N" horiz-adv-x="1253" 
d="M1073 0h-168l-604 1257h-4v-1257h-117v1413h158l614 -1268h4v1268h117v-1413z" />
    <glyph glyph-name="O" unicode="O" horiz-adv-x="1177" 
d="M592 -23q-85 0 -155.5 24t-120 64t-87.5 98t-61.5 121t-38 138t-20 143.5t-5.5 143.5q0 87 8.5 166.5t28.5 164.5t57 154t89 124.5t130 86.5t175 31q82 0 150.5 -24t117 -64.5t86.5 -98.5t61 -121t38 -137.5t20.5 -142t5.5 -139.5q0 -77 -4.5 -144.5t-18 -143.5t-35 -138
t-58.5 -120.5t-86 -98t-119.5 -63.5t-157.5 -24zM596 72q336 0 336 628q0 53 -3.5 106t-13 118t-25 122t-42.5 112.5t-62.5 95t-86.5 63.5t-113 24q-64 0 -116 -24t-87 -62.5t-61 -94.5t-40.5 -111.5t-23.5 -122.5t-11.5 -118.5t-2.5 -107.5q0 -53 3.5 -106t14 -116.5
t26.5 -119.5t44 -109.5t63.5 -91.5t87 -61.5t113.5 -23.5z" />
    <glyph glyph-name="P" unicode="P" horiz-adv-x="987" 
d="M307 0h-127v1413h281q479 0 479 -387q0 -89 -25 -156.5t-66.5 -109.5t-104.5 -68.5t-131 -36.5t-152 -10h-154v-645zM307 739h107q69 0 120 5.5t104 23t86.5 47.5t55 82.5t21.5 124.5t-20.5 126t-54.5 86t-85.5 51.5t-105 26.5t-121.5 7h-107v-580z" />
    <glyph glyph-name="Q" unicode="Q" horiz-adv-x="1177" 
d="M1163 0h-571q-112 0 -199.5 44t-140.5 113.5t-87.5 165.5t-47.5 190t-13 196q0 106 12 201t45 194t85.5 170t141 116.5t204.5 45.5q82 0 150.5 -24t117 -64.5t86.5 -98.5t61 -121t38 -137.5t20.5 -142t5.5 -139.5q0 -78 -4 -140t-17.5 -139t-38 -136.5t-68.5 -116.5
t-105 -95l4 -4q207 12 321 55v-133zM596 94q336 0 336 606q0 53 -3.5 106t-13 118t-25 122t-42.5 112.5t-62.5 95t-86.5 63.5t-113 24q-64 0 -116 -24t-87 -62.5t-61 -94.5t-40.5 -111.5t-23.5 -122.5t-11.5 -118.5t-2.5 -107.5q0 -50 4.5 -102t16 -112.5t29 -115t45.5 -106
t63.5 -88.5t85 -59.5t108.5 -22.5z" />
    <glyph glyph-name="R" unicode="R" horiz-adv-x="1101" 
d="M961 0h-132q-12 60 -36.5 181t-36.5 181q-34 167 -106.5 227t-241.5 60h-101v-649h-127v1413h283q79 0 146 -11t128 -38t103 -68.5t67 -106.5t25 -149q0 -143 -92 -235t-236 -107v-4q61 -8 104.5 -26.5t71.5 -42t48 -64.5t31 -79.5t24 -100.5zM307 743h80q62 0 116.5 7.5
t109 28t93.5 52t63 84t24 119.5q0 285 -340 285h-146v-576z" />
    <glyph glyph-name="S" unicode="S" horiz-adv-x="948" 
d="M88 10v146q167 -80 322 -80q142 0 231.5 71t89.5 209q0 73 -36 130t-93.5 95.5t-126.5 73t-138.5 72t-127 83t-93.5 115.5t-36 160t35.5 159t96 110t135.5 61.5t161 20.5q148 0 280 -33v-141q-172 79 -311 79q-114 0 -193 -59t-79 -170q0 -32 7 -60.5t15 -49t29 -43
t32 -33.5t43.5 -31t44.5 -26.5t51 -27.5q9 -5 13 -7q126 -63 197 -107q62 -37 101.5 -68.5t71.5 -73t46 -93.5t14 -121q0 -81 -25 -147t-68 -111.5t-103 -76.5t-128 -45t-145 -14q-178 0 -313 33z" />
    <glyph glyph-name="T" unicode="T" horiz-adv-x="796" 
d="M463 0h-127v1319h-334v94h795v-94h-334v-1319z" />
    <glyph glyph-name="U" unicode="U" horiz-adv-x="1214" 
d="M920 508v905h127v-944q0 -147 -46.5 -255.5t-148.5 -172.5t-250 -64q-220 0 -326 133t-106 359v944h127v-905q0 -72 7 -130t27 -117.5t53.5 -99t91 -64.5t134.5 -25q76 0 133 25t90.5 65t53.5 99.5t26.5 117t6.5 129.5z" />
    <glyph glyph-name="V" unicode="V" horiz-adv-x="1024" 
d="M598 0h-164l-469 1413h131l430 -1280h4l410 1280h121z" />
    <glyph glyph-name="W" unicode="W" horiz-adv-x="1632" 
d="M1305 0h-172l-316 1274h-4l-313 -1274h-174l-242 1413h127l211 -1261h4l319 1261h154l313 -1261h5l217 1261h114z" />
    <glyph glyph-name="X" unicode="X" horiz-adv-x="1026" 
d="M1026 0h-152l-372 627l-375 -627h-127l440 733l-403 680h151l330 -557l326 557h131l-395 -661z" />
    <glyph glyph-name="Y" unicode="Y" horiz-adv-x="987" 
d="M551 0h-127v649l-424 764h141l353 -643l360 643h133l-436 -764v-649z" />
    <glyph glyph-name="Z" unicode="Z" horiz-adv-x="987" 
d="M930 0h-873v98l693 1221h-658v94h809v-94l-696 -1221h725v-98z" />
    <glyph glyph-name="bracketleft" unicode="[" horiz-adv-x="532" 
d="M502 -279h-316v1838h316v-103h-197v-1632h197v-103z" />
    <glyph glyph-name="backslash" unicode="\" horiz-adv-x="569" 
d="M520 -279h-114l-357 1838h117z" />
    <glyph glyph-name="bracketright" unicode="]" horiz-adv-x="532" 
d="M344 -279h-315v103h196v1632h-196v103h315v-1838z" />
    <glyph glyph-name="asciicircum" unicode="^" horiz-adv-x="1177" 
d="M963 602h-103l-272 600l-273 -600h-102l324 717h102z" />
    <glyph glyph-name="underscore" unicode="_" horiz-adv-x="1024" 
d="M1024 -236h-1024v103h1024v-103z" />
    <glyph glyph-name="grave" unicode="`" horiz-adv-x="616" 
d="M393 1145h-110l-125 244h151z" />
    <glyph glyph-name="a" unicode="a" horiz-adv-x="911" 
d="M741 0h-112v152h-4q-33 -75 -114.5 -125t-166.5 -50q-108 0 -184 70.5t-76 177.5q0 65 25.5 117.5t70.5 86t98.5 57t118 35.5t119.5 17t113 5v65v51.5t-2 49t-5.5 48.5t-10 43t-16.5 40t-25 31t-34.5 26t-46 15t-59.5 6q-91 0 -135 -44.5t-47 -136.5h-142q34 260 336 260
q165 0 232 -83t67 -252v-662zM629 408v55q-420 0 -420 -223q0 -72 49 -116t121 -44q63 0 113 29.5t78.5 78t43.5 105t15 115.5z" />
    <glyph glyph-name="b" unicode="b" horiz-adv-x="948" 
d="M139 451v962h113v-633h4q46 101 109 159t159 58q74 0 133 -35t95.5 -89t60.5 -125t33.5 -138t9.5 -133q0 -75 -12 -144.5t-40 -135t-70.5 -114t-108 -77.5t-146.5 -29q-84 0 -146.5 27t-99 70t-58.5 107.5t-29 127.5t-7 142zM481 57q73 0 125 39.5t77.5 104t36.5 128.5
t11 132q0 54 -4 105t-18 118.5t-37 116t-66.5 83t-101.5 34.5q-66 0 -116.5 -52t-76.5 -130.5t-38.5 -152t-12.5 -134.5q0 -49 4.5 -96t19 -103t37.5 -97t64.5 -68.5t95.5 -27.5z" />
    <glyph glyph-name="c" unicode="c" horiz-adv-x="835" 
d="M737 84v-84q-82 -23 -178 -23q-467 0 -467 533q0 78 10.5 145.5t37.5 131.5t68 109.5t106.5 73t148.5 27.5q143 0 227 -83.5t84 -227.5h-141q1 53 -6.5 92t-26.5 72.5t-56.5 50.5t-92.5 17q-58 0 -101.5 -26t-68 -65t-39.5 -93.5t-20 -102t-5 -99.5q0 -72 13 -138.5
t42 -127.5t71.5 -106.5t106 -72t140.5 -26.5q79 0 147 23z" />
    <glyph glyph-name="d" unicode="d" horiz-adv-x="987" 
d="M817 0h-112v199h-5q-23 -94 -104 -158t-178 -64q-79 0 -138.5 32.5t-94 82t-56 119.5t-28.5 134t-7 136t9 139t33 137.5t61 122t98.5 84.5t140.5 33q99 0 167 -59t97 -158h5v633h112v-1413zM424 57q59 0 108 30t80.5 77t53 107t30.5 117t9 110q0 55 -17.5 124.5t-49 137
t-83.5 113t-113 45.5q-47 0 -84.5 -22.5t-61 -61.5t-39.5 -84t-24 -98.5t-11 -95t-3 -83.5q0 -39 2.5 -77.5t10 -89t22 -92t36 -78.5t56 -58t78.5 -21z" />
    <glyph glyph-name="e" unicode="e" horiz-adv-x="882" 
d="M776 86v-86q-98 -23 -205 -23q-246 0 -361.5 141.5t-115.5 393.5q0 80 11 148.5t38 132t68.5 107.5t108 70.5t151.5 26.5t148.5 -30.5t101 -85t56 -123t18.5 -150.5h-576q0 -78 10.5 -149t34.5 -144t72 -131.5t115 -89.5q67 -33 149 -33q105 0 176 25zM227 688h443
q0 106 -55 168t-160 62q-104 0 -162 -62.5t-66 -167.5z" />
    <glyph glyph-name="f" unicode="f" horiz-adv-x="641" 
d="M354 0h-112v891h-166v84h166v143q0 154 77.5 227.5t231.5 73.5q43 0 129 -16v-100l-33 12t-34 12t-31 8t-37 4q-60 0 -99 -17.5t-59 -52t-27.5 -75t-7.5 -98.5q0 -19 1 -59.5t1 -61.5h273v-84h-273v-891z" />
    <glyph glyph-name="g" unicode="g" horiz-adv-x="987" 
d="M158 -375v139q78 -39 137.5 -59t126.5 -20q54 0 97.5 13t72.5 34t50.5 54t33 66.5t18.5 80t9 84.5t2 89v113h-5q-24 -93 -98 -156t-168 -63q-77 0 -138 32.5t-98 83.5t-61 120t-33.5 135.5t-9.5 136.5q0 68 10.5 133.5t35.5 131t63 114.5t98 79.5t135 30.5q98 0 169 -60
t95 -157h5v195h112v-922q0 -232 -98 -348.5t-326 -116.5q-138 0 -235 37zM444 80q38 0 73 17t60.5 44t47.5 63t36 71t23 71q21 80 21 168q0 58 -16.5 125t-47 131t-82.5 106t-115 42q-53 0 -94.5 -30t-65.5 -74t-39 -102.5t-20.5 -108t-5.5 -97.5q0 -62 9.5 -127t32 -136.5
t70 -117t113.5 -45.5z" />
    <glyph glyph-name="h" unicode="h" horiz-adv-x="1026" 
d="M856 0h-113v651q0 39 -2 68t-11 64.5t-25 58t-45 38t-70 15.5q-52 0 -99.5 -29t-81.5 -76t-58 -95t-40 -99q-28 -86 -28 -141v-455h-113v1413h113v-704h4q40 116 126 202t197 86q71 0 120.5 -23.5t76 -68t38 -97t11.5 -120.5v-688z" />
    <glyph glyph-name="i" unicode="i" horiz-adv-x="454" 
d="M299 1247h-143v166h143v-166zM285 0h-113v975h113v-975z" />
    <glyph glyph-name="j" unicode="j" horiz-adv-x="454" 
d="M311 1247h-143v166h143v-166zM-49 -401h-23v100q30 -6 60 -6q101 0 147.5 53t46.5 156v1073h113v-1038q0 -177 -83.5 -257.5t-260.5 -80.5z" />
    <glyph glyph-name="k" unicode="k" horiz-adv-x="835" 
d="M813 0h-135l-391 518h-4v-518h-113v1413h113v-883h4l358 445h127l-364 -440z" />
    <glyph glyph-name="l" unicode="l" horiz-adv-x="454" 
d="M285 0h-113v1413h113v-1413z" />
    <glyph glyph-name="m" unicode="m" horiz-adv-x="1519" 
d="M1350 0h-113v657q0 39 -1.5 65.5t-9.5 62.5t-22.5 57.5t-42.5 37t-67 15.5q-66 0 -121.5 -47.5t-88.5 -119t-51 -145.5t-18 -134v-449h-113v668q0 35 -2 61.5t-10 60t-22 54.5t-41 36t-64 15q-65 0 -121 -48t-89.5 -119t-52.5 -145.5t-19 -133.5v-449h-113v975h113v-244
h4q40 107 121.5 186.5t183.5 79.5q111 0 168 -75t57 -189h4q38 105 120 184.5t183 79.5q110 0 169 -74.5t59 -187.5v-735z" />
    <glyph glyph-name="n" unicode="n" horiz-adv-x="1026" 
d="M856 0h-113v651q0 40 -2 68.5t-11 64.5t-24.5 58t-45 37.5t-70.5 15.5q-85 0 -158.5 -83t-111 -186.5t-37.5 -185.5v-440h-113v975h113v-266h4q42 120 125.5 204t197.5 84q72 0 122 -25t76 -71t37 -99t11 -122v-680z" />
    <glyph glyph-name="o" unicode="o" horiz-adv-x="987" 
d="M496 -23q-89 0 -159 28.5t-115 77t-74.5 116t-41.5 140t-12 155.5q0 78 13 148.5t42.5 136t74 113.5t112 76.5t151.5 28.5q89 0 159.5 -29t116.5 -78t76 -117.5t43 -142t13 -155.5q0 -80 -13 -151t-43.5 -135.5t-75.5 -111t-113.5 -73.5t-153.5 -27zM494 57
q66 0 116.5 25.5t80 66t48 96.5t25 109.5t6.5 114.5q0 63 -6 119.5t-24.5 119t-48 107t-82.5 74t-122 29.5q-62 0 -110.5 -26t-77.5 -66.5t-47.5 -96t-25.5 -108t-7 -109.5q0 -62 5.5 -118t23.5 -120t47 -110t80 -76.5t119 -30.5z" />
    <glyph glyph-name="p" unicode="p" horiz-adv-x="987" 
d="M283 -438h-113v1413h113v-197h4q33 94 103 156.5t163 62.5q79 0 140.5 -33.5t98 -86t60.5 -123.5t32.5 -138.5t8.5 -138.5q0 -70 -9.5 -136.5t-34 -134t-62 -117t-98.5 -81t-138 -31.5q-99 0 -167 59.5t-97 158.5h-4v-633zM545 57q52 0 93.5 30.5t65 76t39 104.5
t20.5 108.5t5 96.5q0 50 -4.5 101t-19 115.5t-38 113t-65.5 82t-98 33.5q-61 0 -112.5 -45t-82.5 -112t-48 -136.5t-17 -124.5q0 -46 9.5 -102t30.5 -116.5t50 -110.5t74 -82t98 -32z" />
    <glyph glyph-name="q" unicode="q" horiz-adv-x="987" 
d="M817 -438h-112v635h-5q-73 -220 -264 -220q-77 0 -137.5 31.5t-98 81.5t-62.5 117.5t-34.5 134t-9.5 135.5q0 72 8.5 139t32 138t60 123.5t97.5 86t140 33.5q94 0 169 -62.5t99 -154.5h5v195h112v-1413zM438 57q66 0 120 47t84.5 118t46.5 143t16 133q0 56 -17 125.5
t-48 137t-83.5 112.5t-114.5 45q-53 0 -94.5 -33t-65 -82t-38.5 -112t-20 -115t-5 -99q0 -45 5 -95t20.5 -110t38.5 -106t63.5 -77.5t91.5 -31.5z" />
    <glyph glyph-name="r" unicode="r" horiz-adv-x="645" 
d="M283 0h-113v975h113v-217h4q118 226 301 239v-147h-33q-72 0 -126.5 -31t-85 -84t-45.5 -114t-15 -129v-492z" />
    <glyph glyph-name="s" unicode="s" horiz-adv-x="720" 
d="M55 20v125q56 -32 136 -52.5t145 -20.5q100 0 162.5 41.5t62.5 136.5q0 50 -27.5 88.5t-71 64t-96 48t-105.5 48t-96.5 56t-71 79t-27.5 111.5q0 70 27 120.5t75 78.5t103.5 40.5t121.5 12.5q27 0 59.5 -3.5t54.5 -7.5t60.5 -12t55.5 -11v-121q-59 25 -85.5 35.5
t-75.5 23t-91 12.5q-49 0 -89.5 -11.5t-71 -43.5t-30.5 -82q0 -48 28 -84.5t72.5 -61.5t98.5 -47.5t108 -49t98.5 -59.5t72.5 -85.5t28 -120.5q0 -79 -29 -137t-80.5 -90.5t-113.5 -48t-137 -15.5q-170 0 -271 43z" />
    <glyph glyph-name="t" unicode="t" horiz-adv-x="659" 
d="M612 72v-88q-8 0 -44.5 -3.5t-55.5 -3.5q-65 0 -112.5 10.5t-86 35t-58 70.5t-19.5 112v686h-160v84h160v227l112 70v-297h256v-84h-256v-621q0 -107 37 -160t139 -53q44 0 88 15z" />
    <glyph glyph-name="u" unicode="u" horiz-adv-x="1026" 
d="M850 0h-113v242h-4q-16 -53 -40.5 -98t-58.5 -84t-82 -61t-103 -22q-147 0 -217 84.5t-70 233.5v680h112v-653q0 -43 8 -82.5t25.5 -77t51 -60t79.5 -22.5q63 0 115 30.5t85 78.5t56.5 110t33 121t9.5 115v440h113v-975z" />
    <glyph glyph-name="v" unicode="v" horiz-adv-x="872" 
d="M512 0h-109l-380 975h122l316 -825h4l276 825h111z" />
    <glyph glyph-name="w" unicode="w" horiz-adv-x="1366" 
d="M1044 0h-108l-242 813h-4l-239 -813h-109l-252 975h117l199 -811h4l229 811h100l242 -811h4l186 811h105z" />
    <glyph glyph-name="x" unicode="x" horiz-adv-x="843" 
d="M821 0h-135l-274 428l-269 -428h-120l327 522l-289 453h132l241 -373l234 373h118l-292 -467z" />
    <glyph glyph-name="y" unicode="y" horiz-adv-x="872" 
d="M385 -379h-102l129 389l-389 965h120l328 -807l272 807h109z" />
    <glyph glyph-name="z" unicode="z" horiz-adv-x="796" 
d="M741 0h-686v86l535 805h-496v84h645v-57l-546 -834h548v-84z" />
    <glyph glyph-name="braceleft" unicode="{" horiz-adv-x="567" 
d="M156 643q93 -29 140.5 -94t47.5 -201q0 -52 -5 -165.5t-5 -164.5q0 -96 45 -161t123 -72v-72q-80 4 -138.5 34t-90 80t-46 106t-14.5 122q0 31 4.5 142t1.5 180q-3 66 -17.5 111t-41.5 70t-57 36.5t-72 17.5v58q42 6 72 17.5t57 36.5t41.5 70t17.5 111q3 69 -1.5 180
t-4.5 142q0 66 14.5 122t46 106t90 80t138.5 34v-72q-78 -7 -123 -72t-45 -161q0 -51 5 -164.5t5 -165.5q0 -94 -24.5 -154.5t-62.5 -89t-101 -47.5z" />
    <glyph glyph-name="bar" unicode="|" horiz-adv-x="493" 
d="M303 -377h-113v2083h113v-2083z" />
    <glyph glyph-name="braceright" unicode="}" horiz-adv-x="567" 
d="M412 643q-47 14 -79 33t-58 52t-39 84t-13 122q0 52 5 165.5t5 164.5q0 96 -44.5 161t-122.5 72v72q65 -3 115.5 -24t82.5 -53.5t52.5 -76.5t29 -90t8.5 -98q0 -31 -4.5 -142t-1.5 -180q3 -66 18 -111t42 -70t56.5 -36.5t72.5 -17.5v-58q-43 -6 -72.5 -17.5t-56.5 -36.5
t-42 -70t-18 -111q-3 -69 1.5 -180t4.5 -142q0 -52 -8.5 -98t-29 -90t-52.5 -76.5t-82.5 -53.5t-115.5 -24v72q78 7 122.5 72t44.5 161q0 51 -5 164.5t-5 165.5q0 136 48 201t141 94z" />
    <glyph glyph-name="asciitilde" unicode="~" horiz-adv-x="1177" 
d="M946 600l68 -74q-98 -157 -238 -157q-108 0 -203 63q-107 64 -170 64q-48 0 -93.5 -34.5t-78.5 -92.5l-67 73q49 73 105.5 115.5t136.5 42.5q101 0 196 -63q103 -64 172 -64q97 0 172 127z" />
    <glyph glyph-name="uni00A0" unicode="&#xa0;" horiz-adv-x="493" 
 />
    <glyph glyph-name="exclamdown" unicode="&#xa1;" horiz-adv-x="532" 
d="M272 971h-163v164h163v-164zM264 -279h-147l22 1045h103z" />
    <glyph glyph-name="cent" unicode="&#xa2;" horiz-adv-x="872" 
d="M768 88v-80q-93 -26 -274 -22v-166h-82v186q-72 14 -129 51.5t-92 88.5t-58 116.5t-32 130.5t-9 135q0 85 16.5 160t52 142.5t100 112t151.5 54.5v150h82v-150q135 -14 210.5 -94t75.5 -215h-135q0 94 -33.5 153.5t-117.5 82.5v-850q60 -11 100 -11q85 0 174 25zM412 106
v816q-181 -40 -181 -371q0 -137 42.5 -261.5t138.5 -183.5z" />
    <glyph glyph-name="sterling" unicode="&#xa3;" horiz-adv-x="835" 
d="M811 0h-618v631h-130v90h130v321q0 167 77 244.5t244 77.5q140 0 224.5 -72.5t103.5 -210.5h-148q0 89 -51.5 141t-140.5 52q-47 0 -81.5 -15.5t-54 -39t-30.5 -60.5t-14 -70.5t-3 -78.5v-289h205v-90h-205v-533h492v-98z" />
    <glyph glyph-name="currency" unicode="&#xa4;" horiz-adv-x="1196" 
d="M965 279l-138 137q-100 -84 -239 -84q-136 0 -240 84l-137 -137l-74 77l137 131q-79 111 -79 238q0 144 79 238l-137 133l74 78l137 -138q110 82 240 82q60 0 125 -21t114 -61q20 21 43 44t51.5 51t43.5 43l73 -78l-137 -133q80 -105 80 -238q0 -128 -80 -238l137 -131z
M877 727q0 123 -87.5 205t-199.5 82q-124 0 -207.5 -85.5t-83.5 -201.5q0 -117 85.5 -203t203.5 -86t203.5 85t85.5 204z" />
    <glyph glyph-name="yen" unicode="&#xa5;" horiz-adv-x="987" 
d="M553 0h-127v373h-221v84h221v108h-221v84h221l-426 764h141l353 -643l360 643h133l-434 -764h221v-84h-221v-108h221v-84h-221v-373z" />
    <glyph glyph-name="brokenbar" unicode="&#xa6;" horiz-adv-x="493" 
d="M303 823h-113v736h113v-736zM303 -279h-113v736h113v-736z" />
    <glyph glyph-name="section" unicode="&#xa7;" horiz-adv-x="872" 
d="M147 16v154q70 -49 124.5 -73.5t121.5 -24.5q90 0 156.5 47t66.5 133q0 43 -23.5 76.5t-62 55t-88 42.5t-100.5 37.5t-100.5 42t-88 55t-62 76.5t-23.5 106q0 42 10.5 76.5t38 70t44 52.5t58.5 57q-45 29 -69.5 76.5t-24.5 102.5q0 80 47.5 140.5t117.5 89t148 28.5
q142 0 275 -47v-138q-136 95 -258 95q-48 0 -92.5 -14.5t-78.5 -49.5t-34 -84q0 -50 30.5 -87.5t79.5 -62t108.5 -46t118.5 -46t108 -54.5t79.5 -79.5t30.5 -113.5q0 -142 -164 -252q115 -77 115 -195q0 -74 -34.5 -131t-91.5 -89.5t-122 -48.5t-135 -16q-101 0 -226 39z
M281 961q-44 -47 -66 -91t-22 -100q0 -29 6 -52.5t20.5 -42.5t26.5 -31.5t38 -26.5t40.5 -21t46.5 -21q20 -9 94.5 -38.5t112.5 -49.5q40 28 71 84t31 105q0 51 -28.5 91.5t-77.5 68.5t-98 47.5t-107.5 40.5t-87.5 37z" />
    <glyph glyph-name="dieresis" unicode="&#xa8;" horiz-adv-x="616" 
d="M567 1167h-151v160h151v-160zM231 1167h-151v160h151v-160z" />
    <glyph glyph-name="copyright" unicode="&#xa9;" horiz-adv-x="1024" 
d="M993 954q0 -97 -38.5 -186t-103 -153.5t-153.5 -103t-186 -38.5q-131 0 -241.5 64.5t-175 175t-64.5 241.5q0 130 64.5 241t175.5 176t241 65t241 -65t175.5 -176t64.5 -241zM922 954q0 169 -120.5 289.5t-289.5 120.5t-289.5 -120.5t-120.5 -289.5t120.5 -289
t289.5 -120t289.5 120t120.5 289zM676 834l53 -66q-83 -80 -194 -80q-114 0 -196.5 80.5t-82.5 194.5q0 113 83 193.5t196 80.5q108 0 194 -80l-53 -67q-70 63 -141 63q-78 0 -134.5 -56t-56.5 -134t53.5 -134.5t130.5 -56.5q46 0 79.5 14.5t68.5 47.5z" />
    <glyph glyph-name="ordfeminine" unicode="&#xaa;" horiz-adv-x="532" 
d="M455 575h-80v66q-63 -72 -148 -72q-64 0 -107.5 41t-43.5 105q0 52 29.5 89t78.5 54.5t95.5 25t95.5 7.5v63q0 62 -21.5 95.5t-79.5 33.5q-52 0 -69.5 -23.5t-22.5 -78.5h-96q9 86 58 124t137 38q95 0 134.5 -48t39.5 -145v-375zM375 831q-213 0 -213 -108q0 -36 24 -58
t60 -22q49 0 79.5 31t40 70t9.5 87z" />
    <glyph glyph-name="guillemotleft" unicode="&#xab;" horiz-adv-x="645" 
d="M563 121h-96l-170 373l170 380h96l-117 -380zM326 121h-97l-172 373l172 380h97l-117 -380z" />
    <glyph glyph-name="logicalnot" unicode="&#xac;" horiz-adv-x="1177" 
d="M1055 272h-105v303h-827v103h932v-406z" />
    <glyph glyph-name="uni00AD" unicode="&#xad;" horiz-adv-x="796" 
d="M680 440h-563v115h563v-115z" />
    <glyph glyph-name="registered" unicode="&#xae;" horiz-adv-x="1024" 
d="M993 954q0 -97 -38.5 -186t-103 -153.5t-153.5 -103t-186 -38.5t-186 38.5t-153.5 103t-103 153.5t-38.5 186q0 130 64.5 241t175.5 176t241 65t241 -65t175.5 -176t64.5 -241zM922 954q0 169 -120.5 289.5t-289.5 120.5t-289.5 -120.5t-120.5 -289.5t120.5 -289
t289.5 -120t289.5 120t120.5 289zM713 713h-103l-80 205h-108v-205h-92v508h170q99 0 153 -35t54 -129q0 -49 -20.5 -75t-68.5 -50zM422 999h110q33 0 55.5 17t22.5 49q0 68 -86 68h-102v-134z" />
    <glyph glyph-name="macron" unicode="&#xaf;" horiz-adv-x="616" 
d="M543 1145h-471v108h471v-108z" />
    <glyph glyph-name="degree" unicode="&#xb0;" 
d="M412 881q-93 0 -158.5 66t-65.5 159q0 90 66 152.5t156 62.5q91 0 156 -64t65 -153q0 -91 -64.5 -157t-154.5 -66zM545 1106h2q0 55 -40 93t-95 38q-56 0 -98 -38t-42 -93q0 -57 40.5 -99t97.5 -42t96 42t39 99z" />
    <glyph glyph-name="plusminus" unicode="&#xb1;" horiz-adv-x="1177" 
d="M618 186h-112v435h-410v102h410v410h112v-410h410v-102h-410v-435zM1028 0h-932v102h932v-102z" />
    <glyph glyph-name="two.superior" unicode="&#xb2;" 
d="M596 829h-510v86q56 48 118.5 117t123 150.5t100 168.5t39.5 154q0 63 -36 103.5t-99 40.5q-65 0 -91.5 -38t-35.5 -108h-123q27 228 256 228q113 0 177.5 -66.5t64.5 -179.5q0 -53 -14.5 -107t-45 -106.5t-60.5 -96t-77.5 -94.5t-78 -81.5t-79.5 -77.5h371v-93z" />
    <glyph glyph-name="three.superior" unicode="&#xb3;" 
d="M279 1245v90q88 0 131 32.5t43 117.5q0 67 -37 115.5t-103 48.5q-104 0 -118 -123h-123q9 96 77 150.5t166 54.5q114 0 182 -63t68 -177q0 -69 -30 -121.5t-91 -77.5q67 -24 101.5 -83t34.5 -134q0 -124 -69.5 -191t-193.5 -67q-67 0 -123.5 21.5t-95.5 70.5t-39 117h123
q3 -127 133 -127q74 0 113 45t39 121q0 99 -44 139.5t-144 40.5z" />
    <glyph glyph-name="acute" unicode="&#xb4;" horiz-adv-x="616" 
d="M365 1145h-111l84 244h151z" />
    <glyph glyph-name="mu" unicode="&#xb5;" horiz-adv-x="1034" 
d="M952 -12q-24 -4 -34 -4q-54 0 -90 16t-54 48t-24.5 68t-6.5 89q-17 -100 -94 -164t-178 -64q-60 0 -102.5 20.5t-83.5 65.5v-501h-115v1413h113v-559q0 -52 3.5 -93t16.5 -89t34.5 -79.5t61.5 -53t95 -21.5q53 0 94 22t66.5 61t43 83t25.5 99.5t11 98.5t3 91v440h113
v-782q0 -25 2 -42t9.5 -35.5t23.5 -28t41 -9.5h26v-90z" />
    <glyph glyph-name="paragraph" unicode="&#xb6;" horiz-adv-x="987" 
d="M834 -438h-76v1775h-125v-1775h-76v895q-198 24 -325.5 147.5t-127.5 317.5q0 100 34.5 183t93 139t138 95t166.5 56.5t181 17.5h235v-76h-118v-1775z" />
    <glyph glyph-name="periodcentered" unicode="&#xb7;" horiz-adv-x="378" 
d="M276 561h-174v174h174v-174z" />
    <glyph glyph-name="cedilla" unicode="&#xb8;" horiz-adv-x="616" 
d="M236 -416v86q51 -41 108 -41q41 0 70.5 27.5t29.5 67.5q0 27 -11.5 46t-27 28.5t-42 14.5t-44 6t-45.5 1l35 213h74l-29 -156q87 -4 138 -35.5t51 -111.5q0 -79 -54.5 -123.5t-134.5 -44.5q-67 0 -118 22z" />
    <glyph glyph-name="one.superior" unicode="&#xb9;" 
d="M434 829h-106v756l-156 -110v112l178 121h84v-879z" />
    <glyph glyph-name="ordmasculine" unicode="&#xba;" horiz-adv-x="569" 
d="M285 565q-62 0 -108 24t-72 66.5t-38 93t-12 109.5q0 77 21.5 139t74.5 104t132 42q60 0 106.5 -25.5t72.5 -68.5t39 -93.5t13 -107.5q0 -124 -55.5 -203.5t-173.5 -79.5zM285 625q42 0 71 20.5t43.5 55t20.5 69.5t6 74q0 42 -5.5 79t-19.5 75.5t-45 61.5t-75 23
q-40 0 -69 -21t-43 -55.5t-20 -69t-6 -71.5q0 -241 142 -241z" />
    <glyph glyph-name="guillemotright" unicode="&#xbb;" horiz-adv-x="645" 
d="M416 121h-97l119 379l-119 374h97l172 -374zM178 121h-96l117 379l-117 374h96l172 -374z" />
    <glyph glyph-name="onequarter" unicode="&#xbc;" horiz-adv-x="1595" 
d="M1372 0h-106v256h-338v82l340 549h104v-539h148v-92h-148v-256zM571 0h-98l404 1298h96zM393 420h-106v756l-156 -111v113l178 120h84v-878zM1266 348v361h-4l-220 -361h224z" />
    <glyph glyph-name="onehalf" unicode="&#xbd;" horiz-adv-x="1595" 
d="M1464 0h-510v86q59 53 119.5 119t122 147.5t100.5 167.5t39 156q0 64 -36 103.5t-99 39.5t-90.5 -38t-36.5 -107h-123q27 227 256 227q113 0 177.5 -66.5t64.5 -179.5q0 -54 -14 -107.5t-46 -108t-59 -94t-78.5 -95t-76.5 -80.5t-80 -78h370v-92zM559 0h-100l405 1298h97
zM403 420h-106v756l-156 -111v113l178 120h84v-878z" />
    <glyph glyph-name="threequarters" unicode="&#xbe;" horiz-adv-x="1595" 
d="M1423 0h-106v256h-338v82l340 549h104v-539h148v-92h-148v-256zM670 0h-101l406 1298h96zM279 836v90q88 0 131 32t43 117q0 67 -37 115.5t-103 48.5q-104 0 -118 -123h-123q9 96 77 150.5t166 54.5q114 0 182 -63t68 -177q0 -69 -30 -121t-91 -77q67 -24 101.5 -83
t34.5 -134q0 -124 -69.5 -191t-193.5 -67q-67 0 -123.5 21.5t-95.5 70t-39 116.5h123q3 -127 133 -127q74 0 113 45t39 121q0 100 -44 140.5t-144 40.5zM1317 348v361h-4l-219 -361h223z" />
    <glyph glyph-name="questiondown" unicode="&#xbf;" horiz-adv-x="796" 
d="M549 971h-164v164h164v-164zM657 -111v-141q-130 -49 -256 -49q-99 0 -178 30t-130.5 100t-51.5 171q0 64 27.5 128.5t68.5 115.5t89.5 107t89.5 103t68.5 102.5t27.5 107.5v104h110v-150q0 -57 -12.5 -96.5t-30 -64t-61.5 -74.5q-42 -47 -96 -115q-7 -9 -40 -48.5
t-42 -53.5t-28 -46t-25.5 -61.5t-6.5 -64.5q0 -91 61.5 -144t153.5 -53q63 0 135.5 26t126.5 66z" />
    <glyph glyph-name="Agrave" unicode="&#xc0;" horiz-adv-x="1101" 
d="M1081 0h-127l-153 469h-527l-153 -469h-103l459 1413h146zM770 563l-229 719h-4l-232 -719h465zM637 1583h-111l-125 244h152z" />
    <glyph glyph-name="Aacute" unicode="&#xc1;" horiz-adv-x="1101" 
d="M1081 0h-127l-153 469h-527l-153 -469h-103l459 1413h146zM770 563l-229 719h-4l-232 -719h465zM608 1583h-110l84 244h151z" />
    <glyph glyph-name="Acircumflex" unicode="&#xc2;" horiz-adv-x="1101" 
d="M1081 0h-127l-153 469h-527l-153 -469h-103l459 1413h146zM770 563l-229 719h-4l-232 -719h465zM786 1583h-108l-121 154l-131 -154h-109l177 244h120z" />
    <glyph glyph-name="Atilde" unicode="&#xc3;" horiz-adv-x="1101" 
d="M1081 0h-127l-153 469h-527l-153 -469h-103l459 1413h146zM770 563l-229 719h-4l-232 -719h465zM707 1778h71q0 -199 -119 -199q-30 0 -76.5 23.5t-86.5 47t-54 23.5q-41 0 -47 -90h-71q0 30 5 62t17 66t36 55.5t56 21.5q40 0 117 -50t100 -50q20 0 32.5 16.5t16 35
t3.5 38.5z" />
    <glyph glyph-name="Adieresis" unicode="&#xc4;" horiz-adv-x="1101" 
d="M1081 0h-127l-153 469h-527l-153 -469h-103l459 1413h146zM770 563l-229 719h-4l-232 -719h465zM811 1606h-152v159h152v-159zM475 1606h-151v159h151v-159z" />
    <glyph glyph-name="Aring" unicode="&#xc5;" horiz-adv-x="1101" 
d="M1081 0h-127l-153 469h-527l-153 -469h-103l459 1413h146zM770 563l-229 719h-4l-232 -719h465zM541 1540q-67 0 -113.5 48.5t-46.5 115.5q0 66 47 114t113 48t113.5 -48t47.5 -114q0 -68 -47 -116t-114 -48zM541 1610q38 0 65 28t27 66t-27 65t-65 27t-64 -27t-26 -65
q0 -39 25.5 -66.5t64.5 -27.5z" />
    <glyph glyph-name="AE" unicode="&#xc6;" horiz-adv-x="1556" 
d="M1470 0h-573l-43 641h-371l-356 -641h-127l801 1413h653v-94h-524l43 -584h454v-94h-450l41 -543h452v-98zM850 735l-37 516h-4l-274 -516h315z" />
    <glyph glyph-name="Ccedilla" unicode="&#xc7;" horiz-adv-x="1062" 
d="M459 -416v86q48 -41 108 -41q41 0 71 27.5t30 67.5q0 27 -11.5 46t-27 28.5t-42 14.5t-44 6t-45.5 1l28 170q-99 21 -175 78t-121.5 131.5t-75 170.5t-40 185t-10.5 186q0 102 14.5 196.5t51 187t91.5 160t143.5 109.5t199.5 42q182 0 305 -112.5t123 -293.5h-155
q0 137 -71.5 224t-205.5 87q-72 0 -130 -26.5t-95.5 -73.5t-64.5 -103.5t-40.5 -125.5t-19.5 -129.5t-6 -124.5q0 -73 7 -144.5t23.5 -152t47.5 -147.5t75 -123t111.5 -87.5t150.5 -31.5q93 0 165 32.5t153 100.5v-133q-157 -109 -381 -92l-18 -103q188 -4 188 -147
q0 -79 -54 -123.5t-134 -44.5q-68 0 -119 22z" />
    <glyph glyph-name="Egrave" unicode="&#xc8;" horiz-adv-x="911" 
d="M825 0h-645v1413h627v-94h-500v-533h475v-94h-475v-594h518v-98zM541 1583h-111l-125 244h152z" />
    <glyph glyph-name="Eacute" unicode="&#xc9;" horiz-adv-x="911" 
d="M825 0h-645v1413h627v-94h-500v-533h475v-94h-475v-594h518v-98zM512 1583h-111l84 244h152z" />
    <glyph glyph-name="Ecircumflex" unicode="&#xca;" horiz-adv-x="911" 
d="M825 0h-645v1413h627v-94h-500v-533h475v-94h-475v-594h518v-98zM721 1583h-109l-120 154l-132 -154h-108l176 244h121z" />
    <glyph glyph-name="Edieresis" unicode="&#xcb;" horiz-adv-x="911" 
d="M825 0h-645v1413h627v-94h-500v-533h475v-94h-475v-594h518v-98zM715 1606h-152v159h152v-159zM379 1606h-152v159h152v-159z" />
    <glyph glyph-name="Igrave" unicode="&#xcc;" horiz-adv-x="493" 
d="M309 0h-127v1413h127v-1413zM332 1583h-111l-125 244h152z" />
    <glyph glyph-name="Iacute" unicode="&#xcd;" horiz-adv-x="493" 
d="M309 0h-127v1413h127v-1413zM303 1583h-110l83 244h152z" />
    <glyph glyph-name="Icircumflex" unicode="&#xce;" horiz-adv-x="493" 
d="M309 0h-127v1413h127v-1413zM461 1583h-109l-121 154l-131 -154h-108l176 244h121z" />
    <glyph glyph-name="Idieresis" unicode="&#xcf;" horiz-adv-x="493" 
d="M309 0h-127v1413h127v-1413zM475 1606h-151v159h151v-159zM139 1606h-151v159h151v-159z" />
    <glyph glyph-name="Eth" unicode="&#xd0;" horiz-adv-x="1175" 
d="M434 0h-254v698h-180v95h180v620h254q178 0 302 -45.5t197 -138.5t105.5 -219.5t32.5 -302.5q0 -141 -19.5 -249.5t-64.5 -196.5t-118 -144.5t-181.5 -86.5t-253.5 -30zM307 98h103q125 0 217 27t150 75.5t93 126.5t48.5 168t13.5 212q0 125 -12.5 215t-46.5 168.5
t-92.5 126.5t-150.5 75t-220 27h-103v-526h324v-95h-324v-600z" />
    <glyph glyph-name="Ntilde" unicode="&#xd1;" horiz-adv-x="1253" 
d="M1073 0h-168l-604 1257h-4v-1257h-117v1413h158l614 -1268h4v1268h117v-1413zM782 1778h72q0 -199 -119 -199q-30 0 -76.5 23.5t-86.5 47t-54 23.5q-41 0 -47 -90h-72q0 30 5.5 62t17.5 66t36 55.5t56 21.5q40 0 117 -50t100 -50q20 0 32 16.5t15.5 35t3.5 38.5z" />
    <glyph glyph-name="Ograve" unicode="&#xd2;" horiz-adv-x="1177" 
d="M592 -23q-85 0 -155.5 24t-120 64t-87.5 98t-61.5 121t-38 138t-20 143.5t-5.5 143.5q0 87 8.5 166.5t28.5 164.5t57 154t89 124.5t130 86.5t175 31q82 0 150.5 -24t117 -64.5t86.5 -98.5t61 -121t38 -137.5t20.5 -142t5.5 -139.5q0 -77 -4.5 -144.5t-18 -143.5t-35 -138
t-58.5 -120.5t-86 -98t-119.5 -63.5t-157.5 -24zM596 72q336 0 336 628q0 53 -3.5 106t-13 118t-25 122t-42.5 112.5t-62.5 95t-86.5 63.5t-113 24q-64 0 -116 -24t-87 -62.5t-61 -94.5t-40.5 -111.5t-23.5 -122.5t-11.5 -118.5t-2.5 -107.5q0 -53 3.5 -106t14 -116.5
t26.5 -119.5t44 -109.5t63.5 -91.5t87 -61.5t113.5 -23.5zM674 1583h-111l-125 244h152z" />
    <glyph glyph-name="Oacute" unicode="&#xd3;" horiz-adv-x="1177" 
d="M592 -23q-85 0 -155.5 24t-120 64t-87.5 98t-61.5 121t-38 138t-20 143.5t-5.5 143.5q0 87 8.5 166.5t28.5 164.5t57 154t89 124.5t130 86.5t175 31q82 0 150.5 -24t117 -64.5t86.5 -98.5t61 -121t38 -137.5t20.5 -142t5.5 -139.5q0 -77 -4.5 -144.5t-18 -143.5t-35 -138
t-58.5 -120.5t-86 -98t-119.5 -63.5t-157.5 -24zM596 72q336 0 336 628q0 53 -3.5 106t-13 118t-25 122t-42.5 112.5t-62.5 95t-86.5 63.5t-113 24q-64 0 -116 -24t-87 -62.5t-61 -94.5t-40.5 -111.5t-23.5 -122.5t-11.5 -118.5t-2.5 -107.5q0 -53 3.5 -106t14 -116.5
t26.5 -119.5t44 -109.5t63.5 -91.5t87 -61.5t113.5 -23.5zM645 1583h-110l83 244h152z" />
    <glyph glyph-name="Ocircumflex" unicode="&#xd4;" horiz-adv-x="1177" 
d="M592 -23q-85 0 -155.5 24t-120 64t-87.5 98t-61.5 121t-38 138t-20 143.5t-5.5 143.5q0 87 8.5 166.5t28.5 164.5t57 154t89 124.5t130 86.5t175 31q82 0 150.5 -24t117 -64.5t86.5 -98.5t61 -121t38 -137.5t20.5 -142t5.5 -139.5q0 -77 -4.5 -144.5t-18 -143.5t-35 -138
t-58.5 -120.5t-86 -98t-119.5 -63.5t-157.5 -24zM596 72q336 0 336 628q0 53 -3.5 106t-13 118t-25 122t-42.5 112.5t-62.5 95t-86.5 63.5t-113 24q-64 0 -116 -24t-87 -62.5t-61 -94.5t-40.5 -111.5t-23.5 -122.5t-11.5 -118.5t-2.5 -107.5q0 -53 3.5 -106t14 -116.5
t26.5 -119.5t44 -109.5t63.5 -91.5t87 -61.5t113.5 -23.5zM823 1583h-108l-121 154l-131 -154h-109l176 244h121z" />
    <glyph glyph-name="Otilde" unicode="&#xd5;" horiz-adv-x="1177" 
d="M592 -23q-85 0 -155.5 24t-120 64t-87.5 98t-61.5 121t-38 138t-20 143.5t-5.5 143.5q0 87 8.5 166.5t28.5 164.5t57 154t89 124.5t130 86.5t175 31q82 0 150.5 -24t117 -64.5t86.5 -98.5t61 -121t38 -137.5t20.5 -142t5.5 -139.5q0 -77 -4.5 -144.5t-18 -143.5t-35 -138
t-58.5 -120.5t-86 -98t-119.5 -63.5t-157.5 -24zM596 72q336 0 336 628q0 53 -3.5 106t-13 118t-25 122t-42.5 112.5t-62.5 95t-86.5 63.5t-113 24q-64 0 -116 -24t-87 -62.5t-61 -94.5t-40.5 -111.5t-23.5 -122.5t-11.5 -118.5t-2.5 -107.5q0 -53 3.5 -106t14 -116.5
t26.5 -119.5t44 -109.5t63.5 -91.5t87 -61.5t113.5 -23.5zM743 1778h72q0 -199 -119 -199q-30 0 -76.5 23.5t-86.5 47t-54 23.5q-41 0 -47 -90h-72q0 30 5.5 62t17.5 66t36 55.5t56 21.5q40 0 117 -50t100 -50q20 0 32 16.5t15.5 35t3.5 38.5z" />
    <glyph glyph-name="Odieresis" unicode="&#xd6;" horiz-adv-x="1177" 
d="M592 -23q-85 0 -155.5 24t-120 64t-87.5 98t-61.5 121t-38 138t-20 143.5t-5.5 143.5q0 87 8.5 166.5t28.5 164.5t57 154t89 124.5t130 86.5t175 31q82 0 150.5 -24t117 -64.5t86.5 -98.5t61 -121t38 -137.5t20.5 -142t5.5 -139.5q0 -77 -4.5 -144.5t-18 -143.5t-35 -138
t-58.5 -120.5t-86 -98t-119.5 -63.5t-157.5 -24zM596 72q336 0 336 628q0 53 -3.5 106t-13 118t-25 122t-42.5 112.5t-62.5 95t-86.5 63.5t-113 24q-64 0 -116 -24t-87 -62.5t-61 -94.5t-40.5 -111.5t-23.5 -122.5t-11.5 -118.5t-2.5 -107.5q0 -53 3.5 -106t14 -116.5
t26.5 -119.5t44 -109.5t63.5 -91.5t87 -61.5t113.5 -23.5zM848 1606h-152v159h152v-159zM512 1606h-152v159h152v-159z" />
    <glyph glyph-name="multiply" unicode="&#xd7;" horiz-adv-x="1177" 
d="M1059 78l-86 -84l-393 399l-390 -399l-71 76l389 397l-387 395l86 92l383 -399l383 399l74 -77l-385 -398z" />
    <glyph glyph-name="Oslash" unicode="&#xd8;" horiz-adv-x="1177" 
d="M186 -76l-75 41l112 203q-119 141 -119 534q0 72 6 140.5t21 143t39 138.5t62.5 122.5t87.5 99.5t118 65.5t152 24.5q72 0 147 -20.5t121 -61.5l84 137l72 -47l-88 -156q55 -62 89.5 -164t46 -195t11.5 -190q0 -77 -5 -146.5t-19.5 -148.5t-37 -144t-61 -126.5
t-88.5 -103.5t-121.5 -67.5t-158.5 -25.5q-179 0 -306 115zM289 295l518 954q-110 92 -219 92q-77 0 -144 -45q-200 -134 -200 -596q0 -99 11 -227t34 -178zM864 1167l-524 -960q61 -70 112.5 -102.5t129.5 -32.5q63 0 115.5 24t88 62.5t63 93.5t43 111t25.5 121.5
t13.5 118.5t3.5 108q0 150 -12.5 250t-57.5 206z" />
    <glyph glyph-name="Ugrave" unicode="&#xd9;" horiz-adv-x="1214" 
d="M920 508v905h127v-944q0 -147 -46.5 -255.5t-148.5 -172.5t-250 -64q-220 0 -326 133t-106 359v944h127v-905q0 -72 7 -130t27 -117.5t53.5 -99t91 -64.5t134.5 -25q76 0 133 25t90.5 65t53.5 99.5t26.5 117t6.5 129.5zM692 1583h-110l-125 244h151z" />
    <glyph glyph-name="Uacute" unicode="&#xda;" horiz-adv-x="1214" 
d="M920 508v905h127v-944q0 -147 -46.5 -255.5t-148.5 -172.5t-250 -64q-220 0 -326 133t-106 359v944h127v-905q0 -72 7 -130t27 -117.5t53.5 -99t91 -64.5t134.5 -25q76 0 133 25t90.5 65t53.5 99.5t26.5 117t6.5 129.5zM664 1583h-111l84 244h151z" />
    <glyph glyph-name="Ucircumflex" unicode="&#xdb;" horiz-adv-x="1214" 
d="M920 508v905h127v-944q0 -147 -46.5 -255.5t-148.5 -172.5t-250 -64q-220 0 -326 133t-106 359v944h127v-905q0 -72 7 -130t27 -117.5t53.5 -99t91 -64.5t134.5 -25q76 0 133 25t90.5 65t53.5 99.5t26.5 117t6.5 129.5zM842 1583h-109l-121 154l-131 -154h-108l176 244
h121z" />
    <glyph glyph-name="Udieresis" unicode="&#xdc;" horiz-adv-x="1214" 
d="M920 508v905h127v-944q0 -147 -46.5 -255.5t-148.5 -172.5t-250 -64q-220 0 -326 133t-106 359v944h127v-905q0 -72 7 -130t27 -117.5t53.5 -99t91 -64.5t134.5 -25q76 0 133 25t90.5 65t53.5 99.5t26.5 117t6.5 129.5zM866 1606h-151v159h151v-159zM530 1606h-151v159
h151v-159z" />
    <glyph glyph-name="Yacute" unicode="&#xdd;" horiz-adv-x="987" 
d="M551 0h-127v649l-424 764h141l353 -643l360 643h133l-436 -764v-649zM551 1583h-111l84 244h152z" />
    <glyph glyph-name="Thorn" unicode="&#xde;" horiz-adv-x="987" 
d="M307 0h-127v1413h127v-285h221q203 0 307.5 -95t104.5 -296q0 -207 -101.5 -296t-310.5 -89h-221v-352zM307 446h150q88 0 146 11t105.5 41t70 88t22.5 147q0 88 -22.5 147.5t-68.5 92.5t-106.5 47t-146.5 14h-150v-588z" />
    <glyph glyph-name="germandbls" unicode="&#xdf;" horiz-adv-x="1026" 
d="M397 4v92q90 -24 140 -24q270 0 270 325q0 314 -277 314h-43v96h43q24 0 64 20q64 36 97.5 102t33.5 144q0 116 -63 199.5t-175 83.5q-204 0 -204 -332v-1024h-113v1075q0 86 14 145t60 109q46 51 116 79t142 28q156 0 252 -99.5t96 -255.5q0 -112 -57 -197.5
t-162 -113.5v-4q301 -32 301 -371q0 -188 -99.5 -295.5t-285.5 -107.5q-76 0 -150 12z" />
    <glyph glyph-name="agrave" unicode="&#xe0;" horiz-adv-x="911" 
d="M741 0h-112v152h-4q-33 -75 -114.5 -125t-166.5 -50q-108 0 -184 70.5t-76 177.5q0 65 25.5 117.5t70.5 86t98.5 57t118 35.5t119.5 17t113 5v65v51.5t-2 49t-5.5 48.5t-10 43t-16.5 40t-25 31t-34.5 26t-46 15t-59.5 6q-91 0 -135 -44.5t-47 -136.5h-142q34 260 336 260
q165 0 232 -83t67 -252v-662zM629 408v55q-420 0 -420 -223q0 -72 49 -116t121 -44q63 0 113 29.5t78.5 78t43.5 105t15 115.5zM541 1145h-111l-125 244h152z" />
    <glyph glyph-name="aacute" unicode="&#xe1;" horiz-adv-x="911" 
d="M741 0h-112v152h-4q-33 -75 -114.5 -125t-166.5 -50q-108 0 -184 70.5t-76 177.5q0 65 25.5 117.5t70.5 86t98.5 57t118 35.5t119.5 17t113 5v65v51.5t-2 49t-5.5 48.5t-10 43t-16.5 40t-25 31t-34.5 26t-46 15t-59.5 6q-91 0 -135 -44.5t-47 -136.5h-142q34 260 336 260
q165 0 232 -83t67 -252v-662zM629 408v55q-420 0 -420 -223q0 -72 49 -116t121 -44q63 0 113 29.5t78.5 78t43.5 105t15 115.5zM512 1145h-111l84 244h152z" />
    <glyph glyph-name="acircumflex" unicode="&#xe2;" horiz-adv-x="911" 
d="M741 0h-112v152h-4q-33 -75 -114.5 -125t-166.5 -50q-108 0 -184 70.5t-76 177.5q0 65 25.5 117.5t70.5 86t98.5 57t118 35.5t119.5 17t113 5v65v51.5t-2 49t-5.5 48.5t-10 43t-16.5 40t-25 31t-34.5 26t-46 15t-59.5 6q-91 0 -135 -44.5t-47 -136.5h-142q34 260 336 260
q165 0 232 -83t67 -252v-662zM629 408v55q-420 0 -420 -223q0 -72 49 -116t121 -44q63 0 113 29.5t78.5 78t43.5 105t15 115.5zM690 1145h-108l-121 153l-131 -153h-109l176 244h121z" />
    <glyph glyph-name="atilde" unicode="&#xe3;" horiz-adv-x="911" 
d="M741 0h-112v152h-4q-33 -75 -114.5 -125t-166.5 -50q-108 0 -184 70.5t-76 177.5q0 65 25.5 117.5t70.5 86t98.5 57t118 35.5t119.5 17t113 5v65v51.5t-2 49t-5.5 48.5t-10 43t-16.5 40t-25 31t-34.5 26t-46 15t-59.5 6q-91 0 -135 -44.5t-47 -136.5h-142q34 260 336 260
q165 0 232 -83t67 -252v-662zM629 408v55q-420 0 -420 -223q0 -72 49 -116t121 -44q63 0 113 29.5t78.5 78t43.5 105t15 115.5zM610 1339h72q0 -198 -119 -198q-30 0 -76.5 23.5t-86.5 47t-54 23.5q-41 0 -47 -90h-72q0 30 5.5 62t17.5 66t36 55.5t56 21.5q40 0 117 -50.5
t100 -50.5q20 0 32 16.5t15.5 35t3.5 38.5z" />
    <glyph glyph-name="adieresis" unicode="&#xe4;" horiz-adv-x="911" 
d="M741 0h-112v152h-4q-33 -75 -114.5 -125t-166.5 -50q-108 0 -184 70.5t-76 177.5q0 65 25.5 117.5t70.5 86t98.5 57t118 35.5t119.5 17t113 5v65v51.5t-2 49t-5.5 48.5t-10 43t-16.5 40t-25 31t-34.5 26t-46 15t-59.5 6q-91 0 -135 -44.5t-47 -136.5h-142q34 260 336 260
q165 0 232 -83t67 -252v-662zM629 408v55q-420 0 -420 -223q0 -72 49 -116t121 -44q63 0 113 29.5t78.5 78t43.5 105t15 115.5zM715 1167h-152v160h152v-160zM379 1167h-152v160h152v-160z" />
    <glyph glyph-name="aring" unicode="&#xe5;" horiz-adv-x="911" 
d="M741 0h-112v152h-4q-33 -75 -114.5 -125t-166.5 -50q-108 0 -184 70.5t-76 177.5q0 65 25.5 117.5t70.5 86t98.5 57t118 35.5t119.5 17t113 5v65v51.5t-2 49t-5.5 48.5t-10 43t-16.5 40t-25 31t-34.5 26t-46 15t-59.5 6q-91 0 -135 -44.5t-47 -136.5h-142q34 260 336 260
q165 0 232 -83t67 -252v-662zM629 408v55q-420 0 -420 -223q0 -72 49 -116t121 -44q63 0 113 29.5t78.5 78t43.5 105t15 115.5zM424 1102q-67 0 -113.5 48.5t-46.5 115.5q0 66 47 113.5t113 47.5t114 -47.5t48 -113.5q0 -68 -47.5 -116t-114.5 -48zM424 1171q38 0 65 28
t27 67q0 38 -27 65t-65 27t-64 -27t-26 -65q0 -39 25.5 -67t64.5 -28z" />
    <glyph glyph-name="ae" unicode="&#xe6;" horiz-adv-x="1445" 
d="M1331 88v-88q-98 -23 -207 -23q-133 0 -247 64t-166 180q-35 -111 -130 -177.5t-212 -66.5q-126 0 -205.5 72t-79.5 197q0 319 569 319v121q0 108 -48.5 170t-153.5 62q-76 0 -139.5 -45t-67.5 -117h-142q5 35 31 86q48 80 133 117.5t187 37.5q195 0 260 -157
q130 157 307 157q109 0 187 -53.5t114.5 -139t36.5 -192.5v-127h-592q0 -64 31 -141q48 -128 143 -205.5t225 -77.5q94 0 166 27zM1233 565v13q0 54 -3 94t-15 89.5t-33.5 81t-62 53.5t-97.5 22q-70 0 -122 -31.5t-80 -84.5t-41 -112t-13 -125h467zM653 406v79h-53
q-391 0 -391 -227q0 -82 57 -130t140 -48q73 0 123.5 26t76.5 73.5t36.5 102t10.5 124.5z" />
    <glyph glyph-name="ccedilla" unicode="&#xe7;" horiz-adv-x="835" 
d="M346 -416v86q51 -41 109 -41q41 0 70.5 27.5t29.5 67.5q0 27 -11.5 46t-27 28.5t-42 14.5t-44 6t-45.5 1l29 174q-322 75 -322 516q0 78 10.5 145.5t37.5 131.5t68 109.5t106.5 73t148.5 27.5q145 0 228 -83t83 -228h-141q0 112 -38.5 172t-143.5 60q-71 0 -120.5 -37
t-72.5 -99.5t-32 -122t-9 -127.5q0 -72 13 -138.5t42 -127.5t71.5 -106.5t106 -72t140.5 -26.5q79 0 147 23v-84q-82 -23 -178 -23q-9 0 -76 5l-18 -105q40 -2 71 -9t59 -22.5t43 -45t15 -70.5q0 -79 -54 -123.5t-134 -44.5q-68 0 -119 22z" />
    <glyph glyph-name="egrave" unicode="&#xe8;" horiz-adv-x="882" 
d="M776 86v-86q-98 -23 -205 -23q-246 0 -361.5 141.5t-115.5 393.5q0 80 11 148.5t38 132t68.5 107.5t108 70.5t151.5 26.5t148.5 -30.5t101 -85t56 -123t18.5 -150.5h-576q0 -78 10.5 -149t34.5 -144t72 -131.5t115 -89.5q67 -33 149 -33q105 0 176 25zM227 688h443
q0 106 -55 168t-160 62q-104 0 -162 -62.5t-66 -167.5zM526 1145h-110l-125 244h151z" />
    <glyph glyph-name="eacute" unicode="&#xe9;" horiz-adv-x="882" 
d="M776 86v-86q-98 -23 -205 -23q-246 0 -361.5 141.5t-115.5 393.5q0 80 11 148.5t38 132t68.5 107.5t108 70.5t151.5 26.5t148.5 -30.5t101 -85t56 -123t18.5 -150.5h-576q0 -78 10.5 -149t34.5 -144t72 -131.5t115 -89.5q67 -33 149 -33q105 0 176 25zM227 688h443
q0 106 -55 168t-160 62q-104 0 -162 -62.5t-66 -167.5zM498 1145h-111l84 244h152z" />
    <glyph glyph-name="ecircumflex" unicode="&#xea;" horiz-adv-x="882" 
d="M776 86v-86q-98 -23 -205 -23q-246 0 -361.5 141.5t-115.5 393.5q0 80 11 148.5t38 132t68.5 107.5t108 70.5t151.5 26.5t148.5 -30.5t101 -85t56 -123t18.5 -150.5h-576q0 -78 10.5 -149t34.5 -144t72 -131.5t115 -89.5q67 -33 149 -33q105 0 176 25zM227 688h443
q0 106 -55 168t-160 62q-104 0 -162 -62.5t-66 -167.5zM676 1145h-109l-121 153l-131 -153h-108l176 244h121z" />
    <glyph glyph-name="edieresis" unicode="&#xeb;" horiz-adv-x="882" 
d="M776 86v-86q-98 -23 -205 -23q-246 0 -361.5 141.5t-115.5 393.5q0 80 11 148.5t38 132t68.5 107.5t108 70.5t151.5 26.5t148.5 -30.5t101 -85t56 -123t18.5 -150.5h-576q0 -78 10.5 -149t34.5 -144t72 -131.5t115 -89.5q67 -33 149 -33q105 0 176 25zM227 688h443
q0 106 -55 168t-160 62q-104 0 -162 -62.5t-66 -167.5zM700 1167h-151v160h151v-160zM365 1167h-152v160h152v-160z" />
    <glyph glyph-name="igrave" unicode="&#xec;" horiz-adv-x="454" 
d="M285 0h-113v975h113v-975zM313 1145h-110l-125 244h151z" />
    <glyph glyph-name="iacute" unicode="&#xed;" horiz-adv-x="454" 
d="M285 0h-113v975h113v-975zM285 1145h-111l84 244h152z" />
    <glyph glyph-name="icircumflex" unicode="&#xee;" horiz-adv-x="454" 
d="M285 0h-113v975h113v-975zM442 1145h-108l-121 153l-131 -153h-109l177 244h120z" />
    <glyph glyph-name="idieresis" unicode="&#xef;" horiz-adv-x="454" 
d="M285 0h-113v975h113v-975zM467 1167h-152v160h152v-160zM131 1167h-151v160h151v-160z" />
    <glyph glyph-name="eth" unicode="&#xf0;" horiz-adv-x="987" 
d="M674 911l4 4q-51 76 -95 129t-98 93l-170 -76l-32 76l125 53q-117 76 -209 104v6h225q54 -31 88 -63l164 74l33 -78l-117 -53q301 -263 301 -707q0 -101 -21.5 -187t-66.5 -157t-124 -111.5t-185 -40.5q-87 0 -157 29t-115 77.5t-75 116t-42.5 140.5t-12.5 154
q0 91 21 176.5t63 160.5t117 120.5t172 45.5q118 0 207 -86zM496 57q79 0 135 39.5t84.5 105t40.5 132.5t12 141q0 60 -6.5 116.5t-26 117.5t-49.5 106t-81.5 74t-117.5 29q-62 0 -110.5 -26.5t-77.5 -68t-47.5 -97.5t-25.5 -109t-7 -109q0 -51 4 -98t14.5 -100.5t31 -96.5
t49.5 -79.5t75 -56.5t103 -20z" />
    <glyph glyph-name="ntilde" unicode="&#xf1;" horiz-adv-x="1026" 
d="M856 0h-113v651q0 40 -2 68.5t-11 64.5t-24.5 58t-45 37.5t-70.5 15.5q-85 0 -158.5 -83t-111 -186.5t-37.5 -185.5v-440h-113v975h113v-266h4q42 120 125.5 204t197.5 84q72 0 122 -25t76 -71t37 -99t11 -122v-680zM647 1339h72q0 -198 -119 -198q-30 0 -76.5 23.5
t-86.5 47t-54 23.5q-41 0 -47 -90h-72q0 30 5.5 62t17.5 66t36 55.5t56 21.5q40 0 117 -50.5t100 -50.5q20 0 32 16.5t15.5 35t3.5 38.5z" />
    <glyph glyph-name="ograve" unicode="&#xf2;" horiz-adv-x="987" 
d="M496 -23q-89 0 -159 28.5t-115 77t-74.5 116t-41.5 140t-12 155.5q0 78 13 148.5t42.5 136t74 113.5t112 76.5t151.5 28.5q89 0 159.5 -29t116.5 -78t76 -117.5t43 -142t13 -155.5q0 -80 -13 -151t-43.5 -135.5t-75.5 -111t-113.5 -73.5t-153.5 -27zM494 57
q66 0 116.5 25.5t80 66t48 96.5t25 109.5t6.5 114.5q0 63 -6 119.5t-24.5 119t-48 107t-82.5 74t-122 29.5q-62 0 -110.5 -26t-77.5 -66.5t-47.5 -96t-25.5 -108t-7 -109.5q0 -62 5.5 -118t23.5 -120t47 -110t80 -76.5t119 -30.5zM580 1145h-111l-125 244h152z" />
    <glyph glyph-name="oacute" unicode="&#xf3;" horiz-adv-x="987" 
d="M496 -23q-89 0 -159 28.5t-115 77t-74.5 116t-41.5 140t-12 155.5q0 78 13 148.5t42.5 136t74 113.5t112 76.5t151.5 28.5q89 0 159.5 -29t116.5 -78t76 -117.5t43 -142t13 -155.5q0 -80 -13 -151t-43.5 -135.5t-75.5 -111t-113.5 -73.5t-153.5 -27zM494 57
q66 0 116.5 25.5t80 66t48 96.5t25 109.5t6.5 114.5q0 63 -6 119.5t-24.5 119t-48 107t-82.5 74t-122 29.5q-62 0 -110.5 -26t-77.5 -66.5t-47.5 -96t-25.5 -108t-7 -109.5q0 -62 5.5 -118t23.5 -120t47 -110t80 -76.5t119 -30.5zM551 1145h-111l84 244h152z" />
    <glyph glyph-name="ocircumflex" unicode="&#xf4;" horiz-adv-x="987" 
d="M496 -23q-89 0 -159 28.5t-115 77t-74.5 116t-41.5 140t-12 155.5q0 78 13 148.5t42.5 136t74 113.5t112 76.5t151.5 28.5q89 0 159.5 -29t116.5 -78t76 -117.5t43 -142t13 -155.5q0 -80 -13 -151t-43.5 -135.5t-75.5 -111t-113.5 -73.5t-153.5 -27zM494 57
q66 0 116.5 25.5t80 66t48 96.5t25 109.5t6.5 114.5q0 63 -6 119.5t-24.5 119t-48 107t-82.5 74t-122 29.5q-62 0 -110.5 -26t-77.5 -66.5t-47.5 -96t-25.5 -108t-7 -109.5q0 -62 5.5 -118t23.5 -120t47 -110t80 -76.5t119 -30.5zM729 1145h-108l-121 153l-131 -153h-109
l176 244h121z" />
    <glyph glyph-name="otilde" unicode="&#xf5;" horiz-adv-x="987" 
d="M496 -23q-89 0 -159 28.5t-115 77t-74.5 116t-41.5 140t-12 155.5q0 78 13 148.5t42.5 136t74 113.5t112 76.5t151.5 28.5q89 0 159.5 -29t116.5 -78t76 -117.5t43 -142t13 -155.5q0 -80 -13 -151t-43.5 -135.5t-75.5 -111t-113.5 -73.5t-153.5 -27zM494 57
q66 0 116.5 25.5t80 66t48 96.5t25 109.5t6.5 114.5q0 63 -6 119.5t-24.5 119t-48 107t-82.5 74t-122 29.5q-62 0 -110.5 -26t-77.5 -66.5t-47.5 -96t-25.5 -108t-7 -109.5q0 -62 5.5 -118t23.5 -120t47 -110t80 -76.5t119 -30.5zM649 1339h72q0 -198 -119 -198
q-30 0 -76.5 23.5t-86.5 47t-54 23.5q-41 0 -47 -90h-72q0 30 5.5 62t17.5 66t36 55.5t56 21.5q40 0 117 -50.5t100 -50.5q20 0 32 16.5t15.5 35t3.5 38.5z" />
    <glyph glyph-name="odieresis" unicode="&#xf6;" horiz-adv-x="987" 
d="M496 -23q-89 0 -159 28.5t-115 77t-74.5 116t-41.5 140t-12 155.5q0 78 13 148.5t42.5 136t74 113.5t112 76.5t151.5 28.5q89 0 159.5 -29t116.5 -78t76 -117.5t43 -142t13 -155.5q0 -80 -13 -151t-43.5 -135.5t-75.5 -111t-113.5 -73.5t-153.5 -27zM494 57
q66 0 116.5 25.5t80 66t48 96.5t25 109.5t6.5 114.5q0 63 -6 119.5t-24.5 119t-48 107t-82.5 74t-122 29.5q-62 0 -110.5 -26t-77.5 -66.5t-47.5 -96t-25.5 -108t-7 -109.5q0 -62 5.5 -118t23.5 -120t47 -110t80 -76.5t119 -30.5zM754 1167h-152v160h152v-160zM418 1167
h-152v160h152v-160z" />
    <glyph glyph-name="divide" unicode="&#xf7;" horiz-adv-x="1177" 
d="M643 805h-162v162h162v-162zM1028 432h-932v103h932v-103zM643 0h-162v162h162v-162z" />
    <glyph glyph-name="oslash" unicode="&#xf8;" horiz-adv-x="987" 
d="M186 -96l-67 33l94 159q-66 83 -93.5 172.5t-27.5 202.5q0 80 12 153t41 142.5t73.5 119.5t113 80.5t155.5 30.5q49 0 104.5 -12.5t86.5 -36.5l72 125l61 -35l-72 -127q81 -61 118.5 -176.5t37.5 -236.5q0 -80 -13.5 -153t-44 -141t-76 -117.5t-114.5 -79.5t-155 -30
q-105 0 -226 72zM264 193l377 688q-70 37 -152 37q-62 0 -111 -28t-78.5 -71t-49 -101t-26.5 -112.5t-7 -111.5q0 -193 47 -301zM692 825l-379 -698q79 -70 172 -70q81 0 139.5 41.5t88.5 110t43.5 139t13.5 146.5q0 225 -78 331z" />
    <glyph glyph-name="ugrave" unicode="&#xf9;" horiz-adv-x="1026" 
d="M850 0h-113v242h-4q-16 -53 -40.5 -98t-58.5 -84t-82 -61t-103 -22q-147 0 -217 84.5t-70 233.5v680h112v-653q0 -43 8 -82.5t25.5 -77t51 -60t79.5 -22.5q63 0 115 30.5t85 78.5t56.5 110t33 121t9.5 115v440h113v-975zM598 1145h-111l-125 244h152z" />
    <glyph glyph-name="uacute" unicode="&#xfa;" horiz-adv-x="1026" 
d="M850 0h-113v242h-4q-16 -53 -40.5 -98t-58.5 -84t-82 -61t-103 -22q-147 0 -217 84.5t-70 233.5v680h112v-653q0 -43 8 -82.5t25.5 -77t51 -60t79.5 -22.5q63 0 115 30.5t85 78.5t56.5 110t33 121t9.5 115v440h113v-975zM569 1145h-110l84 244h151z" />
    <glyph glyph-name="ucircumflex" unicode="&#xfb;" horiz-adv-x="1026" 
d="M850 0h-113v242h-4q-16 -53 -40.5 -98t-58.5 -84t-82 -61t-103 -22q-147 0 -217 84.5t-70 233.5v680h112v-653q0 -43 8 -82.5t25.5 -77t51 -60t79.5 -22.5q63 0 115 30.5t85 78.5t56.5 110t33 121t9.5 115v440h113v-975zM727 1145h-109l-120 153l-131 -153h-109l176 244
h121z" />
    <glyph glyph-name="udieresis" unicode="&#xfc;" horiz-adv-x="1026" 
d="M850 0h-113v242h-4q-16 -53 -40.5 -98t-58.5 -84t-82 -61t-103 -22q-147 0 -217 84.5t-70 233.5v680h112v-653q0 -43 8 -82.5t25.5 -77t51 -60t79.5 -22.5q63 0 115 30.5t85 78.5t56.5 110t33 121t9.5 115v440h113v-975zM752 1167h-152v160h152v-160zM416 1167h-152v160
h152v-160z" />
    <glyph glyph-name="yacute" unicode="&#xfd;" horiz-adv-x="872" 
d="M385 -379h-102l129 389l-389 965h120l328 -807l272 807h109zM494 1145h-111l84 244h151z" />
    <glyph glyph-name="thorn" unicode="&#xfe;" horiz-adv-x="987" 
d="M283 -438h-113v1851h113v-561h4q38 69 104 107t144 38q80 0 143.5 -32t103 -82.5t66 -119.5t37 -137.5t10.5 -140.5t-12 -141.5t-40 -137t-69.5 -117.5t-106 -81t-143.5 -31q-78 0 -140 36t-97 104h-4v-555zM522 57q60 0 106 31t72 77t42.5 107.5t22 114.5t5.5 107
q0 45 -4.5 89t-15 93.5t-30 91.5t-46.5 76.5t-68 54t-92 19.5q-56 0 -99 -30t-67 -74t-39.5 -103.5t-20.5 -109t-5 -99.5q0 -55 4.5 -107t20 -116t40 -111t69.5 -79t105 -32z" />
    <glyph glyph-name="ydieresis" unicode="&#xff;" horiz-adv-x="872" 
d="M385 -379h-102l129 389l-389 965h120l328 -807l272 807h109zM696 1167h-151v160h151v-160zM360 1167h-151v160h151v-160z" />
    <glyph glyph-name="dotlessi" unicode="&#x131;" horiz-adv-x="454" 
d="M285 0h-113v975h113v-975z" />
    <glyph glyph-name="Lslash" unicode="&#x141;" horiz-adv-x="796" 
d="M805 0h-625v594l-180 -156v117l180 156v702h127v-592l252 219v-114l-252 -221v-607h498v-98z" />
    <glyph glyph-name="lslash" unicode="&#x142;" horiz-adv-x="454" 
d="M285 0h-113v666l-170 -150v111l170 147v639h113v-541l174 148v-107l-174 -149v-764z" />
    <glyph glyph-name="OE" unicode="&#x152;" horiz-adv-x="1746" 
d="M1661 0h-686v258h-4q-56 -139 -141 -210t-226 -71q-116 0 -206 47t-144.5 120.5t-89 174.5t-47.5 198.5t-13 203.5q0 74 6 142t21 141t38.5 134.5t62 117.5t87.5 95t118.5 62t152.5 23q272 0 381 -283h4v260h665v-94h-540v-526h514v-95h-514v-600h561v-98zM623 72
q64 0 116.5 23.5t88.5 61.5t63 92t42.5 109.5t25.5 120.5t13 117.5t3 108.5q0 66 -6.5 131t-21.5 140t-44 138t-69 115t-100.5 82t-135.5 30q-62 0 -114 -21.5t-88 -57t-63.5 -86t-44 -103t-27 -113.5t-14 -113t-3.5 -106q0 -60 3.5 -116.5t14 -125t27 -127t46 -115.5
t68 -96.5t95 -64t125.5 -24.5z" />
    <glyph glyph-name="oe" unicode="&#x153;" horiz-adv-x="1568" 
d="M1456 92v-92q-80 -23 -192 -23q-151 0 -250 58t-176 188q-35 -115 -127 -180.5t-213 -65.5q-106 0 -186 43t-126.5 116.5t-69 162t-22.5 188.5q0 85 12.5 158t42.5 139t75.5 112.5t116.5 73.5t161 27q112 0 193 -46t141 -142q39 90 120.5 139t182.5 49q95 0 164 -35.5
t106.5 -98.5t54.5 -138t17 -166v-72h-580q0 -102 50.5 -200t141 -162t193.5 -64q99 0 170 31zM1356 567v6q0 51 -3.5 92.5t-16.5 91t-34.5 82.5t-61.5 56t-95 23q-70 0 -121 -31t-77.5 -84.5t-38 -111.5t-11.5 -124h459zM502 57q66 0 116 26.5t79 67t47 98t24 110.5t6 114
q0 63 -6.5 119t-25 118t-49 106t-83 73t-121.5 29q-64 0 -113 -25t-78 -64t-47.5 -93.5t-25 -107t-6.5 -110.5q0 -53 4 -100.5t14.5 -103t31 -99t50.5 -80.5t77 -57.5t106 -20.5z" />
    <glyph glyph-name="Scaron" unicode="&#x160;" horiz-adv-x="948" 
d="M88 10v146q167 -80 322 -80q142 0 231.5 71t89.5 209q0 73 -36 130t-93.5 95.5t-126.5 73t-138.5 72t-127 83t-93.5 115.5t-36 160t35.5 159t96 110t135.5 61.5t161 20.5q148 0 280 -33v-141q-172 79 -311 79q-114 0 -193 -59t-79 -170q0 -32 7 -60.5t15 -49t29 -43
t32 -33.5t43.5 -31t44.5 -26.5t51 -27.5q9 -5 13 -7q126 -63 197 -107q62 -37 101.5 -68.5t71.5 -73t46 -93.5t14 -121q0 -81 -25 -147t-68 -111.5t-103 -76.5t-128 -45t-145 -14q-178 0 -313 33zM569 1583h-120l-173 244h109l123 -154l129 154h108z" />
    <glyph glyph-name="scaron" unicode="&#x161;" horiz-adv-x="720" 
d="M55 20v125q56 -32 136 -52.5t145 -20.5q100 0 162.5 41.5t62.5 136.5q0 50 -27.5 88.5t-71 64t-96 48t-105.5 48t-96.5 56t-71 79t-27.5 111.5q0 70 27 120.5t75 78.5t103.5 40.5t121.5 12.5q27 0 59.5 -3.5t54.5 -7.5t60.5 -12t55.5 -11v-121q-59 25 -85.5 35.5
t-75.5 23t-91 12.5q-49 0 -89.5 -11.5t-71 -43.5t-30.5 -82q0 -48 28 -84.5t72.5 -61.5t98.5 -47.5t108 -49t98.5 -59.5t72.5 -85.5t28 -120.5q0 -79 -29 -137t-80.5 -90.5t-113.5 -48t-137 -15.5q-170 0 -271 43zM455 1145h-121l-172 244h108l123 -154l129 154h109z" />
    <glyph glyph-name="Ydieresis" unicode="&#x178;" horiz-adv-x="987" 
d="M551 0h-127v649l-424 764h141l353 -643l360 643h133l-436 -764v-649zM754 1606h-152v159h152v-159zM418 1606h-152v159h152v-159z" />
    <glyph glyph-name="Zcaron" unicode="&#x17d;" horiz-adv-x="987" 
d="M930 0h-873v98l693 1221h-658v94h809v-94l-696 -1221h725v-98zM553 1583h-121l-172 244h109l123 -154l129 154h108z" />
    <glyph glyph-name="zcaron" unicode="&#x17e;" horiz-adv-x="796" 
d="M741 0h-686v86l535 805h-496v84h645v-57l-546 -834h548v-84zM469 1145h-121l-172 244h109l123 -154l129 154h108z" />
    <glyph glyph-name="florin" unicode="&#x192;" 
d="M211 0h-117l156 891h-162l14 84h164q4 19 12 67t15.5 82.5t17.5 65.5q40 122 125.5 175.5t218.5 53.5q45 0 127 -16l-18 -100q-10 3 -30.5 11t-33 12.5t-30.5 8.5t-33 4q-41 0 -74 -9.5t-56 -23t-41 -39t-28.5 -46.5t-20 -57.5t-13.5 -60t-10.5 -65.5t-10.5 -63h272
l-16 -84h-272z" />
    <glyph glyph-name="circumflex" unicode="&#x2c6;" horiz-adv-x="616" 
d="M543 1145h-109l-121 153l-131 -153h-108l176 244h121z" />
    <glyph glyph-name="caron" unicode="&#x2c7;" horiz-adv-x="616" 
d="M367 1145h-121l-172 244h108l123 -154l129 154h109z" />
    <glyph glyph-name="uni02C9" unicode="&#x2c9;" horiz-adv-x="616" 
d="M543 1145h-471v108h471v-108z" />
    <glyph glyph-name="breve" unicode="&#x2d8;" horiz-adv-x="616" 
d="M467 1389h70q0 -104 -62 -177t-164 -73q-103 0 -167 73t-64 177h70q0 -63 48 -102.5t113 -39.5t110.5 39t45.5 103z" />
    <glyph glyph-name="dotaccent" unicode="&#x2d9;" horiz-adv-x="616" 
d="M387 1167h-158v166h158v-166z" />
    <glyph glyph-name="ring" unicode="&#x2da;" horiz-adv-x="616" 
d="M276 1102q-67 0 -113 48.5t-46 115.5q0 66 46.5 113.5t112.5 47.5t114 -47.5t48 -113.5q0 -68 -47.5 -116t-114.5 -48zM276 1171q38 0 65.5 28.5t27.5 66.5t-27.5 65t-65.5 27t-64 -27t-26 -65q0 -39 25.5 -67t64.5 -28z" />
    <glyph glyph-name="ogonek" unicode="&#x2db;" horiz-adv-x="616" 
d="M461 -324v-86q-59 -16 -113 -16q-79 0 -136.5 44t-57.5 120q0 130 174 282h75q-151 -151 -151 -260q0 -51 28 -82.5t78 -31.5q62 0 103 30z" />
    <glyph glyph-name="tilde" unicode="&#x2dc;" horiz-adv-x="616" 
d="M463 1339h72q0 -198 -119 -198q-30 0 -76.5 23.5t-86.5 47t-54 23.5q-41 0 -47 -90h-72q0 30 5.5 62t17.5 66t36 55.5t56 21.5q40 0 117 -50.5t100 -50.5q20 0 32 16.5t15.5 35t3.5 38.5z" />
    <glyph glyph-name="hungarumlaut" unicode="&#x2dd;" horiz-adv-x="616" 
d="M494 1145h-113l86 244h149zM260 1145h-110l83 244h152z" />
    <glyph glyph-name="uni0394" unicode="&#x394;" horiz-adv-x="1101" 
d="M1081 0h-1063l459 1413h146zM539 1282l-383 -1184h768z" />
    <glyph glyph-name="uni03A9" unicode="&#x3a9;" horiz-adv-x="1200" 
d="M1094 758q0 -442 -281 -660h272v-98h-389v109q258 211 258 632q0 66 -7.5 131t-23 134.5t-43.5 128t-66.5 105.5t-95 74t-124.5 27t-123.5 -26.5t-92.5 -73.5t-64 -105t-41 -128t-20.5 -134.5t-6.5 -132.5q0 -410 256 -632v-109h-387v98h270q-153 122 -216 288.5
t-63 371.5q0 100 15 192.5t51 182.5t91.5 156t143 106.5t197.5 40.5q92 0 168 -29t128 -80.5t91 -116.5t60.5 -143t32 -154t10.5 -155z" />
    <glyph glyph-name="uni03BC" unicode="&#x3bc;" horiz-adv-x="1034" 
d="M952 -12q-24 -4 -34 -4q-54 0 -90 16t-54 48t-24.5 68t-6.5 89q-17 -100 -94 -164t-178 -64q-60 0 -102.5 20.5t-83.5 65.5v-501h-115v1413h113v-559q0 -52 3.5 -93t16.5 -89t34.5 -79.5t61.5 -53t95 -21.5q53 0 94 22t66.5 61t43 83t25.5 99.5t11 98.5t3 91v440h113
v-782q0 -25 2 -42t9.5 -35.5t23.5 -28t41 -9.5h26v-90z" />
    <glyph glyph-name="pi" unicode="&#x3c0;" horiz-adv-x="1036" 
d="M690 877h-360v-877h-113v877q-34 0 -61 -2t-47.5 -6.5t-32 -7t-27 -8.5t-18.5 -7l-39 88q54 23 115 32t167 9h705v-98h-176v-633q0 -94 28.5 -132t110.5 -38v-90q-127 0 -189.5 57t-62.5 178v658z" />
    <glyph glyph-name="endash" unicode="&#x2013;" horiz-adv-x="987" 
d="M870 440h-753v115h753v-115z" />
    <glyph glyph-name="emdash" unicode="&#x2014;" horiz-adv-x="1366" 
d="M1249 440h-1132v115h1132v-115z" />
    <glyph glyph-name="quoteleft" unicode="&#x2018;" horiz-adv-x="378" 
d="M252 991h-148l62 422h108z" />
    <glyph glyph-name="quoteright" unicode="&#x2019;" horiz-adv-x="378" 
d="M215 991h-109l23 422h147z" />
    <glyph glyph-name="quotesinglbase" unicode="&#x201a;" horiz-adv-x="378" 
d="M215 -252h-109l23 422h147z" />
    <glyph glyph-name="quotedblleft" unicode="&#x201c;" horiz-adv-x="645" 
d="M516 991h-147l61 422h109zM250 991h-148l62 422h108z" />
    <glyph glyph-name="quotedblright" unicode="&#x201d;" horiz-adv-x="645" 
d="M481 991h-108l22 422h148zM215 991h-109l23 422h147z" />
    <glyph glyph-name="quotedblbase" unicode="&#x201e;" horiz-adv-x="645" 
d="M481 -252h-108l22 422h148zM215 -252h-109l23 422h147z" />
    <glyph glyph-name="dagger" unicode="&#x2020;" horiz-adv-x="948" 
d="M537 0h-125v795h-330v96h330v522h125v-522h329v-96h-329v-795z" />
    <glyph glyph-name="daggerdbl" unicode="&#x2021;" horiz-adv-x="948" 
d="M537 0h-125v684h-330v96h330v140h-330v96h330v397h125v-397h331v-96h-331v-140h331v-96h-331v-684z" />
    <glyph glyph-name="bullet" unicode="&#x2022;" horiz-adv-x="987" 
d="M864 737q0 -152 -109 -260t-261 -108q-153 0 -262 108t-109 260q0 154 108.5 263.5t262.5 109.5q153 0 261.5 -109.5t108.5 -263.5z" />
    <glyph glyph-name="ellipsis" unicode="&#x2026;" horiz-adv-x="1404" 
d="M1272 0h-162v162h162v-162zM782 0h-161v162h161v-162zM293 0h-162v162h162v-162z" />
    <glyph glyph-name="perthousand" unicode="&#x2030;" horiz-adv-x="2277" 
d="M1935 -23q-76 0 -131 27.5t-85.5 68.5t-48.5 104t-23 118.5t-5 126.5q0 51 2 92t9.5 91t19.5 89t34 77.5t52.5 63.5t75 40.5t100.5 15.5t100.5 -15.5t75 -40.5t53 -63.5t35 -77.5t20 -89t9.5 -91.5t2 -91.5q0 -72 -5 -127.5t-23.5 -118t-49.5 -104t-86 -68.5t-131 -27z
M1253 -23q-55 0 -99 14t-74 37.5t-52 59t-34.5 72t-20 84t-10 88t-2.5 90.5q0 51 2 91.5t9 91.5t19.5 89t34.5 77t52 64t74.5 40.5t100.5 15.5t100.5 -15.5t75 -40.5t52.5 -63.5t34 -77.5t19.5 -89t9.5 -91t2 -92q0 -71 -5 -126.5t-23 -118.5t-48.5 -104t-85.5 -68.5
t-131 -27.5zM645 0h-98l403 1298h97zM342 408q-76 0 -131 27.5t-85.5 68.5t-48.5 103.5t-23 118t-5 126.5q0 51 2 92t9.5 91t19.5 89t34 77.5t52.5 63.5t75 40.5t100.5 15.5t100.5 -15.5t75 -40.5t52.5 -63.5t34 -77.5t19.5 -89t9.5 -91t2 -92q0 -71 -5 -126.5t-23 -118
t-48.5 -103.5t-85.5 -68.5t-131 -27.5zM1929 61q43 0 76.5 17t53.5 49t33 66t18.5 79.5t7.5 78t2 73.5q0 42 -1.5 75t-7 81.5t-19 85t-33 70.5t-53 52.5t-77.5 18.5q-36 0 -64.5 -15.5t-46.5 -38t-31 -59t-19.5 -67t-10 -74.5t-4 -68.5t-0.5 -60.5q0 -41 1.5 -70.5t6 -77
t16 -81t30 -66.5t50 -50.5t72.5 -17.5zM1247 61q37 0 66.5 14t49 35t33.5 53.5t21.5 63t12 69.5t5.5 66.5t1 61.5q0 35 -1 62.5t-5 69t-11.5 73.5t-21.5 67t-33.5 58t-49.5 38t-67 15q-41 0 -72.5 -19t-50 -54.5t-30 -71.5t-16 -86t-6 -80.5t-1.5 -71.5t1.5 -70t6 -77
t16 -81t30 -66.5t50 -51t72.5 -17.5zM336 492q43 0 75.5 17t52.5 49t32.5 66t18.5 80t7.5 78t1.5 72q0 35 -1 62.5t-5 69.5t-11 73.5t-21.5 66.5t-33.5 58t-49 38t-67 15q-36 0 -64.5 -15.5t-46.5 -38t-31 -59t-19.5 -67t-10 -74.5t-4 -68.5t-0.5 -60.5q0 -35 0.5 -59.5
t4.5 -65.5t10.5 -70t19.5 -62.5t31 -54.5t46 -35.5t64 -14.5z" />
    <glyph glyph-name="guilsinglleft" unicode="&#x2039;" horiz-adv-x="417" 
d="M332 121h-99l-170 373l170 380h99l-119 -380z" />
    <glyph glyph-name="guilsinglright" unicode="&#x203a;" horiz-adv-x="417" 
d="M184 121h-98l119 379l-119 374h98l170 -374z" />
    <glyph glyph-name="fraction" unicode="&#x2044;" horiz-adv-x="411" 
d="M45 0h-100l405 1298h96z" />
    <glyph glyph-name="zero.superior" unicode="&#x2070;" 
d="M342 817q-76 0 -131 27.5t-85.5 68.5t-48.5 104t-23 118.5t-5 126.5q0 51 2 92t9.5 91t19.5 89t34 77.5t52.5 63.5t75 40.5t100.5 15.5t100.5 -15.5t75 -40.5t52.5 -63.5t34 -77.5t19.5 -89t9.5 -91t2 -92q0 -71 -5 -126.5t-23 -118.5t-48.5 -104t-85.5 -68.5t-131 -27.5
zM336 901q43 0 75.5 17t52.5 49t32.5 66t18.5 80t7.5 78.5t1.5 72.5q0 35 -1 62.5t-5 69.5t-11 73.5t-21.5 66.5t-33.5 58t-49 38t-67 15q-41 0 -72.5 -19t-50 -54.5t-30 -71.5t-16 -86t-6 -80.5t-1.5 -71.5t1.5 -70t6 -77t16 -81t30 -66.5t50 -51t72.5 -17.5z" />
    <glyph glyph-name="i.superior" unicode="&#x2071;" horiz-adv-x="313" 
d="M213 1298h-113v115h113v-115zM203 438h-90v672h90v-672z" />
    <glyph glyph-name="four.superior" unicode="&#x2074;" 
d="M489 829h-106v256h-338v82l340 549h104v-538h148v-93h-148v-256zM383 1178v360h-4l-219 -360h223z" />
    <glyph glyph-name="five.superior" unicode="&#x2075;" 
d="M86 1024h117q4 -58 45.5 -93.5t93.5 -35.5q170 0 170 195q0 86 -39 141t-121 55q-41 0 -79 -20t-54 -56h-94l25 504h428v-90h-324l-16 -287q47 31 127 31q138 0 200 -77t62 -201q0 -129 -77 -201t-210 -72q-104 0 -170.5 53.5t-83.5 153.5z" />
    <glyph glyph-name="six.superior" unicode="&#x2076;" 
d="M612 1526h-123q0 53 -34 88t-86 35q-199 0 -199 -377q76 100 209 100q120 0 184 -78.5t64 -199.5q0 -127 -71 -202t-202 -75q-65 0 -114.5 18.5t-80.5 54.5t-51 76t-29.5 96t-12.5 101t-3 103q0 71 5.5 129t25 123.5t52 109.5t90.5 73.5t137 29.5q96 0 164 -52.5
t75 -152.5zM362 899q75 0 113.5 50.5t38.5 144.5q0 83 -37 138.5t-119 55.5q-84 0 -128 -54.5t-44 -131.5q0 -84 46.5 -143.5t129.5 -59.5z" />
    <glyph glyph-name="seven.superior" unicode="&#x2077;" 
d="M264 829h-112l335 793h-399v90h514v-72z" />
    <glyph glyph-name="eight.superior" unicode="&#x2078;" 
d="M432 1286q87 -20 134.5 -80.5t47.5 -146.5q0 -114 -74 -178t-194 -64q-126 0 -202 66.5t-76 185.5q0 77 52 138.5t130 82.5q-76 20 -119 76.5t-43 132.5q0 106 74 169t186 63q110 0 178 -63t68 -169q0 -71 -45 -133.5t-117 -79.5zM336 1331q74 0 111.5 46t37.5 122
q0 68 -37.5 109t-107.5 41q-69 0 -107 -42.5t-38 -111.5q0 -70 37.5 -117t103.5 -47zM346 897q80 0 120 43t40 123t-42.5 130t-121.5 50q-75 0 -120.5 -49t-45.5 -125q0 -79 45.5 -125.5t124.5 -46.5z" />
    <glyph glyph-name="nine.superior" unicode="&#x2079;" 
d="M66 1022h122q0 -52 38 -87.5t91 -35.5q196 0 191 377q-76 -100 -209 -100q-120 0 -184 78.5t-64 199.5q0 127 71 202t202 75q56 0 100.5 -15t74.5 -38.5t51.5 -61t33.5 -74t19 -85t9 -87.5t2 -88t-2.5 -91t-11 -91t-22 -88t-37 -76.5t-55 -62.5t-78 -40.5t-103.5 -15.5
q-96 0 -164 52.5t-75 152.5zM319 1260q84 0 128.5 54.5t44.5 131.5q0 84 -47 143.5t-130 59.5q-75 0 -113 -50.5t-38 -144.5q0 -83 36.5 -138.5t118.5 -55.5z" />
    <glyph glyph-name="n.superior" unicode="&#x207f;" horiz-adv-x="708" 
d="M596 438h-90v449q0 36 -2.5 60.5t-11.5 52.5t-30 42.5t-54 14.5q-57 0 -107 -58t-75 -129.5t-25 -128.5v-303h-90v672h90l4 -149q33 72 88 118.5t129 46.5q51 0 86.5 -17t54 -49t26 -69t7.5 -84v-469z" />
    <glyph glyph-name="zero.inferior" unicode="&#x2080;" 
d="M342 -412q-76 0 -131 27.5t-85.5 68.5t-48.5 104t-23 118.5t-5 126.5q0 51 2 92t9.5 91t19.5 89t34 77.5t52.5 63.5t75 40.5t100.5 15.5t100.5 -15.5t75 -40.5t52.5 -63.5t34 -77.5t19.5 -89t9.5 -91t2 -92q0 -71 -5 -126.5t-23 -118.5t-48.5 -104t-85.5 -68.5
t-131 -27.5zM336 -328q43 0 75.5 17t52.5 49t32.5 66t18.5 80t7.5 78.5t1.5 72.5q0 35 -1 62.5t-5 69.5t-11 73.5t-21.5 66.5t-33.5 58t-49 38t-67 15q-41 0 -72.5 -19t-50 -54.5t-30 -71.5t-16 -86t-6 -80.5t-1.5 -71.5t1.5 -70t6 -77t16 -81t30 -66.5t50 -51t72.5 -17.5z
" />
    <glyph glyph-name="one.inferior" unicode="&#x2081;" 
d="M434 -399h-106v755l-156 -110v112l178 121h84v-878z" />
    <glyph glyph-name="two.inferior" unicode="&#x2082;" 
d="M596 -399h-510v86q78 67 161 162.5t151.5 217t68.5 209.5q0 63 -36 103.5t-99 40.5q-65 0 -91.5 -38t-35.5 -108h-123q27 228 256 228q113 0 177.5 -66.5t64.5 -179.5q0 -53 -14.5 -107t-45 -106.5t-60.5 -96t-77.5 -94.5t-78 -81.5t-79.5 -77.5h371v-92z" />
    <glyph glyph-name="three.inferior" unicode="&#x2083;" 
d="M279 16v90q88 0 131 32.5t43 117.5q0 67 -37 115.5t-103 48.5q-104 0 -118 -123h-123q9 96 77 150.5t166 54.5q114 0 182 -63t68 -177q0 -69 -30 -121.5t-91 -77.5q67 -24 101.5 -83t34.5 -134q0 -124 -69.5 -191t-193.5 -67q-67 0 -123.5 21.5t-95.5 70.5t-39 117h123
q3 -127 133 -127q74 0 113 45t39 121q0 99 -44 139.5t-144 40.5z" />
    <glyph glyph-name="four.inferior" unicode="&#x2084;" 
d="M489 -399h-106v256h-338v82l340 548h104v-538h148v-92h-148v-256zM383 -51v360h-4l-219 -360h223z" />
    <glyph glyph-name="five.inferior" unicode="&#x2085;" 
d="M86 -205h117q4 -58 45.5 -93.5t93.5 -35.5q170 0 170 195q0 86 -39 141t-121 55q-41 0 -79 -19.5t-54 -55.5h-94l25 503h428v-90h-324l-16 -286q28 19 56 24.5t71 5.5q138 0 200 -77t62 -201q0 -129 -77 -201t-210 -72q-104 0 -170.5 53.5t-83.5 153.5z" />
    <glyph glyph-name="six.inferior" unicode="&#x2086;" 
d="M612 297h-123q0 53 -34 88t-86 35q-199 0 -199 -377q76 100 209 100q120 0 184 -78.5t64 -199.5q0 -127 -71 -202t-202 -75q-65 0 -114.5 18.5t-80.5 54.5t-51 76t-29.5 96t-12.5 101t-3 103q0 71 5.5 129t25 123.5t52 109.5t90.5 73.5t137 29.5q96 0 164 -52.5
t75 -152.5zM362 -330q75 0 113.5 50.5t38.5 144.5q0 83 -37 138.5t-119 55.5q-84 0 -128 -54.5t-44 -131.5q0 -84 46.5 -143.5t129.5 -59.5z" />
    <glyph glyph-name="seven.inferior" unicode="&#x2087;" 
d="M264 -399h-112l335 792h-399v90h514v-71z" />
    <glyph glyph-name="eight.inferior" unicode="&#x2088;" 
d="M432 57q87 -20 134.5 -80.5t47.5 -146.5q0 -114 -74 -178t-194 -64q-126 0 -202 66.5t-76 185.5q0 77 52 138.5t130 82.5q-76 20 -119 76.5t-43 132.5q0 106 74 169t186 63q110 0 178 -63t68 -169q0 -71 -45 -133.5t-117 -79.5zM336 102q74 0 111.5 46t37.5 122
q0 68 -37.5 109t-107.5 41q-69 0 -107 -42.5t-38 -111.5q0 -70 37.5 -117t103.5 -47zM346 -332q80 0 120 43t40 123t-42.5 130t-121.5 50q-75 0 -120.5 -49t-45.5 -125q0 -79 45.5 -125.5t124.5 -46.5z" />
    <glyph glyph-name="nine.inferior" unicode="&#x2089;" 
d="M66 -207h122q0 -52 38 -87.5t91 -35.5q196 0 191 377q-76 -100 -209 -100q-120 0 -184 78.5t-64 199.5q0 127 71 202t202 75q56 0 100.5 -15t74.5 -38.5t51.5 -61t33.5 -74t19 -85t9 -87.5t2 -88t-2.5 -91t-11 -91t-22 -88t-37 -76.5t-55 -62.5t-78 -40.5t-103.5 -15.5
q-96 0 -164 52.5t-75 152.5zM319 31q84 0 128.5 54.5t44.5 131.5q0 84 -47 143.5t-130 59.5q-75 0 -113 -50.5t-38 -144.5q0 -83 36.5 -138.5t118.5 -55.5z" />
    <glyph glyph-name="Euro" unicode="&#x20ac;" horiz-adv-x="1062" 
d="M967 197v-129q-125 -88 -285 -88q-209 0 -330 143.5t-147 423.5h-170l16 84h146q0 9 -1 34.5t-1 39.5v10h-127l16 84h115q22 278 134 422.5t306 144.5q161 0 267.5 -109t107.5 -276h-146q-3 137 -65.5 216t-169.5 79q-132 0 -213 -127t-90 -350h485l-16 -84h-471v-13
q0 -9 4 -71h450l-16 -84h-428q17 -229 108 -349t246 -120q67 0 118 19.5t124 74.5z" />
    <glyph glyph-name="litre" unicode="&#x2113;" horiz-adv-x="927" 
d="M291 270v248l-117 -133l-65 70l182 211v485q0 169 61 254.5t168 85.5q63 0 107 -34t61 -79.5t17 -95.5q0 -136 -58 -268t-166 -279l-57 -78v-393q0 -94 32.5 -137t86.5 -43q77 0 166 100q3 -5 53 -80q-122 -131 -246 -131q-94 0 -151 60q-74 74 -74 237zM424 1151v-336
l31 45q145 224 145 410q0 44 -18 77t-58 33q-47 0 -73.5 -50t-26.5 -179z" />
    <glyph glyph-name="trademark" unicode="&#x2122;" horiz-adv-x="1253" 
d="M1110 819h-88v537h-4l-139 -537h-109l-139 537h-4v-537h-88v594h159l123 -467h4l121 467h164v-594zM319 819h-88v508h-149v86h389v-86h-152v-508z" />
    <glyph glyph-name="Omega" unicode="&#x2126;" horiz-adv-x="1200" 
d="M1094 758q0 -442 -281 -660h272v-98h-389v109q258 211 258 632q0 66 -7.5 131t-23 134.5t-43.5 128t-66.5 105.5t-95 74t-124.5 27t-123.5 -26.5t-92.5 -73.5t-64 -105t-41 -128t-20.5 -134.5t-6.5 -132.5q0 -410 256 -632v-109h-387v98h270q-153 122 -216 288.5
t-63 371.5q0 100 15 192.5t51 182.5t91.5 156t143 106.5t197.5 40.5q92 0 168 -29t128 -80.5t91 -116.5t60.5 -143t32 -154t10.5 -155z" />
    <glyph glyph-name="estimated" unicode="&#x212e;" horiz-adv-x="1288" 
d="M1194 563h-870v-387q128 -125 309 -125q263 0 414 256q13 -7 36 -22.5t35 -22.5q-98 -144 -210 -215.5t-275 -71.5q-166 0 -292.5 79t-192.5 212t-66 297q0 165 65.5 297.5t192 211.5t293.5 79q170 0 296.5 -79t192 -210t72.5 -299zM942 639v307q-128 131 -311 131
q-186 0 -307 -127v-311h618z" />
    <glyph glyph-name="onethird" unicode="&#x2153;" horiz-adv-x="1595" 
d="M393 420h-106v756l-156 -111v113l178 120h84v-878zM653 0h-98l403 1298h97zM1217 416v90q88 0 131 32t43 117q0 67 -37 115.5t-103 48.5q-104 0 -118 -123h-123q9 96 77 150.5t166 54.5q115 0 182.5 -62.5t67.5 -176.5q0 -69 -30 -121.5t-91 -77.5q67 -24 101.5 -83
t34.5 -134q0 -124 -69.5 -191t-193.5 -67q-67 0 -123.5 21.5t-95.5 70.5t-39 117h123q3 -127 133 -127q74 0 113 45t39 121q0 99 -44 139.5t-144 40.5z" />
    <glyph glyph-name="twothirds" unicode="&#x2154;" horiz-adv-x="1595" 
d="M674 0h-99l404 1298h96zM1217 416v90q88 0 131 32t43 117q0 67 -37 115.5t-103 48.5q-104 0 -118 -123h-123q9 96 77 150.5t166 54.5q115 0 182.5 -62.5t67.5 -176.5q0 -69 -30 -121.5t-91 -77.5q67 -24 101.5 -83t34.5 -134q0 -124 -69.5 -191t-193.5 -67
q-67 0 -123.5 21.5t-95.5 70.5t-39 117h123q3 -127 133 -127q74 0 113 45t39 121q0 99 -44 139.5t-144 40.5zM596 420h-510v86q56 48 118.5 117t123 150.5t100 168.5t39.5 154q0 63 -36 103t-99 40q-65 0 -91.5 -37.5t-35.5 -107.5h-123q27 227 256 227q113 0 177.5 -66.5
t64.5 -179.5q0 -53 -14.5 -107t-45 -106.5t-60.5 -96t-77.5 -94.5t-78 -81.5t-79.5 -77.5h371v-92z" />
    <glyph glyph-name="oneeighth" unicode="&#x215b;" horiz-adv-x="1595" 
d="M571 0h-98l404 1298h96zM393 420h-106v756l-156 -111v113l178 120h84v-878zM1337 457q87 -20 135 -81t48 -147q0 -114 -74.5 -177.5t-194.5 -63.5q-126 0 -202 66.5t-76 185.5q0 77 52 138.5t130 82.5q-76 20 -119 76.5t-43 132.5q0 106 74 168.5t186 62.5
q110 0 178 -62.5t68 -168.5q0 -71 -45 -133.5t-117 -79.5zM1241 502q74 0 112 46.5t38 121.5q0 68 -38 108.5t-108 40.5q-69 0 -107 -42t-38 -111q0 -70 37.5 -117t103.5 -47zM1251 68q160 0 160 165q0 80 -42.5 130.5t-121.5 50.5q-75 0 -120.5 -49t-45.5 -125
q0 -79 45.5 -125.5t124.5 -46.5z" />
    <glyph glyph-name="threeeighths" unicode="&#x215c;" horiz-adv-x="1595" 
d="M670 0h-101l406 1298h96zM279 836v90q88 0 131 32t43 117q0 67 -37 115.5t-103 48.5q-104 0 -118 -123h-123q9 96 77 150.5t166 54.5q114 0 182 -63t68 -177q0 -69 -30 -121t-91 -77q67 -24 101.5 -83t34.5 -134q0 -124 -69.5 -191t-193.5 -67q-67 0 -123.5 21.5
t-95.5 70t-39 116.5h123q3 -127 133 -127q74 0 113 45t39 121q0 100 -44 140.5t-144 40.5zM1337 457q87 -20 135 -81t48 -147q0 -114 -74.5 -177.5t-194.5 -63.5q-126 0 -202 66.5t-76 185.5q0 77 52 138.5t130 82.5q-76 20 -119 76.5t-43 132.5q0 106 74 168.5t186 62.5
q110 0 178 -62.5t68 -168.5q0 -71 -45 -133.5t-117 -79.5zM1241 502q74 0 112 46.5t38 121.5q0 68 -38 108.5t-108 40.5q-69 0 -107 -42t-38 -111q0 -70 37.5 -117t103.5 -47zM1251 68q160 0 160 165q0 80 -42.5 130.5t-121.5 50.5q-75 0 -120.5 -49t-45.5 -125
q0 -79 45.5 -125.5t124.5 -46.5z" />
    <glyph glyph-name="fiveeighths" unicode="&#x215d;" horiz-adv-x="1595" 
d="M670 0h-101l406 1298h96zM1337 457q87 -20 135 -81t48 -147q0 -114 -74.5 -177.5t-194.5 -63.5q-126 0 -202 66.5t-76 185.5q0 77 52 138.5t130 82.5q-76 20 -119 76.5t-43 132.5q0 106 74 168.5t186 62.5q110 0 178 -62.5t68 -168.5q0 -71 -45 -133.5t-117 -79.5z
M1241 502q74 0 112 46.5t38 121.5q0 68 -38 108.5t-108 40.5q-69 0 -107 -42t-38 -111q0 -70 37.5 -117t103.5 -47zM1251 68q160 0 160 165q0 80 -42.5 130.5t-121.5 50.5q-75 0 -120.5 -49t-45.5 -125q0 -79 45.5 -125.5t124.5 -46.5zM86 614h117q4 -58 45.5 -93.5
t93.5 -35.5q170 0 170 195q0 86 -39 141.5t-121 55.5q-41 0 -79 -20t-54 -56h-94l25 504h428v-91h-324l-16 -286q28 19 56 24.5t71 5.5q138 0 200 -77t62 -201q0 -129 -77 -200.5t-210 -71.5q-104 0 -170.5 53t-83.5 153z" />
    <glyph glyph-name="seveneighths" unicode="&#x215e;" horiz-adv-x="1595" 
d="M670 0h-101l406 1298h96zM1337 457q87 -20 135 -81t48 -147q0 -114 -74.5 -177.5t-194.5 -63.5q-126 0 -202 66.5t-76 185.5q0 77 52 138.5t130 82.5q-76 20 -119 76.5t-43 132.5q0 106 74 168.5t186 62.5q110 0 178 -62.5t68 -168.5q0 -71 -45 -133.5t-117 -79.5z
M1241 502q74 0 112 46.5t38 121.5q0 68 -38 108.5t-108 40.5q-69 0 -107 -42t-38 -111q0 -70 37.5 -117t103.5 -47zM1251 68q160 0 160 165q0 80 -42.5 130.5t-121.5 50.5q-75 0 -120.5 -49t-45.5 -125q0 -79 45.5 -125.5t124.5 -46.5zM346 420h-113l336 792h-399v91h514
v-72z" />
    <glyph glyph-name="partialdiff" unicode="&#x2202;" horiz-adv-x="1071" 
d="M838 883h4q12 90 12 155q0 336 -260 336q-90 0 -170 -47l-37 100q37 24 101 42t122 18q178 0 279.5 -118t101.5 -349q0 -190 -51 -404q-22 -93 -54 -178.5t-80 -170.5t-105.5 -147.5t-134.5 -101t-163 -38.5q-146 0 -234.5 100t-88.5 264q0 141 42.5 268t113 216
t164.5 141.5t194 52.5q89 0 151.5 -39t92.5 -100zM823 741q-24 80 -80.5 126t-142.5 46q-100 0 -188.5 -79.5t-140.5 -212.5t-52 -283q0 -114 52.5 -179t136.5 -65q141 0 250 172.5t165 474.5z" />
    <glyph glyph-name="Delta" unicode="&#x2206;" horiz-adv-x="1101" 
d="M1081 0h-1063l459 1413h146zM539 1282l-383 -1184h768z" />
    <glyph glyph-name="product" unicode="&#x220f;" horiz-adv-x="1331" 
d="M1167 -471h-139v1784h-723v-1784h-141v1905h1003v-1905z" />
    <glyph glyph-name="summation" unicode="&#x2211;" horiz-adv-x="1175" 
d="M1098 -471h-1049v61l615 899l-568 871v74h953v-117h-779l541 -825l-580 -846h867v-117z" />
    <glyph glyph-name="minus" unicode="&#x2212;" horiz-adv-x="1177" 
d="M1055 434h-932v103h932v-103z" />
    <glyph glyph-name="uni2215" unicode="&#x2215;" horiz-adv-x="411" 
d="M45 0h-100l405 1298h96z" />
    <glyph glyph-name="uni2219" unicode="&#x2219;" horiz-adv-x="378" 
d="M276 561h-174v174h174v-174z" />
    <glyph glyph-name="radical" unicode="&#x221a;" horiz-adv-x="905" 
d="M590 -25h-121l-256 707l-102 -59l-50 90l224 127l241 -668l299 1319h113z" />
    <glyph glyph-name="infinity" unicode="&#x221e;" horiz-adv-x="1437" 
d="M715 387h-4q-59 -92 -140.5 -150.5t-175.5 -58.5q-133 0 -218 84.5t-85 220.5q0 137 83.5 224.5t213.5 87.5q59 0 112 -19.5t93 -52t68.5 -66t50.5 -71.5h4q23 38 51.5 71.5t67.5 66t90.5 52t107.5 19.5q131 0 217 -85t86 -221q0 -132 -83.5 -221.5t-211.5 -89.5
q-107 0 -191 59t-136 150zM770 487q52 -97 119 -148.5t139 -51.5q90 0 137 57t47 145q0 86 -47.5 141.5t-134.5 55.5q-78 0 -139 -50t-121 -149zM657 487q-48 87 -117.5 143t-140.5 56q-92 0 -138 -57.5t-46 -145.5q0 -87 52 -141.5t132 -54.5q142 0 258 200z" />
    <glyph glyph-name="integral" unicode="&#x222b;" horiz-adv-x="925" 
d="M387 -141v1355q0 145 76 232.5t213 87.5q33 0 69 -8t52 -17l-31 -106q-36 16 -82 16q-76 0 -117 -51.5t-41 -146.5v-1354q0 -148 -73.5 -233t-210.5 -85q-76 0 -123 21l28 108q37 -16 82 -16q158 0 158 197z" />
    <glyph glyph-name="approxequal" unicode="&#x2248;" horiz-adv-x="1177" 
d="M948 823l74 -82q-103 -159 -244 -159q-101 0 -205 63q-93 64 -170 64q-46 0 -92 -34.5t-80 -92.5l-73 80q102 159 245 159q102 0 201 -63q100 -64 172 -64q47 0 92.5 35t79.5 94zM948 391l74 -80q-104 -161 -244 -161q-103 0 -205 65q-99 64 -170 64q-46 0 -91.5 -35
t-80.5 -94l-73 81q102 160 245 160q97 0 201 -63q103 -66 172 -66q47 0 92.5 35t79.5 94z" />
    <glyph glyph-name="notequal" unicode="&#x2260;" horiz-adv-x="1177" 
d="M993 213h-477l-121 -264h-116l122 264h-215v113h267l147 319h-414v113h465l123 272h117l-125 -272h227v-113h-278l-148 -319h426v-113z" />
    <glyph glyph-name="lessequal" unicode="&#x2264;" horiz-adv-x="1177" 
d="M993 0h-807v113h807v-113zM993 272l-807 400v71l807 404v-127l-639 -309v-4l639 -310v-125z" />
    <glyph glyph-name="greaterequal" unicode="&#x2265;" horiz-adv-x="1177" 
d="M993 0h-807v113h807v-113zM993 674l-807 -402v125l639 310v4l-639 311v125l807 -402v-71z" />
    <glyph glyph-name="lozenge" unicode="&#x25ca;" horiz-adv-x="999" 
d="M539 0h-76l-365 715l365 719h76l364 -717zM784 717l-284 557l-283 -557l283 -559z" />
    <glyph glyph-name="zero.fitted" unicode="&#xe097;" horiz-adv-x="1052" 
d="M950 627q0 -67 -3.5 -125.5t-15 -126.5t-30 -123t-50 -107.5t-74 -88.5t-104 -57.5t-136.5 -21.5q-81 0 -146.5 23t-110 60t-78 93t-52 114t-30 130.5t-15 134t-3.5 134.5q0 68 3.5 127t15 127.5t30 124t51 108.5t75 89t105 57.5t138.5 21.5q430 0 430 -694zM811 631
q0 600 -293 600q-52 0 -94 -21.5t-70 -56t-49.5 -84t-33 -98t-18.5 -105.5t-9 -100t-2 -88q0 -610 288 -610q281 0 281 563z" />
    <glyph glyph-name="two.fitted" unicode="&#xe098;" horiz-adv-x="966" 
d="M850 0h-733v104q74 71 140.5 142t149.5 172.5t142 194t100 196.5t41 190q0 100 -61 166t-160 66q-98 0 -146 -57t-61 -160h-149q17 152 113 229.5t251 77.5q162 0 254 -95t92 -257q0 -64 -20 -133.5t-48 -130t-78 -133.5t-91 -125t-107 -124.5t-105.5 -112.5t-105.5 -106
h582v-104z" />
    <glyph glyph-name="three.fitted" unicode="&#xe099;" horiz-adv-x="950" 
d="M817 346q0 -177 -98.5 -273t-276.5 -96q-72 0 -134 16t-113 49t-83.5 88.5t-39.5 129.5h151q3 -93 60.5 -142.5t152.5 -49.5q123 0 182.5 77t59.5 203q0 71 -22 133.5t-74 106t-125 43.5h-60v90h39q104 0 161.5 70.5t57.5 177.5q0 109 -58 185.5t-163 76.5
q-170 0 -196 -184h-150q0 50 27 102q44 85 130.5 128.5t188.5 43.5q166 0 263.5 -90t97.5 -254q0 -111 -60.5 -193.5t-167.5 -105.5q124 -22 187 -112.5t63 -219.5z" />
    <glyph glyph-name="four.fitted" unicode="&#xe09a;" horiz-adv-x="987" 
d="M954 385h-229v-385h-113v385h-514v100l504 813h123v-809h229v-104zM612 489v627l-389 -627h389z" />
    <glyph glyph-name="five.fitted" unicode="&#xe09b;" horiz-adv-x="987" 
d="M899 379q0 -190 -108.5 -296t-298.5 -106q-313 0 -359 279h152q7 -88 64.5 -138t146.5 -50q137 0 200.5 85t63.5 226q0 60 -14.5 114t-44 98.5t-78.5 70.5t-113 26q-62 0 -120.5 -30.5t-80.5 -82.5h-119l35 723h602v-94h-489l-29 -491q88 65 219 65q168 0 269.5 -114.5
t101.5 -284.5z" />
    <glyph glyph-name="six.fitted" unicode="&#xe09c;" horiz-adv-x="987" 
d="M930 385q0 -187 -101 -297.5t-286 -110.5q-79 0 -142.5 22t-106 57t-73.5 90t-48 109t-27 125.5t-12.5 128.5t-2.5 130q0 72 4 133.5t15.5 133.5t31 129t53 112t78.5 92t110 59.5t146 22.5q95 0 173 -40.5t122 -119.5q32 -60 35 -117h-149q0 78 -53.5 132.5t-131.5 54.5
q-60 0 -107.5 -24.5t-78.5 -62t-53.5 -95t-34 -109.5t-18 -120.5t-8 -113t-1.5 -100.5q43 84 128.5 129t185.5 45q173 0 262.5 -109.5t89.5 -285.5zM791 383q0 76 -27 144t-85 115.5t-136 47.5q-73 0 -133 -45t-91.5 -112t-31.5 -138q0 -59 16.5 -116t47 -105t81 -77
t113.5 -29q82 0 139.5 48.5t82 117.5t24.5 149z" />
    <glyph glyph-name="seven.fitted" unicode="&#xe09d;" horiz-adv-x="948" 
d="M846 1194l-492 -1194h-145l498 1194h-588v104h727v-104z" />
    <glyph glyph-name="eight.fitted" unicode="&#xe09e;" horiz-adv-x="987" 
d="M881 334q0 -167 -105.5 -262t-273.5 -95q-178 0 -287 98.5t-109 274.5q0 122 70.5 210t190.5 114q-114 24 -173 106t-59 201q0 157 105 248.5t264 91.5q156 0 252 -91.5t96 -246.5q0 -71 -27 -136t-81.5 -113.5t-125.5 -61.5q129 -26 196 -115.5t67 -222.5zM713 975
q0 105 -58.5 180.5t-160.5 75.5t-161 -77.5t-59 -182.5q0 -104 56.5 -178t156.5 -74q110 0 168 72t58 184zM741 334q0 122 -64 204.5t-181 82.5q-112 0 -181 -82t-69 -195q0 -119 69.5 -197.5t186.5 -78.5q118 0 178.5 72.5t60.5 193.5z" />
    <glyph glyph-name="nine.fitted" unicode="&#xe09f;" horiz-adv-x="987" 
d="M872 680q0 -73 -3 -133.5t-14 -135t-29 -133.5t-50.5 -117.5t-76.5 -97t-109 -62.5t-146 -24q-104 0 -187.5 44t-129.5 133q-28 59 -31 106h150q0 -88 56 -140t144 -52q56 0 101.5 25.5t75.5 65t52.5 97.5t34 112.5t18.5 121t9 112.5t2 96q-29 -78 -122.5 -126
t-184.5 -48q-167 0 -260.5 110.5t-93.5 280.5q0 184 102 295t283 111q87 0 155 -27t111.5 -77t73 -109.5t44 -136.5t20 -144.5t5.5 -146.5zM725 889q0 60 -17.5 119.5t-50 109.5t-85 81.5t-115.5 31.5q-61 0 -108.5 -26.5t-75.5 -70.5t-42 -96.5t-14 -109.5q0 -58 14 -111.5
t42 -100t75.5 -74.5t108.5 -28q108 0 188 83.5t80 191.5z" />
    <glyph glyph-name="zero.denominator" unicode="&#xe10a;" 
d="M342 -12q-76 0 -131 27.5t-85.5 68.5t-48.5 103.5t-23 118t-5 126.5q0 51 2 92t9.5 91t19.5 89t34 77.5t52.5 63.5t75 40.5t100.5 15.5t100.5 -15.5t75 -40.5t52.5 -63.5t34 -77.5t19.5 -89t9.5 -91t2 -92q0 -71 -5 -126.5t-23 -118t-48.5 -103.5t-85.5 -68.5t-131 -27.5
zM336 72q43 0 75.5 17t52.5 49t32.5 66t18.5 80t7.5 78t1.5 72q0 35 -1 62.5t-5 69.5t-11 73.5t-21.5 66.5t-33.5 58t-49 38t-67 15q-41 0 -72.5 -19t-50 -54.5t-30 -71.5t-16 -86t-6 -80.5t-1.5 -71.5t1.5 -70t6 -76.5t16 -81t30 -66.5t50 -50.5t72.5 -17.5z" />
    <glyph glyph-name="one.denominator" unicode="&#xe10b;" 
d="M434 0h-106v756l-156 -111v113l178 121h84v-879z" />
    <glyph glyph-name="two.denominator" unicode="&#xe10c;" 
d="M596 0h-510v86q56 48 118.5 117t123 150.5t100 168.5t39.5 154q0 63 -36 103t-99 40q-65 0 -91.5 -37.5t-35.5 -107.5h-123q27 227 256 227q113 0 177.5 -66.5t64.5 -179.5q0 -53 -14.5 -107t-45 -106.5t-60.5 -96t-77.5 -94.5t-78 -81.5t-79.5 -77.5h371v-92z" />
    <glyph glyph-name="three.denominator" unicode="&#xe10d;" 
d="M279 416v90q88 0 131 32t43 117q0 67 -37 115.5t-103 48.5q-104 0 -118 -123h-123q9 96 77 150.5t166 54.5q115 0 182.5 -62.5t67.5 -176.5q0 -69 -30 -121.5t-91 -77.5q67 -24 101.5 -83t34.5 -134q0 -124 -69.5 -191t-193.5 -67q-67 0 -123.5 21.5t-95.5 70.5t-39 117
h123q3 -127 133 -127q74 0 113 45t39 121q0 99 -44 139.5t-144 40.5z" />
    <glyph glyph-name="four.denominator" unicode="&#xe10e;" 
d="M489 0h-106v256h-338v82l340 549h104v-539h148v-92h-148v-256zM383 348v361h-4l-219 -361h223z" />
    <glyph glyph-name="five.denominator" unicode="&#xe10f;" 
d="M86 195h117q4 -58 45.5 -93.5t93.5 -35.5q170 0 170 194q0 86 -39 141.5t-121 55.5q-41 0 -79 -20t-54 -56h-94l25 504h428v-90h-324l-16 -287q47 31 127 31q138 0 200 -77.5t62 -201.5q0 -129 -77 -200.5t-210 -71.5q-104 0 -170.5 53.5t-83.5 153.5z" />
    <glyph glyph-name="six.denominator" unicode="&#xe110;" 
d="M612 696h-123q0 53 -34 88t-86 35q-199 0 -199 -377q76 101 209 101q120 0 184 -79t64 -200q0 -127 -71 -201.5t-202 -74.5q-65 0 -114.5 18.5t-80.5 54t-51 76t-29.5 96t-12.5 100.5t-3 103q0 71 5.5 129t25 123.5t52 109.5t90.5 73.5t137 29.5q96 0 164 -52.5
t75 -152.5zM362 70q75 0 113.5 50t38.5 144q0 83 -37 139t-119 56q-84 0 -128 -55t-44 -132q0 -84 46.5 -143t129.5 -59z" />
    <glyph glyph-name="seven.denominator" unicode="&#xe111;" 
d="M264 0h-112l335 793h-399v90h514v-72z" />
    <glyph glyph-name="eight.denominator" unicode="&#xe112;" 
d="M432 457q87 -20 134.5 -81t47.5 -147q0 -114 -74 -177.5t-194 -63.5q-126 0 -202 66.5t-76 185.5q0 77 52 138.5t130 82.5q-76 20 -119 76.5t-43 132.5q0 106 74 168.5t186 62.5q110 0 178 -62.5t68 -168.5q0 -71 -45 -133.5t-117 -79.5zM336 502q74 0 111.5 46t37.5 122
q0 68 -37.5 108.5t-107.5 40.5q-69 0 -107 -42t-38 -111q0 -70 37.5 -117t103.5 -47zM346 68q160 0 160 165q0 80 -42.5 130.5t-121.5 50.5q-75 0 -120.5 -49t-45.5 -125q0 -79 45.5 -125.5t124.5 -46.5z" />
    <glyph glyph-name="nine.denominator" unicode="&#xe113;" 
d="M66 193h122q0 -52 38 -87.5t91 -35.5q196 0 191 376q-76 -100 -209 -100q-120 0 -184 79t-64 200q0 127 71 201.5t202 74.5q56 0 100.5 -15t74.5 -38.5t51.5 -60.5t33.5 -73.5t19 -85t9 -87.5t2 -88t-2.5 -91t-11 -91t-22 -88t-37 -76.5t-55 -62.5t-78 -40.5
t-103.5 -15.5q-96 0 -164 52.5t-75 152.5zM319 430q84 0 128.5 54.5t44.5 131.5q0 84 -47 143.5t-130 59.5q-75 0 -113 -50t-38 -144q0 -83 36.5 -139t118.5 -56z" />
    <glyph glyph-name="cent.denominator" unicode="&#xe119;" horiz-adv-x="602" 
d="M346 -123h-67v123q-61 12 -106 48t-69.5 88t-35.5 107t-11 115q0 78 20 143t71.5 115.5t130.5 61.5v102h67v-102q94 -12 146.5 -65.5t52.5 -145.5h-107q0 58 -21 91.5t-71 51.5v-551q27 -6 64 -6q53 0 127 19v-64q-70 -18 -191 -18v-113zM279 88v520q-32 -12 -55.5 -38
t-35 -60t-17 -67t-5.5 -68q0 -88 26.5 -166.5t86.5 -120.5z" />
    <glyph glyph-name="dollar.denominator" unicode="&#xe11b;" horiz-adv-x="733" 
d="M395 -127h-71v113q-100 5 -166.5 54t-79.5 142h112q7 -58 39.5 -85t94.5 -40v379h4q-56 13 -97 31t-74.5 46.5t-51 71t-17.5 99.5q0 103 65.5 168.5t170.5 77.5v100h71v-100q152 -7 219 -113q27 -42 27 -80h-115q0 52 -38 84.5t-93 38.5v-356q47 -15 81 -29.5t70 -37
t58 -49.5t36.5 -66.5t14.5 -88.5q0 -111 -72 -177.5t-188 -69.5v-113zM324 524v336q-57 -10 -94 -60.5t-37 -109.5q0 -67 32.5 -105t98.5 -61zM395 414v-359q63 0 107.5 55.5t44.5 118.5q0 72 -38.5 112.5t-113.5 72.5z" />
    <glyph glyph-name="zero.numerator" unicode="&#xe11e;" 
d="M342 408q-76 0 -131 27.5t-85.5 68.5t-48.5 103.5t-23 118t-5 126.5q0 51 2 92t9.5 91t19.5 89t34 77.5t52.5 63.5t75 40.5t100.5 15.5t100.5 -15.5t75 -40.5t52.5 -63.5t34 -77.5t19.5 -89t9.5 -91t2 -92q0 -71 -5 -126.5t-23 -118t-48.5 -103.5t-85.5 -68.5t-131 -27.5
zM336 492q43 0 75.5 17t52.5 49t32.5 66t18.5 80t7.5 78t1.5 72q0 35 -1 62.5t-5 69.5t-11 73.5t-21.5 66.5t-33.5 58t-49 38t-67 15q-41 0 -72.5 -19t-50 -54.5t-30 -71.5t-16 -86t-6 -80.5t-1.5 -71.5t1.5 -70t6 -76.5t16 -81t30 -66.5t50 -50.5t72.5 -17.5z" />
    <glyph glyph-name="one.numerator" unicode="&#xe11f;" 
d="M434 420h-106v756l-156 -111v113l178 120h84v-878z" />
    <glyph glyph-name="two.numerator" unicode="&#xe120;" 
d="M596 420h-510v86q56 48 118.5 117t123 150.5t100 168.5t39.5 154q0 63 -36 103t-99 40q-65 0 -91.5 -37.5t-35.5 -107.5h-123q27 227 256 227q113 0 177.5 -66.5t64.5 -179.5q0 -53 -14.5 -107t-45 -106.5t-60.5 -96t-77.5 -94.5t-78 -81.5t-79.5 -77.5h371v-92z" />
    <glyph glyph-name="three.numerator" unicode="&#xe121;" 
d="M279 836v90q88 0 131 32t43 117q0 67 -37 115.5t-103 48.5q-104 0 -118 -123h-123q9 96 77 150.5t166 54.5q114 0 182 -63t68 -177q0 -69 -30 -121t-91 -77q67 -24 101.5 -83t34.5 -134q0 -124 -69.5 -191t-193.5 -67q-67 0 -123.5 21.5t-95.5 70t-39 116.5h123
q3 -127 133 -127q74 0 113 45t39 121q0 100 -44 140.5t-144 40.5z" />
    <glyph glyph-name="four.numerator" unicode="&#xe122;" 
d="M489 420h-106v256h-338v82l340 549h104v-539h148v-92h-148v-256zM383 768v360h-4l-219 -360h223z" />
    <glyph glyph-name="five.numerator" unicode="&#xe123;" 
d="M86 614h117q4 -58 45.5 -93.5t93.5 -35.5q170 0 170 195q0 86 -39 141.5t-121 55.5q-41 0 -79 -20t-54 -56h-94l25 504h428v-91h-324l-16 -286q28 19 56 24.5t71 5.5q138 0 200 -77t62 -201q0 -129 -77 -200.5t-210 -71.5q-104 0 -170.5 53t-83.5 153z" />
    <glyph glyph-name="six.numerator" unicode="&#xe124;" 
d="M612 1116h-123q0 53 -34 88t-86 35q-199 0 -199 -377q76 101 209 101q120 0 184 -79t64 -200q0 -127 -71 -201.5t-202 -74.5q-65 0 -114.5 18.5t-80.5 54t-51 76t-29.5 96t-12.5 100.5t-3 103q0 71 5.5 129t25 123.5t52 109.5t90.5 73.5t137 29.5q96 0 164 -52.5
t75 -152.5zM362 489q75 0 113.5 50.5t38.5 144.5q0 83 -37 139t-119 56q-84 0 -128 -55t-44 -132q0 -84 46.5 -143.5t129.5 -59.5z" />
    <glyph glyph-name="seven.numerator" unicode="&#xe125;" 
d="M264 420h-112l335 792h-399v91h514v-72z" />
    <glyph glyph-name="eight.numerator" unicode="&#xe126;" 
d="M432 877q87 -20 134.5 -81t47.5 -147q0 -114 -74 -177.5t-194 -63.5q-126 0 -202 66t-76 185q0 77 52 139t130 83q-76 20 -119 76.5t-43 132.5q0 106 74 168.5t186 62.5q110 0 178 -62.5t68 -168.5q0 -71 -45 -133.5t-117 -79.5zM336 922q74 0 111.5 46t37.5 122
q0 68 -37.5 108.5t-107.5 40.5q-69 0 -107 -42.5t-38 -111.5t37.5 -116t103.5 -47zM346 487q80 0 120 43t40 123t-42.5 130.5t-121.5 50.5q-75 0 -120.5 -49.5t-45.5 -125.5q0 -79 45.5 -125.5t124.5 -46.5z" />
    <glyph glyph-name="nine.numerator" unicode="&#xe127;" 
d="M66 612h122q0 -52 38 -87.5t91 -35.5q196 0 191 377q-76 -100 -209 -100q-120 0 -184 78.5t-64 199.5q0 127 71 202t202 75q56 0 100.5 -15t74.5 -38.5t51.5 -61t33.5 -74t19 -85t9 -87.5t2 -88q0 -58 -4 -106.5t-15 -105t-33 -99t-55 -78.5t-84.5 -55.5t-117.5 -19.5
q-96 0 -164 52t-75 152zM319 850q84 0 128.5 54.5t44.5 131.5q0 84 -47 143.5t-130 59.5q-75 0 -113 -50.5t-38 -144.5q0 -83 36.5 -138.5t118.5 -55.5z" />
    <glyph glyph-name="cent.numerator" unicode="&#xe12d;" horiz-adv-x="602" 
d="M346 297h-67v123q-61 12 -106 48t-69.5 88t-35.5 107t-11 115q0 78 20 143t71.5 115.5t130.5 61.5v102h67v-102q94 -12 146.5 -65.5t52.5 -145.5h-107q0 58 -21 91.5t-71 51.5v-551q27 -6 64 -6q53 0 127 19v-64q-70 -18 -191 -18v-113zM279 508v520q-32 -12 -55.5 -38
t-35 -60t-17 -67t-5.5 -68q0 -88 26.5 -166.5t86.5 -120.5z" />
    <glyph glyph-name="dollar.numerator" unicode="&#xe131;" horiz-adv-x="733" 
d="M395 293h-71v113q-100 5 -166.5 54t-79.5 142h112q7 -58 39.5 -85t94.5 -40v379h4q-56 13 -97 31t-74.5 46.5t-51 71t-17.5 99.5q0 103 65.5 168.5t170.5 77.5v100h71v-100q152 -7 219 -113q27 -42 27 -80h-115q0 52 -38 84.5t-93 38.5v-356q47 -15 81 -29.5t70 -37
t58 -49.5t36.5 -66.5t14.5 -88.5q0 -111 -72 -177.5t-188 -69.5v-113zM324 944v336q-57 -10 -94 -60.5t-37 -109.5q0 -67 32.5 -105t98.5 -61zM395 834v-359q63 0 107.5 55.5t44.5 118.5q0 72 -38.5 112.5t-113.5 72.5z" />
    <glyph glyph-name="one.fitted" unicode="&#xf6dc;" horiz-adv-x="761" 
d="M487 0h-127v1163l-231 -166v127l254 174h104v-1298z" />
    <glyph glyph-name="cent.inferior" unicode="&#xf6df;" horiz-adv-x="602" 
d="M346 -522h-67v123q-61 12 -106 48t-69.5 88t-35.5 107t-11 115q0 78 20 143t71.5 115.5t130.5 61.5v102h67v-102q94 -12 146.5 -65.5t52.5 -145.5h-107q0 58 -21 91.5t-71 51.5v-551q27 -6 64 -6q56 0 127 18v-63q-74 -19 -191 -19v-112zM279 -311v520q-32 -12 -55.5 -38
t-35 -60.5t-17 -67.5t-5.5 -68q0 -88 26.5 -166t86.5 -120z" />
    <glyph glyph-name="cent.superior" unicode="&#xf6e0;" horiz-adv-x="602" 
d="M356 707h-67v122q-49 10 -88 36t-63.5 61t-40.5 80.5t-22.5 90t-6.5 91.5q0 78 19.5 142.5t71 115t130.5 61.5v103h67v-103q94 -12 146.5 -65.5t52.5 -145.5h-106q0 58 -21.5 92t-71.5 52v-551q27 -6 64 -6q56 0 127 18v-63q-74 -19 -191 -19v-112zM289 918v520
q-32 -12 -55.5 -38t-35 -60.5t-17 -67.5t-5.5 -68q0 -88 26.5 -166t86.5 -120z" />
    <glyph glyph-name="dollar.inferior" unicode="&#xf6e3;" horiz-adv-x="733" 
d="M395 -526h-71v112q-100 5 -166.5 54.5t-79.5 142.5h112q7 -58 39.5 -85t94.5 -40v379h4q-56 13 -97 31t-74.5 46.5t-51 71t-17.5 99.5q0 103 65.5 168t170.5 77v101h71v-101q152 -7 219 -112q27 -42 27 -80h-115q0 52 -38 84.5t-93 38.5v-357q60 -20 100.5 -38.5
t80.5 -49.5t59.5 -76.5t19.5 -105.5q0 -111 -72 -178t-188 -70v-112zM324 125v336q-57 -10 -94 -60.5t-37 -109.5q0 -67 32.5 -105t98.5 -61zM395 14v-358q63 0 107.5 56t44.5 118q0 72 -38.5 112t-113.5 72z" />
    <glyph glyph-name="dollar.superior" unicode="&#xf6e4;" horiz-adv-x="733" 
d="M395 702h-71v113q-100 5 -166.5 54.5t-79.5 142.5h112q7 -58 39.5 -85t94.5 -40v379h4q-117 28 -178.5 83t-61.5 164q0 103 65.5 168.5t170.5 77.5v101h71v-101q152 -7 219 -112q27 -42 27 -80h-115q0 52 -38 84.5t-93 38.5v-357q60 -20 100.5 -38.5t80.5 -49.5
t59.5 -76.5t19.5 -105.5q0 -111 -72 -178t-188 -70v-113zM324 1354v336q-57 -10 -94 -60.5t-37 -109.5q0 -67 32.5 -105t98.5 -61zM395 1243v-358q63 0 107.5 55.5t44.5 118.5q0 72 -38.5 112t-113.5 72z" />
    <glyph glyph-name="a.superior" unicode="&#xf6e9;" horiz-adv-x="628" 
d="M518 438h-90l-4 82q-30 -42 -82 -70t-104 -28q-78 0 -132.5 49t-54.5 123q0 53 26 94t64.5 64t91.5 37.5t99.5 19t95.5 4.5v45q0 30 -0.5 45.5t-3 42.5t-7 41t-14 33t-23 28t-35 16t-48.5 7q-61 0 -89.5 -30.5t-31.5 -94.5h-108q22 180 237 180q117 0 165 -57.5
t48 -173.5v-457zM428 719v39q-47 0 -88.5 -5.5t-88 -20.5t-74 -47.5t-27.5 -80.5q0 -50 32.5 -80t79.5 -30q81 0 123.5 68t42.5 157z" />
    <glyph glyph-name="b.superior" unicode="&#xf6ea;" horiz-adv-x="653" 
d="M90 750v663h90v-409q64 122 182 122q52 0 94 -24t67.5 -61t42.5 -86t23.5 -95t6.5 -92q0 -52 -8.5 -100t-28 -93.5t-49.5 -79t-76 -53.5t-104 -20q-60 0 -104.5 19t-70 48.5t-40.5 74t-20 88t-5 98.5zM332 477q49 0 83.5 27t51.5 72t24 89t7 91q0 48 -5.5 94t-19.5 100.5
t-46 87.5t-79 33q-45 0 -78.5 -35.5t-50.5 -90t-25 -105t-8 -92.5q0 -44 5.5 -85t20 -86t45.5 -72.5t75 -27.5z" />
    <glyph glyph-name="d.superior" unicode="&#xf6eb;" horiz-adv-x="681" 
d="M569 438h-90l-2 103q-25 -53 -76.5 -86t-111.5 -33q-230 0 -230 348q0 50 6.5 96.5t23.5 95t43 84t69.5 58t99.5 22.5q123 0 178 -116v403h90v-975zM293 477q49 0 87 31t58.5 79t30.5 98t10 97q0 53 -18.5 117.5t-60.5 118t-95 53.5q-45 0 -76.5 -32.5t-45.5 -85
t-19.5 -97.5t-5.5 -92q0 -43 4.5 -84.5t17 -91.5t42 -80.5t71.5 -30.5z" />
    <glyph glyph-name="e.superior" unicode="&#xf6ec;" horiz-adv-x="608" 
d="M543 500v-60q-66 -18 -148 -18q-174 0 -255 98t-81 271q0 70 13 127t42.5 105.5t83 75.5t128.5 27q116 0 172.5 -75t56.5 -193h-397q1 -53 8.5 -102.5t24 -100.5t48 -91t74.5 -60q47 -23 101 -23q73 0 129 19zM164 913h293q0 72 -37.5 115t-106.5 43q-67 0 -105.5 -44
t-43.5 -114z" />
    <glyph glyph-name="l.superior" unicode="&#xf6ee;" horiz-adv-x="313" 
d="M203 438h-90v975h90v-975z" />
    <glyph glyph-name="m.superior" unicode="&#xf6ef;" horiz-adv-x="1048" 
d="M938 438h-90v453q0 28 -1 46.5t-6 43.5t-14.5 39.5t-28 25.5t-44.5 11q-57 0 -101.5 -57t-64 -125.5t-19.5 -126.5v-310h-90v461q0 31 -3 54.5t-11 49.5t-27.5 40t-48.5 14q-57 0 -102.5 -57.5t-65.5 -126.5t-20 -125v-310h-90v672h90l2 -137q30 65 84.5 109t120.5 44
q73 0 114 -42.5t47 -112.5q31 64 86 109.5t119 45.5q79 0 121.5 -51.5t42.5 -128.5v-508z" />
    <glyph glyph-name="o.superior" unicode="&#xf6f0;" horiz-adv-x="681" 
d="M342 422q-78 0 -134.5 29.5t-88 81t-46 112.5t-14.5 133q0 53 9 102t30 94.5t52.5 78.5t79 53t106.5 20q78 0 135.5 -30t90 -82.5t48 -114t15.5 -133.5q0 -70 -15.5 -129.5t-48 -109t-88.5 -77.5t-131 -28zM340 477q44 0 78 18t53.5 45.5t32 66.5t16.5 76t4 79
q0 309 -188 309q-52 0 -88.5 -26t-55 -69.5t-26.5 -88.5t-8 -96q0 -55 7 -103t25 -99.5t56.5 -81.5t93.5 -30z" />
    <glyph glyph-name="r.superior" unicode="&#xf6f1;" horiz-adv-x="444" 
d="M201 438h-90v672h90l4 -127q79 135 207 143v-102h-29q-49 0 -85.5 -21.5t-56.5 -57.5t-30 -78t-10 -89v-340z" />
    <glyph glyph-name="s.superior" unicode="&#xf6f2;" horiz-adv-x="497" 
d="M33 455v90q42 -26 98 -42t100 -16q66 0 108 29t42 94q0 29 -11.5 52.5t-36.5 41.5t-46.5 29.5t-57.5 26.5q-37 16 -56.5 25t-49 27t-45 36t-27.5 45t-12 59q0 92 65.5 133t165.5 41q59 0 166 -26v-82l-33 12q-96 39 -147 39q-52 0 -88.5 -22.5t-36.5 -71.5
q0 -27 11 -48.5t36 -39t44.5 -27.5t56.5 -26q38 -17 58 -27.5t51.5 -31t48 -39.5t29.5 -49t13 -64q0 -105 -71 -153t-183 -48q-120 0 -192 33z" />
    <glyph glyph-name="t.superior" unicode="&#xf6f3;" horiz-adv-x="454" 
d="M428 426h-6q-5 0 -16.5 -1t-16.5 -1q-10 -2 -37 -2q-95 0 -145.5 35t-50.5 123v473h-109v57h109v156l90 55v-211h178v-57h-178v-428q0 -73 24.5 -110.5t91.5 -37.5q32 0 66 12v-63z" />
    <glyph glyph-name="h.superior" unicode="&#xf700;" horiz-adv-x="708" 
d="M596 438h-90v449q0 35 -3 60t-12 52.5t-30 42.5t-53 15q-35 0 -66.5 -20t-54.5 -53.5t-38.5 -66t-27.5 -67.5q-20 -62 -20 -98v-314h-90v975h90v-452q30 69 89.5 117t131.5 48q174 0 174 -213v-475z" />
    </font>
</defs>
</svg>
