<?xml version="1.0" standalone="no"?>
<!DOCTYPE svg PUBLIC "-//W3C//DTD SVG 1.1//EN" "http://www.w3.org/Graphics/SVG/1.1/DTD/svg11.dtd" >
<svg xmlns="http://www.w3.org/2000/svg" xmlns:xlink="http://www.w3.org/1999/xlink" version="1.1">
<metadata>
Created by FontForge 20170731 at Mon Mar 21 19:30:49 2022
 By Aleksey,,,
Font software Copyright 1998, 2007 Monotype Imaging Inc. All rights reserved.
</metadata>
<defs>
<font id="RotisSemiSansStd-Regular" horiz-adv-x="720" >
  <font-face 
    font-family="Rotis SemiSans Std"
    font-weight="400"
    font-stretch="normal"
    units-per-em="2048"
    panose-1="2 14 5 3 3 2 2 2 3 4"
    ascent="1638"
    descent="-410"
    x-height="975"
    cap-height="1413"
    bbox="-86 -535 2335 1901"
    underline-thickness="102"
    underline-position="-307"
    unicode-range="U+0020-FB04"
  />
<missing-glyph horiz-adv-x="1024" 
d="M997 0h-972v1362h972v-1362zM512 768l330 498h-662zM123 186l330 496l-330 496v-992zM901 184v994l-332 -496zM842 98l-330 496l-332 -496h662z" />
    <glyph glyph-name="f_f" unicode="ff" horiz-adv-x="1284" 
d="M979 0h-152v881h-430v-881h-151v881h-180v94h180v63q0 57 4 98.5t15.5 88.5t35 79.5t60 60t94 41t133.5 13.5q55 0 166 -18v-121q-3 1 -16 6.5t-17.5 7.5t-17 7t-19.5 6.5t-19 5t-22 5t-22.5 2.5t-24.5 1q-52 0 -90 -14.5t-58.5 -36t-32.5 -54t-15 -60t-3 -62.5v-119h430
v63q0 57 4 98.5t15.5 88.5t35 79.5t60 60t94 41t133.5 13.5q55 0 166 -18v-121q-2 1 -18 7.5t-20.5 8.5t-19 7.5t-23 7.5t-22.5 5t-27 4t-27 1q-52 0 -90 -14.5t-58.5 -36t-32.5 -54t-15 -60t-3 -62.5v-119h283v-94h-283v-881z" />
    <glyph glyph-name="fi" unicode="fi" horiz-adv-x="1138" 
d="M979 1229h-172v184h172v-184zM969 0h-152v975h152v-975zM387 0h-151v881h-179v94h179v63q0 57 4 98.5t15.5 88.5t35 79.5t60 60t94 41t133.5 13.5q56 0 167 -18v-121q-33 13 -47.5 18.5t-46 12t-63.5 6.5q-54 0 -92.5 -14.5t-59 -35t-32 -52.5t-14.5 -58.5t-3 -62.5v-119
h283v-94h-283v-881z" />
    <glyph glyph-name="fl" unicode="fl" horiz-adv-x="1140" 
d="M969 0h-152v1413h152v-1413zM387 0h-151v881h-179v94h179v63q0 57 4 98.5t15.5 88.5t35 79.5t60 60t94 41t133.5 13.5q56 0 167 -18v-121q-33 13 -47.5 18.5t-46 12t-63.5 6.5q-54 0 -92.5 -14.5t-59 -35t-32 -52.5t-14.5 -58.5t-3 -62.5v-119h283v-94h-283v-881z" />
    <glyph glyph-name="f_f_i" unicode="ffi" horiz-adv-x="1730" 
d="M1571 1229h-172v184h172v-184zM1561 0h-152v975h152v-975zM979 0h-152v881h-430v-881h-151v881h-180v94h180v63q0 57 4 98.5t15.5 88.5t35 79.5t60 60t94 41t133.5 13.5q55 0 166 -18v-121q-3 1 -16 6.5t-17.5 7.5t-17 7t-19.5 6.5t-19 5t-22 5t-22.5 2.5t-24.5 1
q-52 0 -90 -14.5t-58.5 -36t-32.5 -54t-15 -60t-3 -62.5v-119h430v63q0 57 4 98.5t15.5 88.5t35 79.5t60 60t94 41t133.5 13.5q55 0 166 -18v-121q-2 1 -18 7.5t-20.5 8.5t-19 7.5t-23 7.5t-22.5 5t-27 4t-27 1q-52 0 -90 -14.5t-58.5 -36t-32.5 -54t-15 -60t-3 -62.5v-119
h283v-94h-283v-881z" />
    <glyph glyph-name="f_f_l" unicode="ffl" horiz-adv-x="1732" 
d="M1561 0h-152v1413h152v-1413zM979 0h-152v881h-430v-881h-151v881h-180v94h180v63q0 57 4 98.5t15.5 88.5t35 79.5t60 60t94 41t133.5 13.5q55 0 166 -18v-121q-3 1 -16 6.5t-17.5 7.5t-17 7t-19.5 6.5t-19 5t-22 5t-22.5 2.5t-24.5 1q-52 0 -90 -14.5t-58.5 -36
t-32.5 -54t-15 -60t-3 -62.5v-119h430v63q0 57 4 98.5t15.5 88.5t35 79.5t60 60t94 41t133.5 13.5q55 0 166 -18v-121q-2 1 -18 7.5t-20.5 8.5t-19 7.5t-23 7.5t-22.5 5t-27 4t-27 1q-52 0 -90 -14.5t-58.5 -36t-32.5 -54t-15 -60t-3 -62.5v-119h283v-94h-283v-881z" />
    <glyph glyph-name=".notdef" horiz-adv-x="1024" 
d="M997 0h-972v1362h972v-1362zM512 768l330 498h-662zM123 186l330 496l-330 496v-992zM901 184v994l-332 -496zM842 98l-330 496l-332 -496h662z" />
    <glyph glyph-name=".null" horiz-adv-x="0" 
 />
    <glyph glyph-name="nonmarkingreturn" horiz-adv-x="682" 
 />
    <glyph glyph-name="space" unicode=" " horiz-adv-x="532" 
 />
    <glyph glyph-name="exclam" unicode="!" horiz-adv-x="569" 
d="M426 383h-129l-31 1030h189zM461 0h-201v199h201v-199z" />
    <glyph glyph-name="quotedbl" unicode="&#x22;" 
d="M569 973h-116l-35 440h186zM268 973h-116l-35 440h186z" />
    <glyph glyph-name="numbersign" unicode="#" horiz-adv-x="1177" 
d="M637 0h-129l110 436h-178l-112 -436h-129l112 436h-192l28 113h195l49 194h-194l30 113h195l115 442h129l-115 -442h172l108 442h136l-113 -442h205l-31 -113h-203l-49 -194h205l-31 -113h-202zM649 549l47 194h-176l-49 -194h178z" />
    <glyph glyph-name="dollar" unicode="$" horiz-adv-x="1099" 
d="M594 -195h-96v172q-181 8 -270 87t-109 212h182q11 -81 52.5 -132t144.5 -68v577q-38 9 -63 16t-66.5 23t-70 32.5t-61.5 44.5t-53 60.5t-33.5 79t-13.5 101.5q0 76 24.5 138.5t62.5 102.5t87 67.5t95.5 39.5t91.5 14v148h96v-148q168 -10 267.5 -102t99.5 -197h-183
q0 83 -51 137.5t-133 63.5v-541l39 -13q34 -11 52.5 -17.5t52.5 -20t54 -24.5t49.5 -30t47 -37.5t38.5 -45t32 -56t18.5 -67t7.5 -80.5q0 -82 -26 -147t-66 -104.5t-93.5 -65.5t-103.5 -36.5t-102 -11.5v-172zM498 766v508q-75 -8 -130 -76.5t-55 -177.5q0 -193 185 -254z
M594 618v-542q36 3 72.5 20.5t69 47.5t53 80.5t20.5 111.5q0 62 -21 112t-58 83t-67 51.5t-69 35.5z" />
    <glyph glyph-name="percent" unicode="%" horiz-adv-x="1671" 
d="M1311 -23q-74 0 -129 24.5t-88 64.5t-53.5 99.5t-27.5 120t-7 136.5q0 77 7 140.5t27.5 126.5t53.5 106t88 69.5t129 26.5q70 0 123.5 -26.5t87 -69.5t55 -105.5t29.5 -127t8 -140.5q0 -445 -303 -445zM680 0h-115l426 1298h115zM360 408q-74 0 -129 24.5t-87.5 64
t-52.5 99t-27 120t-7 136.5q0 78 7 141t27 126t52.5 106t87.5 69.5t129 26.5q70 0 124 -26.5t87.5 -69.5t55 -105.5t29.5 -127t8 -140.5q0 -444 -304 -444zM1305 57q178 0 178 367q0 55 -2.5 99.5t-13 101.5t-28.5 95t-52.5 64.5t-81.5 26.5q-38 0 -67 -17.5t-47 -50
t-29.5 -68t-16.5 -84.5t-6.5 -85t-1.5 -82q0 -50 2 -89.5t12 -95t26.5 -92.5t49.5 -63.5t78 -26.5zM356 487q176 0 176 367q0 45 -2 82t-7.5 85t-18 84t-31 68.5t-48.5 50t-69 17.5q-38 0 -67 -17.5t-47 -50t-29.5 -68t-16.5 -84.5t-6.5 -85t-1.5 -82q0 -50 2 -89.5t12 -95
t26.5 -92.5t49.5 -63.5t78 -26.5z" />
    <glyph glyph-name="ampersand" unicode="&#x26;" horiz-adv-x="1329" 
d="M1307 88v-94q-70 -17 -127 -17q-42 0 -77 6.5t-60.5 15.5t-45.5 26t-32.5 32t-21.5 39t-13.5 40.5t-6.5 44t-2.5 42t-0.5 41.5v414h-330q-67 0 -118.5 -14t-93 -46.5t-63.5 -90.5t-22 -140q0 -156 76 -234.5t202 -78.5q89 0 177 35v-109q-121 -23 -195 -23
q-66 0 -124.5 10t-118.5 37t-102.5 70t-69.5 114t-27 163q0 282 247 354v4q-43 10 -80.5 29.5t-74.5 53t-58.5 87.5t-21.5 123q0 156 112 249t289 93q103 0 217 -29v-108q-109 45 -204 45q-64 0 -113 -23.5t-76.5 -61.5t-41 -81t-13.5 -88q0 -66 25 -115.5t65.5 -77
t84.5 -40.5t89 -13h363v356l151 99v-455h240v-94h-240v-402q0 -48 5 -79.5t20 -62t47.5 -45.5t83.5 -15q17 0 30 1.5t18 2.5t16 4.5t16 5.5z" />
    <glyph glyph-name="quotesingle" unicode="'" horiz-adv-x="417" 
d="M266 973h-116l-35 440h186z" />
    <glyph glyph-name="parenleft" unicode="(" horiz-adv-x="569" 
d="M514 -201v-92q-60 11 -110 38t-86.5 60t-64.5 87.5t-46.5 100t-31 119.5t-19 123.5t-9.5 134t-3.5 130t-0.5 131.5q0 89 0.5 135.5t3.5 132.5t9.5 136t19 125t31 120.5t46.5 101t64.5 89t86.5 62t110 40.5v-92q-33 -14 -60 -42t-46.5 -59.5t-35 -83t-25 -93.5t-16.5 -111
t-10.5 -114.5t-5.5 -125t-2 -122.5v-126v-113.5t2 -110.5t5.5 -113t10.5 -103.5t16.5 -100.5t25 -85.5t35 -78t46.5 -57.5t60 -43z" />
    <glyph glyph-name="parenright" unicode=")" horiz-adv-x="569" 
d="M55 -293v92q33 16 60 43t46.5 57.5t35 78t25 85.5t16.5 100.5t10.5 103.5t5.5 113t2 110.5v113.5v126t-2 122.5t-5.5 125t-10.5 114.5t-16.5 111t-25 93.5t-35 83t-46.5 59.5t-60 42v92q60 -12 110 -40.5t86.5 -62t64.5 -89t46.5 -101t31 -120.5t19 -125t9.5 -136
t3.5 -132.5t0.5 -135.5q0 -86 -0.5 -131.5t-3.5 -130t-9.5 -134t-19 -123.5t-31 -119.5t-46.5 -100t-64.5 -87.5t-86.5 -60t-110 -38z" />
    <glyph glyph-name="asterisk" unicode="*" horiz-adv-x="645" 
d="M522 911l-92 -53l-72 123l-34 70l-33 -70l-74 -123l-90 53l72 123l43 70l-82 -6h-140v98h140l82 -4l-45 65l-70 125l90 54l72 -125l35 -74l34 74l72 125l92 -54l-71 -125l-45 -67l79 6h140v-98h-140l-79 6l45 -70z" />
    <glyph glyph-name="plus" unicode="+" horiz-adv-x="1177" 
d="M653 0h-139v436h-399v125h399v414h139v-414h408v-125h-408v-436z" />
    <glyph glyph-name="comma" unicode="," horiz-adv-x="417" 
d="M246 -252h-133l22 457h184z" />
    <glyph glyph-name="hyphen" unicode="-" horiz-adv-x="835" 
d="M729 436h-623v144h623v-144z" />
    <glyph glyph-name="period" unicode="." horiz-adv-x="417" 
d="M311 0h-205v205h205v-205z" />
    <glyph glyph-name="slash" unicode="/" horiz-adv-x="608" 
d="M182 -279h-145l387 1838h147z" />
    <glyph glyph-name="zero" unicode="0" horiz-adv-x="1026" 
d="M524 -23q-454 0 -454 682q0 109 11 199t40.5 178.5t78 149t128.5 98t186 37.5q102 0 180 -39t126.5 -103t79 -155.5t42.5 -186.5t12 -206q0 -101 -11.5 -190t-41.5 -176.5t-77.5 -149.5t-124 -100t-175.5 -38zM516 80q51 0 92.5 21t68 53.5t46.5 82.5t30 96.5t16 107
t7.5 102.5t1.5 94q0 56 -2 103.5t-8.5 109.5t-18 111t-32 99t-48.5 83.5t-70.5 54.5t-94.5 21q-50 0 -90.5 -21t-67 -53t-45.5 -81t-29.5 -95.5t-16.5 -106t-7.5 -102t-1.5 -94.5q0 -55 1.5 -99.5t7.5 -108t17 -112.5t31.5 -101t48 -86.5t69.5 -56.5t95 -22z" />
    <glyph glyph-name="one" unicode="1" horiz-adv-x="1026" 
d="M657 0h-163v1143l-236 -160v141l264 174h135v-1298z" />
    <glyph glyph-name="two" unicode="2" horiz-adv-x="1026" 
d="M891 0h-776v121q287 264 435 496.5t148 390.5q0 92 -56.5 151.5t-149.5 59.5q-45 0 -81 -16t-57 -39.5t-35 -53t-19 -55t-5 -47.5h-182q0 31 10 67.5t37.5 81t68.5 80.5t112 60t159 24q167 0 270.5 -90t103.5 -262q0 -90 -38 -189.5t-91.5 -180.5t-127 -166t-130.5 -139
t-116.5 -108t-69.5 -65h590v-121z" />
    <glyph glyph-name="three" unicode="3" horiz-adv-x="1026" 
d="M629 680v-4q108 -23 176.5 -100.5t68.5 -225.5q0 -191 -106 -282t-297 -91q-87 0 -156.5 20t-111 50.5t-69 71t-38.5 77t-12 72.5h182q0 -35 9.5 -65.5t31 -59.5t64.5 -46t104 -17q103 0 163 69t60 191q0 138 -55.5 204t-159.5 77h-59v112h61q99 11 145 76.5t46 163.5
q0 65 -19.5 118.5t-67.5 90.5t-118 37q-42 0 -74.5 -12t-51.5 -30t-32 -44t-18.5 -48.5t-7.5 -48.5h-183q5 111 103 198t268 87q173 0 275 -88t102 -254q0 -74 -22 -132t-58 -91.5t-71.5 -51.5t-71.5 -24z" />
    <glyph glyph-name="four" unicode="4" horiz-adv-x="1026" 
d="M770 0h-152v369h-536v118l518 811h170v-809h223v-120h-223v-369zM618 489v605h-4l-374 -605h378z" />
    <glyph glyph-name="five" unicode="5" horiz-adv-x="1026" 
d="M127 268h195q0 -77 51 -132.5t145 -55.5q67 0 116.5 23.5t78 66t42 95.5t13.5 118q0 81 -23 146.5t-78.5 109t-136.5 43.5q-70 0 -121.5 -34t-66.5 -77h-154l35 727h635v-112h-485l-29 -467q81 65 219 65q176 0 278.5 -115.5t102.5 -291.5q0 -195 -119 -297.5
t-309 -102.5q-85 0 -153 19.5t-109.5 49t-70 70t-40.5 77t-16 75.5z" />
    <glyph glyph-name="six" unicode="6" horiz-adv-x="1026" 
d="M932 1034h-182q0 77 -46.5 131t-128.5 54q-44 0 -80.5 -15.5t-62.5 -39t-47 -62.5t-34 -74t-22.5 -85.5t-14 -86t-6.5 -86.5t-2.5 -75.5t-0.5 -63.5h4q13 23 34.5 46t56.5 47.5t89 40t117 15.5q162 0 259.5 -100.5t97.5 -290.5q0 -202 -111.5 -307t-296.5 -105
q-83 0 -148.5 22.5t-109.5 57.5t-76 90.5t-49.5 109.5t-27.5 128t-12.5 131.5t-2.5 132.5q0 79 4.5 145t17.5 136.5t33.5 126t55.5 106.5t81.5 84.5t112 53.5t146.5 20q74 0 135.5 -20t100.5 -51.5t66 -70.5t38.5 -75.5t11.5 -69.5zM559 80q111 0 169 86t58 217
q0 122 -61.5 210.5t-171.5 88.5q-99 0 -166.5 -81t-67.5 -185q0 -57 13 -113.5t39.5 -107.5t75.5 -83t112 -32z" />
    <glyph glyph-name="seven" unicode="7" horiz-adv-x="1026" 
d="M420 0h-187l484 1178h-584v120h764v-120z" />
    <glyph glyph-name="eight" unicode="8" horiz-adv-x="1026" 
d="M666 678v-4q254 -63 254 -338q0 -175 -111 -267t-289 -92q-191 0 -302.5 95t-111.5 280q0 136 71.5 218t178.5 104v4q-42 9 -79.5 30t-71.5 56.5t-54 92.5t-20 128q0 152 107.5 244t279.5 92q167 0 271 -87t104 -253q0 -133 -67.5 -208t-159.5 -95zM508 727q73 0 122 39
t68 93t19 118q0 105 -54 173.5t-151 68.5q-96 0 -150.5 -70.5t-54.5 -169.5q0 -48 10 -90t31.5 -80t62.5 -60t97 -22zM518 80q111 0 168 70t57 190t-57.5 200.5t-171.5 80.5q-60 0 -106.5 -24.5t-72.5 -65t-39 -87.5t-13 -98q0 -110 60.5 -188t174.5 -78z" />
    <glyph glyph-name="nine" unicode="9" horiz-adv-x="1026" 
d="M733 678h-4q-9 -19 -30 -42.5t-56 -51t-90 -46t-119 -18.5q-158 0 -256 103t-98 288q0 187 107 298.5t298 111.5q78 0 142 -21.5t107.5 -56.5t75.5 -87.5t51 -107t30 -123.5t14.5 -128t3.5 -129q0 -76 -4.5 -142t-17 -138t-32.5 -130t-54 -112t-79.5 -90t-110.5 -57.5
t-144 -21.5q-93 0 -163.5 26.5t-111.5 71.5t-63 92.5t-29 100.5h183q0 -78 45.5 -133t142.5 -55q42 0 78 16.5t61 41t45.5 64.5t33 77t21.5 88.5t13.5 88t6.5 87.5t2.5 74.5t0.5 60.5zM481 618q96 0 168 76t72 180q0 32 -5 67t-16 75t-30 75.5t-45 64.5t-64 46t-84 17
q-58 0 -102.5 -27.5t-69.5 -71.5t-37 -93t-12 -99q0 -86 24 -154.5t76 -112t125 -43.5z" />
    <glyph glyph-name="colon" unicode=":" horiz-adv-x="532" 
d="M426 770h-205v205h205v-205zM426 0h-205v205h205v-205z" />
    <glyph glyph-name="semicolon" unicode=";" horiz-adv-x="532" 
d="M430 770h-205v205h205v-205zM346 -252h-133l23 457h184z" />
    <glyph glyph-name="less" unicode="&#x3c;" horiz-adv-x="1177" 
d="M1063 0l-948 418v129l948 414v-130l-807 -352l807 -350v-129z" />
    <glyph glyph-name="equal" unicode="=" horiz-adv-x="1177" 
d="M1061 588h-946v125h946v-125zM1061 285h-946v125h946v-125z" />
    <glyph glyph-name="greater" unicode="&#x3e;" horiz-adv-x="1177" 
d="M1063 418l-948 -418v129l807 350l-807 352v130l948 -414v-129z" />
    <glyph glyph-name="question" unicode="?" horiz-adv-x="835" 
d="M414 383h-131v162q0 42 8.5 74t28 61.5t39.5 52t56.5 63t65.5 76.5q13 16 40.5 47t40 47.5t29 44.5t23.5 58.5t7 67.5q0 84 -57.5 133t-147.5 49q-75 0 -153.5 -31.5t-123.5 -66.5v170q137 45 264 45q61 0 117 -10t108 -34t90.5 -59t61.5 -88t23 -119q0 -54 -17.5 -104.5
t-51 -96.5t-64 -80t-76.5 -79.5t-68 -71.5q-66 -75 -82 -103q-29 -59 -30 -165v-43zM449 0h-199v199h199v-199z" />
    <glyph glyph-name="at" unicode="@" horiz-adv-x="1658" 
d="M1147 57q-91 0 -140 35.5t-61 87.5q-101 -129 -233 -129q-66 0 -116 27.5t-78.5 73.5t-42 101t-13.5 116q0 72 12.5 146.5t42.5 151t73 135.5t109.5 96.5t147.5 37.5q77 0 125 -29.5t80 -91.5v6l18 97h121l-113 -574q-12 -47 -12 -78q0 -88 90 -88q38 0 83.5 28.5
t88.5 79t72 135t29 183.5q0 104 -40 197t-112 162t-177.5 109t-230.5 40q-126 0 -241.5 -48.5t-201 -133.5t-136.5 -207t-51 -262q0 -186 76.5 -322.5t209 -205t303.5 -68.5q96 0 182.5 14t141.5 34t96 40.5t59 34.5l17 14l53 -96q-7 -7 -20.5 -17.5t-63.5 -38.5
t-108.5 -49.5t-157.5 -39t-209 -17.5q-150 0 -278.5 48t-225 137.5t-151.5 227.5t-55 308q0 136 42 258t115 214t169 159.5t207.5 102t227.5 34.5q192 0 347 -80t244 -224.5t89 -324.5q0 -106 -26.5 -197.5t-69 -154t-96.5 -108t-108 -66.5t-103 -21zM733 164q67 0 120 42.5
t83 108.5t45.5 135t15.5 132q0 41 -6.5 79.5t-22 77t-46 61.5t-72.5 23q-54 0 -99 -34t-73.5 -85.5t-48.5 -114.5t-28.5 -119.5t-8.5 -102.5q0 -50 12.5 -93.5t45.5 -76.5t83 -33z" />
    <glyph glyph-name="A" unicode="A" horiz-adv-x="1177" 
d="M1157 0h-176l-145 446h-521l-143 -446h-154l476 1413h186zM799 559l-221 694h-5l-223 -694h449z" />
    <glyph glyph-name="B" unicode="B" horiz-adv-x="1101" 
d="M481 0h-307v1413h285q46 0 78.5 -1t86 -8.5t92 -20t83 -38t72 -60.5t46.5 -90t19 -124q0 -71 -22.5 -130.5t-59.5 -97.5t-79.5 -61t-86.5 -30v-4q47 -9 90 -25.5t84.5 -46.5t71.5 -69t48.5 -96t18.5 -124q0 -63 -13.5 -115.5t-33.5 -89.5t-53.5 -67t-64 -48.5t-75 -32
t-75.5 -20t-77 -10t-68.5 -4t-59.5 -0.5zM344 797h127q40 0 77 6t78 23.5t71 46t49.5 77.5t19.5 113q0 62 -19.5 107.5t-47.5 70t-71 38.5t-77.5 17.5t-79.5 3.5h-127v-503zM344 113h127q33 0 57.5 1t63 7t67 17t60.5 32t52.5 49.5t34 73t13.5 100.5q0 291 -348 291h-127
v-571z" />
    <glyph glyph-name="C" unicode="C" horiz-adv-x="1101" 
d="M1020 229v-159q-162 -93 -346 -93q-126 0 -226 43t-163.5 114.5t-105 171t-58.5 204.5t-17 223q0 62 6.5 124t23 132.5t42 133t67 121t95 100.5t128.5 67t165 25q105 0 190.5 -33t140 -89.5t84 -129t29.5 -154.5h-201q0 42 -7 81t-25 79.5t-46 70.5t-74 49t-104 19
q-60 0 -109.5 -21t-83.5 -55.5t-59.5 -83.5t-40 -99t-23.5 -108.5t-12 -106t-3 -97.5q0 -105 12.5 -198t42 -179t75 -147.5t116 -98.5t159.5 -37q37 0 68.5 3.5t61 13.5t48 16t46 23.5t36 23t37 27.5t31.5 24z" />
    <glyph glyph-name="D" unicode="D" horiz-adv-x="1214" 
d="M408 0h-234v1413h256q174 0 296.5 -34t211 -114t130.5 -215.5t42 -334.5q0 -129 -17 -231t-46.5 -176.5t-77.5 -129t-103.5 -88.5t-130.5 -54.5t-152 -28t-175 -7.5zM344 121h107q261 0 369 134t108 439q0 148 -20 253.5t-56 174t-96.5 108t-132.5 55t-172 15.5h-107
v-1179z" />
    <glyph glyph-name="E" unicode="E" horiz-adv-x="948" 
d="M877 0h-703v1413h682v-113h-512v-503h485v-117h-485v-559h533v-121z" />
    <glyph glyph-name="F" unicode="F" horiz-adv-x="872" 
d="M344 0h-170v1413h684v-113h-514v-503h487v-117h-487v-680z" />
    <glyph glyph-name="G" unicode="G" horiz-adv-x="1253" 
d="M938 174v504h-326v117h496v-680q-68 -64 -182 -101t-246 -37q-123 0 -220 37t-163.5 102.5t-110 160t-63 205.5t-19.5 243q0 94 11 178.5t35.5 166.5t66.5 147t99.5 115t140.5 77t184 27q110 0 197.5 -29t139 -73t85.5 -100.5t46.5 -106t12.5 -95.5h-196q0 59 -15 110
t-46.5 94t-88 68t-131.5 25q-86 0 -151.5 -38t-104 -96t-62.5 -140t-32 -158.5t-8 -161.5q0 -100 10 -186.5t37.5 -174.5t72 -150t118.5 -101t171 -39q147 0 242 90z" />
    <glyph glyph-name="H" unicode="H" horiz-adv-x="1253" 
d="M1077 0h-170v676h-563v-676h-170v1413h170v-620h563v620h170v-1413z" />
    <glyph glyph-name="I" unicode="I" horiz-adv-x="532" 
d="M350 0h-170v1413h170v-1413z" />
    <glyph glyph-name="J" unicode="J" 
d="M395 338v1075h170v-1063q0 -71 -14 -128.5t-36 -96t-55.5 -66.5t-66 -43.5t-73.5 -24.5t-72.5 -11.5t-69.5 -2.5q-84 0 -178 23v152q5 -2 31 -14t44.5 -19t51 -14t63.5 -7q52 0 90.5 14.5t60 37t34 56t16.5 64t4 68.5z" />
    <glyph glyph-name="K" unicode="K" horiz-adv-x="1101" 
d="M1102 0h-211l-543 690h-4v-690h-170v1413h170v-633h4l506 633h184l-544 -657z" />
    <glyph glyph-name="L" unicode="L" horiz-adv-x="835" 
d="M840 0h-666v1413h170v-1292h496v-121z" />
    <glyph glyph-name="M" unicode="M" horiz-adv-x="1632" 
d="M1458 0h-158v1270h-4l-417 -1270h-148l-418 1262h-4v-1262h-135v1413h240l403 -1212h4l398 1212h239v-1413z" />
    <glyph glyph-name="N" unicode="N" horiz-adv-x="1290" 
d="M1116 0h-198l-588 1204h-4v-1204h-152v1413h203l584 -1196h4v1196h151v-1413z" />
    <glyph glyph-name="O" unicode="O" horiz-adv-x="1253" 
d="M635 -23q-112 0 -202.5 39.5t-151 106.5t-101 160t-58.5 195.5t-18 217.5q0 119 18 225t58.5 201.5t101 164t151 109t202.5 40.5q113 0 202 -40.5t146.5 -108.5t95.5 -164.5t54 -201.5t16 -225q0 -116 -16 -217.5t-54 -195t-95.5 -160.5t-146.5 -106.5t-202 -39.5z
M623 84q60 0 109.5 20.5t84.5 54.5t62 83t43 101t26.5 113t14.5 115t4 111q0 647 -344 647q-336 0 -336 -647q0 -57 3.5 -111t13.5 -115t25.5 -113t41.5 -101t60.5 -83t83.5 -54.5t108 -20.5z" />
    <glyph glyph-name="P" unicode="P" horiz-adv-x="1026" 
d="M344 0h-170v1413h301q78 0 143.5 -8t137 -32.5t120.5 -65.5t81 -113t32 -168q0 -72 -16.5 -130t-44 -98t-68.5 -70t-84.5 -47.5t-97.5 -28t-101 -14t-102 -3.5h-131v-635zM344 752h129q54 0 95.5 5t88.5 22t78 46t51.5 82t20.5 125q0 66 -20.5 115.5t-52 78t-77.5 46
t-89 23t-95 5.5h-129v-548z" />
    <glyph glyph-name="Q" unicode="Q" horiz-adv-x="1253" 
d="M1233 0h-551q-296 0 -437 171.5t-141 524.5q0 119 18 225t58.5 201.5t101 164t151 109t202.5 40.5q106 0 192 -39.5t145 -107.5t99 -162.5t58 -202t18 -228.5q0 -76 -7 -143.5t-16.5 -118t-27.5 -96.5t-31 -76t-36 -59.5t-34.5 -43t-33.5 -31t-26 -20l-20 -12.5l5 -4
q205 25 313 68v-160zM631 106q79 0 140.5 38.5t97 97t58 138.5t30.5 152.5t8 149.5q0 647 -342 647q-336 0 -336 -647q0 -67 6 -129t19.5 -129.5t39.5 -122.5t62.5 -100t92 -70t124.5 -25z" />
    <glyph glyph-name="R" unicode="R" horiz-adv-x="1101" 
d="M1014 0h-174l-58 289q-14 72 -27.5 119.5t-33 90t-44 66.5t-61 42t-83 25t-111.5 7h-78v-639h-170v1413h311q77 0 143 -9.5t132.5 -35t112.5 -66t75 -107.5t29 -155q0 -68 -23 -125t-58 -93.5t-79.5 -62.5t-83.5 -38.5t-74 -15.5v-5q63 -10 109.5 -33t73.5 -51t46 -72.5
t29 -83.5t22 -97q0 -2 0.5 -3.5t0.5 -3.5zM344 752h94q44 0 86.5 6t93.5 25t88.5 49t63 83t25.5 123q0 66 -20.5 115t-50.5 76.5t-73 44t-79.5 21.5t-77.5 5h-150v-548z" />
    <glyph glyph-name="S" unicode="S" horiz-adv-x="987" 
d="M94 20v177q209 -99 355 -99q136 0 213 64t77 184q0 41 -11.5 77t-37 66.5t-52 54t-70 49.5t-77 44t-88 45.5t-88.5 46.5q-109 59 -172 140.5t-63 209.5q0 168 119.5 262.5t324.5 94.5q139 0 305 -35v-164q-187 86 -337 86q-110 0 -179 -58t-69 -149q0 -49 21 -91.5
t53 -72t81 -60t93.5 -52.5t102 -52.5t97.5 -56.5q66 -43 102.5 -73t69 -71t45.5 -90.5t13 -117.5q0 -102 -38.5 -180t-107 -126t-158 -72t-196.5 -24q-177 0 -328 43z" />
    <glyph glyph-name="T" unicode="T" horiz-adv-x="835" 
d="M502 0h-170v1300h-332v113h834v-113h-332v-1300z" />
    <glyph glyph-name="U" unicode="U" horiz-adv-x="1253" 
d="M922 535v878h170v-883q0 -63 -1 -99t-10 -102.5t-25.5 -107t-51 -92.5t-83 -81t-125 -50t-173.5 -21q-95 0 -170 21t-123 50t-82 81t-50 92.5t-25 107t-10 102.5t-1 99v883h170v-878q0 -42 0.5 -65t3 -66t7.5 -69t15 -64t24.5 -61t37.5 -49.5t52 -41.5t69 -25t88 -10
t87.5 10t68 25t51 41.5t36.5 49.5t24 61t15 64t7.5 69t3 66t0.5 65z" />
    <glyph glyph-name="V" unicode="V" horiz-adv-x="1062" 
d="M631 0h-197l-469 1413h178l404 -1233h4l391 1233h156z" />
    <glyph glyph-name="W" unicode="W" horiz-adv-x="1689" 
d="M1362 0h-188l-330 1184h-4l-324 -1184h-188l-262 1413h165l205 -1210h4l342 1210h148l336 -1202h4l211 1202h141z" />
    <glyph glyph-name="X" unicode="X" horiz-adv-x="1062" 
d="M1063 0h-199l-346 592l-352 -592h-166l438 729l-401 684h194l308 -524l305 524h170l-396 -659z" />
    <glyph glyph-name="Y" unicode="Y" horiz-adv-x="1026" 
d="M590 0h-170v653l-430 760h192l336 -604l346 604h172l-446 -760v-653z" />
    <glyph glyph-name="Z" unicode="Z" horiz-adv-x="987" 
d="M936 0h-885v121l662 1179h-627v113h821v-113l-661 -1179h690v-121z" />
    <glyph glyph-name="bracketleft" unicode="[" horiz-adv-x="606" 
d="M571 -279h-370v1838h370v-117h-219v-1604h219v-117z" />
    <glyph glyph-name="backslash" unicode="\" horiz-adv-x="608" 
d="M571 -279h-145l-389 1838h145z" />
    <glyph glyph-name="bracketright" unicode="]" horiz-adv-x="606" 
d="M406 -279h-371v117h219v1604h-219v117h371v-1838z" />
    <glyph glyph-name="asciicircum" unicode="^" horiz-adv-x="1177" 
d="M934 682h-127l-219 502l-219 -502h-127l282 639h127z" />
    <glyph glyph-name="underscore" unicode="_" horiz-adv-x="1024" 
d="M1024 -236h-1024v103h1024v-103z" />
    <glyph glyph-name="grave" unicode="`" horiz-adv-x="614" 
d="M393 1145h-129l-137 274h180z" />
    <glyph glyph-name="a" unicode="a" horiz-adv-x="948" 
d="M786 0h-151v137h-4q-14 -23 -34.5 -46t-55 -51t-84.5 -45.5t-107 -17.5q-116 0 -190 72.5t-74 173.5q0 248 371 297q62 9 178 15v129q0 38 -2.5 67t-12.5 65.5t-27.5 60.5t-51.5 41t-80 17q-45 0 -77.5 -14t-49 -32t-27 -49t-13 -49.5t-5.5 -49.5h-176q23 276 354 276
q60 0 108 -11t81 -29t57 -44.5t38 -54t22 -62t10.5 -62.5t2.5 -62v-672zM635 346v107q-1 0 -31 -1.5t-52 -3.5t-61.5 -8t-68.5 -14.5t-63.5 -24.5t-56.5 -36.5t-37 -51.5t-15 -69q0 -76 42.5 -120t110.5 -44q94 0 163 77t69 189z" />
    <glyph glyph-name="b" unicode="b" horiz-adv-x="1026" 
d="M137 469v944h152v-614h4q15 30 33.5 57t52.5 62.5t85 57t111 21.5q171 0 264 -138.5t93 -377.5q0 -250 -108.5 -377t-303.5 -127q-62 0 -114 12.5t-89 31t-66.5 49.5t-48 59.5t-32 70t-19.5 71t-9.5 73.5t-4 66t-0.5 59zM518 76q68 0 117.5 33t76 91.5t38.5 125t12 145.5
q0 61 -6 117t-21.5 114.5t-40 100.5t-65 69t-92.5 27q-66 0 -116.5 -43.5t-78 -113t-40.5 -142.5t-13 -145q0 -379 229 -379z" />
    <glyph glyph-name="c" unicode="c" horiz-adv-x="872" 
d="M799 102v-90q-110 -35 -219 -35q-133 0 -229.5 41t-152 116t-81 170t-25.5 214q0 234 106 356.5t291 122.5q171 0 253.5 -90t82.5 -233h-176q0 24 -0.5 38.5t-3.5 43t-9 47t-18.5 42t-30 37t-45.5 23.5t-63 10q-50 0 -88.5 -22t-62.5 -57.5t-39 -84t-21 -96.5t-6 -100
q0 -66 11 -130t38.5 -128.5t68.5 -112.5t106 -78t147 -30q23 0 41 1t37.5 4.5t27 5t31.5 8t29 7.5z" />
    <glyph glyph-name="d" unicode="d" horiz-adv-x="1026" 
d="M862 0h-151v188h-4q-9 -29 -28.5 -61.5t-52 -68t-86 -58.5t-116.5 -23q-76 0 -134.5 28.5t-95 75t-59.5 113.5t-32 137.5t-9 153.5q0 107 20.5 198t61.5 162t110 111.5t158 40.5q52 0 95 -15.5t69.5 -35.5t48.5 -51t31 -50t19 -44h4v612h151v-1413zM459 80
q113 0 182.5 120.5t69.5 305.5q0 38 -7 85.5t-25 102.5t-44.5 100t-69 75t-94.5 30q-57 0 -99 -36.5t-64.5 -99.5t-33 -134.5t-10.5 -153.5q0 -78 9 -143t29.5 -124.5t60.5 -93.5t96 -34z" />
    <glyph glyph-name="e" unicode="e" horiz-adv-x="919" 
d="M815 104v-88q-54 -15 -77 -21t-68 -12t-97 -6q-224 0 -352.5 138t-128.5 401q0 108 22 193.5t68 151t123.5 101t181.5 35.5q71 0 128 -18.5t92.5 -45t61 -67t38 -73.5t19 -77t7.5 -64.5t1 -47.5h-572q0 -70 9.5 -138t36 -140.5t67 -126t108.5 -88.5t154 -35q31 0 59 3
t39 5t42.5 10.5t37.5 9.5zM266 694h410q0 29 -4 55.5t-16.5 58t-33 54t-58 38t-87.5 15.5q-49 0 -88.5 -18t-61.5 -44t-36.5 -58.5t-19.5 -57t-5 -43.5z" />
    <glyph glyph-name="f" unicode="f" horiz-adv-x="702" 
d="M397 0h-151v881h-180v94h180v63q0 57 4 98.5t15.5 88.5t35 79.5t60 60t94 41t133.5 13.5q55 0 166 -18v-121q-3 1 -16 6.5t-17.5 7.5t-17 7t-19.5 6.5t-19 5t-22 5t-22.5 2.5t-24.5 1q-52 0 -90 -14.5t-58.5 -36t-32.5 -54t-15 -60t-3 -62.5v-119h283v-94h-283v-881z" />
    <glyph glyph-name="g" unicode="g" horiz-adv-x="1026" 
d="M711 4v193h-4q-6 -27 -23.5 -58t-48 -63.5t-80.5 -54t-111 -21.5q-90 0 -159 40.5t-110.5 112t-62 161t-20.5 194.5q0 140 36.5 248t116 174.5t193.5 66.5q38 0 72 -9t57.5 -20t46 -33t34.5 -36t26.5 -40.5t18.5 -35.5t14 -32h4v184h151v-981q0 -221 -111.5 -326.5
t-336.5 -105.5q-137 0 -254 37v168q54 -30 87.5 -46.5t88 -31.5t108.5 -15q55 0 98.5 15t71 37t47 56t29 61.5t15 64.5t6 54.5t0.5 41.5zM475 98q59 0 106 36.5t74.5 96.5t41.5 129t14 140q0 69 -13.5 136.5t-40.5 128t-75 97.5t-109 37q-58 0 -101 -37.5t-66 -99
t-33.5 -127.5t-10.5 -135q0 -68 11 -134.5t34 -128.5t66.5 -100.5t101.5 -38.5z" />
    <glyph glyph-name="h" unicode="h" horiz-adv-x="1062" 
d="M899 0h-151v653q0 37 -3 66.5t-12.5 59t-25 49t-42.5 32t-63 12.5q-65 0 -121 -43.5t-91 -110t-55 -142t-20 -144.5v-432h-151v1413h151v-700h4q11 30 26 60.5t44.5 73t64 74t86 54t109.5 22.5q105 0 177.5 -69t72.5 -207v-721z" />
    <glyph glyph-name="i" unicode="i" horiz-adv-x="493" 
d="M334 1229h-172v184h172v-184zM324 0h-152v975h152v-975z" />
    <glyph glyph-name="j" unicode="j" horiz-adv-x="493" 
d="M344 1229h-172v184h172v-184zM-53 -438h-33v121q6 -1 16.5 -4t16.5 -4.5t17.5 -3t25.5 -1.5q192 0 192 207v1098h152v-1036q0 -118 -23.5 -177t-70.5 -106q-33 -33 -80 -54t-95.5 -28.5t-72 -9.5t-45.5 -2z" />
    <glyph glyph-name="k" unicode="k" horiz-adv-x="911" 
d="M895 0h-193l-383 506h-4v-506h-151v1413h151v-862l359 424h176l-379 -432z" />
    <glyph glyph-name="l" unicode="l" horiz-adv-x="493" 
d="M322 0h-152v1413h152v-1413z" />
    <glyph glyph-name="m" unicode="m" horiz-adv-x="1554" 
d="M1393 0h-152v655q0 27 -1 43t-4 46t-12 49t-23.5 39t-39 30t-57.5 10q-62 0 -112 -44.5t-79 -113t-44 -140.5t-15 -136v-438h-152v631q0 30 -0.5 46.5t-3 46t-7 46.5t-14.5 39t-24 34t-36 20.5t-50 8.5q-62 0 -112 -44t-79.5 -113t-45 -146t-15.5 -151v-418h-151v975h147
v-240h4q22 53 46.5 94t61 82t87 63.5t111.5 22.5q49 0 89.5 -16.5t66.5 -42.5t44 -60t25.5 -68.5t7.5 -68.5h4q10 26 23 53t39.5 65.5t58 67.5t78.5 49.5t100 20.5q115 0 175.5 -75t60.5 -199v-723z" />
    <glyph glyph-name="n" unicode="n" horiz-adv-x="1062" 
d="M899 0h-151v631q0 30 -0.5 47t-3 46t-7.5 46.5t-15 39t-24 33.5t-36 20.5t-50 8.5q-73 0 -132 -44t-94 -113t-53 -146t-18 -151v-418h-151v975h147v-240h4q25 52 53.5 93.5t70.5 82.5t100 63.5t127 22.5q49 0 89.5 -16.5t66.5 -42.5t44 -60t25.5 -68.5t7.5 -68.5v-741z
" />
    <glyph glyph-name="o" unicode="o" horiz-adv-x="1026" 
d="M508 -23q-414 0 -414 500q0 119 24 213t73.5 163.5t129.5 106.5t187 37q212 0 318 -139t106 -381t-105 -371t-319 -129zM508 59q254 0 254 412q0 444 -254 444q-60 0 -105 -26.5t-71 -67.5t-42 -102t-21 -119t-5 -129q0 -67 5 -121t21 -110.5t42 -94.5t71 -62t105 -24z
" />
    <glyph glyph-name="p" unicode="p" horiz-adv-x="1026" 
d="M315 -438h-151v1413h151v-189h4q10 30 30.5 63.5t53.5 68t82 57t105 22.5q169 0 255.5 -141.5t86.5 -380.5q0 -105 -20 -193t-61 -157.5t-110 -108.5t-161 -39q-187 0 -261 197h-4v-612zM553 76q59 0 102 36t65 97.5t32 127t10 140.5q0 189 -54.5 305.5t-156.5 116.5
q-99 0 -167.5 -124t-68.5 -279q0 -60 12.5 -127t38 -135.5t74.5 -113t113 -44.5z" />
    <glyph glyph-name="q" unicode="q" horiz-adv-x="1026" 
d="M862 -438h-151v612h-4q-11 -26 -20 -44.5t-31.5 -50t-48 -51.5t-68 -35.5t-93.5 -15.5q-92 0 -161 39t-110 108.5t-61 157.5t-20 193q0 239 86 380.5t254 141.5q56 0 105.5 -22t82.5 -57t53.5 -68t31.5 -64h4v189h151v-1413zM471 76q64 0 113.5 44.5t75.5 113t38.5 135.5
t12.5 127q0 100 -30.5 192t-85.5 151.5t-120 59.5q-102 0 -156.5 -116.5t-54.5 -305.5q0 -58 5.5 -111.5t20 -107.5t37.5 -93.5t60 -64t84 -24.5z" />
    <glyph glyph-name="r" unicode="r" horiz-adv-x="684" 
d="M315 0h-151v975h151v-232h4q19 44 47.5 85t67.5 81t91 64t108 24v-178h-43q-62 0 -110.5 -20.5t-79 -54t-50 -81t-27.5 -97t-8 -105.5v-461z" />
    <glyph glyph-name="s" unicode="s" 
d="M57 18v154q153 -92 273 -92q91 0 148 39.5t57 118.5q0 21 -5 38.5t-17.5 33.5t-23 27.5t-33.5 27t-37.5 24t-45.5 26.5t-47 27t-61 34t-64 36.5t-52 38t-48 48.5t-27.5 57t-12.5 75q0 127 85 196.5t249 69.5q35 0 74 -4.5t62.5 -9t55 -12t36.5 -8.5v-146l-11 7
q-12 6 -16.5 8.5t-18.5 9.5t-22.5 10.5t-24.5 10t-28 10.5t-29 8.5t-31.5 7t-32 4.5t-34.5 2q-71 0 -119.5 -30t-48.5 -87q0 -34 14.5 -60.5t47.5 -50t65 -41.5t88 -47t96 -53q81 -47 124.5 -106t43.5 -154q0 -124 -91.5 -206.5t-272.5 -82.5q-158 0 -265 41z" />
    <glyph glyph-name="t" unicode="t" horiz-adv-x="702" 
d="M651 88v-102q-55 -9 -121 -9q-152 0 -221 57.5t-69 188.5v658h-172v94h172v229l151 92v-321h266v-94h-266v-578q0 -33 0.5 -49.5t3.5 -45t9 -43.5t18.5 -35t30 -30t44.5 -17t62 -7q56 0 92 12z" />
    <glyph glyph-name="u" unicode="u" horiz-adv-x="1062" 
d="M891 0h-148v238h-4q-38 -80 -67.5 -126t-69.5 -79t-89.5 -44.5t-123.5 -11.5q-58 0 -104.5 29t-73.5 75t-41 97t-14 101v696h151v-631q0 -42 9 -82t28.5 -77.5t54.5 -60t82 -22.5q63 0 114.5 44t81.5 113.5t46 146.5t16 151v418h152v-975z" />
    <glyph glyph-name="v" unicode="v" horiz-adv-x="911" 
d="M545 0h-142l-387 975h168l297 -770l267 770h147z" />
    <glyph glyph-name="w" unicode="w" horiz-adv-x="1404" 
d="M1083 0h-147l-227 748h-4l-213 -748h-148l-258 975h158l186 -770h4l213 770h127l225 -764h5l174 764h139z" />
    <glyph glyph-name="x" unicode="x" horiz-adv-x="919" 
d="M897 0h-182l-266 397l-261 -397h-165l344 518l-304 457h183l227 -342l225 342h162l-307 -465z" />
    <glyph glyph-name="y" unicode="y" horiz-adv-x="911" 
d="M403 -391h-137l133 385l-387 981h170l297 -766l266 766h154z" />
    <glyph glyph-name="z" unicode="z" horiz-adv-x="835" 
d="M762 0h-699v102l508 775h-473v98h658v-98l-516 -768h522v-109z" />
    <glyph glyph-name="braceleft" unicode="{" horiz-adv-x="612" 
d="M180 643q48 -15 82 -33t68 -49.5t51.5 -83t17.5 -121.5q0 -52 -5 -161t-5 -160q0 -96 45 -161.5t123 -72.5v-94q-81 4 -146 35.5t-105 81t-61.5 109t-21.5 122.5q0 31 4.5 142t1.5 180q-3 66 -17.5 109t-42.5 66t-56 32.5t-72 15.5v80q44 6 72.5 16t56 33t42 66.5
t17.5 109.5q3 69 -1.5 180t-4.5 142q0 63 21.5 122.5t61.5 109t105 81t146 35.5v-94q-78 -7 -123 -72.5t-45 -161.5q0 -51 5 -160t5 -161q0 -70 -17 -120.5t-50.5 -81.5t-67.5 -48.5t-84 -32.5z" />
    <glyph glyph-name="bar" unicode="|" horiz-adv-x="659" 
d="M399 -377h-139v2083h139v-2083z" />
    <glyph glyph-name="braceright" unicode="}" horiz-adv-x="612" 
d="M432 643q-50 15 -84 32.5t-67.5 48.5t-50.5 81.5t-17 120.5q0 52 5 161t5 160q0 96 -45 161.5t-123 72.5v94q81 -4 146 -35.5t105 -81t61.5 -109t21.5 -122.5q0 -31 -4.5 -142t-1.5 -180q3 -66 17.5 -109.5t42 -66.5t56 -33t72.5 -16v-80q-44 -6 -72 -15.5t-56 -32.5
t-42.5 -66t-17.5 -109q-3 -69 1.5 -180t4.5 -142q0 -63 -21.5 -122.5t-61.5 -109t-105 -81t-146 -35.5v94q78 7 123 72.5t45 161.5q0 51 -5 160t-5 161q0 70 17.5 121.5t51.5 83t68 49.5t82 33z" />
    <glyph glyph-name="asciitilde" unicode="~" horiz-adv-x="1177" 
d="M946 633l92 -103q-107 -165 -256 -165q-107 0 -209 63q-101 64 -174 64q-49 0 -93 -36t-75 -94l-92 101q50 79 111.5 123.5t146.5 44.5q102 0 205 -64q102 -63 176 -63q48 0 92 35.5t76 93.5z" />
    <glyph glyph-name="uni00A0" unicode="&#xa0;" horiz-adv-x="532" 
 />
    <glyph glyph-name="exclamdown" unicode="&#xa1;" horiz-adv-x="569" 
d="M307 936h-201v199h201v-199zM301 -276h-188l30 1030h129z" />
    <glyph glyph-name="cent" unicode="&#xa2;" horiz-adv-x="911" 
d="M516 -199h-88v191q-71 13 -130.5 49t-108 98t-76 159t-27.5 220q0 211 91 336.5t251 142.5v154h88v-154q140 -14 224.5 -96.5t84.5 -224.5h-170q0 95 -32 154t-107 83v-837q48 -10 98 -10q101 0 193 30v-84q-115 -37 -244 -37q-7 0 -23 1t-24 1v-176zM428 115v798
q-93 -27 -132.5 -120.5t-39.5 -249.5q0 -173 51 -279.5t121 -148.5z" />
    <glyph glyph-name="sterling" unicode="&#xa3;" horiz-adv-x="911" 
d="M881 0h-678v625h-135v98h135v313q0 162 82.5 245t269.5 83q78 0 141.5 -21t102.5 -52t66 -72t38.5 -77t14.5 -71h-189q0 26 -3.5 49.5t-15 51.5t-30.5 47.5t-52.5 33t-78.5 13.5q-49 0 -83.5 -17.5t-52 -41t-27 -62.5t-11.5 -66t-2 -67v-289h227v-98h-227v-504h508v-121z
" />
    <glyph glyph-name="currency" unicode="&#xa4;" horiz-adv-x="1052" 
d="M903 266l-139 137q-102 -79 -238 -79q-135 0 -239 79l-137 -137l-89 90l140 133q-78 113 -78 236q0 135 78 236l-140 135l89 90l137 -137q111 77 239 77q59 0 123.5 -19.5t114.5 -57.5l139 137l86 -90l-139 -135q78 -105 78 -236q0 -126 -78 -236l139 -133zM526 446
q114 0 196.5 83t82.5 198q0 119 -85 198t-194 79q-118 0 -199 -82.5t-81 -194.5q0 -114 82.5 -197.5t197.5 -83.5z" />
    <glyph glyph-name="yen" unicode="&#xa5;" horiz-adv-x="1026" 
d="M590 0h-170v358h-225v93h225v110h-225v92h225l-430 760h192l336 -604l346 604h172l-446 -760h225v-92h-225v-110h225v-93h-225v-358z" />
    <glyph glyph-name="brokenbar" unicode="&#xa6;" horiz-adv-x="659" 
d="M399 823h-139v736h139v-736zM399 -279h-139v736h139v-736z" />
    <glyph glyph-name="section" unicode="&#xa7;" horiz-adv-x="948" 
d="M160 20v173q41 -29 71.5 -46.5t88.5 -37t116 -19.5q101 0 158 45.5t57 110.5q0 51 -51 93.5t-116 67.5t-151 60t-130 63q-121 77 -121 209q0 25 5.5 49.5t12.5 43.5t19.5 39.5t22.5 33.5t25.5 29.5t23 23.5t22.5 19.5t16 13.5q-94 75 -94 183q0 118 98 190t242 72
q132 0 299 -50v-155q-142 100 -282 100q-79 0 -133 -38.5t-54 -98.5q0 -53 51 -96t116.5 -68t151.5 -60.5t132 -68.5q110 -77 110 -190q0 -138 -148 -246q-4 -3 -5 -4q53 -45 75 -81q33 -55 33 -118q0 -90 -56.5 -156.5t-145 -97.5t-195.5 -31q-27 0 -54 1.5t-51 5t-43 7
t-40 8.5t-31 8t-27 8t-18 5zM639 500q86 75 86 157q0 60 -44 102t-124 79q-41 19 -140.5 58.5t-117.5 49.5q-24 -25 -36 -40t-26 -46t-14 -63q0 -34 13 -62.5t29 -47t52 -40.5t58.5 -32.5t73.5 -32.5q189 -81 190 -82z" />
    <glyph glyph-name="dieresis" unicode="&#xa8;" horiz-adv-x="614" 
d="M580 1167h-183v181h183v-181zM217 1167h-182v181h182v-181z" />
    <glyph glyph-name="copyright" unicode="&#xa9;" horiz-adv-x="1024" 
d="M993 954q0 -199 -141.5 -340t-339.5 -141q-131 0 -241.5 64.5t-175 175t-64.5 241.5q0 198 141 340t340 142q130 0 241 -65t175.5 -176t64.5 -241zM922 954q0 169 -120.5 289.5t-289.5 120.5t-289.5 -120.5t-120.5 -289.5t120.5 -289t289.5 -120t289.5 120t120.5 289z
M676 834l53 -66q-1 -1 -10 -9t-14 -12t-16.5 -12.5t-21.5 -14t-25.5 -12.5t-30.5 -10.5t-35 -6.5t-41 -3q-111 0 -195 79.5t-84 195.5t84.5 195t194.5 79q18 0 35.5 -2t32.5 -6t27 -8t25 -11t20.5 -11t18 -12.5t14.5 -11t12 -10.5l9 -8l-53 -67q-68 63 -141 63
q-72 0 -131.5 -52.5t-59.5 -137.5q0 -88 58 -139.5t126 -51.5q39 0 72.5 12.5t44 21.5t31.5 28z" />
    <glyph glyph-name="ordfeminine" unicode="&#xaa;" horiz-adv-x="532" 
d="M463 588h-92v71q-31 -37 -65.5 -58t-88.5 -21q-66 0 -107.5 41t-41.5 100q0 37 13 66.5t44 47.5t52.5 29.5t68 18.5t59.5 8.5t56 4.5q7 1 10 1v47q0 26 -0.5 40.5t-5.5 38.5t-14 37t-27.5 23.5t-44.5 10.5q-31 0 -51 -9t-28.5 -28.5t-11 -31.5t-4.5 -38h-102
q0 67 48.5 114.5t150.5 47.5q182 0 182 -174v-387zM371 788v54q-3 0 -27 -2.5t-36.5 -4.5t-37 -6.5t-39 -12t-30.5 -19t-23.5 -28.5t-7.5 -38q0 -36 22 -57t56 -21q42 0 72 26t40.5 55t10.5 54z" />
    <glyph glyph-name="guillemotleft" unicode="&#xab;" 
d="M633 121h-127l-172 379l172 385h127l-121 -385zM365 121h-129l-170 379l170 385h129l-121 -385z" />
    <glyph glyph-name="logicalnot" unicode="&#xac;" horiz-adv-x="1177" 
d="M1061 262h-139v324h-807v125h946v-449z" />
    <glyph glyph-name="uni00AD" unicode="&#xad;" horiz-adv-x="835" 
d="M729 436h-623v144h623v-144z" />
    <glyph glyph-name="registered" unicode="&#xae;" horiz-adv-x="1024" 
d="M993 954q0 -199 -141.5 -340t-339.5 -141t-339.5 141t-141.5 340q0 130 64.5 241t175.5 176t241 65t241 -65t175.5 -176t64.5 -241zM922 954q0 169 -120.5 289.5t-289.5 120.5t-289.5 -120.5t-120.5 -289.5t120.5 -289t289.5 -120t289.5 120t120.5 289zM713 713h-103
l-80 205h-108v-205h-92v508h170q42 0 73.5 -5.5t64.5 -21t51 -50.5t18 -87q0 -15 -1.5 -27.5t-6 -23t-8 -18t-11.5 -15.5t-11 -12t-13.5 -10t-12.5 -7t-13 -6l-12 -6zM422 999h110q34 0 56 17t22 49q0 68 -86 68h-102v-134z" />
    <glyph glyph-name="macron" unicode="&#xaf;" horiz-adv-x="614" 
d="M565 1145h-518v123h518v-123z" />
    <glyph glyph-name="degree" unicode="&#xb0;" horiz-adv-x="684" 
d="M412 870q-95 0 -162.5 67.5t-67.5 164.5q0 87 68 153t160 66t159.5 -66.5t67.5 -154.5q0 -97 -65.5 -163.5t-159.5 -66.5zM545 1100q0 54 -39.5 91.5t-93.5 37.5q-55 0 -96.5 -39.5t-41.5 -89.5q0 -56 39 -96.5t97 -40.5q57 0 96 39.5t39 97.5z" />
    <glyph glyph-name="plusminus" unicode="&#xb1;" horiz-adv-x="1177" 
d="M629 213h-140v436h-401v125h401v414h140v-414h407v-125h-407v-436zM1036 0h-948v125h948v-125z" />
    <glyph glyph-name="two.superior" unicode="&#xb2;" 
d="M621 829h-535v97q65 53 131.5 123.5t126 150.5t97.5 163.5t38 149.5q0 63 -36 100.5t-97 37.5q-30 0 -53 -11t-34.5 -23t-20.5 -36t-11 -34.5t-5 -33.5q-1 -4 -1 -6h-137q0 38 14.5 75t44 71.5t84 56t125.5 21.5q112 0 184 -63.5t72 -180.5q0 -73 -35 -153t-90 -149
t-104 -120t-97 -93.5t-49 -43.5h388v-99z" />
    <glyph glyph-name="three.superior" unicode="&#xb3;" 
d="M461 1296v-4q149 -47 149 -219q0 -130 -73 -193t-199 -63q-63 0 -112 13.5t-78 34.5t-48 50t-26 55t-8 54h137q0 -129 133 -127q70 0 107.5 44t37.5 126q0 109 -45.5 145.5t-140.5 36.5v86q86 0 128 37.5t42 118.5q0 66 -32.5 113t-98.5 47q-36 0 -60.5 -12t-36 -33
t-16 -38t-6.5 -40h-137q0 77 69 140t187 63q120 0 190 -61t70 -175q0 -85 -38.5 -134.5t-94.5 -64.5z" />
    <glyph glyph-name="acute" unicode="&#xb4;" horiz-adv-x="614" 
d="M350 1145h-129l86 274h180z" />
    <glyph glyph-name="mu" unicode="&#xb5;" horiz-adv-x="1071" 
d="M989 94v-106q-18 -4 -51 -4q-99 0 -142 49t-51 147q-25 -95 -87.5 -149t-153.5 -54q-140 0 -199 80q0 -293 10 -495h-151v1413h151v-565q0 -51 4 -92t16 -85.5t32 -74t55.5 -49t83.5 -19.5q225 0 225 434v451h152v-762q0 -87 49 -111q14 -8 57 -8z" />
    <glyph glyph-name="paragraph" unicode="&#xb6;" horiz-adv-x="1024" 
d="M862 -438h-76v1775h-124v-1775h-76v895q-57 7 -114 24t-119.5 53t-110 86t-78.5 128.5t-31 173.5q0 103 36.5 187.5t96 139.5t140 93t165.5 54.5t174 16.5h236v-76h-119v-1775z" />
    <glyph glyph-name="periodcentered" unicode="&#xb7;" horiz-adv-x="417" 
d="M307 551h-196v199h196v-199z" />
    <glyph glyph-name="cedilla" unicode="&#xb8;" horiz-adv-x="614" 
d="M223 -438v104q1 -1 9.5 -7.5t14 -10.5t17 -10.5t21.5 -10.5t24 -7t29 -3q37 0 68.5 22.5t31.5 67.5q0 105 -137 105q-9 0 -26 -1t-25 -1l49 223h88l-37 -152h19q78 0 131 -42.5t53 -131.5q0 -69 -50 -121.5t-153 -52.5q-67 0 -127 29z" />
    <glyph glyph-name="one.superior" unicode="&#xb9;" 
d="M442 829h-120v758l-160 -108v108l184 121h96v-879z" />
    <glyph glyph-name="ordmasculine" unicode="&#xba;" horiz-adv-x="569" 
d="M283 578q-234 0 -234 278q0 137 58 215t176 78t177.5 -78t59.5 -215q0 -134 -59 -206t-178 -72zM283 633q135 0 135 221q0 240 -135 240q-40 0 -67.5 -20.5t-40.5 -57.5t-18 -75t-5 -87q0 -221 131 -221z" />
    <glyph glyph-name="guillemotright" unicode="&#xbb;" 
d="M485 121h-127l119 387l-119 377h127l170 -377zM215 121h-127l121 387l-121 377h127l172 -377z" />
    <glyph glyph-name="onequarter" unicode="&#xbc;" horiz-adv-x="1671" 
d="M1415 0h-112v248h-361v88l352 551h121v-545h152v-94h-152v-248zM608 0h-114l424 1298h116zM391 414h-121v764l-159 -109v109l184 120h96v-884zM1303 342v381h-5l-233 -381h238z" />
    <glyph glyph-name="onehalf" unicode="&#xbd;" horiz-adv-x="1671" 
d="M1507 0h-532v94q88 75 173.5 172t151.5 214.5t66 203.5q0 61 -36 99t-95 38q-32 0 -55.5 -11.5t-35.5 -26t-20 -37.5t-10 -36t-4 -32h-137q0 38 14.5 75t44 71.5t83.5 55.5t124 21q112 0 184 -64t72 -180q0 -62 -26.5 -130t-63.5 -123t-86.5 -112.5t-86.5 -92.5
t-74 -67.5t-38 -33.5h387v-98zM573 0h-116l426 1298h114zM401 414h-120v764l-160 -109v109l184 120h96v-884z" />
    <glyph glyph-name="threequarters" unicode="&#xbe;" horiz-adv-x="1671" 
d="M1487 0h-113v248h-360v88l352 551h121v-545h151v-94h-151v-248zM692 0h-117l426 1298h117zM461 887v-4q149 -47 149 -219q0 -130 -73 -193t-199 -63q-63 0 -112 13.5t-78 34.5t-48 49.5t-26 54.5t-8 54h137q0 -127 133 -127q69 0 106 44t37 126q0 109 -45.5 146
t-138.5 37v86q85 0 126.5 37t41.5 118q0 66 -32.5 113t-96.5 47q-36 0 -60.5 -12t-36 -33t-16 -38t-6.5 -40h-137q0 77 69 140t187 63q120 0 190 -61t70 -175q0 -85 -38 -134t-95 -64zM1374 342v381h-4l-233 -381h237z" />
    <glyph glyph-name="questiondown" unicode="&#xbf;" horiz-adv-x="835" 
d="M586 936h-201v199h201v-199zM694 -84v-172q-131 -43 -262 -43q-78 0 -146.5 16.5t-127 51.5t-93 97t-34.5 144q0 53 17.5 103.5t51 96.5t64.5 80.5t76 80t67 71.5q67 76 82 102q32 61 33 165v45h129v-162q0 -52 -16.5 -93.5t-36.5 -66t-67 -76.5t-79 -92
q-13 -17 -39.5 -47t-40 -47.5t-29.5 -45t-23 -58t-7 -68.5q0 -82 58.5 -131t148.5 -49q76 0 152 30.5t122 67.5z" />
    <glyph glyph-name="Agrave" unicode="&#xc0;" horiz-adv-x="1177" 
d="M1157 0h-176l-145 446h-521l-143 -446h-154l476 1413h186zM799 559l-221 694h-5l-223 -694h449zM676 1583h-129l-137 275h180z" />
    <glyph glyph-name="Aacute" unicode="&#xc1;" horiz-adv-x="1177" 
d="M1157 0h-176l-145 446h-521l-143 -446h-154l476 1413h186zM799 559l-221 694h-5l-223 -694h449zM633 1583h-129l86 275h180z" />
    <glyph glyph-name="Acircumflex" unicode="&#xc2;" horiz-adv-x="1177" 
d="M1157 0h-176l-145 446h-521l-143 -446h-154l476 1413h186zM799 559l-221 694h-5l-223 -694h449zM846 1583h-125l-129 158l-133 -158h-125l180 262h152z" />
    <glyph glyph-name="Atilde" unicode="&#xc3;" horiz-adv-x="1177" 
d="M1157 0h-176l-145 446h-521l-143 -446h-154l476 1413h186zM799 559l-221 694h-5l-223 -694h449zM748 1802h86q0 -33 -1 -56t-8 -57t-19.5 -56t-37 -38t-59.5 -16q-34 0 -83.5 26t-92 52t-58.5 26q-13 0 -22.5 -13.5t-13.5 -33t-5.5 -32.5t-1.5 -21h-86q6 107 23 156
q30 78 98 78q40 0 127 -55.5t111 -55.5q43 0 43 96z" />
    <glyph glyph-name="Adieresis" unicode="&#xc4;" horiz-adv-x="1177" 
d="M1157 0h-176l-145 446h-521l-143 -446h-154l476 1413h186zM799 559l-221 694h-5l-223 -694h449zM862 1606h-182v180h182v-180zM500 1606h-183v180h183v-180z" />
    <glyph glyph-name="Aring" unicode="&#xc5;" horiz-adv-x="1177" 
d="M1157 0h-176l-145 446h-521l-143 -446h-154l476 1413h186zM799 559l-221 694h-5l-223 -694h449zM766 1726q0 -72 -52 -124t-124 -52t-124 52t-52 124t52 123.5t124 51.5t124 -51.5t52 -123.5zM678 1726q0 33 -26 59.5t-62 26.5t-62 -25t-26 -58q0 -38 25.5 -64.5
t62.5 -26.5q36 0 62 26t26 62z" />
    <glyph glyph-name="AE" unicode="&#xc6;" horiz-adv-x="1595" 
d="M1522 0h-592l-47 618h-375l-340 -618h-168l801 1413h702v-113h-512l47 -565h441v-117h-435l41 -497h437v-121zM874 735l-34 504h-4l-267 -504h305z" />
    <glyph glyph-name="Ccedilla" unicode="&#xc7;" horiz-adv-x="1101" 
d="M467 -438v104q1 -1 9.5 -7.5t14 -10.5t17 -10.5t21.5 -10.5t24 -7t29 -3q37 0 68.5 22.5t31.5 67.5q0 105 -137 105q-9 0 -26 -1t-25 -1l41 182q-95 22 -170 74t-123 122.5t-80 161.5t-45 185t-13 198q0 62 6.5 124t23 132.5t42 133t67 121t95 100.5t128.5 67t165 25
q105 0 190.5 -33t140 -89.5t84 -129t29.5 -154.5h-201q0 42 -7 81t-25 79.5t-46 70.5t-74 49t-104 19q-60 0 -109.5 -21t-83.5 -55.5t-59.5 -83.5t-40 -99t-23.5 -108.5t-12 -106t-3 -97.5q0 -105 12.5 -198t42 -179t75 -147.5t116 -98.5t159.5 -37q37 0 68.5 3.5t61 13.5
t48 16t46 23.5t36 23t37 27.5t31.5 24v-159q-162 -93 -346 -93q-29 0 -56 3l-24 -99h18q79 0 132 -42.5t53 -131.5q0 -69 -50 -121.5t-153 -52.5q-67 0 -127 29z" />
    <glyph glyph-name="Egrave" unicode="&#xc8;" horiz-adv-x="948" 
d="M877 0h-703v1413h682v-113h-512v-503h485v-117h-485v-559h533v-121zM592 1583h-129l-137 275h180z" />
    <glyph glyph-name="Eacute" unicode="&#xc9;" horiz-adv-x="948" 
d="M877 0h-703v1413h682v-113h-512v-503h485v-117h-485v-559h533v-121zM559 1583h-129l86 275h180z" />
    <glyph glyph-name="Ecircumflex" unicode="&#xca;" horiz-adv-x="948" 
d="M877 0h-703v1413h682v-113h-512v-503h485v-117h-485v-559h533v-121zM762 1583h-125l-129 158l-133 -158h-125l180 262h152z" />
    <glyph glyph-name="Edieresis" unicode="&#xcb;" horiz-adv-x="948" 
d="M877 0h-703v1413h682v-113h-512v-503h485v-117h-485v-559h533v-121zM788 1606h-182v180h182v-180zM426 1606h-182v180h182v-180z" />
    <glyph glyph-name="Igrave" unicode="&#xcc;" horiz-adv-x="532" 
d="M350 0h-170v1413h170v-1413zM352 1583h-129l-137 275h180z" />
    <glyph glyph-name="Iacute" unicode="&#xcd;" horiz-adv-x="532" 
d="M350 0h-170v1413h170v-1413zM309 1583h-129l86 275h180z" />
    <glyph glyph-name="Icircumflex" unicode="&#xce;" horiz-adv-x="532" 
d="M350 0h-170v1413h170v-1413zM502 1583h-125l-129 158l-133 -158h-125l180 262h152z" />
    <glyph glyph-name="Idieresis" unicode="&#xcf;" horiz-adv-x="532" 
d="M350 0h-170v1413h170v-1413zM539 1606h-183v180h183v-180zM176 1606h-182v180h182v-180z" />
    <glyph glyph-name="Eth" unicode="&#xd0;" horiz-adv-x="1214" 
d="M477 0h-303v690h-174v107h174v616h303q151 0 264 -35.5t197.5 -115t128 -216.5t43.5 -331q0 -163 -29 -286t-81.5 -204t-133 -132t-175 -72t-214.5 -21zM344 121h107q176 0 278.5 55.5t150.5 179.5t48 338q0 230 -46 360t-148.5 188t-282.5 58h-107v-503h293v-107h-293
v-569z" />
    <glyph glyph-name="Ntilde" unicode="&#xd1;" horiz-adv-x="1290" 
d="M1116 0h-198l-588 1204h-4v-1204h-152v1413h203l584 -1196h4v1196h151v-1413zM803 1802h86q0 -33 -1 -56t-8 -57t-19.5 -56t-37 -38t-59.5 -16q-34 0 -83.5 26t-92 52t-58.5 26q-13 0 -22.5 -13.5t-13.5 -33t-5.5 -32.5t-1.5 -21h-86q6 107 23 156q30 78 98 78
q40 0 127 -55.5t111 -55.5q43 0 43 96z" />
    <glyph glyph-name="Ograve" unicode="&#xd2;" horiz-adv-x="1253" 
d="M635 -23q-112 0 -202.5 39.5t-151 106.5t-101 160t-58.5 195.5t-18 217.5q0 119 18 225t58.5 201.5t101 164t151 109t202.5 40.5q113 0 202 -40.5t146.5 -108.5t95.5 -164.5t54 -201.5t16 -225q0 -116 -16 -217.5t-54 -195t-95.5 -160.5t-146.5 -106.5t-202 -39.5z
M623 84q60 0 109.5 20.5t84.5 54.5t62 83t43 101t26.5 113t14.5 115t4 111q0 647 -344 647q-336 0 -336 -647q0 -57 3.5 -111t13.5 -115t25.5 -113t41.5 -101t60.5 -83t83.5 -54.5t108 -20.5zM713 1583h-129l-138 275h181z" />
    <glyph glyph-name="Oacute" unicode="&#xd3;" horiz-adv-x="1253" 
d="M635 -23q-112 0 -202.5 39.5t-151 106.5t-101 160t-58.5 195.5t-18 217.5q0 119 18 225t58.5 201.5t101 164t151 109t202.5 40.5q113 0 202 -40.5t146.5 -108.5t95.5 -164.5t54 -201.5t16 -225q0 -116 -16 -217.5t-54 -195t-95.5 -160.5t-146.5 -106.5t-202 -39.5z
M623 84q60 0 109.5 20.5t84.5 54.5t62 83t43 101t26.5 113t14.5 115t4 111q0 647 -344 647q-336 0 -336 -647q0 -57 3.5 -111t13.5 -115t25.5 -113t41.5 -101t60.5 -83t83.5 -54.5t108 -20.5zM670 1583h-129l86 275h180z" />
    <glyph glyph-name="Ocircumflex" unicode="&#xd4;" horiz-adv-x="1253" 
d="M635 -23q-112 0 -202.5 39.5t-151 106.5t-101 160t-58.5 195.5t-18 217.5q0 119 18 225t58.5 201.5t101 164t151 109t202.5 40.5q113 0 202 -40.5t146.5 -108.5t95.5 -164.5t54 -201.5t16 -225q0 -116 -16 -217.5t-54 -195t-95.5 -160.5t-146.5 -106.5t-202 -39.5z
M623 84q60 0 109.5 20.5t84.5 54.5t62 83t43 101t26.5 113t14.5 115t4 111q0 647 -344 647q-336 0 -336 -647q0 -57 3.5 -111t13.5 -115t25.5 -113t41.5 -101t60.5 -83t83.5 -54.5t108 -20.5zM862 1583h-125l-129 158l-133 -158h-125l180 262h152z" />
    <glyph glyph-name="Otilde" unicode="&#xd5;" horiz-adv-x="1253" 
d="M635 -23q-112 0 -202.5 39.5t-151 106.5t-101 160t-58.5 195.5t-18 217.5q0 119 18 225t58.5 201.5t101 164t151 109t202.5 40.5q113 0 202 -40.5t146.5 -108.5t95.5 -164.5t54 -201.5t16 -225q0 -116 -16 -217.5t-54 -195t-95.5 -160.5t-146.5 -106.5t-202 -39.5z
M623 84q60 0 109.5 20.5t84.5 54.5t62 83t43 101t26.5 113t14.5 115t4 111q0 647 -344 647q-336 0 -336 -647q0 -57 3.5 -111t13.5 -115t25.5 -113t41.5 -101t60.5 -83t83.5 -54.5t108 -20.5zM784 1802h86q0 -33 -1 -56t-8 -57t-19.5 -56t-37 -38t-59.5 -16q-34 0 -83 26
t-91.5 52t-58.5 26q-13 0 -22.5 -13.5t-13.5 -33t-5.5 -32.5t-1.5 -21h-86q6 107 23 156q30 78 98 78q40 0 126.5 -55.5t110.5 -55.5q43 0 43 96z" />
    <glyph glyph-name="Odieresis" unicode="&#xd6;" horiz-adv-x="1253" 
d="M635 -23q-112 0 -202.5 39.5t-151 106.5t-101 160t-58.5 195.5t-18 217.5q0 119 18 225t58.5 201.5t101 164t151 109t202.5 40.5q113 0 202 -40.5t146.5 -108.5t95.5 -164.5t54 -201.5t16 -225q0 -116 -16 -217.5t-54 -195t-95.5 -160.5t-146.5 -106.5t-202 -39.5z
M623 84q60 0 109.5 20.5t84.5 54.5t62 83t43 101t26.5 113t14.5 115t4 111q0 647 -344 647q-336 0 -336 -647q0 -57 3.5 -111t13.5 -115t25.5 -113t41.5 -101t60.5 -83t83.5 -54.5t108 -20.5zM899 1606h-182v180h182v-180zM537 1606h-183v180h183v-180z" />
    <glyph glyph-name="multiply" unicode="&#xd7;" horiz-adv-x="1177" 
d="M958 -6l-380 387l-373 -387l-88 98l372 387l-372 379l98 103l373 -379l379 391l88 -99l-379 -391l381 -387z" />
    <glyph glyph-name="Oslash" unicode="&#xd8;" horiz-adv-x="1253" 
d="M201 -74l-86 49l114 201q-59 83 -92 204.5t-33 319.5q0 128 18 236.5t58.5 202t101 158.5t150.5 102t203 37q178 0 280 -80l91 143l79 -53l-92 -160q156 -177 156 -551q0 -136 -18 -249.5t-58.5 -209t-101.5 -161t-151 -102t-204 -36.5q-190 0 -319 115zM322 334l530 907
q-108 88 -219 88q-56 0 -103 -17.5t-80.5 -45t-60 -70.5t-43 -83t-29 -94.5t-18 -93t-8.5 -90.5t-3.5 -76t-0.5 -59q0 -201 35 -366zM909 1143l-534 -920l11 -15q12 -15 16.5 -19.5t17.5 -19.5t22.5 -21.5t25 -18.5t30.5 -18.5t34 -13.5t41 -10t45 -3q79 0 140.5 37
t100 98.5t63.5 147.5t35 176.5t10 193.5q0 113 -10 198.5t-20 123t-28 84.5z" />
    <glyph glyph-name="Ugrave" unicode="&#xd9;" horiz-adv-x="1253" 
d="M922 535v878h170v-883q0 -63 -1 -99t-10 -102.5t-25.5 -107t-51 -92.5t-83 -81t-125 -50t-173.5 -21q-95 0 -170 21t-123 50t-82 81t-50 92.5t-25 107t-10 102.5t-1 99v883h170v-878q0 -42 0.5 -65t3 -66t7.5 -69t15 -64t24.5 -61t37.5 -49.5t52 -41.5t69 -25t88 -10
t87.5 10t68 25t51 41.5t36.5 49.5t24 61t15 64t7.5 69t3 66t0.5 65zM713 1583h-129l-138 275h181z" />
    <glyph glyph-name="Uacute" unicode="&#xda;" horiz-adv-x="1253" 
d="M922 535v878h170v-883q0 -63 -1 -99t-10 -102.5t-25.5 -107t-51 -92.5t-83 -81t-125 -50t-173.5 -21q-95 0 -170 21t-123 50t-82 81t-50 92.5t-25 107t-10 102.5t-1 99v883h170v-878q0 -42 0.5 -65t3 -66t7.5 -69t15 -64t24.5 -61t37.5 -49.5t52 -41.5t69 -25t88 -10
t87.5 10t68 25t51 41.5t36.5 49.5t24 61t15 64t7.5 69t3 66t0.5 65zM670 1583h-129l86 275h180z" />
    <glyph glyph-name="Ucircumflex" unicode="&#xdb;" horiz-adv-x="1253" 
d="M922 535v878h170v-883q0 -63 -1 -99t-10 -102.5t-25.5 -107t-51 -92.5t-83 -81t-125 -50t-173.5 -21q-95 0 -170 21t-123 50t-82 81t-50 92.5t-25 107t-10 102.5t-1 99v883h170v-878q0 -42 0.5 -65t3 -66t7.5 -69t15 -64t24.5 -61t37.5 -49.5t52 -41.5t69 -25t88 -10
t87.5 10t68 25t51 41.5t36.5 49.5t24 61t15 64t7.5 69t3 66t0.5 65zM883 1583h-125l-129 158l-133 -158h-125l180 262h151z" />
    <glyph glyph-name="Udieresis" unicode="&#xdc;" horiz-adv-x="1253" 
d="M922 535v878h170v-883q0 -63 -1 -99t-10 -102.5t-25.5 -107t-51 -92.5t-83 -81t-125 -50t-173.5 -21q-95 0 -170 21t-123 50t-82 81t-50 92.5t-25 107t-10 102.5t-1 99v883h170v-878q0 -42 0.5 -65t3 -66t7.5 -69t15 -64t24.5 -61t37.5 -49.5t52 -41.5t69 -25t88 -10
t87.5 10t68 25t51 41.5t36.5 49.5t24 61t15 64t7.5 69t3 66t0.5 65zM899 1606h-182v180h182v-180zM537 1606h-183v180h183v-180z" />
    <glyph glyph-name="Yacute" unicode="&#xdd;" horiz-adv-x="1026" 
d="M590 0h-170v653l-430 760h192l336 -604l346 604h172l-446 -760v-653zM557 1583h-129l86 275h180z" />
    <glyph glyph-name="Thorn" unicode="&#xde;" horiz-adv-x="1026" 
d="M344 0h-170v1413h170v-274h231q68 0 124 -9t111.5 -36t93.5 -70t61.5 -116.5t23.5 -170.5q0 -99 -23.5 -172t-61 -115.5t-94 -68.5t-111.5 -34.5t-124 -8.5h-231v-338zM344 451h158q51 0 89 4t83.5 20.5t75 46t49.5 84t20 129.5q0 76 -20 131.5t-49.5 85.5t-75 47.5
t-84 22t-88.5 4.5h-158v-575z" />
    <glyph glyph-name="germandbls" unicode="&#xdf;" horiz-adv-x="1062" 
d="M422 -8v100q88 -26 133 -26q132 0 189 83t57 236q0 328 -246 328h-51v98h24q81 0 137 71.5t56 186.5q0 120 -58 199.5t-149 79.5q-41 0 -73.5 -14.5t-53 -35.5t-35 -55t-21.5 -61t-11 -65.5t-4.5 -57.5t-0.5 -47v-1012h-151v1022q0 111 16 180.5t64 122.5q50 56 125 83.5
t155 27.5q158 0 262.5 -96.5t104.5 -262.5q0 -60 -15.5 -110t-39 -82.5t-55 -57.5t-59.5 -37.5t-56 -19.5v-4q49 -7 87 -18t81 -38t71.5 -66t47 -106t18.5 -155q0 -94 -23 -167t-60 -117t-90 -72.5t-106.5 -39t-116.5 -10.5q-65 0 -153 15z" />
    <glyph glyph-name="agrave" unicode="&#xe0;" horiz-adv-x="948" 
d="M786 0h-151v137h-4q-14 -23 -34.5 -46t-55 -51t-84.5 -45.5t-107 -17.5q-116 0 -190 72.5t-74 173.5q0 248 371 297q62 9 178 15v129q0 38 -2.5 67t-12.5 65.5t-27.5 60.5t-51.5 41t-80 17q-45 0 -77.5 -14t-49 -32t-27 -49t-13 -49.5t-5.5 -49.5h-176q23 276 354 276
q60 0 108 -11t81 -29t57 -44.5t38 -54t22 -62t10.5 -62.5t2.5 -62v-672zM635 346v107q-1 0 -31 -1.5t-52 -3.5t-61.5 -8t-68.5 -14.5t-63.5 -24.5t-56.5 -36.5t-37 -51.5t-15 -69q0 -76 42.5 -120t110.5 -44q94 0 163 77t69 189zM561 1145h-129l-137 274h180z" />
    <glyph glyph-name="aacute" unicode="&#xe1;" horiz-adv-x="948" 
d="M786 0h-151v137h-4q-14 -23 -34.5 -46t-55 -51t-84.5 -45.5t-107 -17.5q-116 0 -190 72.5t-74 173.5q0 248 371 297q62 9 178 15v129q0 38 -2.5 67t-12.5 65.5t-27.5 60.5t-51.5 41t-80 17q-45 0 -77.5 -14t-49 -32t-27 -49t-13 -49.5t-5.5 -49.5h-176q23 276 354 276
q60 0 108 -11t81 -29t57 -44.5t38 -54t22 -62t10.5 -62.5t2.5 -62v-672zM635 346v107q-1 0 -31 -1.5t-52 -3.5t-61.5 -8t-68.5 -14.5t-63.5 -24.5t-56.5 -36.5t-37 -51.5t-15 -69q0 -76 42.5 -120t110.5 -44q94 0 163 77t69 189zM518 1145h-129l86 274h180z" />
    <glyph glyph-name="acircumflex" unicode="&#xe2;" horiz-adv-x="948" 
d="M786 0h-151v137h-4q-14 -23 -34.5 -46t-55 -51t-84.5 -45.5t-107 -17.5q-116 0 -190 72.5t-74 173.5q0 248 371 297q62 9 178 15v129q0 38 -2.5 67t-12.5 65.5t-27.5 60.5t-51.5 41t-80 17q-45 0 -77.5 -14t-49 -32t-27 -49t-13 -49.5t-5.5 -49.5h-176q23 276 354 276
q60 0 108 -11t81 -29t57 -44.5t38 -54t22 -62t10.5 -62.5t2.5 -62v-672zM635 346v107q-1 0 -31 -1.5t-52 -3.5t-61.5 -8t-68.5 -14.5t-63.5 -24.5t-56.5 -36.5t-37 -51.5t-15 -69q0 -76 42.5 -120t110.5 -44q94 0 163 77t69 189zM700 1145h-125l-129 158l-133 -158h-125
l181 262h151z" />
    <glyph glyph-name="atilde" unicode="&#xe3;" horiz-adv-x="948" 
d="M786 0h-151v137h-4q-14 -23 -34.5 -46t-55 -51t-84.5 -45.5t-107 -17.5q-116 0 -190 72.5t-74 173.5q0 248 371 297q62 9 178 15v129q0 38 -2.5 67t-12.5 65.5t-27.5 60.5t-51.5 41t-80 17q-45 0 -77.5 -14t-49 -32t-27 -49t-13 -49.5t-5.5 -49.5h-176q23 276 354 276
q60 0 108 -11t81 -29t57 -44.5t38 -54t22 -62t10.5 -62.5t2.5 -62v-672zM635 346v107q-1 0 -31 -1.5t-52 -3.5t-61.5 -8t-68.5 -14.5t-63.5 -24.5t-56.5 -36.5t-37 -51.5t-15 -69q0 -76 42.5 -120t110.5 -44q94 0 163 77t69 189zM633 1364h86q0 -33 -1 -56t-8 -57t-19.5 -56
t-37 -38t-59.5 -16q-34 0 -83.5 26t-92 52t-58.5 26q-13 0 -22.5 -13.5t-13.5 -33t-5.5 -32.5t-1.5 -21h-86q6 106 23 155q30 78 98 78q40 0 127 -55t111 -55q43 0 43 96z" />
    <glyph glyph-name="adieresis" unicode="&#xe4;" horiz-adv-x="948" 
d="M786 0h-151v137h-4q-14 -23 -34.5 -46t-55 -51t-84.5 -45.5t-107 -17.5q-116 0 -190 72.5t-74 173.5q0 248 371 297q62 9 178 15v129q0 38 -2.5 67t-12.5 65.5t-27.5 60.5t-51.5 41t-80 17q-45 0 -77.5 -14t-49 -32t-27 -49t-13 -49.5t-5.5 -49.5h-176q23 276 354 276
q60 0 108 -11t81 -29t57 -44.5t38 -54t22 -62t10.5 -62.5t2.5 -62v-672zM635 346v107q-1 0 -31 -1.5t-52 -3.5t-61.5 -8t-68.5 -14.5t-63.5 -24.5t-56.5 -36.5t-37 -51.5t-15 -69q0 -76 42.5 -120t110.5 -44q94 0 163 77t69 189zM717 1167h-182v181h182v-181zM354 1167h-182
v181h182v-181z" />
    <glyph glyph-name="aring" unicode="&#xe5;" horiz-adv-x="948" 
d="M786 0h-151v137h-4q-14 -23 -34.5 -46t-55 -51t-84.5 -45.5t-107 -17.5q-116 0 -190 72.5t-74 173.5q0 248 371 297q62 9 178 15v129q0 38 -2.5 67t-12.5 65.5t-27.5 60.5t-51.5 41t-80 17q-45 0 -77.5 -14t-49 -32t-27 -49t-13 -49.5t-5.5 -49.5h-176q23 276 354 276
q60 0 108 -11t81 -29t57 -44.5t38 -54t22 -62t10.5 -62.5t2.5 -62v-672zM635 346v107q-1 0 -31 -1.5t-52 -3.5t-61.5 -8t-68.5 -14.5t-63.5 -24.5t-56.5 -36.5t-37 -51.5t-15 -69q0 -76 42.5 -120t110.5 -44q94 0 163 77t69 189zM651 1288q0 -72 -52 -124t-124 -52t-124 52
t-52 124t52 123t124 51t124 -51t52 -123zM563 1288q0 33 -26 59.5t-62 26.5t-62 -25.5t-26 -58.5q0 -38 25.5 -64t62.5 -26q36 0 62 26t26 62z" />
    <glyph glyph-name="ae" unicode="&#xe6;" horiz-adv-x="1488" 
d="M1380 111v-91q-32 -13 -100 -28t-139 -15q-70 0 -133 16.5t-106 40.5t-79 55.5t-55.5 57.5t-32.5 50q-89 -220 -344 -220q-135 0 -219 77.5t-84 201.5q0 62 23.5 112.5t60 83t87.5 57.5t98 37.5t100 20t85.5 9.5t61.5 2h60v75q0 262 -193 262q-50 0 -87.5 -17.5
t-57.5 -46t-29.5 -54t-13.5 -52.5h-170q6 47 29 90t64 80.5t109.5 59.5t155.5 22q202 0 264 -155q18 21 32.5 36.5t44.5 39.5t60.5 39.5t76 27.5t95.5 12q81 0 144.5 -26.5t103 -69t64.5 -102.5t35 -121.5t10 -130.5v-51h-586q0 -29 10 -74.5t38.5 -107.5t70 -113.5t113 -88
t159.5 -36.5q106 0 174 35zM811 586h432q0 42 -1.5 71t-7 72t-18 71.5t-32.5 57t-54 43t-79 14.5q-53 0 -96 -22t-69 -56t-43.5 -79t-24.5 -87.5t-7 -84.5zM664 428v68h-43q-25 0 -53.5 -2.5t-74.5 -9.5t-85 -23t-76 -40t-58.5 -64.5t-21.5 -92.5q0 -82 52.5 -133t135.5 -51
q46 0 82.5 14t59.5 34t39.5 53t24.5 60t12.5 67.5t5 62.5t0.5 57z" />
    <glyph glyph-name="ccedilla" unicode="&#xe7;" horiz-adv-x="872" 
d="M332 -438v104q1 -1 9.5 -7.5t14 -10.5t16.5 -10.5t21 -10.5t24 -7t29 -3q37 0 69 22.5t32 67.5q0 105 -137 105q-9 0 -26.5 -1t-25.5 -1l43 190q-309 93 -309 518q0 234 106 356.5t291 122.5q171 0 253.5 -90t82.5 -233h-176q0 24 -0.5 38.5t-3.5 43t-9 47t-18.5 42
t-30 37t-45.5 23.5t-63 10q-50 0 -88.5 -22t-62.5 -57.5t-39 -84t-21 -96.5t-6 -100q0 -66 11 -130t38.5 -128.5t68.5 -112.5t106 -78t147 -30q23 0 41 1t37.5 4.5t27 5t31.5 8t29 7.5v-90q-110 -35 -219 -35q-43 0 -97 7l-24 -103h18q79 0 132 -42.5t53 -131.5
q0 -69 -50 -121.5t-153 -52.5q-67 0 -127 29z" />
    <glyph glyph-name="egrave" unicode="&#xe8;" horiz-adv-x="919" 
d="M815 104v-88q-54 -15 -77 -21t-68 -12t-97 -6q-224 0 -352.5 138t-128.5 401q0 108 22 193.5t68 151t123.5 101t181.5 35.5q71 0 128 -18.5t92.5 -45t61 -67t38 -73.5t19 -77t7.5 -64.5t1 -47.5h-572q0 -70 9.5 -138t36 -140.5t67 -126t108.5 -88.5t154 -35q31 0 59 3
t39 5t42.5 10.5t37.5 9.5zM266 694h410q0 29 -4 55.5t-16.5 58t-33 54t-58 38t-87.5 15.5q-49 0 -88.5 -18t-61.5 -44t-36.5 -58.5t-19.5 -57t-5 -43.5zM547 1145h-129l-137 274h180z" />
    <glyph glyph-name="eacute" unicode="&#xe9;" horiz-adv-x="919" 
d="M815 104v-88q-54 -15 -77 -21t-68 -12t-97 -6q-224 0 -352.5 138t-128.5 401q0 108 22 193.5t68 151t123.5 101t181.5 35.5q71 0 128 -18.5t92.5 -45t61 -67t38 -73.5t19 -77t7.5 -64.5t1 -47.5h-572q0 -70 9.5 -138t36 -140.5t67 -126t108.5 -88.5t154 -35q31 0 59 3
t39 5t42.5 10.5t37.5 9.5zM266 694h410q0 29 -4 55.5t-16.5 58t-33 54t-58 38t-87.5 15.5q-49 0 -88.5 -18t-61.5 -44t-36.5 -58.5t-19.5 -57t-5 -43.5zM504 1145h-129l86 274h180z" />
    <glyph glyph-name="ecircumflex" unicode="&#xea;" horiz-adv-x="919" 
d="M815 104v-88q-54 -15 -77 -21t-68 -12t-97 -6q-224 0 -352.5 138t-128.5 401q0 108 22 193.5t68 151t123.5 101t181.5 35.5q71 0 128 -18.5t92.5 -45t61 -67t38 -73.5t19 -77t7.5 -64.5t1 -47.5h-572q0 -70 9.5 -138t36 -140.5t67 -126t108.5 -88.5t154 -35q31 0 59 3
t39 5t42.5 10.5t37.5 9.5zM266 694h410q0 29 -4 55.5t-16.5 58t-33 54t-58 38t-87.5 15.5q-49 0 -88.5 -18t-61.5 -44t-36.5 -58.5t-19.5 -57t-5 -43.5zM737 1145h-125l-129 158l-133 -158h-125l181 262h151z" />
    <glyph glyph-name="edieresis" unicode="&#xeb;" horiz-adv-x="919" 
d="M815 104v-88q-54 -15 -77 -21t-68 -12t-97 -6q-224 0 -352.5 138t-128.5 401q0 108 22 193.5t68 151t123.5 101t181.5 35.5q71 0 128 -18.5t92.5 -45t61 -67t38 -73.5t19 -77t7.5 -64.5t1 -47.5h-572q0 -70 9.5 -138t36 -140.5t67 -126t108.5 -88.5t154 -35q31 0 59 3
t39 5t42.5 10.5t37.5 9.5zM266 694h410q0 29 -4 55.5t-16.5 58t-33 54t-58 38t-87.5 15.5q-49 0 -88.5 -18t-61.5 -44t-36.5 -58.5t-19.5 -57t-5 -43.5zM733 1167h-182v181h182v-181zM371 1167h-183v181h183v-181z" />
    <glyph glyph-name="igrave" unicode="&#xec;" horiz-adv-x="493" 
d="M322 0h-152v975h152v-975zM334 1145h-129l-137 274h180z" />
    <glyph glyph-name="iacute" unicode="&#xed;" horiz-adv-x="493" 
d="M322 0h-152v975h152v-975zM291 1145h-129l86 274h180z" />
    <glyph glyph-name="icircumflex" unicode="&#xee;" horiz-adv-x="493" 
d="M322 0h-152v975h152v-975zM504 1145h-125l-129 158l-133 -158h-125l180 262h152z" />
    <glyph glyph-name="idieresis" unicode="&#xef;" horiz-adv-x="493" 
d="M322 0h-152v975h152v-975zM520 1167h-182v181h182v-181zM158 1167h-183v181h183v-181z" />
    <glyph glyph-name="eth" unicode="&#xf0;" horiz-adv-x="1026" 
d="M684 918l4 4q-76 119 -186 204l-180 -71l-31 82l129 51q-48 31 -119.5 66t-110.5 42v7h277q18 -13 48.5 -34.5t39.5 -27.5l166 66l33 -80l-121 -49q53 -43 100 -101t93.5 -143t74 -204t27.5 -255q0 -87 -14.5 -161t-46 -137t-79 -107t-117.5 -68.5t-157 -24.5
q-90 0 -161.5 27t-119 73.5t-79 112.5t-45 140.5t-13.5 161.5q0 251 107 378t276 127q119 0 205 -79zM512 57q59 0 104.5 27.5t71.5 69t42.5 99.5t22 111t5.5 111q0 64 -5.5 121t-22.5 118t-44 104.5t-73 71.5t-107 28q-59 0 -103.5 -27.5t-70 -69.5t-41 -99.5t-20.5 -108
t-5 -105.5q0 -451 246 -451z" />
    <glyph glyph-name="ntilde" unicode="&#xf1;" horiz-adv-x="1062" 
d="M899 0h-151v631q0 30 -0.5 47t-3 46t-7.5 46.5t-15 39t-24 33.5t-36 20.5t-50 8.5q-73 0 -132 -44t-94 -113t-53 -146t-18 -151v-418h-151v975h147v-240h4q25 52 53.5 93.5t70.5 82.5t100 63.5t127 22.5q49 0 89.5 -16.5t66.5 -42.5t44 -60t25.5 -68.5t7.5 -68.5v-741z
M690 1364h86q0 -33 -1 -56t-8 -57t-19.5 -56t-37 -38t-59.5 -16q-34 0 -83 26t-91.5 52t-58.5 26q-13 0 -22.5 -13.5t-13.5 -33t-5.5 -32.5t-1.5 -21h-86q6 109 22 155q30 78 99 78q40 0 126.5 -55t110.5 -55q43 0 43 96z" />
    <glyph glyph-name="ograve" unicode="&#xf2;" horiz-adv-x="1026" 
d="M508 -23q-414 0 -414 500q0 119 24 213t73.5 163.5t129.5 106.5t187 37q212 0 318 -139t106 -381t-105 -371t-319 -129zM508 59q254 0 254 412q0 444 -254 444q-60 0 -105 -26.5t-71 -67.5t-42 -102t-21 -119t-5 -129q0 -67 5 -121t21 -110.5t42 -94.5t71 -62t105 -24z
M600 1145h-129l-137 274h180z" />
    <glyph glyph-name="oacute" unicode="&#xf3;" horiz-adv-x="1026" 
d="M508 -23q-414 0 -414 500q0 119 24 213t73.5 163.5t129.5 106.5t187 37q212 0 318 -139t106 -381t-105 -371t-319 -129zM508 59q254 0 254 412q0 444 -254 444q-60 0 -105 -26.5t-71 -67.5t-42 -102t-21 -119t-5 -129q0 -67 5 -121t21 -110.5t42 -94.5t71 -62t105 -24z
M557 1145h-129l86 274h180z" />
    <glyph glyph-name="ocircumflex" unicode="&#xf4;" horiz-adv-x="1026" 
d="M508 -23q-414 0 -414 500q0 119 24 213t73.5 163.5t129.5 106.5t187 37q212 0 318 -139t106 -381t-105 -371t-319 -129zM508 59q254 0 254 412q0 444 -254 444q-60 0 -105 -26.5t-71 -67.5t-42 -102t-21 -119t-5 -129q0 -67 5 -121t21 -110.5t42 -94.5t71 -62t105 -24z
M770 1145h-125l-129 158l-133 -158h-125l180 262h152z" />
    <glyph glyph-name="otilde" unicode="&#xf5;" horiz-adv-x="1026" 
d="M508 -23q-414 0 -414 500q0 119 24 213t73.5 163.5t129.5 106.5t187 37q212 0 318 -139t106 -381t-105 -371t-319 -129zM508 59q254 0 254 412q0 444 -254 444q-60 0 -105 -26.5t-71 -67.5t-42 -102t-21 -119t-5 -129q0 -67 5 -121t21 -110.5t42 -94.5t71 -62t105 -24z
M672 1364h86q0 -33 -1 -56t-8 -57t-19.5 -56t-37 -38t-59.5 -16q-34 0 -83.5 26t-92 52t-58.5 26q-13 0 -22.5 -13.5t-13.5 -33t-5.5 -32.5t-1.5 -21h-86q6 106 23 155q30 78 98 78q40 0 127 -55t111 -55q43 0 43 96z" />
    <glyph glyph-name="odieresis" unicode="&#xf6;" horiz-adv-x="1026" 
d="M508 -23q-414 0 -414 500q0 119 24 213t73.5 163.5t129.5 106.5t187 37q212 0 318 -139t106 -381t-105 -371t-319 -129zM508 59q254 0 254 412q0 444 -254 444q-60 0 -105 -26.5t-71 -67.5t-42 -102t-21 -119t-5 -129q0 -67 5 -121t21 -110.5t42 -94.5t71 -62t105 -24z
M786 1167h-182v181h182v-181zM424 1167h-182v181h182v-181z" />
    <glyph glyph-name="divide" unicode="&#xf7;" horiz-adv-x="1177" 
d="M657 786h-188v187h188v-187zM1036 424h-948v125h948v-125zM657 0h-188v186h188v-186z" />
    <glyph glyph-name="oslash" unicode="&#xf8;" horiz-adv-x="1026" 
d="M184 -100l-71 41l96 157q-36 45 -57.5 82.5t-40.5 115.5t-19 179q0 256 108.5 389t307.5 133q110 0 207 -47l78 129l67 -43l-78 -129q63 -48 106.5 -151.5t43.5 -261.5q0 -252 -110 -384.5t-312 -132.5q-31 0 -61 4.5t-51 10t-45 15t-35 15t-28.5 15t-19.5 10.5zM289 233
l375 631q-44 54 -154 54q-66 0 -116 -35.5t-77.5 -97t-41 -134.5t-13.5 -157q0 -142 27 -261zM711 788l-379 -645q1 -1 8.5 -10t11 -12.5t12 -12.5t15 -13t17 -11.5t21 -11t24.5 -7.5t29.5 -6t33.5 -2q68 0 118.5 34.5t80.5 96.5t44.5 139.5t14.5 170.5q0 83 -8 142
t-17 86.5t-26 61.5z" />
    <glyph glyph-name="ugrave" unicode="&#xf9;" horiz-adv-x="1062" 
d="M891 0h-148v238h-4q-38 -80 -67.5 -126t-69.5 -79t-89.5 -44.5t-123.5 -11.5q-58 0 -104.5 29t-73.5 75t-41 97t-14 101v696h151v-631q0 -42 9 -82t28.5 -77.5t54.5 -60t82 -22.5q63 0 114.5 44t81.5 113.5t46 146.5t16 151v418h152v-975zM618 1145h-129l-137 274h180z
" />
    <glyph glyph-name="uacute" unicode="&#xfa;" horiz-adv-x="1062" 
d="M891 0h-148v238h-4q-38 -80 -67.5 -126t-69.5 -79t-89.5 -44.5t-123.5 -11.5q-58 0 -104.5 29t-73.5 75t-41 97t-14 101v696h151v-631q0 -42 9 -82t28.5 -77.5t54.5 -60t82 -22.5q63 0 114.5 44t81.5 113.5t46 146.5t16 151v418h152v-975zM575 1145h-129l86 274h181z" />
    <glyph glyph-name="ucircumflex" unicode="&#xfb;" horiz-adv-x="1062" 
d="M891 0h-148v238h-4q-38 -80 -67.5 -126t-69.5 -79t-89.5 -44.5t-123.5 -11.5q-58 0 -104.5 29t-73.5 75t-41 97t-14 101v696h151v-631q0 -42 9 -82t28.5 -77.5t54.5 -60t82 -22.5q63 0 114.5 44t81.5 113.5t46 146.5t16 151v418h152v-975zM768 1145h-125l-129 158
l-133 -158h-125l180 262h152z" />
    <glyph glyph-name="udieresis" unicode="&#xfc;" horiz-adv-x="1062" 
d="M891 0h-148v238h-4q-38 -80 -67.5 -126t-69.5 -79t-89.5 -44.5t-123.5 -11.5q-58 0 -104.5 29t-73.5 75t-41 97t-14 101v696h151v-631q0 -42 9 -82t28.5 -77.5t54.5 -60t82 -22.5q63 0 114.5 44t81.5 113.5t46 146.5t16 151v418h152v-975zM805 1167h-182v181h182v-181z
M442 1167h-182v181h182v-181z" />
    <glyph glyph-name="yacute" unicode="&#xfd;" horiz-adv-x="911" 
d="M403 -391h-137l133 385l-387 981h170l297 -766l266 766h154zM500 1145h-129l86 274h180z" />
    <glyph glyph-name="thorn" unicode="&#xfe;" horiz-adv-x="1026" 
d="M315 -438h-151v1851h151v-567h4q11 22 31.5 45t53.5 48.5t82.5 41.5t105.5 16q168 0 254 -141.5t86 -380.5q0 -105 -20 -193t-61 -157.5t-110 -108.5t-161 -39q-51 0 -93.5 11.5t-68 25.5t-48.5 37t-31.5 36t-19.5 32h-4v-557zM555 76q47 0 84 24.5t60 64t37.5 93.5
t20 107.5t5.5 111.5q0 189 -54.5 305.5t-156.5 116.5q-68 0 -116 -34t-73 -94t-36 -127t-11 -148q0 -43 3 -81.5t10.5 -90t24.5 -92.5t42 -78t66.5 -57.5t93.5 -20.5z" />
    <glyph glyph-name="ydieresis" unicode="&#xff;" horiz-adv-x="911" 
d="M403 -391h-137l133 385l-387 981h170l297 -766l266 766h154zM729 1167h-182v181h182v-181zM367 1167h-183v181h183v-181z" />
    <glyph glyph-name="dotlessi" unicode="&#x131;" horiz-adv-x="493" 
d="M322 0h-152v975h152v-975z" />
    <glyph glyph-name="Lslash" unicode="&#x141;" horiz-adv-x="835" 
d="M840 0h-666v578l-174 -148v129l174 152v702h170v-563l256 213v-129l-256 -217v-596h496v-121z" />
    <glyph glyph-name="lslash" unicode="&#x142;" horiz-adv-x="493" 
d="M334 0h-152v645l-176 -149v118l176 148v651h152v-524l151 127v-117l-151 -127v-772z" />
    <glyph glyph-name="OE" unicode="&#x152;" horiz-adv-x="1783" 
d="M1731 0h-738v233h-4q-14 -31 -25.5 -52.5t-33.5 -55t-48 -56.5t-61 -46t-82 -34.5t-102 -11.5q-112 0 -202.5 39.5t-151 106.5t-101 160t-58.5 195.5t-18 217.5q0 119 18 225t58.5 201.5t101 164t151 109t202.5 40.5q64 0 121 -21.5t92 -48.5t67.5 -69t44.5 -63.5
t27 -51.5h4v231h719v-113h-549v-499h520v-117h-520v-563h568v-121zM627 84q366 0 366 623q0 97 -10 182t-36 167.5t-66 141.5t-105 95t-149 36q-338 0 -338 -647q0 -68 5.5 -130.5t18 -133.5t38 -128t61 -105t91 -74.5t124.5 -26.5z" />
    <glyph glyph-name="oe" unicode="&#x153;" horiz-adv-x="1566" 
d="M1454 113v-93q-93 -43 -221 -43q-53 0 -100 8.5t-81.5 20.5t-66.5 33t-52 37.5t-42 43t-31.5 40.5t-25.5 39q-9 -25 -23 -51t-42 -58t-63 -56t-89 -40.5t-117 -16.5q-106 0 -186.5 40.5t-127 112t-69.5 161t-23 196.5q0 510 414 510q64 0 119 -17.5t93.5 -46t63.5 -56.5
t43 -58q14 30 36 58t57.5 56.5t88.5 46t117 17.5q57 0 104.5 -12.5t81.5 -31.5t60.5 -50.5t44 -60.5t29.5 -72t18 -73t9 -76t3.5 -69.5t0.5 -62.5h-572q0 -42 13.5 -94t44 -109t73 -103t107.5 -76.5t141 -30.5q52 0 102 12.5t68 24.5zM905 580h414q0 35 -0.5 56.5t-4 60.5
t-10.5 64.5t-21 57.5t-34 51t-51 32t-70 13q-51 0 -92 -24t-64.5 -60t-39.5 -83t-21.5 -88t-5.5 -80zM510 59q244 0 244 416q0 70 -5.5 127.5t-22 117.5t-43.5 101.5t-73 67.5t-108 26q-58 0 -102.5 -26.5t-69.5 -67t-40.5 -96.5t-20.5 -106.5t-5 -106.5q0 -52 4 -99.5
t13 -101t27 -97t44 -79.5t66.5 -56t91.5 -20z" />
    <glyph glyph-name="Scaron" unicode="&#x160;" horiz-adv-x="987" 
d="M94 20v177q209 -99 355 -99q136 0 213 64t77 184q0 41 -11.5 77t-37 66.5t-52 54t-70 49.5t-77 44t-88 45.5t-88.5 46.5q-109 59 -172 140.5t-63 209.5q0 168 119.5 262.5t324.5 94.5q139 0 305 -35v-164q-187 86 -337 86q-110 0 -179 -58t-69 -149q0 -49 21 -91.5
t53 -72t81 -60t93.5 -52.5t102 -52.5t97.5 -56.5q66 -43 102.5 -73t69 -71t45.5 -90.5t13 -117.5q0 -102 -38.5 -180t-107 -126t-158 -72t-196.5 -24q-177 0 -328 43zM567 1583h-149l-180 262h124l130 -159l133 159h125z" />
    <glyph glyph-name="scaron" unicode="&#x161;" 
d="M57 18v154q153 -92 273 -92q91 0 148 39.5t57 118.5q0 21 -5 38.5t-17.5 33.5t-23 27.5t-33.5 27t-37.5 24t-45.5 26.5t-47 27t-61 34t-64 36.5t-52 38t-48 48.5t-27.5 57t-12.5 75q0 127 85 196.5t249 69.5q35 0 74 -4.5t62.5 -9t55 -12t36.5 -8.5v-146l-11 7
q-12 6 -16.5 8.5t-18.5 9.5t-22.5 10.5t-24.5 10t-28 10.5t-29 8.5t-31.5 7t-32 4.5t-34.5 2q-71 0 -119.5 -30t-48.5 -87q0 -34 14.5 -60.5t47.5 -50t65 -41.5t88 -47t96 -53q81 -47 124.5 -106t43.5 -154q0 -124 -91.5 -206.5t-272.5 -82.5q-158 0 -265 41zM434 1145h-149
l-181 262h125l129 -160l134 160h124z" />
    <glyph glyph-name="Ydieresis" unicode="&#x178;" horiz-adv-x="1026" 
d="M590 0h-170v653l-430 760h192l336 -604l346 604h172l-446 -760v-653zM786 1606h-182v180h182v-180zM424 1606h-182v180h182v-180z" />
    <glyph glyph-name="Zcaron" unicode="&#x17d;" horiz-adv-x="987" 
d="M936 0h-885v121l662 1179h-627v113h821v-113l-661 -1179h690v-121zM567 1583h-149l-180 262h124l130 -159l133 159h125z" />
    <glyph glyph-name="zcaron" unicode="&#x17e;" horiz-adv-x="835" 
d="M762 0h-699v102l508 775h-473v98h658v-98l-516 -768h522v-109zM492 1145h-150l-180 262h125l129 -160l133 160h125z" />
    <glyph glyph-name="florin" unicode="&#x192;" horiz-adv-x="684" 
d="M227 0h-159l155 881h-176l19 94h174l8 43q23 121 35 156q54 169 209 220q74 25 174 25q80 0 163 -18l-22 -121q-84 37 -152 37q-32 0 -59 -5.5t-47.5 -13.5t-38 -23t-29.5 -27.5t-22.5 -34.5t-16 -36t-11.5 -40t-8.5 -38.5t-6.5 -40t-6 -36.5l-9 -47h279l-16 -94h-281z
" />
    <glyph glyph-name="circumflex" unicode="&#x2c6;" horiz-adv-x="614" 
d="M563 1145h-125l-129 158l-133 -158h-125l180 262h152z" />
    <glyph glyph-name="caron" unicode="&#x2c7;" horiz-adv-x="614" 
d="M381 1145h-150l-180 262h125l129 -160l133 160h125z" />
    <glyph glyph-name="uni02C9" unicode="&#x2c9;" horiz-adv-x="614" 
d="M565 1145h-518v123h518v-123z" />
    <glyph glyph-name="breve" unicode="&#x2d8;" horiz-adv-x="614" 
d="M471 1415h90q0 -27 -6 -58t-23 -69.5t-43.5 -69.5t-73.5 -52t-106 -21q-70 0 -123 28.5t-80 72.5t-40 87t-13 82h90q26 -145 162 -145q43 0 76 14.5t50.5 38.5t26.5 46.5t13 45.5z" />
    <glyph glyph-name="dotaccent" unicode="&#x2d9;" horiz-adv-x="614" 
d="M401 1167h-188v189h188v-189z" />
    <glyph glyph-name="ring" unicode="&#x2da;" horiz-adv-x="614" 
d="M483 1288q0 -72 -52 -124t-124 -52t-124 52t-52 124t52 123t124 51t124 -51t52 -123zM395 1288q0 33 -26 59.5t-62 26.5t-62 -25.5t-26 -58.5q0 -38 25.5 -64t62.5 -26q36 0 62 26t26 62z" />
    <glyph glyph-name="ogonek" unicode="&#x2db;" horiz-adv-x="614" 
d="M537 -334v-100q-83 -17 -119 -17q-90 0 -147.5 46t-57.5 133q0 136 174 290h90q-145 -145 -145 -256q0 -52 27.5 -89.5t78.5 -37.5q43 0 99 31z" />
    <glyph glyph-name="tilde" unicode="&#x2dc;" horiz-adv-x="614" 
d="M465 1364h86q0 -33 -1 -56t-8 -57t-19.5 -56t-37 -38t-59.5 -16q-34 0 -83 26t-91.5 52t-58.5 26q-13 0 -22.5 -13.5t-13.5 -33t-5.5 -32.5t-1.5 -21h-87q6 106 23 155q30 78 98 78q40 0 127 -55t111 -55q43 0 43 96z" />
    <glyph glyph-name="hungarumlaut" unicode="&#x2dd;" horiz-adv-x="614" 
d="M500 1145h-129l86 274h180zM244 1145h-129l88 274h178z" />
    <glyph glyph-name="uni0394" unicode="&#x394;" horiz-adv-x="1177" 
d="M1157 0h-1139l476 1413h186zM944 117l-369 1136l-366 -1136h735z" />
    <glyph glyph-name="uni03A9" unicode="&#x3a9;" horiz-adv-x="1314" 
d="M1210 766q0 -203 -82.5 -376t-207.5 -273h282v-117h-432v121q258 229 258 635q0 118 -22 220t-66 182t-115 125.5t-163 45.5q-119 0 -205.5 -80.5t-128 -208.5t-41.5 -284q0 -397 262 -635v-121h-436v117h284q-55 41 -105 101.5t-93 140.5t-69 184t-26 215q0 195 67 348
t195.5 241.5t297.5 88.5q172 0 297 -87t187 -237t62 -346z" />
    <glyph glyph-name="uni03BC" unicode="&#x3bc;" horiz-adv-x="1071" 
d="M989 94v-106q-18 -4 -51 -4q-99 0 -142 49t-51 147q-25 -95 -87.5 -149t-153.5 -54q-140 0 -199 80q0 -293 10 -495h-151v1413h151v-565q0 -51 4 -92t16 -85.5t32 -74t55.5 -49t83.5 -19.5q225 0 225 434v451h152v-762q0 -87 49 -111q14 -8 57 -8z" />
    <glyph glyph-name="pi" unicode="&#x3c0;" horiz-adv-x="1110" 
d="M1059 975v-113h-191v-606q0 -92 32 -128t112 -38v-106q-23 -2 -64 -2q-106 0 -166.5 64t-60.5 196v620h-332v-862h-147v862q-100 0 -197 -39q-8 19 -23 50t-22 51q114 51 307 51h752z" />
    <glyph glyph-name="endash" unicode="&#x2013;" horiz-adv-x="1026" 
d="M920 436h-814v144h814v-144z" />
    <glyph glyph-name="emdash" unicode="&#x2014;" horiz-adv-x="1404" 
d="M1298 436h-1192v144h1192v-144z" />
    <glyph glyph-name="quoteleft" unicode="&#x2018;" horiz-adv-x="417" 
d="M287 973h-187l74 440h133z" />
    <glyph glyph-name="quoteright" unicode="&#x2019;" horiz-adv-x="417" 
d="M242 973h-131l20 440h186z" />
    <glyph glyph-name="quotesinglbase" unicode="&#x201a;" horiz-adv-x="417" 
d="M242 -238h-131l20 443h186z" />
    <glyph glyph-name="quotedblleft" unicode="&#x201c;" 
d="M590 973h-187l76 440h131zM287 973h-187l76 440h131z" />
    <glyph glyph-name="quotedblright" unicode="&#x201d;" 
d="M545 973h-131l20 440h187zM242 973h-131l20 440h186z" />
    <glyph glyph-name="quotedblbase" unicode="&#x201e;" 
d="M545 -238h-131l20 443h187zM242 -238h-131l20 443h186z" />
    <glyph glyph-name="dagger" unicode="&#x2020;" horiz-adv-x="1024" 
d="M592 0h-160v780h-352v123h352v510h160v-510h354v-123h-354v-780z" />
    <glyph glyph-name="daggerdbl" unicode="&#x2021;" horiz-adv-x="1024" 
d="M592 0h-160v653h-354v123h354v144h-354v122h354v371h160v-371h354v-122h-354v-144h354v-123h-354v-653z" />
    <glyph glyph-name="bullet" unicode="&#x2022;" horiz-adv-x="1024" 
d="M883 737q0 -152 -109 -260t-262 -108t-262 108t-109 260q0 154 108.5 263.5t262.5 109.5t262.5 -109.5t108.5 -263.5z" />
    <glyph glyph-name="ellipsis" unicode="&#x2026;" horiz-adv-x="1404" 
d="M1288 0h-184v184h184v-184zM795 0h-185v184h185v-184zM301 0h-184v184h184v-184z" />
    <glyph glyph-name="perthousand" unicode="&#x2030;" horiz-adv-x="2392" 
d="M2032 -23q-74 0 -129 24.5t-87.5 64.5t-52.5 99.5t-27 120t-7 136.5q0 78 7 141t27 126t52.5 106t87.5 69.5t129 26.5q303 0 303 -469q0 -445 -303 -445zM1311 -23q-74 0 -129 24.5t-88 64.5t-53.5 99.5t-27.5 120t-7 136.5q0 77 7 140.5t27.5 126.5t53.5 106t88 69.5
t129 26.5q70 0 123.5 -26.5t87 -69.5t55 -105.5t29.5 -127t8 -140.5q0 -445 -303 -445zM680 0h-115l426 1298h115zM360 408q-74 0 -129 24.5t-87.5 64t-52.5 99t-27 120t-7 136.5q0 78 7 141t27 126t52.5 106t87.5 69.5t129 26.5q70 0 124 -26.5t87.5 -69.5t55 -105.5
t29.5 -127t8 -140.5q0 -444 -304 -444zM2025 57q179 0 179 367q0 45 -2 82t-7.5 85t-18 84t-31 68.5t-49.5 50t-71 17.5q-37 0 -65.5 -17.5t-46 -50t-29 -68t-16.5 -84t-6.5 -85t-1.5 -82.5q0 -367 165 -367zM1305 57q178 0 178 367q0 55 -2.5 99.5t-13 101.5t-28.5 95
t-52.5 64.5t-81.5 26.5q-38 0 -67 -17.5t-47 -50t-29.5 -68t-16.5 -84.5t-6.5 -85t-1.5 -82q0 -50 2 -89.5t12 -95t26.5 -92.5t49.5 -63.5t78 -26.5zM356 487q176 0 176 367q0 45 -2 82t-7.5 85t-18 84t-31 68.5t-48.5 50t-69 17.5q-38 0 -67 -17.5t-47 -50t-29.5 -68
t-16.5 -84.5t-6.5 -85t-1.5 -82q0 -50 2 -89.5t12 -95t26.5 -92.5t49.5 -63.5t78 -26.5z" />
    <glyph glyph-name="guilsinglleft" unicode="&#x2039;" horiz-adv-x="454" 
d="M365 119h-127l-172 377l172 387h127l-121 -387z" />
    <glyph glyph-name="guilsinglright" unicode="&#x203a;" horiz-adv-x="454" 
d="M217 121h-127l121 387l-121 377h127l172 -377z" />
    <glyph glyph-name="fraction" unicode="&#x2044;" horiz-adv-x="432" 
d="M61 0h-116l426 1298h116z" />
    <glyph glyph-name="zero.superior" unicode="&#x2070;" 
d="M360 817q-74 0 -129 24.5t-88 64t-53.5 98.5t-27.5 119.5t-7 136.5q0 78 7 141.5t27.5 126.5t53.5 106t88 70t129 27q70 0 123.5 -26.5t87 -70.5t55 -106t30 -127t8.5 -141q0 -443 -304 -443zM354 897q178 0 178 365q0 38 -1 70t-5.5 73.5t-12 74t-21 66t-31.5 55.5
t-45.5 36t-61.5 14q-38 0 -67 -17.5t-47 -50.5t-29.5 -68.5t-16.5 -85t-6.5 -85.5t-1.5 -82q0 -40 1.5 -73t6.5 -79t17 -80.5t29.5 -66.5t46.5 -49t67 -17z" />
    <glyph glyph-name="i.superior" unicode="&#x2071;" horiz-adv-x="339" 
d="M236 1286h-130v127h130v-127zM229 438h-116v672h116v-672z" />
    <glyph glyph-name="four.superior" unicode="&#x2074;" 
d="M520 829h-112v248h-361v88l352 551h121v-545h152v-94h-152v-248zM408 1171v381h-5l-233 -381h238z" />
    <glyph glyph-name="five.superior" unicode="&#x2075;" 
d="M88 1024h145q0 -51 35 -89t97 -38q165 0 165 199q0 84 -38.5 137t-118.5 53q-47 0 -81 -21.5t-44 -50.5h-119l25 502h450v-96h-334l-20 -293q71 43 145 43q124 0 196.5 -81t72.5 -202q0 -132 -84 -201t-218 -69q-60 0 -108 14t-77 35.5t-49 50.5t-28.5 54.5t-11.5 52.5z
" />
    <glyph glyph-name="six.superior" unicode="&#x2076;" 
d="M623 1524h-138q0 53 -30 90t-84 37q-184 0 -178 -367q70 84 198 84q115 0 183.5 -70.5t68.5 -201.5q0 -136 -78.5 -207.5t-208.5 -71.5q-58 0 -105 15t-78 39t-53.5 62t-34.5 74.5t-19 86.5t-9 89.5t-2 90.5q0 76 6.5 136.5t27 122.5t54.5 103.5t92.5 68t137.5 26.5
q64 0 115 -22t79 -55.5t42 -67t14 -62.5zM358 897q75 0 113.5 53.5t38.5 141.5q0 82 -41 140t-115 58q-65 0 -109 -52.5t-44 -123.5q0 -87 38 -152t119 -65z" />
    <glyph glyph-name="seven.superior" unicode="&#x2077;" 
d="M301 829h-139l325 791h-395v96h539v-82z" />
    <glyph glyph-name="eight.superior" unicode="&#x2078;" 
d="M467 1290q76 -21 128 -75.5t52 -153.5q0 -120 -77.5 -182t-204.5 -62q-135 0 -213 64.5t-78 189.5q0 88 51 145t125 76q-64 16 -112 68.5t-48 140.5q0 104 76.5 167t198.5 63q118 0 191 -59t73 -173q0 -88 -48.5 -139.5t-113.5 -69.5zM356 1329q68 0 103 50.5t35 115.5
q0 71 -35.5 113.5t-100.5 42.5q-64 0 -99.5 -44t-35.5 -110t33 -117t100 -51zM365 897q71 0 109 44.5t38 121.5q0 82 -37.5 134t-114.5 52t-115 -53.5t-38 -128.5q0 -70 42 -120t116 -50z" />
    <glyph glyph-name="nine.superior" unicode="&#x2079;" 
d="M82 1024h137q0 -53 30.5 -90t84.5 -37q184 0 178 367q-70 -84 -199 -84q-115 0 -183.5 70.5t-68.5 201.5q0 136 78.5 207.5t208.5 71.5q58 0 105 -15t78 -39t53.5 -62t34.5 -74.5t19 -86.5t9 -89.5t2 -90.5q0 -76 -6.5 -136.5t-27 -122.5t-54 -103.5t-92 -68
t-137.5 -26.5q-64 0 -115 22t-79 55.5t-42 67t-14 62.5zM350 1257q65 0 109.5 53t44.5 124q0 54 -14 100.5t-51 81.5t-93 35q-75 0 -113 -53.5t-38 -141.5q0 -82 40.5 -140.5t114.5 -58.5z" />
    <glyph glyph-name="n.superior" unicode="&#x207f;" horiz-adv-x="733" 
d="M627 438h-117v436q0 25 -0.5 38t-2.5 36t-8 36.5t-15 28t-25 21t-37 6.5q-49 0 -88.5 -30.5t-62.5 -78t-35.5 -100.5t-12.5 -104v-289h-117v672h115l2 -139q88 155 236 155q84 0 126 -55t42 -121v-512z" />
    <glyph glyph-name="zero.inferior" unicode="&#x2080;" 
d="M360 -412q-74 0 -129 24.5t-88 64t-53.5 98.5t-27.5 119.5t-7 136.5q0 78 7 141.5t27.5 126.5t53.5 106t88 70t129 27q70 0 123.5 -26.5t87 -70.5t55 -106t30 -127t8.5 -141q0 -443 -304 -443zM354 -332q178 0 178 365q0 38 -1 70t-5.5 73.5t-12 74t-21 66t-31.5 55.5
t-45.5 36t-61.5 14q-38 0 -67 -17.5t-47 -50.5t-29.5 -68.5t-16.5 -85t-6.5 -85.5t-1.5 -82q0 -40 1.5 -73t6.5 -79t17 -80.5t29.5 -66.5t46.5 -49t67 -17z" />
    <glyph glyph-name="one.inferior" unicode="&#x2081;" 
d="M442 -399h-120v757l-160 -108v108l184 121h96v-878z" />
    <glyph glyph-name="two.inferior" unicode="&#x2082;" 
d="M621 -399h-535v96q89 73 175 170.5t152 214.5t66 203q0 63 -36 100t-97 37q-30 0 -53 -11t-34.5 -23t-20.5 -36t-11 -34t-5 -33q-1 -4 -1 -6h-137q0 30 8.5 59.5t29 59.5t50 52.5t76.5 37t104 14.5q112 0 184 -63.5t72 -180.5q0 -73 -35 -153t-90 -149t-104 -120
t-97 -93.5t-49 -43.5h388v-98z" />
    <glyph glyph-name="three.inferior" unicode="&#x2083;" 
d="M461 68v-5q149 -47 149 -219q0 -130 -73 -193t-199 -63q-63 0 -112 13.5t-78 34.5t-48 50t-26 55t-8 54h137q0 -129 133 -127q70 0 107.5 44t37.5 126q0 109 -45.5 145.5t-140.5 36.5v86q86 0 128 37.5t42 118.5q0 66 -32.5 113t-98.5 47q-36 0 -60.5 -12t-36 -33
t-16 -38t-6.5 -40h-137q0 77 69 140t187 63q120 0 190 -61t70 -175q0 -85 -38 -134t-95 -64z" />
    <glyph glyph-name="four.inferior" unicode="&#x2084;" 
d="M520 -399h-112v247h-361v89l352 550h121v-544h152v-95h-152v-247zM408 -57v381h-5l-233 -381h238z" />
    <glyph glyph-name="five.inferior" unicode="&#x2085;" 
d="M88 -205h145q0 -51 35 -89t97 -38q165 0 165 199q0 84 -38.5 137t-118.5 53q-47 0 -81 -21.5t-44 -49.5h-119l25 501h450v-96h-334l-20 -293q71 43 145 43q124 0 196.5 -80.5t72.5 -201.5q0 -133 -84 -202t-218 -69q-60 0 -108 14t-77 35.5t-49 50.5t-28.5 54.5
t-11.5 52.5z" />
    <glyph glyph-name="six.inferior" unicode="&#x2086;" 
d="M623 295h-138q0 53 -30 90t-84 37q-184 0 -178 -367q70 84 198 84q115 0 183.5 -70.5t68.5 -201.5q0 -136 -78.5 -207.5t-208.5 -71.5q-58 0 -105 15t-78 39t-53.5 62t-34.5 74.5t-19 86.5t-9 89.5t-2 90.5q0 76 6.5 136.5t27 122.5t54.5 103.5t92.5 68t137.5 26.5
q64 0 115 -22t79 -55.5t42 -67t14 -62.5zM358 -332q75 0 113.5 53.5t38.5 141.5q0 82 -41 140t-115 58q-65 0 -109 -52.5t-44 -123.5q0 -87 38 -152t119 -65z" />
    <glyph glyph-name="seven.inferior" unicode="&#x2087;" 
d="M301 -399h-139l325 790h-395v96h539v-81z" />
    <glyph glyph-name="eight.inferior" unicode="&#x2088;" 
d="M467 61q76 -21 128 -75.5t52 -153.5q0 -120 -77.5 -182t-204.5 -62q-135 0 -213 64.5t-78 189.5q0 88 51 145t125 76q-64 16 -112 68.5t-48 140.5q0 104 76.5 167t198.5 63q118 0 191 -59t73 -173q0 -88 -48.5 -139.5t-113.5 -69.5zM356 100q68 0 103 50.5t35 115.5
q0 71 -35.5 113.5t-100.5 42.5q-64 0 -99.5 -44t-35.5 -110t33 -117t100 -51zM365 -332q71 0 109 44.5t38 121.5q0 82 -37.5 134t-114.5 52t-115 -53.5t-38 -128.5q0 -70 42 -120t116 -50z" />
    <glyph glyph-name="nine.inferior" unicode="&#x2089;" 
d="M82 -205h137q0 -53 30.5 -90t84.5 -37q184 0 178 367q-70 -84 -199 -84q-115 0 -183.5 70.5t-68.5 201.5q0 136 78.5 207.5t208.5 71.5q58 0 105 -15t78 -39t53.5 -62t34.5 -74.5t19 -86.5t9 -89.5t2 -90.5q0 -76 -6.5 -136.5t-27 -122.5t-54 -103.5t-92 -68
t-137.5 -26.5q-64 0 -115 22t-79 55.5t-42 67t-14 62.5zM350 29q65 0 109.5 52.5t44.5 123.5q0 54 -14 100.5t-51 81.5t-93 35q-75 0 -113 -53.5t-38 -141.5q0 -82 40.5 -140t114.5 -58z" />
    <glyph glyph-name="Euro" unicode="&#x20ac;" horiz-adv-x="1099" 
d="M997 223v-155q-136 -88 -307 -88q-209 0 -333 140t-156 410h-172l18 95h146v10q0 14 -1.5 33t-1.5 26v27h-122l18 92h111v12q28 265 145 402t317 137q172 0 279 -106.5t109 -276.5h-191q-3 137 -56 209t-151 72q-123 0 -195.5 -116t-84.5 -333h448l-18 -92h-432v-10
q0 -49 2 -86h409l-18 -95h-383q58 -430 342 -430q74 0 134 26.5t144 96.5z" />
    <glyph glyph-name="litre" unicode="&#x2113;" horiz-adv-x="950" 
d="M281 287v215q-109 -121 -113 -125l-68 82l181 203v466q0 180 68 271.5t183 91.5q54 0 94.5 -20.5t62.5 -54.5t33 -70.5t11 -75.5q0 -143 -69.5 -289.5t-217.5 -329.5v-362q0 -96 32.5 -140.5t84.5 -44.5q73 0 160 95q9 -18 28.5 -50.5t28.5 -50.5q-127 -127 -254 -127
q-102 0 -168 66q-77 77 -77 250zM446 1141v-318q20 25 31 43q141 212 141 385q0 44 -17.5 76.5t-55.5 32.5q-47 0 -73 -49t-26 -170z" />
    <glyph glyph-name="trademark" unicode="&#x2122;" horiz-adv-x="1253" 
d="M1141 819h-88v537h-4l-140 -537h-108l-139 537h-5v-537h-88v594h160l123 -467h4l121 467h164v-594zM350 819h-88v508h-149v86h389v-86h-152v-508z" />
    <glyph glyph-name="Omega" unicode="&#x2126;" horiz-adv-x="1314" 
d="M1210 766q0 -203 -82.5 -376t-207.5 -273h282v-117h-432v121q258 229 258 635q0 118 -22 220t-66 182t-115 125.5t-163 45.5q-119 0 -205.5 -80.5t-128 -208.5t-41.5 -284q0 -397 262 -635v-121h-436v117h284q-55 41 -105 101.5t-93 140.5t-69 184t-26 215q0 195 67 348
t195.5 241.5t297.5 88.5q172 0 297 -87t187 -237t62 -346z" />
    <glyph glyph-name="estimated" unicode="&#x212e;" horiz-adv-x="1306" 
d="M1196 565h-872v-389q128 -125 309 -125q265 0 416 256l71 -45q-98 -144 -210.5 -215.5t-276.5 -71.5q-166 0 -292.5 79.5t-192.5 212.5t-66 298t65.5 297.5t192 211.5t293.5 79q171 0 298.5 -79t193 -210.5t71.5 -298.5zM944 639v309q-128 131 -313 131q-183 0 -307 -127
v-313h620z" />
    <glyph glyph-name="onethird" unicode="&#x2153;" horiz-adv-x="1671" 
d="M641 0h-115l424 1298h117zM391 414h-121v764l-159 -109v109l184 120h96v-884zM1423 467v-4q150 -47 150 -219q0 -130 -73.5 -193t-199.5 -63q-63 0 -112 13.5t-78 34.5t-48 50t-26 55t-8 54h137q0 -127 129 -127q73 0 111.5 43t38.5 127q0 109 -46 145.5t-141 36.5v86
q86 0 128 37.5t42 118.5q0 66 -32.5 112.5t-98.5 46.5q-29 0 -51 -8.5t-33.5 -20.5t-19.5 -30.5t-10 -32t-4 -31.5h-138q0 77 69 140t187 63q120 0 190 -60.5t70 -174.5q0 -85 -38.5 -134.5t-94.5 -64.5z" />
    <glyph glyph-name="twothirds" unicode="&#x2154;" horiz-adv-x="1671" 
d="M692 0h-114l423 1298h117zM1423 467v-4q150 -47 150 -219q0 -130 -73.5 -193t-199.5 -63q-63 0 -112 13.5t-78 34.5t-48 50t-26 55t-8 54h137q0 -127 129 -127q73 0 111.5 43t38.5 127q0 109 -46 145.5t-141 36.5v86q86 0 128 37.5t42 118.5q0 66 -32.5 112.5t-98.5 46.5
q-29 0 -51 -8.5t-33.5 -20.5t-19.5 -30.5t-10 -32t-4 -31.5h-138q0 77 69 140t187 63q120 0 190 -60.5t70 -174.5q0 -85 -38.5 -134.5t-94.5 -64.5zM621 420h-535v96q89 73 175 170.5t152 214.5t66 203q0 63 -36 100t-97 37q-100 0 -120 -112q-2 -6 -5 -31h-137
q0 30 8.5 59.5t29 59.5t50 52.5t76.5 37t104 14.5q112 0 184 -63.5t72 -180.5q0 -73 -35 -153t-90 -149t-104 -120t-97 -93.5t-49 -43.5h388v-98z" />
    <glyph glyph-name="oneeighth" unicode="&#x215b;" horiz-adv-x="1671" 
d="M621 0h-115l424 1298h117zM391 414h-121v764l-159 -109v109l184 120h96v-884zM1393 461q76 -21 128 -76t52 -154q0 -120 -78 -181.5t-205 -61.5q-135 0 -213 64.5t-78 189.5q0 88 51.5 145t125.5 76q-64 16 -112 68.5t-48 140.5q0 104 76 166.5t198 62.5q118 0 191 -58.5
t73 -172.5q0 -88 -48 -139.5t-113 -69.5zM1282 500q68 0 102.5 50.5t34.5 115.5q0 71 -35 113t-100 42q-64 0 -99.5 -43.5t-35.5 -109.5t33 -117t100 -51zM1290 68q71 0 109.5 44.5t38.5 120.5q0 82 -37.5 134.5t-114.5 52.5t-115 -53.5t-38 -128.5q0 -71 41.5 -120.5
t115.5 -49.5z" />
    <glyph glyph-name="threeeighths" unicode="&#x215c;" horiz-adv-x="1671" 
d="M672 0h-117l426 1298h117zM461 887v-4q149 -47 149 -219q0 -130 -73 -193t-199 -63q-63 0 -112 13.5t-78 34.5t-48 49.5t-26 54.5t-8 54h137q0 -127 133 -127q69 0 106 44t37 126q0 109 -45.5 146t-138.5 37v86q85 0 126.5 37t41.5 118q0 66 -32.5 113t-96.5 47
q-36 0 -60.5 -12t-36 -33t-16 -38t-6.5 -40h-137q0 77 69 140t187 63q120 0 190 -61t70 -175q0 -85 -38 -134t-95 -64zM1393 461q76 -21 128 -76t52 -154q0 -120 -78 -181.5t-205 -61.5q-135 0 -213 64.5t-78 189.5q0 88 51.5 145t125.5 76q-64 16 -112 68.5t-48 140.5
q0 104 76 166.5t198 62.5q118 0 191 -58.5t73 -172.5q0 -88 -48 -139.5t-113 -69.5zM1282 500q68 0 102.5 50.5t34.5 115.5q0 71 -35 113t-100 42q-64 0 -99.5 -43.5t-35.5 -109.5t33 -117t100 -51zM1290 68q71 0 109.5 44.5t38.5 120.5q0 82 -37.5 134.5t-114.5 52.5
t-115 -53.5t-38 -128.5q0 -71 41.5 -120.5t115.5 -49.5z" />
    <glyph glyph-name="fiveeighths" unicode="&#x215d;" horiz-adv-x="1671" 
d="M692 0h-117l426 1298h117zM1393 461q76 -21 128 -76t52 -154q0 -120 -78 -181.5t-205 -61.5q-135 0 -213 64.5t-78 189.5q0 88 51.5 145t125.5 76q-64 16 -112 68.5t-48 140.5q0 104 76 166.5t198 62.5q118 0 191 -58.5t73 -172.5q0 -88 -48 -139.5t-113 -69.5zM1282 500
q68 0 102.5 50.5t34.5 115.5q0 71 -35 113t-100 42q-64 0 -99.5 -43.5t-35.5 -109.5t33 -117t100 -51zM1290 68q71 0 109.5 44.5t38.5 120.5q0 82 -37.5 134.5t-114.5 52.5t-115 -53.5t-38 -128.5q0 -71 41.5 -120.5t115.5 -49.5zM82 614h145q0 -51 34.5 -89t96.5 -38
q166 0 166 199q0 85 -38.5 138t-118.5 53q-47 0 -81 -21.5t-44 -50.5h-119l24 502h451v-97h-334l-20 -292q71 43 145 43q124 0 196 -81t72 -202q0 -133 -83.5 -201.5t-217.5 -68.5q-74 0 -129 20t-84 53.5t-43.5 66t-17.5 66.5z" />
    <glyph glyph-name="seveneighths" unicode="&#x215e;" horiz-adv-x="1671" 
d="M631 0h-117l426 1298h117zM1393 461q76 -21 128 -76t52 -154q0 -120 -78 -181.5t-205 -61.5q-135 0 -213 64.5t-78 189.5q0 88 51.5 145t125.5 76q-64 16 -112 68.5t-48 140.5q0 104 76 166.5t198 62.5q118 0 191 -58.5t73 -172.5q0 -88 -48 -139.5t-113 -69.5zM1282 500
q68 0 102.5 50.5t34.5 115.5q0 71 -35 113t-100 42q-64 0 -99.5 -43.5t-35.5 -109.5t33 -117t100 -51zM1290 68q71 0 109.5 44.5t38.5 120.5q0 82 -37.5 134.5t-114.5 52.5t-115 -53.5t-38 -128.5q0 -71 41.5 -120.5t115.5 -49.5zM295 420h-139l325 790h-395v97h539v-82z
" />
    <glyph glyph-name="partialdiff" unicode="&#x2202;" horiz-adv-x="1099" 
d="M844 885h4q8 86 8 145q0 163 -67 243.5t-189 80.5q-92 0 -178 -49l-41 122q40 26 107.5 45t132.5 19q190 0 299.5 -126t109.5 -368q0 -188 -49 -397q-23 -93 -56.5 -178.5t-83.5 -167.5t-108.5 -141.5t-136.5 -96t-164 -36.5q-158 0 -255 104t-97 274q0 144 44 269.5
t116.5 210t166 132.5t191.5 48q88 0 152 -38t94 -95zM825 727q-23 74 -76.5 118t-134.5 44q-93 0 -175.5 -73.5t-132.5 -199t-50 -268.5q0 -106 49 -167.5t129 -61.5q135 0 239.5 167.5t151.5 440.5z" />
    <glyph glyph-name="Delta" unicode="&#x2206;" horiz-adv-x="1177" 
d="M1157 0h-1139l476 1413h186zM944 117l-369 1136l-366 -1136h735z" />
    <glyph glyph-name="product" unicode="&#x220f;" horiz-adv-x="1368" 
d="M1210 -471h-180v1751h-692v-1751h-178v1905h1050v-1905z" />
    <glyph glyph-name="summation" unicode="&#x2211;" horiz-adv-x="1208" 
d="M1112 -471h-1063v86l600 874l-557 846v99h973v-148h-758l524 -792l-559 -818h840v-147z" />
    <glyph glyph-name="minus" unicode="&#x2212;" horiz-adv-x="1177" 
d="M1061 436h-946v125h946v-125z" />
    <glyph glyph-name="uni2215" unicode="&#x2215;" horiz-adv-x="432" 
d="M61 0h-116l426 1298h116z" />
    <glyph glyph-name="uni2219" unicode="&#x2219;" horiz-adv-x="417" 
d="M307 551h-196v199h196v-199z" />
    <glyph glyph-name="radical" unicode="&#x221a;" horiz-adv-x="946" 
d="M629 -25h-152l-252 680l-106 -63l-60 100l250 156l240 -655l293 1298h129z" />
    <glyph glyph-name="infinity" unicode="&#x221e;" horiz-adv-x="1482" 
d="M735 383h-4q-63 -95 -147.5 -153t-182.5 -58q-137 0 -229 89t-92 235q0 147 90.5 237t224.5 90q113 0 197 -60.5t139 -148.5h4q24 38 54 71.5t71 66t95 52t112 19.5q138 0 228.5 -89.5t90.5 -229.5q0 -141 -89 -236.5t-224 -95.5q-107 0 -194.5 58.5t-143.5 152.5z
M801 500q52 -95 117.5 -147t138.5 -52q88 0 136 58t48 143q0 84 -47.5 138t-134.5 54q-78 0 -137.5 -48.5t-120.5 -145.5zM666 500q-50 86 -117.5 140t-138.5 54q-89 0 -137 -57t-48 -141q0 -85 52.5 -140t132.5 -55q141 0 256 199z" />
    <glyph glyph-name="integral" unicode="&#x222b;" horiz-adv-x="948" 
d="M375 -129v1317q0 158 80 252t233 94q36 0 76.5 -8t58.5 -17l-39 -131q-38 17 -82 17q-74 0 -112.5 -50t-38.5 -145v-1315q0 -158 -78.5 -252t-228.5 -94q-86 0 -138 23l33 133q40 -14 82 -14q76 0 115 48.5t39 141.5z" />
    <glyph glyph-name="approxequal" unicode="&#x2248;" horiz-adv-x="1177" 
d="M948 856l90 -102q-108 -166 -256 -166q-108 0 -207 63q-101 64 -174 64q-94 0 -170 -129l-90 100q51 79 111.5 123.5t146.5 44.5q103 0 205 -63q103 -64 174 -64q95 0 170 129zM948 412l90 -101q-107 -168 -256 -168q-107 0 -207 64q-99 63 -174 63q-94 0 -170 -129
l-90 103q50 79 110.5 122.5t147.5 43.5q102 0 205 -64q102 -63 174 -63q93 0 170 129z" />
    <glyph glyph-name="notequal" unicode="&#x2260;" horiz-adv-x="1177" 
d="M1001 207h-473l-114 -252h-148l115 252h-203v139h264l140 307h-404v140h467l119 264h147l-120 -264h210v-140h-272l-139 -307h411v-139z" />
    <glyph glyph-name="lessequal" unicode="&#x2264;" horiz-adv-x="1177" 
d="M1001 0h-823v139h823v-139zM1001 276l-823 392v104l823 391v-151l-628 -291v-4l628 -291v-150z" />
    <glyph glyph-name="greaterequal" unicode="&#x2265;" horiz-adv-x="1177" 
d="M1001 0h-823v139h823v-139zM1001 668l-823 -389v149l629 291v4l-629 291v149l823 -389v-106z" />
    <glyph glyph-name="lozenge" unicode="&#x25ca;" horiz-adv-x="944" 
d="M516 0h-90l-375 715l375 719h90l377 -717zM471 180l281 537l-281 536l-278 -536z" />
    <glyph glyph-name="zero.fitted" unicode="&#xe097;" horiz-adv-x="1097" 
d="M991 631q0 -101 -11.5 -190t-41.5 -176.5t-77.5 -149.5t-124 -100t-175.5 -38q-455 0 -455 682q0 109 11 199t41 178.5t78.5 149t128.5 98t186 37.5q102 0 180 -39t126.5 -103t79 -155.5t42.5 -186.5t12 -206zM815 637q0 56 -2 103.5t-8.5 109.5t-18 111t-32 99
t-48.5 83.5t-70.5 54.5t-94.5 21q-50 0 -90.5 -21t-67 -53t-45.5 -81t-29.5 -95.5t-16.5 -106t-7.5 -102t-1.5 -94.5q0 -55 1.5 -99.5t7.5 -108t17 -112.5t31.5 -101t48 -86.5t69.5 -56.5t95 -22q51 0 92.5 21t68 53.5t46.5 82.5t30 96.5t16 107t7.5 102.5t1.5 94z" />
    <glyph glyph-name="two.fitted" unicode="&#xe098;" horiz-adv-x="999" 
d="M881 0h-777v121q287 264 435.5 496.5t148.5 390.5q0 92 -57 151.5t-150 59.5q-45 0 -81 -16t-56.5 -39.5t-34.5 -53t-19 -55t-5 -47.5h-183q0 31 10 67.5t37.5 81t68.5 80.5t112 60t159 24q167 0 271 -90t104 -262q0 -90 -38 -189.5t-91.5 -180.5t-127 -166t-130.5 -139
t-116.5 -108t-69.5 -65h590v-121z" />
    <glyph glyph-name="three.fitted" unicode="&#xe099;" horiz-adv-x="1005" 
d="M874 350q0 -191 -106 -282t-297 -91q-87 0 -156.5 20t-111 50.5t-69 71t-38.5 77t-12 72.5h182q0 -35 9.5 -65.5t31 -59.5t64.5 -46t104 -17q103 0 163 69t60 191q0 138 -55.5 204t-159.5 77h-59v112h61q99 11 145 76.5t46 163.5q0 65 -19.5 118.5t-67.5 90.5t-118 37
q-42 0 -74.5 -12t-51.5 -30t-32 -44t-18.5 -48.5t-7.5 -48.5h-183q5 111 103 198t268 87q173 0 275 -88t102 -254q0 -74 -22 -132t-58 -92t-72 -52.5t-73 -26.5q51 -11 93 -33t78 -59.5t56 -97t20 -136.5z" />
    <glyph glyph-name="four.fitted" unicode="&#xe09a;" horiz-adv-x="1026" 
d="M993 369h-223v-369h-152v369h-536v118l518 811h170v-809h223v-120zM618 489v609l-378 -609h378z" />
    <glyph glyph-name="five.fitted" unicode="&#xe09b;" horiz-adv-x="1026" 
d="M944 377q0 -195 -119 -297.5t-309 -102.5q-85 0 -153 19.5t-109.5 49t-70 70t-40.5 77t-16 75.5h195q0 -77 51 -132.5t145 -55.5q67 0 116.5 23.5t78 66t42 95.5t13.5 118q0 81 -23 146.5t-78.5 109t-136.5 43.5q-70 0 -121.5 -34t-66.5 -77h-154l35 727h635v-112h-485
l-29 -467q81 65 219 65q176 0 278.5 -115.5t102.5 -291.5z" />
    <glyph glyph-name="six.fitted" unicode="&#xe09c;" horiz-adv-x="1026" 
d="M963 389q0 -202 -111.5 -307t-296.5 -105q-83 0 -148.5 22.5t-109.5 57.5t-76 90.5t-49.5 109.5t-27.5 128t-12.5 131.5t-2.5 132.5q0 79 4.5 145t17.5 136.5t33.5 126t55.5 106.5t81.5 84.5t112 53.5t146.5 20q74 0 135.5 -20t100.5 -51.5t66 -70.5t38.5 -75.5
t11.5 -69.5h-182q0 77 -46.5 131t-128.5 54q-44 0 -80.5 -16t-62.5 -40t-47 -63t-34 -74.5t-22.5 -86.5t-14 -87t-6.5 -87.5t-2.5 -76t-0.5 -63.5q29 57 105 106t196 49q162 0 259.5 -100.5t97.5 -290.5zM786 383q0 122 -61.5 210.5t-171.5 88.5q-99 0 -166.5 -81
t-67.5 -185q0 -57 13 -113.5t39.5 -107.5t75.5 -83t112 -32q111 0 169 86t58 217z" />
    <glyph glyph-name="seven.fitted" unicode="&#xe09d;" horiz-adv-x="964" 
d="M866 1178l-477 -1178h-186l483 1178h-584v120h764v-120z" />
    <glyph glyph-name="eight.fitted" unicode="&#xe09e;" horiz-adv-x="1026" 
d="M920 336q0 -175 -111 -267t-289 -92q-191 0 -302.5 95t-111.5 280q0 135 72.5 216.5t181.5 107.5q-42 9 -80 30.5t-73 57.5t-55.5 93t-20.5 128q0 152 107.5 244t279.5 92q167 0 271 -87t104 -253q0 -70 -20.5 -125.5t-55.5 -90.5t-72.5 -56.5t-80.5 -32.5
q256 -63 256 -340zM717 977q0 105 -54 173.5t-151 68.5q-96 0 -150.5 -70.5t-54.5 -169.5q0 -48 10 -90t31.5 -80t62.5 -60t97 -22q73 0 122 39t68 93t19 118zM743 340q0 120 -57.5 200.5t-171.5 80.5q-60 0 -106.5 -24.5t-72.5 -65t-39 -87.5t-13 -98q0 -110 60.5 -188
t174.5 -78q111 0 168 70t57 190z" />
    <glyph glyph-name="nine.fitted" unicode="&#xe09f;" horiz-adv-x="1026" 
d="M909 668q0 -76 -4.5 -142t-17 -138t-32.5 -130t-54 -112t-79.5 -90t-110.5 -57.5t-144 -21.5q-93 0 -163.5 26.5t-111.5 71.5t-63 92.5t-29 100.5h183q0 -78 45.5 -133t142.5 -55q42 0 78 16.5t61 41.5t45.5 65.5t33 77.5t21.5 89t13.5 88.5t6.5 87.5t2.5 75t0.5 61
q-9 -19 -30.5 -43t-57 -52.5t-91.5 -47.5t-120 -19q-158 0 -256 103t-98 288q0 187 107 298.5t298 111.5q78 0 142 -21.5t107.5 -56.5t75.5 -87.5t51 -107t30 -123.5t14.5 -128t3.5 -129zM721 874q0 32 -5 67t-16 75t-30 75.5t-45 64.5t-64 46t-84 17q-58 0 -102.5 -27.5
t-69.5 -71.5t-37 -93t-12 -99q0 -86 24 -154.5t76 -112t125 -43.5q96 0 168 76t72 180z" />
    <glyph glyph-name="zero.denominator" unicode="&#xe10a;" 
d="M360 -12q-74 0 -129 24t-88 63.5t-53.5 98.5t-27.5 119.5t-7 136.5q0 78 7 141.5t27.5 126.5t53.5 106t88 70t129 27q70 0 123.5 -26.5t87 -70.5t55 -106t30 -127t8.5 -141q0 -442 -304 -442zM354 68q178 0 178 364q0 38 -1 70t-5.5 73.5t-12 74t-21 66t-31.5 55.5
t-45.5 36t-61.5 14q-38 0 -67 -17.5t-47 -50.5t-29.5 -68.5t-16.5 -85t-6.5 -85.5t-1.5 -82q0 -40 1.5 -73t6.5 -79t17 -80t29.5 -66t46.5 -49t67 -17z" />
    <glyph glyph-name="one.denominator" unicode="&#xe10b;" 
d="M442 0h-120v758l-160 -109v109l184 121h96v-879z" />
    <glyph glyph-name="two.denominator" unicode="&#xe10c;" 
d="M621 0h-535v96q89 73 175 170.5t152 214.5t66 203q0 63 -36 100t-97 37q-30 0 -53 -11t-34.5 -23t-20.5 -36t-11 -34t-5 -33q-1 -4 -1 -6h-137q0 30 8.5 59.5t29 59.5t50 52.5t76.5 37t104 14.5q112 0 184 -63.5t72 -180.5q0 -73 -35 -153t-90 -149t-104 -120t-97 -93.5
t-49 -43.5h388v-98z" />
    <glyph glyph-name="three.denominator" unicode="&#xe10d;" 
d="M461 467v-4q149 -47 149 -219q0 -130 -73 -193t-199 -63q-63 0 -112 13.5t-78 34.5t-48 50t-26 55t-8 54h137q0 -129 133 -127q70 0 107.5 44t37.5 126q0 109 -45.5 145.5t-140.5 36.5v86q86 0 128 37.5t42 118.5q0 66 -32.5 112.5t-98.5 46.5q-36 0 -60.5 -12t-36 -33
t-16 -38t-6.5 -40h-137q0 77 69 140t187 63q120 0 190 -60.5t70 -174.5q0 -85 -38.5 -134.5t-94.5 -64.5z" />
    <glyph glyph-name="four.denominator" unicode="&#xe10e;" 
d="M520 0h-112v248h-361v88l352 551h121v-545h152v-94h-152v-248zM408 342v381h-5l-233 -381h238z" />
    <glyph glyph-name="five.denominator" unicode="&#xe10f;" 
d="M88 195h145q0 -51 35 -89t97 -38q165 0 165 198q0 85 -38.5 138t-118.5 53q-47 0 -81 -21.5t-44 -50.5h-119l25 502h450v-96h-334l-20 -293q71 43 145 43q124 0 196.5 -81t72.5 -202q0 -132 -84 -201t-218 -69q-60 0 -108 14t-77 35.5t-49 50.5t-28.5 54.5t-11.5 52.5z
" />
    <glyph glyph-name="six.denominator" unicode="&#xe110;" 
d="M623 694h-138q0 53 -30 90t-84 37q-184 0 -178 -366q70 84 198 84q115 0 183.5 -71t68.5 -202q0 -136 -78.5 -207t-208.5 -71q-58 0 -105 15t-78 39t-53.5 61.5t-34.5 74t-19 87t-9 89.5t-2 90q0 76 6.5 136.5t27 122.5t54.5 103.5t92.5 68t137.5 26.5q64 0 115 -22
t79 -55.5t42 -67t14 -62.5zM358 68q75 0 113.5 53.5t38.5 140.5q0 82 -41 140.5t-115 58.5q-65 0 -109 -52.5t-44 -123.5q0 -87 38 -152t119 -65z" />
    <glyph glyph-name="seven.denominator" unicode="&#xe111;" 
d="M301 0h-139l325 791h-395v96h539v-82z" />
    <glyph glyph-name="eight.denominator" unicode="&#xe112;" 
d="M467 461q76 -21 128 -76t52 -154q0 -120 -77.5 -181.5t-204.5 -61.5q-135 0 -213 64.5t-78 189.5q0 88 51 145t125 76q-64 16 -112 68.5t-48 140.5q0 104 76.5 166.5t198.5 62.5q118 0 191 -58.5t73 -172.5q0 -88 -48.5 -139.5t-113.5 -69.5zM356 500q68 0 103 50.5
t35 115.5q0 71 -35.5 113t-100.5 42q-64 0 -99.5 -43.5t-35.5 -109.5t33 -117t100 -51zM365 68q71 0 109 44.5t38 120.5q0 82 -37.5 134.5t-114.5 52.5t-115 -53.5t-38 -128.5q0 -70 42 -120t116 -50z" />
    <glyph glyph-name="nine.denominator" unicode="&#xe113;" 
d="M82 195h137q0 -53 30.5 -90t84.5 -37q184 0 178 366q-70 -84 -199 -84q-115 0 -183.5 71t-68.5 202q0 136 78.5 207t208.5 71q58 0 105 -15t78 -39t53.5 -62t34.5 -74.5t19 -86.5t9 -89.5t2 -90.5q0 -53 -3 -97.5t-12 -92.5t-24 -86t-39.5 -72.5t-57 -57.5t-78.5 -36.5
t-103 -13.5q-64 0 -115 22t-79 55.5t-42 67t-14 62.5zM350 428q65 0 109.5 53t44.5 123q0 54 -14 100.5t-51 81.5t-93 35q-75 0 -113 -53t-38 -141q0 -82 40.5 -140.5t114.5 -58.5z" />
    <glyph glyph-name="cent.denominator" unicode="&#xe119;" horiz-adv-x="628" 
d="M362 -135h-73v129q-102 19 -169 107.5t-67 250.5q0 143 63.5 229t172.5 97v104h73v-104q96 -9 154.5 -66.5t58.5 -152.5h-129q0 65 -19 102.5t-65 54.5v-565q24 -6 62 -6q64 0 139 23v-58q-100 -26 -174 -26q-19 0 -27 2v-121zM289 84v534q-59 -19 -83 -81.5t-24 -167.5
q0 -204 107 -285z" />
    <glyph glyph-name="dollar.denominator" unicode="&#xe11b;" horiz-adv-x="759" 
d="M416 -133h-78v119q-128 6 -188.5 58t-73.5 144h137q9 -57 35 -91.5t90 -45.5v393q-26 6 -43.5 11t-46 16t-48 22.5t-42.5 30.5t-37 41t-23.5 53.5t-9.5 67.5q0 52 17 94.5t43 69.5t60 46t66 27.5t64 10.5v100h78v-100q80 -6 139.5 -39.5t87 -77t27.5 -88.5h-140
q0 58 -30.5 94.5t-83.5 42.5v-368q117 -40 159 -66q111 -67 111 -199q0 -55 -17.5 -99t-45 -70.5t-64.5 -44t-72 -25t-71 -8.5v-119zM338 522v344q-46 -8 -80.5 -55t-34.5 -117q0 -136 115 -172zM416 416v-365q52 9 94.5 55t42.5 123q0 128 -137 187z" />
    <glyph glyph-name="zero.numerator" unicode="&#xe11e;" 
d="M360 408q-74 0 -129 24t-88 63.5t-53.5 98.5t-27.5 119.5t-7 136.5q0 78 7 141.5t27.5 126.5t53.5 106t88 70t129 27q70 0 123.5 -26.5t87 -70.5t55 -106t30 -127t8.5 -141q0 -442 -304 -442zM354 487q178 0 178 365q0 38 -1 70t-5.5 73.5t-12 74t-21 66t-31.5 55.5
t-45.5 36t-61.5 14q-38 0 -67 -17.5t-47 -50.5t-29.5 -68.5t-16.5 -85t-6.5 -85.5t-1.5 -82q0 -40 1.5 -73t6.5 -79t17 -80.5t29.5 -66.5t46.5 -49t67 -17z" />
    <glyph glyph-name="one.numerator" unicode="&#xe11f;" 
d="M442 420h-120v758l-160 -109v109l184 120h96v-878z" />
    <glyph glyph-name="two.numerator" unicode="&#xe120;" 
d="M621 420h-535v96q89 73 175 170.5t152 214.5t66 203q0 63 -36 100t-97 37q-100 0 -120 -112q-2 -6 -5 -31h-137q0 30 8.5 59.5t29 59.5t50 52.5t76.5 37t104 14.5q112 0 184 -63.5t72 -180.5q0 -73 -35 -153t-90 -149t-104 -120t-97 -93.5t-49 -43.5h388v-98z" />
    <glyph glyph-name="three.numerator" unicode="&#xe121;" 
d="M461 887v-4q149 -47 149 -219q0 -130 -73 -193t-199 -63q-63 0 -112 13.5t-78 34.5t-48 49.5t-26 54.5t-8 54h137q0 -129 133 -127q70 0 107.5 44t37.5 126q0 109 -45.5 146t-140.5 37v86q86 0 128 37t42 118q0 66 -32.5 113t-98.5 47q-36 0 -60.5 -12t-36 -33t-16 -38
t-6.5 -40h-137q0 77 69 140t187 63q120 0 190 -61t70 -175q0 -85 -38 -134t-95 -64z" />
    <glyph glyph-name="four.numerator" unicode="&#xe122;" 
d="M520 420h-112v248h-361v88l352 551h121v-545h152v-94h-152v-248zM408 762v381h-5l-233 -381h238z" />
    <glyph glyph-name="five.numerator" unicode="&#xe123;" 
d="M88 614h145q0 -51 35 -89t97 -38q165 0 165 199q0 85 -38.5 138t-118.5 53q-47 0 -81 -21.5t-44 -50.5h-119l25 502h450v-97h-334l-20 -292q71 43 145 43q124 0 196.5 -81t72.5 -202q0 -132 -84 -201t-218 -69q-74 0 -129 20t-84 53.5t-43.5 66t-17.5 66.5z" />
    <glyph glyph-name="six.numerator" unicode="&#xe124;" 
d="M623 1114h-138q0 53 -30 90t-84 37q-184 0 -178 -367q70 84 198 84q115 0 183.5 -70.5t68.5 -201.5q0 -136 -78.5 -207t-208.5 -71q-58 0 -105 15t-78 39t-53.5 61.5t-34.5 74t-19 87t-9 89.5t-2 90q0 76 6.5 136.5t27 122.5t54.5 103.5t92.5 68t137.5 26.5q64 0 115 -22
t79 -55.5t42 -67t14 -62.5zM358 487q75 0 113.5 53.5t38.5 141.5q0 82 -41 140.5t-115 58.5q-65 0 -109 -52.5t-44 -123.5q0 -54 13.5 -100.5t50.5 -82t93 -35.5z" />
    <glyph glyph-name="seven.numerator" unicode="&#xe125;" 
d="M301 420h-139l325 790h-395v97h539v-82z" />
    <glyph glyph-name="eight.numerator" unicode="&#xe126;" 
d="M467 881q76 -21 128 -76t52 -154q0 -120 -77.5 -181.5t-204.5 -61.5q-135 0 -213 64.5t-78 189.5q0 88 51 145t125 76q-64 16 -112 68.5t-48 140.5q0 104 76.5 166.5t198.5 62.5q118 0 191 -58.5t73 -172.5q0 -88 -48.5 -139.5t-113.5 -69.5zM356 920q68 0 103 50t35 115
q0 71 -35.5 113.5t-100.5 42.5q-64 0 -99.5 -44t-35.5 -110t33 -116.5t100 -50.5zM365 487q71 0 109 44.5t38 121.5q0 82 -37.5 134.5t-114.5 52.5t-115 -54t-38 -129q0 -70 42 -120t116 -50z" />
    <glyph glyph-name="nine.numerator" unicode="&#xe127;" 
d="M82 614h137q0 -53 30.5 -90t84.5 -37q184 0 178 367q-70 -84 -199 -84q-115 0 -183.5 70.5t-68.5 201.5q0 136 78.5 207.5t208.5 71.5q58 0 105 -15t78 -39t53.5 -62t34.5 -74.5t19 -86.5t9 -89.5t2 -90.5q0 -53 -3 -97.5t-12 -92.5t-24 -86t-39.5 -72.5t-57 -57.5
t-78.5 -36.5t-103 -13.5q-64 0 -115 22t-79 55t-42 66.5t-14 62.5zM350 848q65 0 109.5 53t44.5 123q0 54 -14 100.5t-51 81.5t-93 35q-75 0 -113 -53t-38 -141q0 -82 40.5 -140.5t114.5 -58.5z" />
    <glyph glyph-name="cent.numerator" unicode="&#xe12d;" horiz-adv-x="628" 
d="M362 285h-73v129q-102 19 -169 107.5t-67 250.5q0 143 63.5 229t172.5 97v104h73v-104q96 -9 154.5 -66.5t58.5 -152.5h-129q0 65 -19 102.5t-65 54.5v-565q24 -6 62 -6q67 0 139 22v-57q-103 -27 -174 -27q-15 0 -27 3v-121zM289 504v534q-58 -19 -82.5 -82t-24.5 -168
q0 -203 107 -284z" />
    <glyph glyph-name="dollar.numerator" unicode="&#xe131;" horiz-adv-x="759" 
d="M416 287h-78v119q-128 6 -188.5 58t-73.5 144h137q9 -57 35 -91.5t90 -45.5v393q-26 6 -43.5 11t-46 16t-48 22.5t-42.5 30.5t-37 41t-23.5 53.5t-9.5 67.5q0 52 17 94.5t43 69.5t60 46t66 27.5t64 10.5v100h78v-100q80 -6 139.5 -39.5t87 -77t27.5 -88.5h-140
q0 58 -30.5 94.5t-83.5 42.5v-368q117 -40 159 -66q110 -68 111 -199q0 -55 -17.5 -99t-45 -70.5t-64.5 -44t-72 -25t-71 -8.5v-119zM338 942v344q-46 -8 -80.5 -55t-34.5 -117q0 -136 115 -172zM416 836v-365q52 9 94.5 55t42.5 123q0 128 -137 187z" />
    <glyph glyph-name="one.fitted" unicode="&#xf6dc;" horiz-adv-x="788" 
d="M512 0h-164v1143l-235 -160v141l264 174h135v-1298z" />
    <glyph glyph-name="cent.inferior" unicode="&#xf6df;" horiz-adv-x="628" 
d="M362 -535h-73v129q-102 19 -169 108t-67 251q0 143 63.5 229t172.5 97v104h73v-104q95 -9 154 -67t59 -153h-129q0 65 -19 103t-65 55v-565q24 -6 62 -6q67 0 139 22v-57q-104 -27 -174 -27q-19 0 -27 2v-121zM289 -315v534q-58 -19 -82.5 -82t-24.5 -168
q0 -203 107 -284z" />
    <glyph glyph-name="cent.superior" unicode="&#xf6e0;" horiz-adv-x="628" 
d="M362 694h-73v129q-102 19 -169 108t-67 251q0 143 63.5 228.5t172.5 96.5v105h73v-105q96 -9 154.5 -66.5t58.5 -152.5h-129q0 65 -19 103t-65 55v-565q28 -7 62 -7q64 0 139 23v-57q-104 -27 -174 -27q-19 0 -27 2v-121zM289 913v535q-58 -19 -82.5 -82t-24.5 -168
q0 -204 107 -285z" />
    <glyph glyph-name="dollar.inferior" unicode="&#xf6e3;" horiz-adv-x="759" 
d="M416 -532h-78v118q-128 6 -188.5 58.5t-73.5 144.5h137q9 -57 35 -91.5t90 -45.5v393q-26 6 -43.5 11t-46 16t-48 22.5t-42.5 30.5t-37 41t-23.5 53.5t-9.5 67.5q0 52 17 94.5t43 69.5t60 46t66 27.5t64 10.5v100h78v-100q80 -6 139.5 -39.5t87 -77t27.5 -88.5h-140
q0 58 -30.5 94.5t-83.5 42.5v-369q116 -40 157 -64q113 -67 113 -200q0 -55 -17.5 -99t-45 -70.5t-64.5 -44.5t-72 -25.5t-71 -8.5v-118zM338 123v344q-46 -8 -80.5 -55t-34.5 -117q0 -136 115 -172zM416 16v-364q52 9 94.5 55t42.5 123q0 127 -137 186z" />
    <glyph glyph-name="dollar.superior" unicode="&#xf6e4;" horiz-adv-x="759" 
d="M416 696h-78v119q-128 6 -188.5 58.5t-73.5 144.5h137q9 -57 35 -91.5t90 -45.5v393q-26 6 -43.5 11t-46 16t-48 22.5t-42.5 30.5t-37 41t-23.5 53.5t-9.5 67.5q0 52 17 94t43 69t60 46t66 27.5t64 10.5v101h78v-101q118 -8 186 -70.5t68 -133.5h-140q0 58 -30.5 94.5
t-83.5 42.5v-369q116 -40 157 -64q113 -67 113 -200q0 -55 -17.5 -99t-45 -70.5t-64.5 -44.5t-72 -25.5t-71 -8.5v-119zM338 1352v344q-46 -8 -80.5 -55t-34.5 -117q0 -136 115 -172zM416 1245v-364q52 9 94.5 55t42.5 123q0 127 -137 186z" />
    <glyph glyph-name="a.superior" unicode="&#xf6e9;" horiz-adv-x="653" 
d="M549 438h-117l-2 76q-72 -92 -188 -92q-83 0 -136 50t-53 120q0 40 15 73t36.5 54t57 37.5t65.5 25t73.5 14.5t68.5 7.5t63 3.5v90q0 26 -1.5 46t-8.5 45t-18.5 41.5t-34 28t-52.5 11.5q-35 0 -58.5 -12.5t-34 -36.5t-14 -40.5t-5.5 -43.5h-133q14 190 250 190
q59 0 102 -14.5t66.5 -36.5t37.5 -54t17.5 -59t3.5 -61v-463zM432 678v72h-4q-250 -9 -250 -144q0 -52 28.5 -82t72.5 -30q61 0 107 53.5t46 130.5z" />
    <glyph glyph-name="b.superior" unicode="&#xf6ea;" horiz-adv-x="708" 
d="M88 762v651h117v-399q72 112 192 112q121 0 186.5 -95.5t65.5 -260.5q0 -172 -76.5 -260t-214.5 -88q-44 0 -80.5 8.5t-62.5 21.5t-47 34.5t-34 41t-22.5 48.5t-14 49t-6.5 50.5t-2.5 45.5t-0.5 41zM358 492q60 0 98 41t51 98.5t13 132.5q0 53 -7 101t-22.5 94t-46.5 73
t-73 27q-44 0 -78 -30t-52 -78t-27 -98.5t-9 -100.5q0 -260 153 -260z" />
    <glyph glyph-name="d.superior" unicode="&#xf6eb;" horiz-adv-x="708" 
d="M600 438h-117l-2 101q-26 -47 -72.5 -82t-115.5 -35q-66 0 -113.5 29t-73 80.5t-36.5 111t-11 131.5q0 99 25 176t82 126.5t141 49.5q116 0 176 -108v395h117v-975zM317 494q74 0 120 82.5t46 209.5q0 35 -8 77.5t-24.5 88.5t-49.5 76.5t-75 30.5q-50 0 -82.5 -45.5
t-44 -108t-11.5 -139.5q0 -272 129 -272z" />
    <glyph glyph-name="e.superior" unicode="&#xf6ec;" horiz-adv-x="634" 
d="M569 510v-59q-4 -1 -20 -5.5t-20.5 -6t-18 -5t-20 -4.5l-19.5 -3t-23.5 -3t-24 -1.5t-28.5 -0.5q-157 0 -247.5 95.5t-90.5 277.5q0 154 67.5 242.5t211.5 88.5q51 0 91 -12.5t65.5 -31t43.5 -46.5t26.5 -51t13.5 -53t5.5 -44t0.5 -32h-396q1 -48 8.5 -94.5t26 -96.5
t46 -87.5t72 -61.5t101.5 -24q44 0 129 18zM190 918h271q0 25 -5 48t-17.5 48t-40.5 40t-68 15q-32 0 -57 -12t-40 -29t-25 -39t-13.5 -39.5t-4.5 -31.5z" />
    <glyph glyph-name="l.superior" unicode="&#xf6ee;" horiz-adv-x="339" 
d="M227 438h-116v975h116v-975z" />
    <glyph glyph-name="m.superior" unicode="&#xf6ef;" horiz-adv-x="1073" 
d="M967 438h-117v453q0 22 -0.5 35.5t-5 38t-13 38.5t-26.5 25.5t-43 11.5q-41 0 -74.5 -31t-52.5 -78t-29 -96.5t-10 -93.5v-303h-117v436q0 25 -0.5 38t-2.5 36t-8 36.5t-15 28t-25 21t-37 6.5q-55 0 -95 -53t-56.5 -121.5t-16.5 -138.5v-289h-117v672h115l2 -135
q33 68 81 109.5t124 41.5q77 0 118 -43.5t50 -105.5q30 58 80.5 103.5t122.5 45.5q82 0 125 -51.5t43 -136.5v-500z" />
    <glyph glyph-name="o.superior" unicode="&#xf6f0;" horiz-adv-x="708" 
d="M350 422q-291 0 -291 346q0 168 71.5 263t219.5 95q149 0 224 -95.5t75 -262.5t-74 -256.5t-225 -89.5zM350 479q170 0 170 285q0 305 -170 305q-162 0 -162 -305q0 -285 162 -285z" />
    <glyph glyph-name="r.superior" unicode="&#xf6f1;" horiz-adv-x="471" 
d="M223 438h-117v672h117l4 -133q33 62 87.5 105.5t127.5 43.5v-122h-34q-51 0 -88.5 -21t-58 -57.5t-29.5 -78.5t-9 -91v-318z" />
    <glyph glyph-name="s.superior" unicode="&#xf6f2;" horiz-adv-x="497" 
d="M33 453l4 108q105 -67 190 -67q60 0 97.5 27t37.5 81q0 38 -27 65.5t-81 57.5l-68 37h2q-40 22 -58.5 34t-44.5 34.5t-37 49.5t-11 62q0 89 59.5 136.5t175.5 47.5q22 0 43.5 -2t41 -5t32 -5.5t28.5 -6.5t19 -5v-107q-97 62 -178 62q-45 0 -76.5 -21.5t-31.5 -60.5
q0 -34 24.5 -61t61 -44t79 -39.5t79 -46t61 -65.5t24.5 -96q0 -85 -65 -143t-193 -58q-98 0 -188 31z" />
    <glyph glyph-name="t.superior" unicode="&#xf6f3;" horiz-adv-x="485" 
d="M455 502v-74q-33 -6 -88 -6q-108 0 -157.5 40t-49.5 130v455h-119v63h119v158l116 71v-229h183v-63h-183v-400q0 -32 1 -48t6.5 -40.5t16 -36t32 -21t53.5 -9.5q43 0 70 10z" />
    <glyph glyph-name="h.superior" unicode="&#xf700;" horiz-adv-x="733" 
d="M627 438h-117v451q0 69 -19.5 110t-74.5 41q-58 0 -104 -51t-67.5 -119t-21.5 -133v-299h-117v975h117v-450q29 63 86 113t140 50q76 0 127 -47.5t51 -142.5v-498z" />
    </font>
</defs>
</svg>
