<?xml version="1.0" standalone="no"?>
<!DOCTYPE svg PUBLIC "-//W3C//DTD SVG 1.1//EN" "http://www.w3.org/Graphics/SVG/1.1/DTD/svg11.dtd" >
<svg xmlns="http://www.w3.org/2000/svg" xmlns:xlink="http://www.w3.org/1999/xlink" version="1.1">
<metadata>
Created by FontForge 20170731 at Mon Mar 21 19:30:48 2022
 By Aleksey,,,
Font software Copyright 1998, 2007 Monotype Imaging Inc. All rights reserved.
</metadata>
<defs>
<font id="RotisSemiSansStd-Italic" horiz-adv-x="1024" >
  <font-face 
    font-family="Rotis SemiSans Std"
    font-weight="400"
    font-style="italic"
    font-stretch="normal"
    units-per-em="2048"
    panose-1="2 14 5 3 3 2 2 9 3 4"
    ascent="1638"
    descent="-410"
    x-height="975"
    cap-height="1413"
    bbox="-174 -535 2431 1933"
    underline-thickness="102"
    underline-position="-307"
    slope="-12"
    unicode-range="U+0020-FB04"
  />
<missing-glyph 
d="M997 0h-972v1362h972v-1362zM512 768l330 498h-662zM123 186l330 496l-330 496v-992zM901 184v994l-332 -496zM842 98l-330 496l-332 -496h662z" />
    <glyph glyph-name="f_f" unicode="ff" horiz-adv-x="1302" 
d="M393 0h-151l170 881h-174l18 94h174q34 176 62 249q71 183 226 208q26 4 54 4q54 0 122 -11.5t116 -29.5l-21 -109q-46 30 -80.5 42.5t-81.5 12.5q-39 0 -71 -10t-54 -24.5t-39.5 -40.5t-27.5 -48t-19.5 -58.5t-13.5 -60t-10 -64t-10 -60.5h280l-18 -94h-281zM1014 0
h-152l170 881h-174l19 94h174q34 176 62 249q71 183 226 208q27 4 54 4q54 0 121.5 -11.5t115.5 -29.5l-20 -109q-46 30 -80.5 42.5t-81.5 12.5q-39 0 -71 -10t-54 -24.5t-40 -40.5t-28 -48t-19 -58.5t-13.5 -60t-10.5 -64t-10 -60.5h281l-19 -94h-280z" />
    <glyph glyph-name="fi" unicode="fi" horiz-adv-x="1181" 
d="M1266 1229h-185l35 184h184zM1010 0h-152l191 975h151zM391 0h-151l172 881h-174l18 94h174q2 12 7 38q8 44 12.5 67.5t14.5 65.5t18.5 65.5t24 59t31.5 55.5t40 44t51 36.5t63 21t78 8.5q115 0 240 -41l-23 -109q-44 29 -79 42t-81 13q-29 0 -54 -7t-44.5 -16.5
t-36.5 -28.5t-28.5 -33.5t-23 -43t-17.5 -44.5t-13.5 -49.5t-10.5 -48t-9 -50t-8 -45.5h278l-18 -94h-279z" />
    <glyph glyph-name="fl" unicode="fl" horiz-adv-x="1183" 
d="M1014 0h-152l275 1413h151zM393 0h-151l170 881h-174l18 94h174q33 170 35 181q40 165 126 228q70 52 181 52q103 0 238 -41l-21 -109q-46 30 -80.5 42.5t-81.5 12.5q-52 0 -92.5 -24.5t-64 -58t-42 -86.5t-27 -92t-17.5 -92q-1 -9 -2 -13h278l-18 -94h-279z" />
    <glyph glyph-name="f_f_i" unicode="ffi" horiz-adv-x="1804" 
d="M393 0h-151l170 881h-174l18 94h174q34 176 62 249q71 183 226 208q26 4 54 4q54 0 122 -11.5t116 -29.5l-21 -109q-46 30 -80.5 42.5t-81.5 12.5q-39 0 -71 -10t-54 -24.5t-39.5 -40.5t-27.5 -48t-19.5 -58.5t-13.5 -60t-10 -64t-10 -60.5h280l-18 -94h-281zM1888 1229
h-184l37 184h182zM1632 0h-151l190 975h152zM1014 0h-152l170 881h-174l19 94h174q34 176 62 249q71 183 226 208q27 4 54 4q54 0 121.5 -11.5t115.5 -29.5l-20 -109q-46 30 -80.5 42.5t-81.5 12.5q-39 0 -71 -10t-54 -24.5t-40 -40.5t-28 -48t-19 -58.5t-13.5 -60
t-10.5 -64t-10 -60.5h281l-19 -94h-280z" />
    <glyph glyph-name="f_f_l" unicode="ffl" horiz-adv-x="1804" 
d="M1634 0h-151l274 1413h152zM393 0h-151l170 881h-174l18 94h174q34 176 62 249q71 183 226 208q26 4 54 4q54 0 122 -11.5t116 -29.5l-21 -109q-46 30 -80.5 42.5t-81.5 12.5q-39 0 -71 -10t-54 -24.5t-39.5 -40.5t-27.5 -48t-19.5 -58.5t-13.5 -60t-10 -64t-10 -60.5
h280l-18 -94h-281zM1014 0h-152l170 881h-174l19 94h174q34 176 62 249q71 183 226 208q27 4 54 4q54 0 121.5 -11.5t115.5 -29.5l-20 -109q-46 30 -80.5 42.5t-81.5 12.5q-39 0 -71 -10t-54 -24.5t-40 -40.5t-28 -48t-19 -58.5t-13.5 -60t-10.5 -64t-10 -60.5h281l-19 -94
h-280z" />
    <glyph glyph-name=".notdef" 
d="M997 0h-972v1362h972v-1362zM512 768l330 498h-662zM123 186l330 496l-330 496v-992zM901 184v994l-332 -496zM842 98l-330 496l-332 -496h662z" />
    <glyph glyph-name=".null" horiz-adv-x="0" 
 />
    <glyph glyph-name="nonmarkingreturn" horiz-adv-x="682" 
 />
    <glyph glyph-name="space" unicode=" " horiz-adv-x="530" 
 />
    <glyph glyph-name="exclam" unicode="!" horiz-adv-x="569" 
d="M502 383h-129l170 1030h186zM461 0h-201l39 199h201z" />
    <glyph glyph-name="quotedbl" unicode="&#x22;" horiz-adv-x="720" 
d="M758 973h-117l53 440h185zM457 973h-117l53 440h185z" />
    <glyph glyph-name="numbersign" unicode="#" horiz-adv-x="1175" 
d="M631 0h-131l198 438h-168l-198 -438h-131l198 438h-196l51 113h197l88 192h-199l53 113h197l201 442h131l-201 -442h168l201 442h131l-201 -442h205l-51 -113h-205l-88 -192h204l-49 -113h-207zM750 551l88 192h-170l-86 -192h168z" />
    <glyph glyph-name="dollar" unicode="$" horiz-adv-x="1099" 
d="M557 -195h-96l33 172q-162 10 -242 77t-80 222h182q-2 -92 32.5 -139t125.5 -65l113 581q-54 17 -91 31.5t-79.5 40t-67.5 54.5t-42 73.5t-17 99.5q0 185 123 295t313 121l29 152h96l-29 -152q311 -20 311 -295h-180q2 89 -31.5 140.5t-117.5 62.5l-105 -543
q59 -19 99.5 -35.5t86 -44.5t73 -60.5t45.5 -81t18 -108.5q0 -127 -65.5 -225.5t-171.5 -149.5t-232 -51zM647 766l98 508q-115 -22 -179 -100.5t-64 -196.5q0 -81 34 -126t111 -85zM715 618l-107 -546q126 17 201.5 104t75.5 215q0 75 -48 134.5t-122 92.5z" />
    <glyph glyph-name="percent" unicode="%" horiz-adv-x="1669" 
d="M1329 -23q-254 0 -254 314q0 62 8 126t25.5 133.5t48 129.5t71 108.5t100 76.5t130.5 28q68 0 117.5 -23t78.5 -65t42.5 -95t13.5 -118q0 -77 -10.5 -155t-38 -163t-69 -149t-109.5 -106t-154 -42zM680 0h-115l678 1298h115zM461 408q-138 0 -196 83t-58 228q0 62 8 126
t25.5 133.5t48 129.5t71 108.5t100 76.5t130.5 28q131 0 191.5 -81.5t60.5 -217.5q0 -77 -10.5 -155t-38 -162.5t-69 -149t-109.5 -106t-154 -41.5zM1339 53q53 0 97 43.5t70.5 108t44.5 142t25 141t7 110.5q0 219 -137 219q-55 0 -99.5 -43.5t-70.5 -107.5t-43.5 -142
t-24 -141t-6.5 -111q0 -44 4 -76t17 -68t42.5 -55.5t73.5 -19.5zM471 483q53 0 97 43.5t70.5 108t44.5 142t25 141t7 110.5q0 217 -137 217q-55 0 -99.5 -43.5t-70.5 -107.5t-43.5 -142t-24 -141t-6.5 -111q0 -43 4.5 -75.5t17.5 -67.5t42 -54.5t73 -19.5z" />
    <glyph glyph-name="ampersand" unicode="&#x26;" horiz-adv-x="1327" 
d="M1319 90l-19 -96q-91 -17 -129 -17q-219 0 -219 177q0 22 4 46.5t13 64t10 46.5l70 367h-326q-187 0 -279 -102t-92 -291q0 -104 64.5 -158.5t169.5 -54.5q90 0 182 37l-20 -107q-118 -25 -197 -25q-61 0 -113.5 8.5t-101 30t-83 53.5t-55 83t-20.5 116q0 169 82.5 290.5
t239.5 166.5v4q-187 55 -187 223q0 126 69.5 222.5t177 144t231.5 47.5q89 0 210 -31l-20 -108q-102 45 -197 45q-125 0 -211 -89.5t-86 -215.5q0 -50 16 -86.5t40.5 -57t62.5 -32.5t73.5 -15.5t82.5 -3.5h305l70 356l170 99l-88 -455h237l-18 -94h-238l-63 -332
q-3 -14 -11 -49.5t-12 -61.5t-4 -51q0 -112 125 -112q43 0 84 18z" />
    <glyph glyph-name="quotesingle" unicode="'" horiz-adv-x="417" 
d="M457 973h-117l53 440h185z" />
    <glyph glyph-name="parenleft" unicode="(" horiz-adv-x="569" 
d="M477 -199l-18 -90q-260 69 -260 408q0 85 24 241q75 524 201 871q53 144 153.5 237t241.5 103l-16 -90q-51 -10 -93 -43t-71.5 -84t-47.5 -94t-36 -101q-94 -300 -166 -770q-33 -214 -33 -317q0 -209 121 -271z" />
    <glyph glyph-name="parenright" unicode=")" horiz-adv-x="569" 
d="M0 -289l18 88q51 11 93 44t71.5 83.5t47.5 94t36 100.5q89 289 160 743q37 232 37 346q0 210 -119 269l16 92q261 -69 261 -410q0 -28 -2.5 -62t-6 -58t-9 -64t-7.5 -59q-76 -537 -199 -869q-54 -143 -155 -236t-242 -102z" />
    <glyph glyph-name="asterisk" unicode="*" horiz-adv-x="645" 
d="M696 864l-102 -35q-52 127 -66 209q-46 -69 -139 -170l-80 70q70 85 148 166q-83 7 -219 37l20 98q121 -20 215 -47q-39 78 -82 209l103 35q45 -116 69 -213q40 60 142 174l79 -70q-90 -110 -149 -166q51 -7 215 -39l-21 -96q-116 19 -213 47q33 -77 80 -209z" />
    <glyph glyph-name="plus" unicode="+" horiz-adv-x="1177" 
d="M756 0h-140v436h-399v125h399v414h140v-414h407v-125h-407v-436z" />
    <glyph glyph-name="comma" unicode="," horiz-adv-x="417" 
d="M197 -252h-134l111 455h186z" />
    <glyph glyph-name="hyphen" unicode="-" horiz-adv-x="833" 
d="M815 436h-625l29 144h623z" />
    <glyph glyph-name="period" unicode="." horiz-adv-x="417" 
d="M311 0h-205l39 203h205z" />
    <glyph glyph-name="slash" unicode="/" horiz-adv-x="606" 
d="M127 -279h-145l745 1838h147z" />
    <glyph glyph-name="zero" unicode="0" 
d="M543 -23q-85 0 -149.5 23t-106 63t-68 99t-37 125t-10.5 147q0 91 12 185.5t37.5 196.5t70.5 191t104.5 160t147 112.5t191.5 41.5q98 0 170.5 -33t114.5 -93.5t62 -137t20 -172.5q0 -78 -7.5 -159t-26.5 -171t-47.5 -172t-73.5 -157t-101.5 -129.5t-134 -87
t-168.5 -32.5zM559 82q69 0 127 45t96.5 119t68 162t46 181.5t24 169.5t7.5 134q0 324 -213 324q-70 0 -129 -44.5t-98 -118t-68 -161t-44.5 -181.5t-22.5 -170t-7 -136q0 -51 4 -92t17 -86.5t35.5 -75.5t62.5 -50t94 -20z" />
    <glyph glyph-name="one" unicode="1" 
d="M662 0h-168l223 1147l-268 -160l28 141l299 170h139z" />
    <glyph glyph-name="two" unicode="2" 
d="M891 0h-776l24 121q72 54 160.5 128.5t196.5 179.5t194.5 205.5t145.5 205t59 180.5q0 86 -46.5 141.5t-131.5 55.5q-94 0 -151.5 -57.5t-69.5 -151.5h-187q15 102 80.5 174.5t155 105.5t192.5 33q153 0 242.5 -74.5t89.5 -222.5q0 -54 -18 -113t-46 -112.5t-74.5 -114.5
t-89 -109.5t-104.5 -107.5t-107 -99t-111 -93t-101 -80t-92 -70v-4h589z" />
    <glyph glyph-name="three" unicode="3" 
d="M760 682v-4q94 -20 142 -89.5t48 -168.5q0 -213 -126 -328t-341 -115q-348 0 -348 293h193q-3 -188 172 -188q85 0 149 45t95.5 115.5t31.5 154.5q0 123 -54.5 175.5t-176.5 52.5l20 108h74q108 0 173 86t65 197q0 93 -47.5 147t-139.5 54q-85 0 -136 -48.5t-62 -132.5
h-185q16 94 81.5 160.5t150.5 95.5t180 29q96 0 169 -28.5t118 -94t45 -162.5q0 -142 -76 -237.5t-215 -116.5z" />
    <glyph glyph-name="four" unicode="4" 
d="M786 0h-168l72 369h-536l22 120l668 809h194l-157 -809h211l-23 -120h-211zM713 489l118 601l-4 4l-493 -605h379z" />
    <glyph glyph-name="five" unicode="5" 
d="M184 270h193q-3 -188 172 -188q75 0 134 32.5t94.5 86.5t54 119t18.5 135q0 98 -50 162.5t-145 64.5q-130 0 -202 -111h-154l176 727h637l-22 -120h-496l-111 -455l4 -4q38 34 98.5 50.5t121.5 16.5q153 0 235 -89t82 -244q0 -137 -64 -246t-175 -169.5t-248 -60.5
q-353 0 -353 293z" />
    <glyph glyph-name="six" unicode="6" 
d="M1135 1030h-187q2 85 -37.5 136t-124.5 51q-67 0 -125.5 -42t-96.5 -105t-67.5 -143.5t-44.5 -150t-22 -131.5l4 -4q58 72 129 104.5t166 32.5q138 0 224.5 -79.5t86.5 -215.5q0 -147 -50 -259.5t-155 -179.5t-253 -67q-177 0 -267 102.5t-90 282.5q0 77 8.5 161.5
t28.5 179t49.5 181.5t75.5 167.5t103 139.5t135.5 94.5t169.5 35.5q155 0 247.5 -71t92.5 -220zM590 82q60 0 108 22.5t79 59t51.5 86.5t29 101t8.5 106q0 95 -56.5 159t-150.5 64q-66 0 -118.5 -35t-82 -90.5t-44.5 -117.5t-15 -124q0 -86 53.5 -158.5t137.5 -72.5z" />
    <glyph glyph-name="seven" unicode="7" 
d="M420 0h-187l709 1178h-580l23 120h764l-21 -120z" />
    <glyph glyph-name="eight" unicode="8" 
d="M795 674v-4q89 -26 138.5 -99t49.5 -168q0 -192 -128.5 -309t-322.5 -117q-73 0 -137 19t-115 55.5t-80.5 96t-29.5 135.5q0 155 78.5 260t226.5 129v4q-78 30 -119 95t-41 151q0 120 59.5 212.5t157 139.5t216.5 47q147 0 240 -72t93 -215q0 -140 -75 -233t-211 -127z
M676 723q60 0 106.5 27.5t72.5 73.5t39 99t13 109q0 83 -48 134t-130 51q-78 0 -134 -45.5t-81 -111.5t-25 -142q0 -90 49.5 -142.5t137.5 -52.5zM549 82q86 0 146.5 48.5t87 120t26.5 155.5q0 96 -53 154t-148 58q-80 0 -141.5 -45.5t-92 -115t-30.5 -148.5
q0 -101 53.5 -164t151.5 -63z" />
    <glyph glyph-name="nine" unicode="9" 
d="M877 655l-5 4q-56 -74 -126.5 -106.5t-167.5 -32.5q-139 0 -227.5 79.5t-88.5 215.5q0 148 51 260.5t157 179t255 66.5q171 0 263.5 -94t92.5 -266q0 -80 -7.5 -165t-26 -183t-47 -186.5t-73.5 -172t-102 -144t-137 -97t-174 -36.5q-155 0 -248.5 71t-93.5 220h188
q-2 -85 37.5 -135.5t124.5 -50.5q66 0 124.5 42t97 105.5t68.5 143.5t45 150.5t20 131.5zM649 618q66 0 118 35.5t81.5 92t44 118.5t14.5 123q0 85 -53.5 157.5t-136.5 72.5q-76 0 -132.5 -33t-87.5 -88.5t-46 -119t-15 -134.5q0 -97 58.5 -160.5t154.5 -63.5z" />
    <glyph glyph-name="colon" unicode=":" horiz-adv-x="530" 
d="M575 772h-204l39 203h204zM426 0h-205l39 203h205z" />
    <glyph glyph-name="semicolon" unicode=";" horiz-adv-x="530" 
d="M578 772h-205l39 203h204zM295 -252h-133l110 455h187z" />
    <glyph glyph-name="less" unicode="&#x3c;" horiz-adv-x="1177" 
d="M1165 0l-948 418v129l948 414v-130l-807 -352l807 -350v-129z" />
    <glyph glyph-name="equal" unicode="=" horiz-adv-x="1177" 
d="M1163 588h-946v125h946v-125zM1163 285h-946v125h946v-125z" />
    <glyph glyph-name="greater" unicode="&#x3e;" horiz-adv-x="1177" 
d="M1165 418l-948 -418v129l807 350l-807 352v130l948 -414v-129z" />
    <glyph glyph-name="question" unicode="?" horiz-adv-x="833" 
d="M457 383h-131l30 154q9 48 31.5 89t44 64.5t66.5 67.5l123 114q37 35 54 51t50.5 53t49.5 63.5t30 64t14 72.5q0 69 -51 106t-123 37q-140 0 -297 -96l33 170q151 43 270 43q66 0 123.5 -12.5t109 -40t81.5 -78.5t30 -121q0 -51 -18.5 -102t-43 -89.5t-69 -86t-75 -75
t-84 -73t-74.5 -64.5q-34 -31 -55 -51.5t-39 -45.5t-27 -39.5t-19.5 -47t-16 -54t-17.5 -73.5zM418 0h-199l39 199h199z" />
    <glyph glyph-name="at" unicode="@" horiz-adv-x="1658" 
d="M1257 57q-91 0 -139.5 35.5t-60.5 87.5q-101 -129 -234 -129q-66 0 -116 27.5t-78.5 73.5t-42 101t-13.5 116q0 72 12.5 146.5t42.5 151t73 135.5t109.5 96.5t147.5 37.5q77 0 125 -29.5t80 -91.5v6l19 97h121l-113 -574q-12 -47 -12 -78q0 -88 90 -88q30 0 65.5 17
t72 53t66.5 85t49 120t19 151q0 104 -40 197t-111.5 162t-177 109t-230.5 40q-126 0 -241.5 -48.5t-201.5 -133.5t-137 -207t-51 -262q0 -186 77 -322.5t209.5 -205t303.5 -68.5q96 0 182.5 14t141.5 34t96 40.5t58 34.5l18 14l53 -96q-7 -7 -20.5 -17.5t-63.5 -38.5
t-108.5 -49.5t-157.5 -39t-209 -17.5q-150 0 -279 48t-225.5 137.5t-151.5 227.5t-55 308q0 136 42 258t115 214t169 159.5t208 102t228 34.5q192 0 347 -80t244 -224.5t89 -324.5q0 -106 -26.5 -197.5t-69.5 -154t-96.5 -108t-108 -66.5t-103.5 -21zM844 164q67 0 120 42.5
t83 108.5t45.5 135t15.5 132q0 41 -6.5 79.5t-22 77t-46 61.5t-72.5 23q-54 0 -99 -34t-73.5 -85.5t-49 -114.5t-29 -119.5t-8.5 -102.5q0 -50 12.5 -93.5t46 -76.5t83.5 -33z" />
    <glyph glyph-name="A" unicode="A" horiz-adv-x="1175" 
d="M1157 0h-176l-66 451h-509l-234 -451h-154l750 1413h188zM901 557l-78 696h-4l-358 -696h440z" />
    <glyph glyph-name="B" unicode="B" horiz-adv-x="1099" 
d="M455 0h-287l274 1413h244q59 0 98.5 -1.5t92 -8t87 -19t72 -35t59.5 -54.5t36 -80t14 -109q0 -146 -80.5 -249t-222.5 -109v-5q114 -27 177.5 -102t63.5 -192q0 -93 -24 -166t-70 -121t-102.5 -81t-131 -50t-145 -24t-155.5 -7zM492 795h110q79 0 144.5 15t121.5 47.5
t87.5 92t31.5 142.5q0 60 -17.5 101.5t-42.5 63.5t-70.5 33.5t-82 14t-96.5 2.5h-88zM358 106h119q432 0 432 338q0 65 -20 111t-50.5 71.5t-79.5 39.5t-93.5 18t-106.5 4h-88z" />
    <glyph glyph-name="C" unicode="C" horiz-adv-x="1099" 
d="M1075 231l-31 -165q-168 -89 -337 -89q-474 0 -474 531q0 109 14.5 214.5t45.5 211.5t84 195t124 158.5t172.5 109t223.5 39.5q160 0 271.5 -87.5t111.5 -242.5q0 -14 -3.5 -41t-4.5 -35h-197q10 45 10 82q0 101 -60.5 160t-162.5 59q-74 0 -138 -30t-109.5 -80t-82 -118
t-59.5 -140.5t-38 -151.5t-21 -147.5t-6 -131.5q0 -426 337 -426q59 0 123 21t99.5 40.5t107.5 63.5z" />
    <glyph glyph-name="D" unicode="D" horiz-adv-x="1214" 
d="M557 0h-383l275 1413h208q105 0 182 -7.5t150 -27.5t121 -56.5t85 -93t54 -139t17 -192.5q0 -136 -25 -263t-80 -243.5t-136 -202.5t-201.5 -137t-266.5 -51zM362 106h193q90 0 166 28t130.5 74.5t97 113t69 138.5t43.5 155.5t24 159.5t7 155q0 59 -7.5 107t-19.5 85
t-34 65t-44.5 47.5t-58.5 33t-67.5 21.5t-79.5 12t-87.5 5t-97.5 1z" />
    <glyph glyph-name="E" unicode="E" horiz-adv-x="948" 
d="M877 0h-705l274 1413h687l-23 -117h-516l-105 -530h490l-23 -117h-489l-102 -532h534z" />
    <glyph glyph-name="F" unicode="F" horiz-adv-x="872" 
d="M342 0h-170l274 1413h687l-23 -117h-516l-96 -499h487l-22 -117h-488z" />
    <glyph glyph-name="G" unicode="G" horiz-adv-x="1251" 
d="M973 172l100 510h-330l23 117h496l-134 -693q-83 -62 -200 -95.5t-228 -33.5q-247 0 -359 134t-112 387q0 112 15.5 219.5t47.5 214.5t86.5 196.5t127.5 159.5t177 109t228 39q78 0 150.5 -20t132.5 -59t96.5 -104t36.5 -147q0 -14 -3.5 -41t-4.5 -35h-197q8 54 8 82
q0 107 -71 163t-182 56q-81 0 -151.5 -41.5t-121 -110.5t-90 -154.5t-63.5 -177.5t-36 -175t-12 -152q0 -438 336 -438q113 0 234 90z" />
    <glyph glyph-name="H" unicode="H" horiz-adv-x="1251" 
d="M1079 0h-170l131 674h-565l-131 -674h-170l275 1413h169l-120 -622h565l121 622h170z" />
    <glyph glyph-name="I" unicode="I" horiz-adv-x="530" 
d="M350 0h-170l275 1413h170z" />
    <glyph glyph-name="J" unicode="J" horiz-adv-x="720" 
d="M477 430l193 983h170l-191 -983q-12 -63 -23.5 -109.5t-30 -96.5t-40.5 -84.5t-54.5 -67.5t-72.5 -52.5t-94.5 -31t-120.5 -11.5q-86 0 -213 29l33 170q92 -82 186 -82q55 0 97 19.5t67 48t43.5 74.5t27.5 84.5t20 92.5q2 11 3 17z" />
    <glyph glyph-name="K" unicode="K" horiz-adv-x="1099" 
d="M1092 0h-201l-414 690l-133 -690h-170l275 1413h169l-122 -629l4 -4l641 633h172l-672 -657z" />
    <glyph glyph-name="L" unicode="L" horiz-adv-x="833" 
d="M840 0h-666l275 1413h169l-251 -1296h497z" />
    <glyph glyph-name="M" unicode="M" horiz-adv-x="1630" 
d="M1458 0h-158l246 1266l-4 4l-661 -1270h-150l-174 1262h-4l-242 -1262h-135l275 1413h239l166 -1212h4l635 1212h238z" />
    <glyph glyph-name="N" unicode="N" horiz-adv-x="1290" 
d="M1116 0h-198l-359 1212h-4l-231 -1212h-146l273 1413h200l357 -1204h4l233 1204h148z" />
    <glyph glyph-name="O" unicode="O" horiz-adv-x="1251" 
d="M662 -23q-222 0 -332.5 133t-110.5 361q0 87 11 178t35.5 186t60.5 181.5t90 164t120 133.5t153.5 89t187.5 33q220 0 327 -133t107 -359q0 -101 -15 -207t-46 -216t-84 -206.5t-122.5 -173t-168 -120.5t-213.5 -44zM674 82q103 0 186 65.5t133 164t84 221.5t47 229
t13 196q0 72 -14.5 135t-45.5 118t-87 87.5t-132 32.5q-74 0 -138 -34t-110 -90t-84 -131t-62 -155t-40.5 -164t-23.5 -156t-7 -134q0 -385 281 -385z" />
    <glyph glyph-name="P" unicode="P" 
d="M342 0h-170l274 1413h279q78 0 140 -7t125 -28.5t105 -57.5t68.5 -97t26.5 -144q0 -71 -15 -129.5t-37.5 -101.5t-64 -76t-76.5 -54.5t-95 -36.5t-101 -22t-111.5 -11t-109 -4.5t-111.5 -0.5h-4zM485 750h76q60 0 105 2.5t95 10.5t85.5 22.5t69.5 39.5t54.5 60t33 85.5
t12.5 114.5q0 44 -11.5 78.5t-29 57.5t-46 39.5t-56 25.5t-66.5 14t-68.5 6t-70.5 1h-74z" />
    <glyph glyph-name="Q" unicode="Q" horiz-adv-x="1251" 
d="M1233 0h-551q-455 0 -455 487q0 124 19 248.5t66 253t117 226t181.5 159.5t249.5 62q118 0 206 -38t139.5 -108t76.5 -161.5t25 -206.5q0 -89 -10 -180t-36 -192t-64.5 -186.5t-102 -158.5t-142.5 -113l4 -4q95 3 166.5 18.5t141.5 53.5zM678 104q74 0 137.5 31.5t109 84
t82.5 124t60 147t38.5 156.5t21.5 150t6 131q0 65 -5.5 117t-22.5 107.5t-46 93t-80.5 61.5t-120.5 24q-75 0 -139 -33.5t-110 -89t-82.5 -130t-59.5 -154t-38.5 -164.5t-21.5 -156.5t-6 -134.5q0 -57 8 -107.5t28 -98.5t51 -82.5t79.5 -55.5t110.5 -21z" />
    <glyph glyph-name="R" unicode="R" horiz-adv-x="1099" 
d="M1010 0h-170v289q0 83 -5.5 137t-23.5 95t-41.5 63t-70.5 35t-98.5 16.5t-137.5 3.5l-123 -639h-170l274 1413h271q78 0 138 -6t125 -26t107.5 -53.5t70.5 -93.5t28 -142q0 -167 -110 -271t-279 -116v-5q58 -9 98.5 -32t63 -52t35 -74.5t15.5 -85.5t3 -100v-356zM483 745
h86q65 0 126 11t119 36t101 62.5t69 94.5t26 128q0 45 -10 81t-25.5 60t-41.5 41t-51.5 26t-63 14t-67.5 6.5t-73 1.5h-88z" />
    <glyph glyph-name="S" unicode="S" horiz-adv-x="985" 
d="M102 35l33 178q166 -119 350 -119q84 0 159.5 32.5t126 98.5t50.5 152q0 58 -29.5 107t-76.5 85t-103.5 70.5t-113 71.5t-103.5 79.5t-76.5 104.5t-29.5 137q0 100 38 178.5t104 127t149.5 73.5t179.5 25q167 0 340 -39l-31 -164q-165 86 -321 86q-78 0 -140.5 -24
t-103.5 -79t-41 -135q0 -56 29.5 -101.5t76.5 -79t103.5 -66t113 -70.5t103.5 -83.5t76.5 -114t29.5 -152.5q0 -111 -47.5 -197.5t-127.5 -137.5t-176 -76.5t-202 -25.5q-197 0 -340 58z" />
    <glyph glyph-name="T" unicode="T" horiz-adv-x="833" 
d="M502 0h-170l252 1296h-332l22 117h834l-23 -117h-331z" />
    <glyph glyph-name="U" unicode="U" horiz-adv-x="1251" 
d="M1024 528l172 885h170l-172 -885q-17 -89 -35.5 -155t-47.5 -132t-68.5 -111.5t-94 -81.5t-129 -53.5t-168.5 -17.5q-84 0 -156 18.5t-130.5 57t-92.5 104.5t-34 154q0 83 26 217l172 885h170l-172 -885q-20 -105 -20 -194q0 -252 254 -252q56 0 102 14t78 33.5t59 58
t42 67.5t31 84t23 86t19 93q1 7 2 10z" />
    <glyph glyph-name="V" unicode="V" horiz-adv-x="1062" 
d="M629 0h-195l-196 1413h180l164 -1233h4l631 1233h155z" />
    <glyph glyph-name="W" unicode="W" horiz-adv-x="1669" 
d="M1352 0h-187l-102 1184h-4l-553 -1184h-189l9 1413h166l-23 -1206l4 -4l571 1210h146l108 -1202h5l440 1202h141z" />
    <glyph glyph-name="X" unicode="X" horiz-adv-x="1062" 
d="M1053 0h-189l-231 590l-467 -590h-166l580 729l-269 684h189l205 -532l417 532h166l-526 -670z" />
    <glyph glyph-name="Y" unicode="Y" 
d="M590 0h-170l127 653l-283 760h187l225 -604l473 604h162l-596 -760z" />
    <glyph glyph-name="Z" unicode="Z" horiz-adv-x="985" 
d="M981 0h-932l23 117l889 1179h-625l22 117h836l-33 -117l-889 -1179h734z" />
    <glyph glyph-name="bracketleft" unicode="[" horiz-adv-x="606" 
d="M516 -279h-371l359 1838h368l-24 -117h-215l-311 -1604h217z" />
    <glyph glyph-name="backslash" unicode="\" horiz-adv-x="606" 
d="M649 -279h-145l-338 1838h147z" />
    <glyph glyph-name="bracketright" unicode="]" horiz-adv-x="606" 
d="M354 -279h-370l20 117h219l312 1604h-218l23 117h371z" />
    <glyph glyph-name="asciicircum" unicode="^" horiz-adv-x="1177" 
d="M1016 682h-127l-219 502l-219 -502h-127l282 639h127z" />
    <glyph glyph-name="underscore" unicode="_" 
d="M1024 -236h-1024v103h1024v-103z" />
    <glyph glyph-name="grave" unicode="`" horiz-adv-x="614" 
d="M580 1145h-127l-84 274h178z" />
    <glyph glyph-name="a" unicode="a" 
d="M864 0h-151l32 164l-4 4q-44 -89 -120.5 -140t-174.5 -51q-75 0 -129 29t-84 79.5t-43.5 110t-13.5 130.5q0 69 10 141.5t30 149.5t55.5 144t81.5 120.5t113 84.5t146 31q186 0 256 -180h4l27 158h152zM498 72q68 0 123.5 41t90 102.5t57.5 139.5t32.5 147t9.5 129
q0 46 -9.5 91t-29 87t-57 68t-86.5 26q-76 0 -135 -64.5t-89.5 -160t-45.5 -184t-15 -158.5q0 -46 5.5 -85.5t20.5 -83.5t47.5 -69.5t80.5 -25.5z" />
    <glyph glyph-name="b" unicode="b" 
d="M248 555l164 858h151l-114 -596l4 -4q99 184 286 184q98 0 168 -52.5t101.5 -132t31.5 -175.5q0 -95 -17.5 -186t-56 -177.5t-95 -152t-141.5 -105t-187 -39.5q-158 0 -245 77t-87 231q0 26 2 52.5t6.5 57.5t8 51t10.5 57.5t10 51.5zM543 72q72 0 130.5 39t94.5 99
t60.5 136.5t34 146.5t9.5 134q0 49 -7.5 92.5t-25 87.5t-54.5 70t-89 26q-69 0 -126.5 -46.5t-93.5 -116.5t-61 -155.5t-35.5 -160t-10.5 -133.5q0 -91 43.5 -155t130.5 -64z" />
    <glyph glyph-name="c" unicode="c" horiz-adv-x="872" 
d="M829 106l-18 -98q-136 -31 -213 -31q-202 0 -307 102.5t-105 303.5q0 91 17 177.5t55 166t92.5 139.5t136 95.5t179.5 35.5q79 0 144.5 -23.5t110 -79t44.5 -136.5q0 -19 -9 -84h-178q10 63 10 78q0 151 -143 151q-62 0 -112.5 -32.5t-83 -83t-54.5 -114t-31.5 -123.5
t-9.5 -114q0 -77 16.5 -140.5t51 -115t94 -80t139.5 -28.5q70 0 174 34z" />
    <glyph glyph-name="d" unicode="d" 
d="M864 0h-151l32 164l-4 4q-44 -89 -120.5 -140t-174.5 -51q-75 0 -129.5 28.5t-84.5 79t-44 110.5t-14 131q0 84 13.5 171.5t46 178.5t81 161t125.5 115t172 45q188 0 258 -180h4l113 596h152zM498 72q68 0 123.5 41t90 102.5t57.5 139.5t32.5 147t9.5 129q0 47 -9 91.5
t-28 87t-56.5 68t-88.5 25.5q-63 0 -114.5 -43.5t-82.5 -108t-52.5 -144t-29.5 -147t-8 -122.5q0 -266 156 -266z" />
    <glyph glyph-name="e" unicode="e" horiz-adv-x="909" 
d="M825 106l-14 -90q-125 -39 -229 -39q-396 0 -396 420q0 73 11.5 143.5t34 138.5t60.5 125t87 100.5t117.5 68t148.5 24.5q141 0 224 -74.5t83 -213.5q0 -51 -10 -109h-573q-15 -88 -15 -145q0 -74 18 -140.5t53.5 -122t95.5 -88t138 -32.5q76 0 166 34zM389 694h412
q0 8 2 24.5t2 24.5q0 70 -51.5 115t-122.5 45q-182 0 -242 -209z" />
    <glyph glyph-name="f" unicode="f" horiz-adv-x="681" 
d="M393 0h-151l170 881h-174l18 94h174q34 176 62 249q71 183 226 208q26 4 54 4q54 0 122 -11.5t116 -29.5l-21 -109q-46 30 -80.5 42.5t-81.5 12.5q-39 0 -71 -10t-54 -24.5t-39.5 -40.5t-27.5 -48t-19.5 -58.5t-13.5 -60t-10 -64t-10 -60.5h280l-18 -94h-281z" />
    <glyph glyph-name="g" unicode="g" 
d="M745 174l-4 4q-51 -96 -120.5 -137t-180.5 -41q-64 0 -115.5 29.5t-82.5 77.5t-47.5 106t-16.5 119q0 67 6.5 130.5t22 131t39 125.5t60.5 110t83.5 88.5t110.5 58t139 21.5q169 0 225 -186h4l31 164h152l-183 -946q-18 -92 -40 -159.5t-59 -128t-87.5 -98.5t-125 -59.5
t-171.5 -21.5q-157 0 -295 43l33 168q68 -58 129.5 -82.5t148.5 -24.5q40 0 75.5 9.5t62.5 23t50.5 39t40 47.5t32 58.5t24.5 62.5t19 68.5t15 67.5t13 69t12 63zM498 94q74 0 137 52.5t100.5 130.5t58.5 160.5t21 150.5q0 50 -5.5 95.5t-21 100t-50.5 87t-87 32.5
q-68 0 -123.5 -39.5t-88 -99t-54.5 -135.5t-30.5 -142.5t-8.5 -126.5q0 -44 6 -84t20.5 -84.5t47 -71t78.5 -26.5z" />
    <glyph glyph-name="h" unicode="h" horiz-adv-x="1062" 
d="M895 0h-152l117 600q19 107 19 139q0 59 -30 96t-87 37q-73 0 -137.5 -43.5t-108 -113t-72 -141.5t-41.5 -142l-84 -432h-151l274 1413h152l-131 -670l4 -4q54 109 148 183.5t204 74.5q95 0 156 -56t61 -150q0 -68 -10 -117z" />
    <glyph glyph-name="i" unicode="i" horiz-adv-x="493" 
d="M578 1229h-185l37 184h182zM322 0h-152l190 975h152z" />
    <glyph glyph-name="j" unicode="j" horiz-adv-x="493" 
d="M588 1229h-185l35 184h185zM-174 -436l24 121q49 -19 99 -19q48 0 86 23t59.5 51t40.5 81.5t25.5 82.5t17.5 86q1 7 2 10l189 975h151l-188 -975q-11 -58 -20.5 -97t-26 -89t-35 -83t-47 -68t-63.5 -55t-83.5 -33t-107.5 -13q-82 0 -123 2z" />
    <glyph glyph-name="k" unicode="k" horiz-adv-x="909" 
d="M897 0h-186l-297 506l-99 -506h-151l274 1413h152l-168 -858l4 -4l448 424h166l-462 -432z" />
    <glyph glyph-name="l" unicode="l" horiz-adv-x="493" 
d="M324 0h-152l274 1413h152z" />
    <glyph glyph-name="m" unicode="m" horiz-adv-x="1554" 
d="M1389 0h-152l119 618q18 101 18 140q0 51 -30.5 82.5t-81.5 31.5q-56 0 -106 -31.5t-85 -78.5t-63.5 -109t-45 -116t-26.5 -107l-84 -430h-152l119 608q2 11 8.5 43.5t9.5 55t3 43.5q0 50 -30 86t-79 36q-56 0 -107 -31t-86.5 -78t-65 -108.5t-46.5 -116.5t-27 -108
l-84 -430h-151l190 975h152l-43 -211l4 -4q55 105 143 171t197 66q78 0 134 -58t56 -136v-37h4q48 98 140.5 164.5t195.5 66.5q84 0 139.5 -54.5t55.5 -137.5q0 -65 -12 -129z" />
    <glyph glyph-name="n" unicode="n" horiz-adv-x="1062" 
d="M895 0h-152l117 600q19 107 19 139q0 59 -30 96t-87 37q-73 0 -138 -43.5t-108.5 -112.5t-72.5 -141t-42 -143l-82 -432h-151l188 975h152l-45 -232l4 -4q54 109 148 183.5t204 74.5q95 0 156 -56t61 -150q0 -68 -10 -117z" />
    <glyph glyph-name="o" unicode="o" 
d="M528 -23q-175 0 -262.5 101t-87.5 278q0 97 18 188t58 174t98 144.5t144 98t190 36.5q174 0 263 -97.5t89 -272.5q0 -82 -12.5 -159.5t-38 -151t-67.5 -134.5t-97 -107t-130.5 -72t-164.5 -26zM549 72q71 0 129 43t92.5 107.5t58 146.5t32.5 153t9 133q0 109 -49 178.5
t-153 69.5q-71 0 -128.5 -40t-92.5 -100.5t-58.5 -137.5t-33 -146t-9.5 -131q0 -276 203 -276z" />
    <glyph glyph-name="p" unicode="p" 
d="M229 -438h-151l274 1413h152l-33 -164l4 -4q44 89 119.5 139.5t173.5 50.5q75 0 129.5 -28.5t84.5 -78.5t44 -110t14 -131q0 -84 -13.5 -171.5t-46 -178.5t-81 -161.5t-125.5 -115.5t-172 -45q-185 0 -256 181h-4zM586 72q63 0 114.5 43.5t82 108.5t52 145t29.5 147.5
t8 122.5q0 264 -155 264q-68 0 -123.5 -41t-90 -102.5t-58 -139.5t-33 -147t-9.5 -129q0 -47 9 -91.5t28.5 -87t57 -68t88.5 -25.5z" />
    <glyph glyph-name="q" unicode="q" 
d="M778 -438h-151l118 602l-4 4q-44 -89 -120.5 -140t-174.5 -51q-75 0 -129 29t-83 79.5t-42.5 110t-13.5 130.5q0 84 13 171t45.5 178t80.5 161.5t124.5 115.5t170.5 45q92 0 158.5 -47t97.5 -133h4l29 158h152zM498 72q68 0 123.5 41t90 102.5t57.5 139.5t32.5 147
t9.5 129q0 47 -9 91.5t-28 87t-56.5 68t-88.5 25.5q-62 0 -112.5 -43.5t-81 -108.5t-52 -144.5t-29.5 -147t-8 -121.5q0 -266 152 -266z" />
    <glyph glyph-name="r" unicode="r" horiz-adv-x="681" 
d="M330 0h-152l184 975h152l-41 -207l4 -4q70 126 145.5 179t211.5 54l-35 -180h-37q-73 0 -128 -18t-90 -46.5t-60.5 -78t-39.5 -97.5t-28 -120z" />
    <glyph glyph-name="s" unicode="s" horiz-adv-x="833" 
d="M123 31l31 147q120 -96 256 -96q58 0 107.5 15t86.5 55t37 100q0 40 -21 73.5t-54.5 58.5t-74.5 49t-81.5 50t-74 56t-54.5 72.5t-21 93.5q0 75 30.5 132.5t83 91.5t116.5 51t135 17q119 0 237 -47l-33 -145q-70 46 -121 67t-118 21q-76 0 -127 -38t-51 -112
q0 -31 21 -57.5t54.5 -48.5t74.5 -44.5t81.5 -49.5t74 -59t54.5 -78.5t21 -102.5q0 -88 -32.5 -153t-90.5 -102t-128 -54t-155 -17q-118 0 -264 54z" />
    <glyph glyph-name="t" unicode="t" horiz-adv-x="720" 
d="M680 88l-23 -102q-92 -9 -120 -9q-117 0 -183.5 43.5t-66.5 153.5q0 53 14 121l121 586h-170l18 94h170l47 229l172 92l-67 -321h264l-20 -94h-263l-94 -453q-35 -179 -35 -250q0 -55 41 -80.5t101 -25.5q44 0 94 16z" />
    <glyph glyph-name="u" unicode="u" horiz-adv-x="1062" 
d="M893 0h-152l41 213l-4 4q-48 -101 -135.5 -170.5t-189.5 -69.5q-101 0 -171.5 54.5t-70.5 152.5q0 58 12 117l131 674h152l-117 -600q-18 -101 -18 -139q0 -64 37.5 -99t101.5 -35q71 0 131.5 44.5t100.5 116t65 141t39 139.5l84 432h151z" />
    <glyph glyph-name="v" unicode="v" horiz-adv-x="909" 
d="M545 0h-142l-198 975h162l155 -770l426 770h135z" />
    <glyph glyph-name="w" unicode="w" horiz-adv-x="1402" 
d="M1083 0h-147l-86 748h-4l-354 -748h-148l-68 975h142l53 -770h4l365 770h112l88 -764h4l330 764h133z" />
    <glyph glyph-name="x" unicode="x" horiz-adv-x="909" 
d="M881 0h-170l-183 391l-346 -391h-164l453 510l-221 465h168l162 -342l303 342h164l-412 -465z" />
    <glyph glyph-name="y" unicode="y" horiz-adv-x="909" 
d="M328 -391h-138l216 385l-199 981h164l153 -766l428 766h138z" />
    <glyph glyph-name="z" unicode="z" horiz-adv-x="833" 
d="M809 0h-746l21 104l647 766h-463l21 105h657l-37 -105l-647 -766h569z" />
    <glyph glyph-name="braceleft" unicode="{" horiz-adv-x="573" 
d="M293 643q65 -23 98 -73.5t33 -141.5q0 -73 -40 -238.5t-40 -230.5q0 -72 33 -117t96 -51l-16 -78q-123 8 -195 68.5t-72 177.5q0 72 42 242.5t42 249.5q0 83 -38 119t-109 46l10 58q45 6 76.5 17t63.5 35t56 68.5t40 110.5q17 69 35 205t43.5 222t78.5 143q82 88 289 94
l-14 -80q-96 -9 -150 -78q-38 -50 -58 -124t-36 -192.5t-24 -160.5q-27 -133 -86 -201t-158 -90z" />
    <glyph glyph-name="bar" unicode="|" horiz-adv-x="659" 
d="M481 -377h-139v2083h139v-2083z" />
    <glyph glyph-name="braceright" unicode="}" horiz-adv-x="573" 
d="M528 639q-65 23 -98 73.5t-33 141.5q0 73 40 238.5t40 230.5q0 72 -33 117t-96 51l17 78q123 -8 194.5 -68.5t71.5 -177.5q0 -72 -42 -242.5t-42 -249.5q0 -83 38 -119t109 -46l-10 -58q-45 -6 -76 -17t-63.5 -35t-56 -68.5t-39.5 -110.5q-15 -65 -30 -162t-24.5 -160.5
t-36 -133.5t-67.5 -114q-82 -88 -289 -94l14 80q96 9 150 78q38 50 58.5 123.5t36.5 193.5t24 160q27 133 85.5 201t157.5 90z" />
    <glyph glyph-name="asciitilde" unicode="~" horiz-adv-x="1177" 
d="M1049 633l92 -103q-107 -165 -256 -165q-107 0 -209 63q-101 64 -174 64q-49 0 -93 -36t-75 -94l-92 101q50 79 111.5 123.5t146.5 44.5q102 0 205 -64q102 -63 176 -63q48 0 92 35.5t76 93.5z" />
    <glyph glyph-name="uni00A0" unicode="&#xa0;" horiz-adv-x="530" 
 />
    <glyph glyph-name="exclamdown" unicode="&#xa1;" horiz-adv-x="569" 
d="M489 936h-200l39 199h200zM248 -279h-187l228 1031h129z" />
    <glyph glyph-name="cent" unicode="&#xa2;" horiz-adv-x="909" 
d="M827 96l-16 -84q-113 -39 -299 -35l-33 -167h-88l35 182q-254 50 -254 364q0 87 16 172t51.5 166t87 144.5t128 106t168.5 52.5l30 158h88l-30 -158q116 -11 184 -72t68 -175q0 -28 -7 -72h-165q8 54 8 82q0 60 -25.5 94t-81.5 49l-160 -827q66 -8 97 -8q100 0 198 28z
M451 115l153 788q-40 0 -77 -26t-63.5 -64t-49 -87.5t-35 -90t-21.5 -78.5q-18 -86 -18 -170q0 -90 24.5 -154.5t86.5 -117.5z" />
    <glyph glyph-name="sterling" unicode="&#xa3;" horiz-adv-x="909" 
d="M903 0h-700l123 625h-138l19 98h137l47 244q15 80 32 135.5t47 107.5t70.5 82.5t102.5 49t145 18.5q146 0 231 -74.5t85 -218.5h-178q0 80 -36.5 140.5t-111.5 60.5q-32 0 -60 -12.5t-47.5 -30t-37 -48.5t-28 -55.5t-21 -63.5t-15.5 -60.5t-12 -59.5q-1 -4 -1.5 -6.5
t-1 -6.5t-1.5 -7l-39 -195h227l-18 -98h-227l-99 -500h531z" />
    <glyph glyph-name="currency" unicode="&#xa4;" horiz-adv-x="1052" 
d="M903 266l-139 137q-102 -79 -238 -79q-135 0 -239 79l-137 -137l-89 90l140 133q-78 113 -78 236q0 135 78 236l-140 135l89 90l137 -137q111 77 239 77q59 0 123.5 -19.5t114.5 -57.5l139 137l86 -90l-139 -135q78 -105 78 -236q0 -126 -78 -236l139 -133zM526 446
q114 0 196.5 83t82.5 198q0 119 -85 198t-194 79q-118 0 -199 -82.5t-81 -194.5q0 -114 82.5 -197.5t197.5 -83.5z" />
    <glyph glyph-name="yen" unicode="&#xa5;" 
d="M567 0h-170l70 358h-219l18 93h219l21 110h-219l18 92h219l-280 760h188l223 -604l471 604h164l-596 -760h228l-19 -92h-227l-21 -110h228l-19 -93h-227z" />
    <glyph glyph-name="brokenbar" unicode="&#xa6;" horiz-adv-x="659" 
d="M481 823h-139v736h139v-736zM481 -279h-139v736h139v-736z" />
    <glyph glyph-name="section" unicode="&#xa7;" horiz-adv-x="948" 
d="M164 20l35 173q69 -56 125 -83.5t129 -27.5q56 0 112 19.5t98 63t42 101.5q0 37 -26.5 67.5t-69 52t-94 42.5t-103 45t-94 52.5t-69 73t-26.5 99.5q0 47 16.5 90t48 80t61.5 64t73 59q-62 59 -62 139q0 74 36.5 134.5t95.5 96.5t127.5 55.5t138.5 19.5q116 0 286 -50
l-30 -155q-128 100 -262 100q-50 0 -97.5 -15.5t-83.5 -53t-36 -88.5q0 -43 35 -78t87.5 -57.5t114 -50.5t114 -56.5t87.5 -77t35 -109.5q0 -148 -207 -284q78 -68 78 -156q0 -65 -29.5 -121t-77 -93t-108.5 -63.5t-123 -38.5t-121 -12q-145 0 -256 43zM483 946
q-51 -42 -79.5 -84.5t-28.5 -97.5q0 -39 27 -74t73.5 -63t90.5 -48.5t96.5 -42.5t74.5 -34q119 94 119 184q0 38 -28 73t-76 62.5t-94.5 48.5t-99.5 42.5t-75 33.5z" />
    <glyph glyph-name="dieresis" unicode="&#xa8;" horiz-adv-x="614" 
d="M821 1167h-182l35 181h182zM459 1167h-183l35 181h183z" />
    <glyph glyph-name="copyright" unicode="&#xa9;" 
d="M1180 954q0 -131 -64.5 -241.5t-175.5 -175t-242 -64.5q-97 0 -186 38.5t-153.5 103t-103 153.5t-38.5 186q0 130 64.5 241t175.5 176t241 65t241 -65t176 -176t65 -241zM1108 954q0 169 -120.5 289.5t-289.5 120.5t-289 -120.5t-120 -289.5t120 -289t289 -120t289.5 120
t120.5 289zM864 834l54 -66q-43 -42 -88.5 -61t-106.5 -19q-115 0 -197 80t-82 195q0 114 82.5 194t196.5 80q59 0 102 -19t93 -61l-54 -67q-70 63 -141 63q-78 0 -134.5 -56t-56.5 -134q0 -77 54 -134t131 -57q48 0 78 14t69 48z" />
    <glyph glyph-name="ordfeminine" unicode="&#xaa;" horiz-adv-x="569" 
d="M594 588h-82l16 88l-4 4q-20 -49 -63 -77t-96 -28q-79 0 -114.5 55t-35.5 138q0 60 13 120.5t39.5 118.5t75.5 94t114 36q49 0 86.5 -26.5t52.5 -72.5h4l14 86h82zM393 623q47 0 82.5 33.5t54 85.5t27 101.5t8.5 92.5q0 36 -8 68.5t-32 59t-60 26.5q-42 0 -75 -36
t-50 -89t-25 -102.5t-8 -88.5q0 -151 86 -151z" />
    <glyph glyph-name="guillemotleft" unicode="&#xab;" horiz-adv-x="720" 
d="M657 121h-127l-98 379l246 385h127l-195 -385zM389 121h-127l-98 379l246 385h127l-195 -385z" />
    <glyph glyph-name="logicalnot" unicode="&#xac;" horiz-adv-x="1177" 
d="M1143 262h-139v324h-807v125h946v-449z" />
    <glyph glyph-name="uni00AD" unicode="&#xad;" horiz-adv-x="833" 
d="M815 436h-625l29 144h623z" />
    <glyph glyph-name="registered" unicode="&#xae;" 
d="M1180 954q0 -131 -64.5 -241.5t-175.5 -175t-242 -64.5q-97 0 -186 38.5t-153.5 103t-103 153.5t-38.5 186q0 130 64.5 241t175.5 176t241 65t241 -65t176 -176t65 -241zM1108 954q0 169 -120.5 289.5t-289.5 120.5t-289 -120.5t-120 -289.5t120 -289t289 -120t289.5 120
t120.5 289zM899 713h-102l-78 205h-111v-205h-90v508h168q99 0 153 -35t54 -129q0 -51 -19.5 -76t-66.5 -49zM608 999h111q33 0 55.5 17t22.5 49q0 68 -86 68h-103v-134z" />
    <glyph glyph-name="macron" unicode="&#xaf;" horiz-adv-x="614" 
d="M764 1145h-518l24 123h518z" />
    <glyph glyph-name="degree" unicode="&#xb0;" horiz-adv-x="681" 
d="M598 870q-95 0 -161 68t-66 164q0 91 67.5 155t159.5 64q93 0 159 -64.5t66 -156.5q0 -94 -66 -162t-159 -68zM598 965q55 0 93 40t38 95q0 53 -39 90t-92 37t-93 -37t-40 -90q0 -56 38.5 -95.5t94.5 -39.5z" />
    <glyph glyph-name="plusminus" unicode="&#xb1;" horiz-adv-x="1177" 
d="M737 213h-139v436h-401v125h401v414h139v-414h408v-125h-408v-436zM1145 0h-948v125h948v-125z" />
    <glyph glyph-name="two.superior" unicode="&#xb2;" horiz-adv-x="706" 
d="M692 829h-547l17 80q64 47 144.5 117.5t169.5 160t148.5 182.5t59.5 157q0 58 -31.5 95.5t-87.5 37.5q-61 0 -99 -39t-46 -102h-141q16 102 102 157.5t199 55.5q108 0 171.5 -51t63.5 -152q0 -46 -21 -98.5t-49 -97t-79.5 -100t-88.5 -91.5t-100.5 -89.5t-91 -75
t-84.5 -65.5h408z" />
    <glyph glyph-name="three.superior" unicode="&#xb3;" horiz-adv-x="706" 
d="M442 1255l13 74h57q71 0 114.5 59t43.5 134q0 64 -30.5 100.5t-90.5 36.5q-56 0 -90.5 -33t-40.5 -90h-142q18 94 102 144.5t189 50.5q106 0 171 -48.5t65 -146.5q0 -94 -54.5 -159.5t-150.5 -84.5q62 -17 98.5 -65.5t36.5 -110.5q0 -144 -88 -221.5t-239 -77.5
q-246 0 -246 199h143q0 -129 113 -129q85 0 135.5 63.5t50.5 151.5q0 83 -38 118t-122 35z" />
    <glyph glyph-name="acute" unicode="&#xb4;" horiz-adv-x="614" 
d="M569 1145h-129l140 274h180z" />
    <glyph glyph-name="mu" unicode="&#xb5;" horiz-adv-x="1071" 
d="M1006 94l-21 -106q-24 -4 -59 -4q-80 0 -115 38.5t-35 86.5q0 35 4 71q-43 -95 -117 -149t-165 -54q-131 0 -183 93q-66 -301 -86 -508h-151l274 1413h152l-111 -565q-16 -78 -16 -144q0 -176 145 -176q223 0 309 434l89 451h151l-131 -674q0 -2 -5.5 -29.5t-10 -56.5
t-4.5 -47q0 -40 20 -57t66 -17z" />
    <glyph glyph-name="paragraph" unicode="&#xb6;" 
d="M954 -438h-75v1775h-125v-1775h-76v895q-129 16 -230 73.5t-162 159t-61 232.5q0 100 34.5 183t93 139t138 95t166.5 56.5t181 17.5h235v-76h-119v-1775z" />
    <glyph glyph-name="periodcentered" unicode="&#xb7;" horiz-adv-x="417" 
d="M414 551h-197l39 199h197z" />
    <glyph glyph-name="cedilla" unicode="&#xb8;" horiz-adv-x="614" 
d="M133 -438l21 104q43 -49 106 -49q45 0 81 34.5t36 78.5q0 17 -5 30t-12 21.5t-20.5 14.5t-23.5 8.5t-28 4t-27 2t-29 0t-25 -0.5l92 223h88l-65 -152q81 0 126.5 -28.5t45.5 -106.5q0 -95 -70.5 -153t-167.5 -58q-64 0 -123 27z" />
    <glyph glyph-name="one.superior" unicode="&#xb9;" horiz-adv-x="706" 
d="M530 829h-122l149 756l-178 -106l20 108l205 121h101z" />
    <glyph glyph-name="ordmasculine" unicode="&#xba;" horiz-adv-x="569" 
d="M414 578q-197 0 -197 213q0 65 17.5 125.5t51 110.5t88 80t122.5 30q194 0 194 -207q0 -67 -16 -128t-47.5 -112t-86.5 -81.5t-126 -30.5zM414 625q46 0 80.5 25.5t53.5 62.5t31 87t15.5 90.5t3.5 82.5q0 46 -31 81.5t-75 35.5q-47 0 -84 -30.5t-57.5 -77.5t-31 -95.5
t-10.5 -91.5q0 -34 3 -58.5t12.5 -53t32 -43.5t57.5 -15z" />
    <glyph glyph-name="guillemotright" unicode="&#xbb;" horiz-adv-x="720" 
d="M508 121h-127l194 387l-47 377h127l99 -377zM240 121h-127l194 387l-47 377h127l98 -377z" />
    <glyph glyph-name="onequarter" unicode="&#xbc;" horiz-adv-x="1669" 
d="M1386 0h-129l52 250h-371l14 82l463 555h146l-109 -553h145l-16 -84h-145zM582 0h-115l678 1298h115zM403 420h-122l149 756l-178 -107l20 109l205 120h101zM1323 334l80 401l-332 -401h252z" />
    <glyph glyph-name="onehalf" unicode="&#xbd;" horiz-adv-x="1669" 
d="M582 0h-115l678 1298h115zM403 420h-122l149 756l-178 -107l20 109l205 120h101zM1503 0h-547l17 80q49 36 110.5 87t135.5 122.5t134.5 140.5t101 141.5t40.5 124.5q0 58 -31.5 95.5t-87.5 37.5q-61 0 -99 -39t-46 -102h-141q16 102 102 157.5t199 55.5q108 0 171.5 -51
t63.5 -152q0 -46 -21 -98.5t-49 -96.5t-80 -100.5t-88 -91.5t-100.5 -89t-91 -74.5t-84.5 -65.5h408z" />
    <glyph glyph-name="threequarters" unicode="&#xbe;" horiz-adv-x="1669" 
d="M1386 0h-129l52 250h-371l14 82l463 555h146l-109 -553h145l-16 -84h-145zM422 846l12 74h58q71 0 114 58.5t43 133.5q0 64 -30.5 100.5t-90.5 36.5q-56 0 -90.5 -33t-40.5 -90h-141q18 94 102 144.5t189 50.5q106 0 170.5 -48.5t64.5 -146.5q0 -94 -54 -159t-150 -84
q62 -17 98.5 -65.5t36.5 -110.5q0 -143 -88.5 -221t-239.5 -78q-246 0 -246 198h144q0 -129 112 -129q85 0 136 63.5t51 151.5q0 83 -38.5 118.5t-121.5 35.5zM643 0h-115l678 1298h115zM1323 334l80 401l-332 -401h252z" />
    <glyph glyph-name="questiondown" unicode="&#xbf;" horiz-adv-x="833" 
d="M801 936h-199l39 199h199zM711 -88l-33 -170q-151 -43 -270 -43q-66 0 -124 12.5t-109.5 40t-81.5 78.5t-30 121q0 51 18.5 102t43.5 89.5t69 85.5t75.5 74.5t84 72.5t74.5 65q66 59 96 100.5t42.5 78.5t35.5 133h129l-29 -154q-12 -70 -43.5 -114t-97.5 -107l-123 -115
q-39 -36 -54.5 -51t-49.5 -52.5t-50 -63.5t-30 -63.5t-14 -72.5q0 -71 50 -107t124 -36q140 0 297 96z" />
    <glyph glyph-name="Agrave" unicode="&#xc0;" horiz-adv-x="1175" 
d="M1157 0h-176l-66 451h-509l-234 -451h-154l750 1413h188zM901 557l-78 696h-4l-358 -696h440zM922 1583h-127l-84 275h178z" />
    <glyph glyph-name="Aacute" unicode="&#xc1;" horiz-adv-x="1175" 
d="M1157 0h-176l-66 451h-509l-234 -451h-154l750 1413h188zM901 557l-78 696h-4l-358 -696h440zM891 1583h-129l139 275h180z" />
    <glyph glyph-name="Acircumflex" unicode="&#xc2;" horiz-adv-x="1175" 
d="M1157 0h-176l-66 451h-509l-234 -451h-154l750 1413h188zM901 557l-78 696h-4l-358 -696h440zM1120 1583h-125l-98 158l-166 -158h-125l234 262h149z" />
    <glyph glyph-name="Atilde" unicode="&#xc3;" horiz-adv-x="1175" 
d="M1157 0h-176l-66 451h-509l-234 -451h-154l750 1413h188zM901 557l-78 696h-4l-358 -696h440zM1038 1798h86q-27 -105 -45 -141q-44 -83 -123 -84q-34 0 -78.5 26t-82 52t-52.5 26q-19 0 -33.5 -20t-18.5 -33.5t-11 -40.5h-86q9 35 14.5 55.5t20.5 57.5t30.5 58.5
t41 38.5t55.5 17q34 0 77.5 -27.5t82 -55t59.5 -27.5q45 0 63 98z" />
    <glyph glyph-name="Adieresis" unicode="&#xc4;" horiz-adv-x="1175" 
d="M1157 0h-176l-66 451h-509l-234 -451h-154l750 1413h188zM901 557l-78 696h-4l-358 -696h440zM1143 1606h-182l34 180h183zM780 1606h-182l35 180h182z" />
    <glyph glyph-name="Aring" unicode="&#xc5;" horiz-adv-x="1175" 
d="M1157 0h-176l-66 451h-509l-234 -451h-154l750 1413h188zM901 557l-78 696h-4l-358 -696h440zM1044 1759q0 -72 -52 -124t-124 -52t-124 52t-52 124q0 71 52.5 122.5t123.5 51.5t123.5 -51.5t52.5 -122.5zM956 1759q0 35 -26.5 60.5t-61.5 25.5t-61.5 -25.5t-26.5 -60.5
q0 -37 25.5 -62.5t62.5 -25.5t62.5 25.5t25.5 62.5z" />
    <glyph glyph-name="AE" unicode="&#xc6;" horiz-adv-x="1593" 
d="M1522 0h-594l78 621h-379l-471 -621h-154l1077 1413h699l-23 -117h-502l-71 -559h440l-23 -116h-432l-63 -504h440zM1020 737l63 496l-4 4l-362 -500h303z" />
    <glyph glyph-name="Ccedilla" unicode="&#xc7;" horiz-adv-x="1099" 
d="M1075 231l-31 -165q-168 -89 -337 -89q-11 0 -78 5l-43 -101q81 0 126.5 -28.5t45.5 -106.5q0 -95 -70.5 -153t-167.5 -58q-73 0 -123 27l21 104q43 -49 106 -49q45 0 81 34.5t36 78.5q0 32 -17.5 51.5t-43.5 24t-55.5 6t-53.5 -1.5l76 186q-314 77 -314 512
q0 109 14.5 214.5t45.5 211.5t84 195t124 158.5t172.5 109t223.5 39.5q160 0 271.5 -87.5t111.5 -242.5q0 -14 -3.5 -41t-4.5 -35h-197q10 45 10 82q0 101 -60.5 160t-162.5 59q-74 0 -138 -30t-109.5 -80t-82 -118t-59.5 -140.5t-38 -151.5t-21 -147.5t-6 -131.5
q0 -426 337 -426q59 0 123 21t99.5 40.5t107.5 63.5z" />
    <glyph glyph-name="Egrave" unicode="&#xc8;" horiz-adv-x="948" 
d="M877 0h-705l274 1413h687l-23 -117h-516l-105 -530h490l-23 -117h-489l-102 -532h534zM860 1583h-127l-84 275h178z" />
    <glyph glyph-name="Eacute" unicode="&#xc9;" horiz-adv-x="948" 
d="M877 0h-705l274 1413h687l-23 -117h-516l-105 -530h490l-23 -117h-489l-102 -532h534zM850 1583h-129l139 275h180z" />
    <glyph glyph-name="Ecircumflex" unicode="&#xca;" horiz-adv-x="948" 
d="M877 0h-705l274 1413h687l-23 -117h-516l-105 -530h490l-23 -117h-489l-102 -532h534zM1069 1583h-125l-98 158l-166 -158h-125l233 262h150z" />
    <glyph glyph-name="Edieresis" unicode="&#xcb;" horiz-adv-x="948" 
d="M877 0h-705l274 1413h687l-23 -117h-516l-105 -530h490l-23 -117h-489l-102 -532h534zM1092 1606h-183l35 180h182zM729 1606h-182l35 180h182z" />
    <glyph glyph-name="Igrave" unicode="&#xcc;" horiz-adv-x="530" 
d="M350 0h-170l275 1413h170zM600 1583h-127l-84 275h178z" />
    <glyph glyph-name="Iacute" unicode="&#xcd;" horiz-adv-x="530" 
d="M350 0h-170l275 1413h170zM590 1583h-129l139 275h180z" />
    <glyph glyph-name="Icircumflex" unicode="&#xce;" horiz-adv-x="530" 
d="M350 0h-170l275 1413h170zM799 1583h-125l-99 158l-165 -158h-125l233 262h150z" />
    <glyph glyph-name="Idieresis" unicode="&#xcf;" horiz-adv-x="530" 
d="M350 0h-170l275 1413h170zM821 1606h-182l35 180h182zM459 1606h-183l35 180h183z" />
    <glyph glyph-name="Eth" unicode="&#xd0;" horiz-adv-x="1214" 
d="M557 0h-383l133 690h-182l20 107h183l121 616h208q105 0 182 -7.5t150 -27.5t121 -56.5t85 -93t54 -139t17 -192.5q0 -136 -25 -263t-80 -243.5t-136 -202.5t-201.5 -137t-266.5 -51zM362 106h193q90 0 166 28t130.5 74.5t97 113t69 138.5t43.5 155.5t24 159.5t7 155
q0 59 -7.5 107t-19.5 85t-34 65t-44.5 47.5t-58.5 33t-67.5 21.5t-79.5 12t-87.5 5t-97.5 1l-98 -510h284l-22 -107h-285z" />
    <glyph glyph-name="Ntilde" unicode="&#xd1;" horiz-adv-x="1290" 
d="M1116 0h-198l-359 1212h-4l-231 -1212h-146l273 1413h200l357 -1204h4l233 1204h148zM1126 1798h86q-27 -105 -45 -141q-44 -83 -123 -84q-34 0 -78.5 26t-82 52t-52.5 26q-19 0 -33.5 -20t-18.5 -33.5t-11 -40.5h-86q9 35 14.5 55.5t20.5 57.5t30.5 58.5t41 38.5
t55.5 17q34 0 77.5 -27.5t82 -55t59.5 -27.5q45 0 63 98z" />
    <glyph glyph-name="Ograve" unicode="&#xd2;" horiz-adv-x="1251" 
d="M662 -23q-222 0 -332.5 133t-110.5 361q0 87 11 178t35.5 186t60.5 181.5t90 164t120 133.5t153.5 89t187.5 33q220 0 327 -133t107 -359q0 -101 -15 -207t-46 -216t-84 -206.5t-122.5 -173t-168 -120.5t-213.5 -44zM674 82q103 0 186 65.5t133 164t84 221.5t47 229
t13 196q0 72 -14.5 135t-45.5 118t-87 87.5t-132 32.5q-74 0 -138 -34t-110 -90t-84 -131t-62 -155t-40.5 -164t-23.5 -156t-7 -134q0 -385 281 -385zM930 1583h-127l-84 275h178z" />
    <glyph glyph-name="Oacute" unicode="&#xd3;" horiz-adv-x="1251" 
d="M662 -23q-222 0 -332.5 133t-110.5 361q0 87 11 178t35.5 186t60.5 181.5t90 164t120 133.5t153.5 89t187.5 33q220 0 327 -133t107 -359q0 -101 -15 -207t-46 -216t-84 -206.5t-122.5 -173t-168 -120.5t-213.5 -44zM674 82q103 0 186 65.5t133 164t84 221.5t47 229
t13 196q0 72 -14.5 135t-45.5 118t-87 87.5t-132 32.5q-74 0 -138 -34t-110 -90t-84 -131t-62 -155t-40.5 -164t-23.5 -156t-7 -134q0 -385 281 -385zM940 1583h-129l139 275h180z" />
    <glyph glyph-name="Ocircumflex" unicode="&#xd4;" horiz-adv-x="1251" 
d="M662 -23q-222 0 -332.5 133t-110.5 361q0 87 11 178t35.5 186t60.5 181.5t90 164t120 133.5t153.5 89t187.5 33q220 0 327 -133t107 -359q0 -101 -15 -207t-46 -216t-84 -206.5t-122.5 -173t-168 -120.5t-213.5 -44zM674 82q103 0 186 65.5t133 164t84 221.5t47 229
t13 196q0 72 -14.5 135t-45.5 118t-87 87.5t-132 32.5q-74 0 -138 -34t-110 -90t-84 -131t-62 -155t-40.5 -164t-23.5 -156t-7 -134q0 -385 281 -385zM1139 1583h-125l-99 158l-165 -158h-125l233 262h150z" />
    <glyph glyph-name="Otilde" unicode="&#xd5;" horiz-adv-x="1251" 
d="M662 -23q-222 0 -332.5 133t-110.5 361q0 87 11 178t35.5 186t60.5 181.5t90 164t120 133.5t153.5 89t187.5 33q220 0 327 -133t107 -359q0 -101 -15 -207t-46 -216t-84 -206.5t-122.5 -173t-168 -120.5t-213.5 -44zM674 82q103 0 186 65.5t133 164t84 221.5t47 229
t13 196q0 72 -14.5 135t-45.5 118t-87 87.5t-132 32.5q-74 0 -138 -34t-110 -90t-84 -131t-62 -155t-40.5 -164t-23.5 -156t-7 -134q0 -385 281 -385zM1067 1798h86q-27 -105 -45 -141q-44 -83 -123 -84q-34 0 -78.5 26t-82 52t-52.5 26q-19 0 -33.5 -20t-18.5 -33.5
t-11 -40.5h-86q7 26 10 38.5t12 41t16.5 44.5t21 38.5t27 34.5t33 21t41.5 9q34 0 78 -27.5t82.5 -55t59.5 -27.5q45 0 63 98z" />
    <glyph glyph-name="Odieresis" unicode="&#xd6;" horiz-adv-x="1251" 
d="M662 -23q-222 0 -332.5 133t-110.5 361q0 87 11 178t35.5 186t60.5 181.5t90 164t120 133.5t153.5 89t187.5 33q220 0 327 -133t107 -359q0 -101 -15 -207t-46 -216t-84 -206.5t-122.5 -173t-168 -120.5t-213.5 -44zM674 82q103 0 186 65.5t133 164t84 221.5t47 229
t13 196q0 72 -14.5 135t-45.5 118t-87 87.5t-132 32.5q-74 0 -138 -34t-110 -90t-84 -131t-62 -155t-40.5 -164t-23.5 -156t-7 -134q0 -385 281 -385zM1161 1606h-182l35 180h182zM799 1606h-183l35 180h183z" />
    <glyph glyph-name="multiply" unicode="&#xd7;" horiz-adv-x="1177" 
d="M1061 -6l-381 387l-373 -387l-88 98l373 387l-373 379l98 103l373 -379l379 391l88 -99l-379 -391l381 -387z" />
    <glyph glyph-name="Oslash" unicode="&#xd8;" horiz-adv-x="1251" 
d="M184 -78l-73 53l149 197q-31 68 -42 123.5t-11 136.5q0 108 16.5 220t50.5 226t90.5 213t130.5 177t178 123t226 45q84 0 147 -19.5t130 -66.5l116 149l74 -53l-125 -162q46 -67 63 -139.5t17 -167.5q0 -108 -18 -220t-53 -225.5t-94 -212.5t-134.5 -176t-180.5 -121.5
t-227 -44.5q-95 0 -163.5 25.5t-135.5 87.5zM387 328l698 907q-41 51 -87.5 73.5t-112.5 22.5q-79 0 -148 -35t-119 -93.5t-91 -137t-67.5 -162.5t-45 -173t-26 -165.5t-7.5 -142.5q0 -16 1 -47t1 -47h4zM1135 1145l-719 -926q42 -71 92.5 -104t130.5 -33q102 0 189 64.5
t144 163t98 219t59 230.5t18 199q0 27 -2 58.5t-5.5 70t-4.5 58.5z" />
    <glyph glyph-name="Ugrave" unicode="&#xd9;" horiz-adv-x="1251" 
d="M1024 528l172 885h170l-172 -885q-17 -89 -35.5 -155t-47.5 -132t-68.5 -111.5t-94 -81.5t-129 -53.5t-168.5 -17.5q-84 0 -156 18.5t-130.5 57t-92.5 104.5t-34 154q0 83 26 217l172 885h170l-172 -885q-20 -105 -20 -194q0 -252 254 -252q56 0 102 14t78 33.5t59 58
t42 67.5t31 84t23 86t19 93q1 7 2 10zM961 1583h-127l-84 275h178z" />
    <glyph glyph-name="Uacute" unicode="&#xda;" horiz-adv-x="1251" 
d="M1024 528l172 885h170l-172 -885q-17 -89 -35.5 -155t-47.5 -132t-68.5 -111.5t-94 -81.5t-129 -53.5t-168.5 -17.5q-84 0 -156 18.5t-130.5 57t-92.5 104.5t-34 154q0 83 26 217l172 885h170l-172 -885q-20 -105 -20 -194q0 -252 254 -252q56 0 102 14t78 33.5t59 58
t42 67.5t31 84t23 86t19 93q1 7 2 10zM930 1583h-129l139 275h180z" />
    <glyph glyph-name="Ucircumflex" unicode="&#xdb;" horiz-adv-x="1251" 
d="M1024 528l172 885h170l-172 -885q-17 -89 -35.5 -155t-47.5 -132t-68.5 -111.5t-94 -81.5t-129 -53.5t-168.5 -17.5q-84 0 -156 18.5t-130.5 57t-92.5 104.5t-34 154q0 83 26 217l172 885h170l-172 -885q-20 -105 -20 -194q0 -252 254 -252q56 0 102 14t78 33.5t59 58
t42 67.5t31 84t23 86t19 93q1 7 2 10zM1159 1583h-125l-98 158l-166 -158h-125l234 262h149z" />
    <glyph glyph-name="Udieresis" unicode="&#xdc;" horiz-adv-x="1251" 
d="M1024 528l172 885h170l-172 -885q-17 -89 -35.5 -155t-47.5 -132t-68.5 -111.5t-94 -81.5t-129 -53.5t-168.5 -17.5q-84 0 -156 18.5t-130.5 57t-92.5 104.5t-34 154q0 83 26 217l172 885h170l-172 -885q-20 -105 -20 -194q0 -252 254 -252q56 0 102 14t78 33.5t59 58
t42 67.5t31 84t23 86t19 93q1 7 2 10zM1182 1606h-183l35 180h183zM819 1606h-182l35 180h182z" />
    <glyph glyph-name="Yacute" unicode="&#xdd;" 
d="M590 0h-170l127 653l-283 760h187l225 -604l473 604h162l-596 -760zM836 1583h-129l139 275h180z" />
    <glyph glyph-name="Thorn" unicode="&#xde;" 
d="M340 0h-168l274 1413h170l-53 -262h121q58 0 103.5 -2.5t100 -10.5t96 -21.5t82 -38t66.5 -57.5t42 -82t16 -110q0 -118 -31.5 -206t-85 -142t-134.5 -87t-168 -45.5t-198 -12.5h-167zM426 442h131q94 0 161 9t126.5 34t95 68.5t56 114t20.5 168.5q0 42 -12 75.5
t-30.5 55t-49 36.5t-57.5 23t-67.5 12t-67.5 5t-68 1h-121z" />
    <glyph glyph-name="germandbls" unicode="&#xdf;" horiz-adv-x="1062" 
d="M422 0l20 100q63 -28 144 -28q65 0 117 26t85.5 67.5t56 97.5t31.5 113t9 116q0 108 -53 165.5t-160 57.5h-29l19 92h22q63 0 112.5 29t79 77t45 104.5t15.5 115.5q0 92 -42 150t-130 58q-45 0 -81 -15.5t-61 -44t-43.5 -61t-31 -75.5t-21 -78.5t-16.5 -77.5
q-1 -7 -2 -12l-2 -10l-189 -967h-151l188 967q36 186 63 256q53 136 165 182q74 31 182 31q155 0 247.5 -75t92.5 -226q0 -143 -75.5 -238.5t-213.5 -126.5v-4q127 -20 182.5 -86t55.5 -197q0 -223 -123 -364.5t-342 -141.5q-61 0 -166 23z" />
    <glyph glyph-name="agrave" unicode="&#xe0;" 
d="M864 0h-151l32 164l-4 4q-44 -89 -120.5 -140t-174.5 -51q-75 0 -129 29t-84 79.5t-43.5 110t-13.5 130.5q0 69 10 141.5t30 149.5t55.5 144t81.5 120.5t113 84.5t146 31q186 0 256 -180h4l27 158h152zM498 72q68 0 123.5 41t90 102.5t57.5 139.5t32.5 147t9.5 129
q0 46 -9.5 91t-29 87t-57 68t-86.5 26q-76 0 -135 -64.5t-89.5 -160t-45.5 -184t-15 -158.5q0 -46 5.5 -85.5t20.5 -83.5t47.5 -69.5t80.5 -25.5zM784 1145h-127l-84 274h179z" />
    <glyph glyph-name="aacute" unicode="&#xe1;" 
d="M864 0h-151l32 164l-4 4q-44 -89 -120.5 -140t-174.5 -51q-75 0 -129 29t-84 79.5t-43.5 110t-13.5 130.5q0 69 10 141.5t30 149.5t55.5 144t81.5 120.5t113 84.5t146 31q186 0 256 -180h4l27 158h152zM498 72q68 0 123.5 41t90 102.5t57.5 139.5t32.5 147t9.5 129
q0 46 -9.5 91t-29 87t-57 68t-86.5 26q-76 0 -135 -64.5t-89.5 -160t-45.5 -184t-15 -158.5q0 -46 5.5 -85.5t20.5 -83.5t47.5 -69.5t80.5 -25.5zM774 1145h-129l139 274h181z" />
    <glyph glyph-name="acircumflex" unicode="&#xe2;" 
d="M864 0h-151l32 164l-4 4q-44 -89 -120.5 -140t-174.5 -51q-75 0 -129 29t-84 79.5t-43.5 110t-13.5 130.5q0 69 10 141.5t30 149.5t55.5 144t81.5 120.5t113 84.5t146 31q186 0 256 -180h4l27 158h152zM498 72q68 0 123.5 41t90 102.5t57.5 139.5t32.5 147t9.5 129
q0 46 -9.5 91t-29 87t-57 68t-86.5 26q-76 0 -135 -64.5t-89.5 -160t-45.5 -184t-15 -158.5q0 -46 5.5 -85.5t20.5 -83.5t47.5 -69.5t80.5 -25.5zM1004 1145h-125l-99 158l-166 -158h-125l234 262h149z" />
    <glyph glyph-name="atilde" unicode="&#xe3;" 
d="M864 0h-151l32 164l-4 4q-44 -89 -120.5 -140t-174.5 -51q-75 0 -129 29t-84 79.5t-43.5 110t-13.5 130.5q0 69 10 141.5t30 149.5t55.5 144t81.5 120.5t113 84.5t146 31q186 0 256 -180h4l27 158h152zM498 72q68 0 123.5 41t90 102.5t57.5 139.5t32.5 147t9.5 129
q0 46 -9.5 91t-29 87t-57 68t-86.5 26q-76 0 -135 -64.5t-89.5 -160t-45.5 -184t-15 -158.5q0 -46 5.5 -85.5t20.5 -83.5t47.5 -69.5t80.5 -25.5zM922 1360h86q-27 -105 -45 -141q-44 -83 -123 -84q-34 0 -78.5 26t-82 52t-52.5 26q-19 0 -33.5 -19.5t-19 -34t-11.5 -40.5
h-86q9 35 14.5 55.5t20.5 57.5t30.5 58.5t41 38.5t55.5 17q34 0 77.5 -27.5t82 -55t59.5 -27.5q46 0 64 98z" />
    <glyph glyph-name="adieresis" unicode="&#xe4;" 
d="M864 0h-151l32 164l-4 4q-44 -89 -120.5 -140t-174.5 -51q-75 0 -129 29t-84 79.5t-43.5 110t-13.5 130.5q0 69 10 141.5t30 149.5t55.5 144t81.5 120.5t113 84.5t146 31q186 0 256 -180h4l27 158h152zM498 72q68 0 123.5 41t90 102.5t57.5 139.5t32.5 147t9.5 129
q0 46 -9.5 91t-29 87t-57 68t-86.5 26q-76 0 -135 -64.5t-89.5 -160t-45.5 -184t-15 -158.5q0 -46 5.5 -85.5t20.5 -83.5t47.5 -69.5t80.5 -25.5zM1026 1167h-182l35 181h182zM664 1167h-183l35 181h182z" />
    <glyph glyph-name="aring" unicode="&#xe5;" 
d="M864 0h-151l32 164l-4 4q-44 -89 -120.5 -140t-174.5 -51q-75 0 -129 29t-84 79.5t-43.5 110t-13.5 130.5q0 69 10 141.5t30 149.5t55.5 144t81.5 120.5t113 84.5t146 31q186 0 256 -180h4l27 158h152zM498 72q68 0 123.5 41t90 102.5t57.5 139.5t32.5 147t9.5 129
q0 46 -9.5 91t-29 87t-57 68t-86.5 26q-76 0 -135 -64.5t-89.5 -160t-45.5 -184t-15 -158.5q0 -46 5.5 -85.5t20.5 -83.5t47.5 -69.5t80.5 -25.5zM928 1321q0 -72 -52 -124t-124 -52t-124.5 52t-52.5 124q0 71 53 122.5t124 51.5t123.5 -51.5t52.5 -122.5zM840 1321
q0 35 -26.5 60.5t-61.5 25.5t-61.5 -25.5t-26.5 -60.5q0 -37 25.5 -62.5t62.5 -25.5t62.5 25.5t25.5 62.5z" />
    <glyph glyph-name="ae" unicode="&#xe6;" horiz-adv-x="1531" 
d="M1450 106l-16 -90q-125 -39 -228 -39q-218 0 -321 146l-21 -123h-151l30 164l-4 4q-45 -90 -121 -140.5t-174 -50.5q-60 0 -106.5 19.5t-76.5 52.5t-49.5 78.5t-27.5 94.5t-8 104q0 84 13 171t45.5 178t80.5 161.5t124.5 115.5t170.5 45q93 0 159 -46.5t97 -133.5h4
l29 158h152l-17 -84l4 -4q93 110 232 110q148 0 226.5 -82.5t78.5 -230.5q0 -64 -29 -190h-571q-19 -68 -19 -134q0 -122 101.5 -205t226.5 -83q76 0 166 34zM989 588h416q2 12 8.5 40t10 49.5t3.5 41.5q0 77 -48 130.5t-124 53.5q-200 0 -266 -315zM496 72q65 0 120.5 41
t91.5 104t61.5 140t36.5 147t11 127q0 47 -9.5 92.5t-30 87t-59 67t-89.5 25.5q-62 0 -113 -44t-82 -109t-52.5 -145t-29.5 -147.5t-8 -121.5q0 -45 5.5 -84.5t20 -83.5t47 -70t79.5 -26z" />
    <glyph glyph-name="ccedilla" unicode="&#xe7;" horiz-adv-x="872" 
d="M829 106l-18 -98q-136 -31 -213 -31q-52 0 -102 9l-45 -105q81 0 126.5 -28.5t45.5 -106.5q0 -95 -70.5 -153t-167.5 -58q-65 0 -123 27l21 104q43 -49 106 -49q45 0 81 34.5t36 78.5q0 32 -17.5 51.5t-43.5 24t-55.5 6t-53.5 -1.5l80 194q-230 79 -230 379
q0 91 17 177.5t55 166t92.5 139.5t136 95.5t179.5 35.5q79 0 144.5 -23.5t110 -79t44.5 -136.5q0 -19 -9 -84h-178q10 68 10 78q0 151 -143 151q-62 0 -112.5 -32.5t-83 -83t-54.5 -114t-31.5 -123.5t-9.5 -114q0 -77 16.5 -140.5t51 -115t94 -80t139.5 -28.5q70 0 174 34z
" />
    <glyph glyph-name="egrave" unicode="&#xe8;" horiz-adv-x="909" 
d="M825 106l-14 -90q-125 -39 -229 -39q-396 0 -396 420q0 73 11.5 143.5t34 138.5t60.5 125t87 100.5t117.5 68t148.5 24.5q141 0 224 -74.5t83 -213.5q0 -51 -10 -109h-573q-15 -88 -15 -145q0 -74 18 -140.5t53.5 -122t95.5 -88t138 -32.5q76 0 166 34zM389 694h412
q0 8 2 24.5t2 24.5q0 70 -51.5 115t-122.5 45q-182 0 -242 -209zM727 1145h-127l-84 274h178z" />
    <glyph glyph-name="eacute" unicode="&#xe9;" horiz-adv-x="909" 
d="M825 106l-14 -90q-125 -39 -229 -39q-396 0 -396 420q0 73 11.5 143.5t34 138.5t60.5 125t87 100.5t117.5 68t148.5 24.5q141 0 224 -74.5t83 -213.5q0 -51 -10 -109h-573q-15 -88 -15 -145q0 -74 18 -140.5t53.5 -122t95.5 -88t138 -32.5q76 0 166 34zM389 694h412
q0 8 2 24.5t2 24.5q0 70 -51.5 115t-122.5 45q-182 0 -242 -209zM717 1145h-129l139 274h180z" />
    <glyph glyph-name="ecircumflex" unicode="&#xea;" horiz-adv-x="909" 
d="M825 106l-14 -90q-125 -39 -229 -39q-396 0 -396 420q0 73 11.5 143.5t34 138.5t60.5 125t87 100.5t117.5 68t148.5 24.5q141 0 224 -74.5t83 -213.5q0 -51 -10 -109h-573q-15 -88 -15 -145q0 -74 18 -140.5t53.5 -122t95.5 -88t138 -32.5q76 0 166 34zM389 694h412
q0 8 2 24.5t2 24.5q0 70 -51.5 115t-122.5 45q-182 0 -242 -209zM946 1145h-125l-98 158l-166 -158h-125l234 262h149z" />
    <glyph glyph-name="edieresis" unicode="&#xeb;" horiz-adv-x="909" 
d="M825 106l-14 -90q-125 -39 -229 -39q-396 0 -396 420q0 73 11.5 143.5t34 138.5t60.5 125t87 100.5t117.5 68t148.5 24.5q141 0 224 -74.5t83 -213.5q0 -51 -10 -109h-573q-15 -88 -15 -145q0 -74 18 -140.5t53.5 -122t95.5 -88t138 -32.5q76 0 166 34zM389 694h412
q0 8 2 24.5t2 24.5q0 70 -51.5 115t-122.5 45q-182 0 -242 -209zM969 1167h-183l35 181h183zM606 1167h-182l35 181h182z" />
    <glyph glyph-name="igrave" unicode="&#xec;" horiz-adv-x="493" 
d="M322 0h-152l190 975h152zM520 1145h-127l-84 274h178z" />
    <glyph glyph-name="iacute" unicode="&#xed;" horiz-adv-x="493" 
d="M322 0h-152l190 975h152zM510 1145h-129l139 274h180z" />
    <glyph glyph-name="icircumflex" unicode="&#xee;" horiz-adv-x="493" 
d="M322 0h-152l190 975h152zM719 1145h-125l-98 158l-166 -158h-125l233 262h150z" />
    <glyph glyph-name="idieresis" unicode="&#xef;" horiz-adv-x="493" 
d="M322 0h-152l190 975h152zM762 1167h-182l34 181h183zM399 1167h-182l35 181h182z" />
    <glyph glyph-name="eth" unicode="&#xf0;" 
d="M866 918l4 4q-59 132 -139 204l-188 -73l-29 73l143 58q-112 73 -208 108v6h274q25 -17 78 -59l168 66l28 -78l-125 -49q101 -118 133.5 -242.5t32.5 -308.5q0 -98 -17.5 -189.5t-57 -176t-97.5 -147t-145 -100t-193 -37.5q-175 0 -262.5 101t-87.5 278q0 96 18 187
t57.5 174t97.5 144.5t143.5 98.5t189.5 37q117 0 182 -79zM549 72q71 0 129 43t92.5 107.5t58 146.5t32.5 153t9 133q0 108 -49.5 178t-152.5 70q-71 0 -128.5 -40t-92.5 -100.5t-58.5 -137.5t-33 -146t-9.5 -131q0 -276 203 -276z" />
    <glyph glyph-name="ntilde" unicode="&#xf1;" horiz-adv-x="1062" 
d="M895 0h-152l117 600q19 107 19 139q0 59 -30 96t-87 37q-73 0 -138 -43.5t-108.5 -112.5t-72.5 -141t-42 -143l-82 -432h-151l188 975h152l-45 -232l4 -4q54 109 148 183.5t204 74.5q95 0 156 -56t61 -150q0 -68 -10 -117zM942 1360h86q-27 -105 -45 -141
q-44 -83 -123 -84q-34 0 -78.5 26t-82 52t-52.5 26q-19 0 -33.5 -20t-18.5 -33.5t-11 -40.5h-86q7 26 10 38.5t12 41t16.5 44.5t21 38.5t27 34.5t33 21t41.5 9q34 0 78 -27.5t82.5 -55t59.5 -27.5q45 0 63 98z" />
    <glyph glyph-name="ograve" unicode="&#xf2;" 
d="M528 -23q-175 0 -262.5 101t-87.5 278q0 97 18 188t58 174t98 144.5t144 98t190 36.5q174 0 263 -97.5t89 -272.5q0 -82 -12.5 -159.5t-38 -151t-67.5 -134.5t-97 -107t-130.5 -72t-164.5 -26zM549 72q71 0 129 43t92.5 107.5t58 146.5t32.5 153t9 133q0 109 -49 178.5
t-153 69.5q-71 0 -128.5 -40t-92.5 -100.5t-58.5 -137.5t-33 -146t-9.5 -131q0 -276 203 -276zM784 1145h-127l-84 274h179z" />
    <glyph glyph-name="oacute" unicode="&#xf3;" 
d="M528 -23q-175 0 -262.5 101t-87.5 278q0 97 18 188t58 174t98 144.5t144 98t190 36.5q174 0 263 -97.5t89 -272.5q0 -82 -12.5 -159.5t-38 -151t-67.5 -134.5t-97 -107t-130.5 -72t-164.5 -26zM549 72q71 0 129 43t92.5 107.5t58 146.5t32.5 153t9 133q0 109 -49 178.5
t-153 69.5q-71 0 -128.5 -40t-92.5 -100.5t-58.5 -137.5t-33 -146t-9.5 -131q0 -276 203 -276zM774 1145h-129l139 274h181z" />
    <glyph glyph-name="ocircumflex" unicode="&#xf4;" 
d="M528 -23q-175 0 -262.5 101t-87.5 278q0 97 18 188t58 174t98 144.5t144 98t190 36.5q174 0 263 -97.5t89 -272.5q0 -82 -12.5 -159.5t-38 -151t-67.5 -134.5t-97 -107t-130.5 -72t-164.5 -26zM549 72q71 0 129 43t92.5 107.5t58 146.5t32.5 153t9 133q0 109 -49 178.5
t-153 69.5q-71 0 -128.5 -40t-92.5 -100.5t-58.5 -137.5t-33 -146t-9.5 -131q0 -276 203 -276zM1004 1145h-125l-99 158l-166 -158h-125l234 262h149z" />
    <glyph glyph-name="otilde" unicode="&#xf5;" 
d="M528 -23q-175 0 -262.5 101t-87.5 278q0 97 18 188t58 174t98 144.5t144 98t190 36.5q174 0 263 -97.5t89 -272.5q0 -82 -12.5 -159.5t-38 -151t-67.5 -134.5t-97 -107t-130.5 -72t-164.5 -26zM549 72q71 0 129 43t92.5 107.5t58 146.5t32.5 153t9 133q0 109 -49 178.5
t-153 69.5q-71 0 -128.5 -40t-92.5 -100.5t-58.5 -137.5t-33 -146t-9.5 -131q0 -276 203 -276zM922 1360h86q-27 -105 -45 -141q-44 -83 -123 -84q-34 0 -78.5 26t-82 52t-52.5 26q-19 0 -33.5 -19.5t-19 -34t-11.5 -40.5h-86q9 35 14.5 55.5t20.5 57.5t30.5 58.5t41 38.5
t55.5 17q34 0 77.5 -27.5t82 -55t59.5 -27.5q46 0 64 98z" />
    <glyph glyph-name="odieresis" unicode="&#xf6;" 
d="M528 -23q-175 0 -262.5 101t-87.5 278q0 97 18 188t58 174t98 144.5t144 98t190 36.5q174 0 263 -97.5t89 -272.5q0 -82 -12.5 -159.5t-38 -151t-67.5 -134.5t-97 -107t-130.5 -72t-164.5 -26zM549 72q71 0 129 43t92.5 107.5t58 146.5t32.5 153t9 133q0 109 -49 178.5
t-153 69.5q-71 0 -128.5 -40t-92.5 -100.5t-58.5 -137.5t-33 -146t-9.5 -131q0 -276 203 -276zM1026 1167h-182l35 181h182zM664 1167h-183l35 181h182z" />
    <glyph glyph-name="divide" unicode="&#xf7;" horiz-adv-x="1177" 
d="M780 786h-188v187h188v-187zM1159 424h-948v125h948v-125zM780 0h-188v186h188v-186z" />
    <glyph glyph-name="oslash" unicode="&#xf8;" 
d="M166 -100l-60 47l123 155q-38 64 -53.5 113t-15.5 117q0 99 21 193.5t65 180.5t106 150.5t151.5 102.5t194.5 38q114 0 199 -49l107 135l61 -45l-109 -135q58 -65 80.5 -120t22.5 -140q0 -95 -21.5 -189t-66.5 -180t-107 -152t-150.5 -105.5t-189.5 -39.5q-146 0 -237 76
zM334 233l495 631q-55 58 -139 58q-77 0 -140.5 -44t-103.5 -111t-67.5 -151.5t-39 -161.5t-11.5 -145q0 -1 6 -76zM868 788l-510 -645q31 -50 66.5 -70t95.5 -20q78 0 142.5 44.5t106 113.5t70 154.5t40.5 164.5t12 148q0 43 -23 110z" />
    <glyph glyph-name="ugrave" unicode="&#xf9;" horiz-adv-x="1062" 
d="M893 0h-152l41 213l-4 4q-48 -101 -135.5 -170.5t-189.5 -69.5q-101 0 -171.5 54.5t-70.5 152.5q0 58 12 117l131 674h152l-117 -600q-18 -101 -18 -139q0 -64 37.5 -99t101.5 -35q71 0 131.5 44.5t100.5 116t65 141t39 139.5l84 432h151zM805 1145h-127l-84 274h178z
" />
    <glyph glyph-name="uacute" unicode="&#xfa;" horiz-adv-x="1062" 
d="M893 0h-152l41 213l-4 4q-48 -101 -135.5 -170.5t-189.5 -69.5q-101 0 -171.5 54.5t-70.5 152.5q0 58 12 117l131 674h152l-117 -600q-18 -101 -18 -139q0 -64 37.5 -99t101.5 -35q71 0 131.5 44.5t100.5 116t65 141t39 139.5l84 432h151zM795 1145h-129l139 274h180z
" />
    <glyph glyph-name="ucircumflex" unicode="&#xfb;" horiz-adv-x="1062" 
d="M893 0h-152l41 213l-4 4q-48 -101 -135.5 -170.5t-189.5 -69.5q-101 0 -171.5 54.5t-70.5 152.5q0 58 12 117l131 674h152l-117 -600q-18 -101 -18 -139q0 -64 37.5 -99t101.5 -35q71 0 131.5 44.5t100.5 116t65 141t39 139.5l84 432h151zM1024 1145h-125l-98 158
l-166 -158h-125l233 262h150z" />
    <glyph glyph-name="udieresis" unicode="&#xfc;" horiz-adv-x="1062" 
d="M893 0h-152l41 213l-4 4q-48 -101 -135.5 -170.5t-189.5 -69.5q-101 0 -171.5 54.5t-70.5 152.5q0 58 12 117l131 674h152l-117 -600q-18 -101 -18 -139q0 -64 37.5 -99t101.5 -35q71 0 131.5 44.5t100.5 116t65 141t39 139.5l84 432h151zM1047 1167h-183l35 181h182z
M684 1167h-182l35 181h182z" />
    <glyph glyph-name="yacute" unicode="&#xfd;" horiz-adv-x="909" 
d="M328 -391h-138l216 385l-199 981h164l153 -766l428 766h138zM717 1145h-129l139 274h180z" />
    <glyph glyph-name="thorn" unicode="&#xfe;" 
d="M229 -438h-151l360 1851h152l-119 -602l4 -4q43 89 120 139.5t175 50.5q75 0 129 -28.5t84 -79.5t43.5 -110t13.5 -130q0 -59 -7 -120.5t-22.5 -128t-38.5 -127t-58.5 -115t-79.5 -94.5t-103 -63.5t-127 -23.5q-92 0 -158.5 47.5t-97.5 133.5h-4zM586 72q63 0 114.5 43.5
t82 108.5t52 145t29.5 147.5t8 122.5q0 264 -153 264q-68 0 -124 -41t-90.5 -102.5t-58.5 -139.5t-33.5 -147t-9.5 -129q0 -47 9 -91.5t29 -87t57.5 -68t87.5 -25.5z" />
    <glyph glyph-name="ydieresis" unicode="&#xff;" horiz-adv-x="909" 
d="M328 -391h-138l216 385l-199 981h164l153 -766l428 766h138zM969 1167h-183l35 181h183zM606 1167h-182l35 181h182z" />
    <glyph glyph-name="dotlessi" unicode="&#x131;" horiz-adv-x="493" 
d="M322 0h-152l190 975h152z" />
    <glyph glyph-name="Lslash" unicode="&#x141;" horiz-adv-x="833" 
d="M840 0h-666l109 559l-191 -129l25 129l192 137l140 717h169l-110 -567l307 217l-24 -129l-310 -221l-114 -596h497z" />
    <glyph glyph-name="lslash" unicode="&#x142;" horiz-adv-x="493" 
d="M324 0h-152l123 641l-199 -143l25 118l198 144l127 653h152l-102 -526l182 131l-23 -119l-182 -129z" />
    <glyph glyph-name="OE" unicode="&#x152;" horiz-adv-x="1802" 
d="M1731 0h-740l45 225l-4 4q-47 -68 -85 -110t-87 -76.5t-108.5 -50t-137.5 -15.5q-107 0 -185.5 39.5t-123 110t-65.5 156t-21 188.5q0 91 11.5 183.5t37.5 188t64 181.5t94.5 162t124.5 131t158.5 87t193.5 32q115 0 194 -68.5t122 -183.5h4l43 229h721l-23 -117h-573
l-107 -530h547l-23 -117h-546l-105 -532h598zM627 82q83 0 154.5 32.5t122.5 86.5t92 128t67 153.5t43 166t24 162.5t7 147q0 53 -7 102t-25 99.5t-45.5 87.5t-73 60.5t-103.5 23.5q-76 0 -143 -33t-116 -88t-89 -129t-66 -153.5t-43.5 -164t-25 -158t-7.5 -138.5
q0 -252 131 -350q51 -35 103 -35z" />
    <glyph glyph-name="oe" unicode="&#x153;" horiz-adv-x="1560" 
d="M1477 106l-17 -90q-125 -39 -229 -39q-261 0 -354 220q-131 -220 -349 -220q-175 0 -262.5 101t-87.5 278q0 96 18 187t57.5 174t97.5 144.5t143.5 98.5t189.5 37q208 0 299 -166q128 166 313 166q142 0 225 -74.5t83 -213.5q0 -53 -27 -215h-573q-15 -103 -15 -123
q0 -130 95.5 -214.5t226.5 -84.5q76 0 166 34zM1024 588h412q1 9 10.5 66.5t9.5 88.5q0 72 -50.5 116t-123.5 44q-190 0 -258 -315zM549 72q71 0 129 43t92.5 107.5t58 146.5t32.5 153t9 133q0 108 -49.5 178t-152.5 70q-71 0 -128.5 -40t-92.5 -100.5t-58.5 -137.5
t-33 -146t-9.5 -131q0 -276 203 -276z" />
    <glyph glyph-name="Scaron" unicode="&#x160;" horiz-adv-x="985" 
d="M102 35l33 178q166 -119 350 -119q84 0 159.5 32.5t126 98.5t50.5 152q0 58 -29.5 107t-76.5 85t-103.5 70.5t-113 71.5t-103.5 79.5t-76.5 104.5t-29.5 137q0 100 38 178.5t104 127t149.5 73.5t179.5 25q167 0 340 -39l-31 -164q-165 86 -321 86q-78 0 -140.5 -24
t-103.5 -79t-41 -135q0 -56 29.5 -101.5t76.5 -79t103.5 -66t113 -70.5t103.5 -83.5t76.5 -114t29.5 -152.5q0 -111 -47.5 -197.5t-127.5 -137.5t-176 -76.5t-202 -25.5q-197 0 -340 58zM844 1583h-150l-131 262h125l100 -159l164 159h125z" />
    <glyph glyph-name="scaron" unicode="&#x161;" horiz-adv-x="833" 
d="M123 31l31 147q120 -96 256 -96q58 0 107.5 15t86.5 55t37 100q0 40 -21 73.5t-54.5 58.5t-74.5 49t-81.5 50t-74 56t-54.5 72.5t-21 93.5q0 75 30.5 132.5t83 91.5t116.5 51t135 17q119 0 237 -47l-33 -145q-70 46 -121 67t-118 21q-76 0 -127 -38t-51 -112
q0 -31 21 -57.5t54.5 -48.5t74.5 -44.5t81.5 -49.5t74 -59t54.5 -78.5t21 -102.5q0 -88 -32.5 -153t-90.5 -102t-128 -54t-155 -17q-118 0 -264 54zM676 1145h-150l-131 262h125l101 -160l163 160h125z" />
    <glyph glyph-name="Ydieresis" unicode="&#x178;" 
d="M590 0h-170l127 653l-283 760h187l225 -604l473 604h162l-596 -760zM1067 1606h-182l35 180h182zM705 1606h-183l35 180h182z" />
    <glyph glyph-name="Zcaron" unicode="&#x17d;" horiz-adv-x="985" 
d="M981 0h-932l23 117l889 1179h-625l22 117h836l-33 -117l-889 -1179h734zM838 1583h-150l-131 262h125l100 -159l164 159h125z" />
    <glyph glyph-name="zcaron" unicode="&#x17e;" horiz-adv-x="833" 
d="M809 0h-746l21 104l647 766h-463l21 105h657l-37 -105l-647 -766h569zM690 1145h-149l-131 262h125l100 -160l164 160h125z" />
    <glyph glyph-name="florin" unicode="&#x192;" horiz-adv-x="681" 
d="M207 0h-152l328 881h-174l35 94h174q8 21 23 63q27 73 41.5 108.5t42.5 91.5t56.5 83.5t71.5 58.5t99.5 43.5t128.5 12.5q85 0 194 -31l-45 -119q-85 45 -162 45q-37 0 -70 -12t-57.5 -30.5t-47.5 -47.5t-38.5 -56.5t-32 -65t-26 -65t-22.5 -64.5q-3 -10 -5 -15h279
l-35 -94h-278z" />
    <glyph glyph-name="circumflex" unicode="&#x2c6;" horiz-adv-x="614" 
d="M799 1145h-125l-99 158l-165 -158h-125l233 262h150z" />
    <glyph glyph-name="caron" unicode="&#x2c7;" horiz-adv-x="614" 
d="M565 1145h-149l-131 262h125l100 -160l164 160h125z" />
    <glyph glyph-name="uni02C9" unicode="&#x2c9;" horiz-adv-x="614" 
d="M764 1145h-518l24 123h518z" />
    <glyph glyph-name="breve" unicode="&#x2d8;" horiz-adv-x="614" 
d="M707 1419h90q-30 -119 -108.5 -196.5t-194.5 -77.5q-93 0 -151 56.5t-58 148.5q0 34 6 69h90q0 -149 133 -149q70 0 120.5 40.5t72.5 108.5z" />
    <glyph glyph-name="dotaccent" unicode="&#x2d9;" horiz-adv-x="614" 
d="M623 1167h-185l35 181h184z" />
    <glyph glyph-name="ring" unicode="&#x2da;" horiz-adv-x="614" 
d="M723 1321q0 -72 -52 -124t-124 -52t-124 52t-52 124q0 71 52.5 122.5t123.5 51.5t123.5 -51.5t52.5 -122.5zM635 1321q0 35 -26.5 60.5t-61.5 25.5t-61.5 -25.5t-26.5 -60.5q0 -37 25.5 -62.5t62.5 -25.5t62.5 25.5t25.5 62.5z" />
    <glyph glyph-name="ogonek" unicode="&#x2db;" horiz-adv-x="614" 
d="M559 -334l-20 -100q-83 -17 -121 -17q-74 0 -124 35.5t-50 106.5q0 154 235 327h88q-31 -27 -52 -46.5t-51 -52t-48 -60.5t-31.5 -63t-13.5 -68q0 -40 22.5 -66.5t61.5 -26.5q51 0 104 31z" />
    <glyph glyph-name="tilde" unicode="&#x2dc;" horiz-adv-x="614" 
d="M717 1360h86q-27 -105 -45 -141q-44 -83 -123 -84q-34 0 -78.5 26t-82 52t-52.5 26q-19 0 -33.5 -19.5t-19 -34t-11.5 -40.5h-86q9 35 14.5 55.5t20.5 57.5t30.5 58.5t41 38.5t55.5 17q34 0 77.5 -27.5t82 -55t59.5 -27.5q46 0 64 98z" />
    <glyph glyph-name="hungarumlaut" unicode="&#x2dd;" horiz-adv-x="614" 
d="M829 1145h-129l142 274h180zM567 1145h-129l140 274h180z" />
    <glyph glyph-name="uni0394" unicode="&#x394;" horiz-adv-x="1175" 
d="M1157 0h-1139l750 1413h186zM963 117l-142 1145l-590 -1145h732z" />
    <glyph glyph-name="uni03A9" unicode="&#x3a9;" horiz-adv-x="1314" 
d="M1395 961q0 -243 -127.5 -486t-309.5 -358h283l-22 -117h-433l23 121q55 41 107.5 92t110.5 130t100 167t70 206t28 245q0 167 -72 268.5t-213 101.5q-116 0 -215.5 -65.5t-165 -173.5t-102.5 -246.5t-37 -286.5q0 -259 168 -438l-23 -121h-436l23 117h290
q-82 65 -137 189t-55 282q0 174 52.5 330t145 270t225 181t285.5 67q209 0 323 -130.5t114 -344.5z" />
    <glyph glyph-name="uni03BC" unicode="&#x3bc;" horiz-adv-x="1071" 
d="M1006 94l-21 -106q-24 -4 -59 -4q-80 0 -115 38.5t-35 86.5q0 35 4 71q-43 -95 -117 -149t-165 -54q-131 0 -183 93q-66 -301 -86 -508h-151l274 1413h152l-111 -565q-16 -78 -16 -144q0 -176 145 -176q223 0 309 434l89 451h151l-131 -674q0 -2 -5.5 -29.5t-10 -56.5
t-4.5 -47q0 -40 20 -57t66 -17z" />
    <glyph glyph-name="pi" unicode="&#x3c0;" horiz-adv-x="1083" 
d="M1223 975l-23 -113h-190l-109 -565q-16 -72 -16 -111q0 -52 27.5 -73t91.5 -23l-21 -106q-23 -2 -63 -2q-89 0 -138 44.5t-49 135.5q0 45 17 127l112 573h-332l-165 -862h-148l166 862q-100 0 -203 -39q-4 19 -13.5 49.5t-12.5 51.5q124 51 317 51h752z" />
    <glyph glyph-name="endash" unicode="&#x2013;" 
d="M1004 436h-814l29 144h813z" />
    <glyph glyph-name="emdash" unicode="&#x2014;" horiz-adv-x="1402" 
d="M1384 436h-1194l29 144h1192z" />
    <glyph glyph-name="quoteleft" unicode="&#x2018;" horiz-adv-x="417" 
d="M475 973h-186l160 440h133z" />
    <glyph glyph-name="quoteright" unicode="&#x2019;" horiz-adv-x="417" 
d="M432 973h-133l107 440h186z" />
    <glyph glyph-name="quotesinglbase" unicode="&#x201a;" horiz-adv-x="417" 
d="M217 -238h-133l106 441h187z" />
    <glyph glyph-name="quotedblleft" unicode="&#x201c;" horiz-adv-x="720" 
d="M778 973h-186l160 440h133zM475 973h-186l160 440h133z" />
    <glyph glyph-name="quotedblright" unicode="&#x201d;" horiz-adv-x="720" 
d="M735 973h-133l107 440h186zM432 973h-133l107 440h186z" />
    <glyph glyph-name="quotedblbase" unicode="&#x201e;" horiz-adv-x="720" 
d="M502 -238h-133l106 441h187zM199 -238h-133l106 441h186z" />
    <glyph glyph-name="dagger" unicode="&#x2020;" 
d="M594 0h-164l154 786h-351l25 117h348l99 510h163l-98 -510h350l-22 -117h-350z" />
    <glyph glyph-name="daggerdbl" unicode="&#x2021;" 
d="M594 0h-162l127 657h-352l22 117h355l28 148h-354l23 116h352l74 375h161l-71 -375h352l-23 -116h-356l-29 -148h357l-23 -117h-354z" />
    <glyph glyph-name="bullet" unicode="&#x2022;" 
d="M1018 737q0 -152 -109 -260t-262 -108t-262 108t-109 260q0 154 108.5 263.5t262.5 109.5t262.5 -109.5t108.5 -263.5z" />
    <glyph glyph-name="ellipsis" unicode="&#x2026;" horiz-adv-x="1402" 
d="M1288 0h-186l37 190h186zM795 0h-187l37 190h186zM301 0h-186l37 190h186z" />
    <glyph glyph-name="perthousand" unicode="&#x2030;" horiz-adv-x="2390" 
d="M2050 -23q-254 0 -254 314q0 62 8 126t25.5 133.5t48 129.5t71 108.5t100 76.5t130.5 28q68 0 117.5 -23t78.5 -65t42.5 -95t13.5 -118q0 -77 -10.5 -155t-38 -163t-69 -149t-109.5 -106t-154 -42zM1329 -23q-254 0 -254 314q0 62 8 126t25.5 133.5t48 129.5t71 108.5
t100 76.5t130.5 28q68 0 117.5 -23t78.5 -65t42.5 -95t13.5 -118q0 -77 -10.5 -155t-38 -163t-69 -149t-109.5 -106t-154 -42zM680 0h-115l678 1298h115zM461 408q-138 0 -196 83t-58 228q0 62 8 126t25.5 133.5t48 129.5t71 108.5t100 76.5t130.5 28q131 0 191.5 -81.5
t60.5 -217.5q0 -77 -10.5 -155t-38 -162.5t-69 -149t-109.5 -106t-154 -41.5zM2060 53q53 0 97 43.5t70.5 108t44.5 142t25 141t7 110.5q0 219 -137 219q-55 0 -99.5 -43.5t-70.5 -107.5t-43.5 -142t-24 -141t-6.5 -111q0 -44 4 -76t17 -68t42.5 -55.5t73.5 -19.5zM1339 53
q53 0 97 43.5t70.5 108t44.5 142t25 141t7 110.5q0 219 -137 219q-55 0 -99.5 -43.5t-70.5 -107.5t-43.5 -142t-24 -141t-6.5 -111q0 -44 4 -76t17 -68t42.5 -55.5t73.5 -19.5zM471 483q53 0 97 43.5t70.5 108t44.5 142t25 141t7 110.5q0 217 -137 217q-55 0 -99.5 -43.5
t-70.5 -107.5t-43.5 -142t-24 -141t-6.5 -111q0 -43 4.5 -75.5t17.5 -67.5t42 -54.5t73 -19.5z" />
    <glyph glyph-name="guilsinglleft" unicode="&#x2039;" horiz-adv-x="454" 
d="M389 121h-127l-98 379l246 385h127l-195 -385z" />
    <glyph glyph-name="guilsinglright" unicode="&#x203a;" horiz-adv-x="454" 
d="M240 121h-127l194 387l-47 377h127l98 -377z" />
    <glyph glyph-name="fraction" unicode="&#x2044;" horiz-adv-x="575" 
d="M164 0h-117l680 1298h115z" />
    <glyph glyph-name="zero.superior" unicode="&#x2070;" horiz-adv-x="706" 
d="M475 817q-74 0 -126.5 23t-81 66t-41.5 96.5t-13 123.5q0 75 11.5 153t40.5 160.5t72.5 146t113.5 104.5t157 41q69 0 120 -22.5t80.5 -64t43.5 -93.5t14 -117q0 -76 -10.5 -154t-39 -163t-71 -150t-112.5 -107.5t-158 -42.5zM485 887q55 0 100.5 44t72 108.5t45 143
t25.5 142.5t7 113q0 221 -141 221q-57 0 -102.5 -43.5t-72 -107.5t-44 -143t-23.5 -142.5t-6 -114.5q0 -35 2.5 -62.5t11 -58.5t23 -52t41 -34.5t61.5 -13.5z" />
    <glyph glyph-name="i.superior" unicode="&#x2071;" horiz-adv-x="346" 
d="M481 1286h-141l27 127h139zM303 438h-119l133 672h119z" />
    <glyph glyph-name="four.superior" unicode="&#x2074;" horiz-adv-x="706" 
d="M643 829h-129l51 250h-370l14 82l463 555h145l-108 -553h145l-16 -84h-146zM580 1163l79 402l-331 -402h252z" />
    <glyph glyph-name="five.superior" unicode="&#x2075;" horiz-adv-x="706" 
d="M829 1632h-342l-71 -301q51 35 143 35q109 0 167 -60.5t58 -166.5q0 -140 -97.5 -231t-244.5 -91q-118 0 -183.5 45.5t-65.5 153.5h145q-3 -129 113 -129q66 0 113 38.5t67 94t20 121.5q0 67 -32 110t-95 43q-88 0 -137 -73h-115l121 495h453z" />
    <glyph glyph-name="six.superior" unicode="&#x2076;" horiz-adv-x="706" 
d="M860 1532h-141q2 58 -23.5 92.5t-81.5 34.5q-44 0 -82 -26.5t-63.5 -67.5t-45 -93.5t-29.5 -99t-15 -90.5q72 78 196 78q98 0 160 -54t62 -147q0 -152 -84 -247t-240 -95q-124 0 -188 69t-64 191q0 63 8.5 131t26.5 143t50 141.5t74.5 121t104.5 86t136 31.5
q109 0 174 -49t65 -150zM479 887q65 0 108.5 40.5t60 95.5t16.5 120q0 64 -37.5 107.5t-100.5 43.5q-59 0 -99.5 -41.5t-56.5 -96t-16 -112.5q0 -59 35 -108t90 -49z" />
    <glyph glyph-name="seven.superior" unicode="&#x2077;" horiz-adv-x="706" 
d="M367 829h-140l488 801h-400l17 86h538l-14 -86z" />
    <glyph glyph-name="eight.superior" unicode="&#x2078;" horiz-adv-x="706" 
d="M643 1286q56 -20 94.5 -71.5t38.5 -108.5q0 -130 -90 -209.5t-227 -79.5q-109 0 -182.5 52.5t-73.5 154.5q0 98 57.5 170.5t157.5 95.5q-55 23 -85 67.5t-30 100.5q0 123 87.5 198t217.5 75q105 0 170.5 -49.5t65.5 -147.5q0 -91 -53.5 -155.5t-147.5 -92.5zM559 1323
q52 0 88.5 33.5t51 79t14.5 98.5q0 56 -31.5 90.5t-85.5 34.5q-78 0 -119 -60.5t-41 -142.5q0 -62 32.5 -97.5t90.5 -35.5zM471 887q85 0 129.5 65.5t44.5 155.5q0 64 -35.5 103.5t-97.5 39.5q-79 0 -127.5 -63t-48.5 -146q0 -69 35 -112t100 -43z" />
    <glyph glyph-name="nine.superior" unicode="&#x2079;" horiz-adv-x="706" 
d="M205 1014h141q0 -127 107 -127q53 0 97.5 39.5t71.5 101t43.5 123t22.5 117.5q-79 -82 -196 -82q-99 0 -162.5 53.5t-63.5 146.5q0 153 85 249t241 96q122 0 187 -64t65 -182q0 -79 -10.5 -161.5t-39 -175.5t-71 -165t-114.5 -119t-163 -47q-110 0 -175.5 48t-65.5 149z
M541 1251q58 0 99 42.5t57 97.5t16 112t-36 106.5t-91 49.5q-51 0 -88.5 -22t-58 -60t-30.5 -81.5t-10 -92.5q0 -66 39 -109t103 -43z" />
    <glyph glyph-name="n.superior" unicode="&#x207f;" horiz-adv-x="743" 
d="M705 438h-119l82 414q12 62 12 96q0 41 -19 66.5t-57 25.5q-47 0 -90 -30t-73.5 -77.5t-51 -97.5t-31.5 -98l-57 -299h-119l133 672h119l-24 -129q39 65 100.5 105t134.5 40q70 0 114 -39t44 -104q0 -39 -6 -80z" />
    <glyph glyph-name="zero.inferior" unicode="&#x2080;" horiz-adv-x="706" 
d="M344 -412q-74 0 -126.5 23t-81 66.5t-41.5 97t-13 123.5q0 75 11.5 152.5t40.5 160t72.5 146t113.5 104.5t157 41q69 0 120 -22.5t80.5 -64t43.5 -93.5t14 -117q0 -76 -10.5 -154t-39 -163t-71 -150t-112.5 -107.5t-158 -42.5zM354 -342q55 0 100.5 44t72 108.5t45 143
t25.5 142.5t7 113q0 221 -141 221q-57 0 -102.5 -43.5t-72 -107.5t-44 -143t-23.5 -142.5t-6 -114.5q0 -35 2.5 -62.5t11 -58.5t23 -52t41 -34.5t61.5 -13.5z" />
    <glyph glyph-name="one.inferior" unicode="&#x2081;" horiz-adv-x="706" 
d="M428 -399h-123l150 755l-179 -106l21 108l205 121h100z" />
    <glyph glyph-name="two.inferior" unicode="&#x2082;" horiz-adv-x="706" 
d="M590 -399h-547l16 80q49 36 110.5 87t136 122.5t134.5 140.5t101 141.5t41 124.5q0 58 -31.5 95.5t-87.5 37.5q-61 0 -99.5 -39t-46.5 -102h-141q16 102 102 157.5t199 55.5q109 0 172.5 -51t63.5 -152q0 -46 -21 -98.5t-49 -96.5t-80 -100.5t-88 -91.5t-100.5 -89
t-91 -74.5t-84.5 -65.5h407z" />
    <glyph glyph-name="three.inferior" unicode="&#x2083;" horiz-adv-x="706" 
d="M340 27l12 73h58q71 0 114 59t43 134q0 64 -30.5 100.5t-90.5 36.5q-56 0 -90.5 -33t-40.5 -90h-141q18 94 102 144.5t189 50.5q106 0 170.5 -48.5t64.5 -146.5q0 -95 -54 -160t-150 -84q62 -17 98.5 -65.5t36.5 -110.5q0 -143 -88.5 -221t-239.5 -78q-246 0 -246 199
h144q0 -129 112 -129q85 0 136 63.5t51 151.5q0 83 -38.5 118.5t-121.5 35.5z" />
    <glyph glyph-name="four.inferior" unicode="&#x2084;" horiz-adv-x="706" 
d="M518 -399h-129l51 249h-370l14 82l463 555h145l-108 -553h145l-16 -84h-146zM455 -66l80 402l-332 -402h252z" />
    <glyph glyph-name="five.inferior" unicode="&#x2085;" horiz-adv-x="706" 
d="M727 403h-342l-72 -301q51 35 144 35q109 0 167 -60.5t58 -166.5q0 -140 -97.5 -231t-244.5 -91q-250 0 -250 199h146q-3 -129 112 -129q66 0 113 38.5t67.5 94t20.5 121.5q0 67 -32 110.5t-95 43.5q-87 0 -137 -74h-115l121 495h452z" />
    <glyph glyph-name="six.inferior" unicode="&#x2086;" horiz-adv-x="706" 
d="M758 303h-142q2 58 -23 92.5t-81 34.5q-54 0 -99 -39t-72 -100.5t-43 -121.5t-22 -116q72 78 197 78q98 0 159.5 -54t61.5 -147q0 -152 -83.5 -247t-239.5 -95q-124 0 -188 69t-64 191q0 77 11.5 159.5t41 172.5t73 160t114.5 116t159 46q109 0 174.5 -49t65.5 -150z
M377 -342q65 0 108 40.5t59.5 95.5t16.5 120q0 64 -37.5 108t-99.5 44q-59 0 -99.5 -41.5t-56.5 -96t-16 -112.5q0 -59 35 -108.5t90 -49.5z" />
    <glyph glyph-name="seven.inferior" unicode="&#x2087;" horiz-adv-x="706" 
d="M264 -399h-139l487 800h-399l16 86h539l-14 -86z" />
    <glyph glyph-name="eight.inferior" unicode="&#x2088;" horiz-adv-x="706" 
d="M520 57q56 -20 94.5 -71.5t38.5 -108.5q0 -130 -90 -209.5t-227 -79.5q-109 0 -182.5 52.5t-73.5 154.5q0 98 57.5 170.5t157.5 95.5q-55 23 -85 67.5t-30 100.5q0 123 87.5 198t217.5 75q105 0 170.5 -49.5t65.5 -147.5q0 -91 -53.5 -155.5t-147.5 -92.5zM436 94
q52 0 88.5 33.5t51 79t14.5 98.5q0 56 -31.5 90.5t-85.5 34.5q-78 0 -119 -60.5t-41 -142.5q0 -62 32.5 -97.5t90.5 -35.5zM348 -342q85 0 129.5 65.5t44.5 155.5q0 64 -35.5 104t-97.5 40q-79 0 -127.5 -63t-48.5 -146q0 -69 35 -112.5t100 -43.5z" />
    <glyph glyph-name="nine.inferior" unicode="&#x2089;" horiz-adv-x="706" 
d="M82 -215h141q0 -127 107 -127q53 0 97.5 39.5t71.5 101t43.5 123t22.5 117.5q-79 -82 -196 -82q-99 0 -162.5 54t-63.5 147q0 153 85 248.5t241 95.5q122 0 187 -64t65 -182q0 -79 -10.5 -161.5t-38.5 -175.5t-71 -165t-114.5 -119t-162.5 -47q-110 0 -176 48t-66 149z
M418 23q45 0 79.5 24t54 63t29 80.5t9.5 83.5q0 57 -36 106.5t-91 49.5q-51 0 -88.5 -22t-58 -60t-30.5 -81.5t-10 -92.5q0 -65 39 -108t103 -43z" />
    <glyph glyph-name="Euro" unicode="&#x20ac;" horiz-adv-x="1099" 
d="M1030 221l-31 -160q-142 -81 -313 -81q-192 0 -290.5 118.5t-98.5 350.5q0 7 4 81h-178l33 95h153l17 96h-133l32 92h121q66 267 210 407t353 140q146 0 237 -83t91 -216q0 -33 -10 -84h-189q11 67 11 102q0 92 -37 134t-119 42q-131 0 -228.5 -114.5t-148.5 -327.5h428
l-33 -92h-415l-2 -12q-10 -53 -13 -84h393l-32 -95h-369q-2 -25 -2 -55q0 -191 58.5 -282t181.5 -91q80 0 149 26t170 93z" />
    <glyph glyph-name="litre" unicode="&#x2113;" horiz-adv-x="950" 
d="M281 287v215l-113 -125l-68 82l181 203v466q0 180 68 271.5t183 91.5q54 0 94.5 -20.5t62.5 -54.5t33 -70.5t11 -75.5q0 -143 -69.5 -288t-217.5 -331v-362q0 -96 32.5 -140.5t84.5 -44.5q73 0 160 95q9 -18 28.5 -50.5t28.5 -50.5q-127 -127 -254 -127q-102 0 -168 66
q-77 77 -77 250zM446 1141v-318q20 25 31 43q141 212 141 385q0 44 -17.5 76.5t-55.5 32.5q-47 0 -73 -49t-26 -170z" />
    <glyph glyph-name="trademark" unicode="&#x2122;" horiz-adv-x="1251" 
d="M1282 819h-88v537h-4l-139 -537h-109l-139 537h-4v-537h-88v594h159l123 -467h4l121 467h164v-594zM492 819h-89v508h-149v86h389v-86h-151v-508z" />
    <glyph glyph-name="Omega" unicode="&#x2126;" horiz-adv-x="1314" 
d="M1395 961q0 -243 -127.5 -486t-309.5 -358h283l-22 -117h-433l23 121q55 41 107.5 92t110.5 130t100 167t70 206t28 245q0 167 -72 268.5t-213 101.5q-116 0 -215.5 -65.5t-165 -173.5t-102.5 -246.5t-37 -286.5q0 -259 168 -438l-23 -121h-436l23 117h290
q-82 65 -137 189t-55 282q0 174 52.5 330t145 270t225 181t285.5 67q209 0 323 -130.5t114 -344.5z" />
    <glyph glyph-name="estimated" unicode="&#x212e;" horiz-adv-x="1306" 
d="M1196 565h-872v-389q128 -125 309 -125q265 0 416 256l71 -45q-98 -144 -210.5 -215.5t-276.5 -71.5q-166 0 -292.5 79.5t-192.5 212.5t-66 298t65.5 297.5t192 211.5t293.5 79q171 0 298.5 -79t193 -210.5t71.5 -298.5zM944 639v309q-128 131 -313 131q-183 0 -307 -127
v-313h620z" />
    <glyph glyph-name="onethird" unicode="&#x2153;" horiz-adv-x="1669" 
d="M582 0h-115l678 1298h115zM403 420h-122l149 756l-178 -107l20 109l205 120h101zM1272 426l12 74h57q71 0 114.5 59t43.5 133q0 64 -30.5 100.5t-90.5 36.5q-56 0 -90.5 -33t-40.5 -89h-141q18 94 102 144t189 50q106 0 170.5 -48t64.5 -146q0 -94 -54.5 -159.5
t-150.5 -84.5q62 -17 99 -65.5t37 -110.5q0 -143 -88.5 -221t-239.5 -78q-246 0 -246 198h144q0 -129 112 -129q85 0 136 63.5t51 151.5q0 83 -38.5 118.5t-121.5 35.5z" />
    <glyph glyph-name="twothirds" unicode="&#x2154;" horiz-adv-x="1669" 
d="M623 0h-115l678 1298h114zM1272 426l12 74h57q71 0 114.5 59t43.5 133q0 64 -30.5 100.5t-90.5 36.5q-56 0 -90.5 -33t-40.5 -89h-141q18 94 102 144t189 50q106 0 170.5 -48t64.5 -146q0 -94 -54.5 -159.5t-150.5 -84.5q62 -17 99 -65.5t37 -110.5q0 -143 -88.5 -221
t-239.5 -78q-246 0 -246 198h144q0 -129 112 -129q85 0 136 63.5t51 151.5q0 83 -38.5 118.5t-121.5 35.5zM610 420h-547l17 80q49 36 110.5 87t135.5 122.5t134.5 140.5t101 141.5t40.5 124.5q0 58 -31.5 95.5t-87.5 37.5q-61 0 -99 -39t-46 -102h-141q16 102 102 157.5
t199 55.5q108 0 171.5 -51t63.5 -152q0 -46 -21 -98.5t-49 -96.5t-80 -100.5t-88 -91.5t-100.5 -89t-91 -74.5t-84.5 -65.5h408z" />
    <glyph glyph-name="oneeighth" unicode="&#x215b;" horiz-adv-x="1669" 
d="M582 0h-115l678 1298h115zM403 420h-122l149 756l-178 -107l20 109l205 120h101zM1432 457q56 -20 94.5 -72t38.5 -109q0 -130 -90 -209t-228 -79q-109 0 -182.5 52.5t-73.5 154.5q0 98 57.5 170.5t157.5 95.5q-55 23 -84.5 67.5t-29.5 100.5q0 123 87.5 197.5
t217.5 74.5q105 0 170 -49t65 -147q0 -91 -53 -155.5t-147 -92.5zM1348 494q40 0 70.5 19t48 50t26 67t8.5 75q0 56 -31.5 90t-85.5 34q-78 0 -118.5 -60t-40.5 -142q0 -62 32.5 -97.5t90.5 -35.5zM1260 57q85 0 129.5 66t44.5 156q0 64 -36 103.5t-98 39.5
q-79 0 -127.5 -63t-48.5 -146q0 -69 35.5 -112.5t100.5 -43.5z" />
    <glyph glyph-name="threeeighths" unicode="&#x215c;" horiz-adv-x="1669" 
d="M643 0h-115l678 1298h115zM422 846l12 74h58q71 0 114 58.5t43 133.5q0 64 -30.5 100.5t-90.5 36.5q-56 0 -90.5 -33t-40.5 -90h-141q18 94 102 144.5t189 50.5q106 0 170.5 -48.5t64.5 -146.5q0 -94 -54 -159t-150 -84q62 -17 98.5 -65.5t36.5 -110.5q0 -143 -88.5 -221
t-239.5 -78q-246 0 -246 198h144q0 -129 112 -129q85 0 136 63.5t51 151.5q0 83 -38.5 118.5t-121.5 35.5zM1432 457q56 -20 94.5 -72t38.5 -109q0 -130 -90 -209t-228 -79q-109 0 -182.5 52.5t-73.5 154.5q0 98 57.5 170.5t157.5 95.5q-55 23 -84.5 67.5t-29.5 100.5
q0 123 87.5 197.5t217.5 74.5q105 0 170 -49t65 -147q0 -91 -53 -155.5t-147 -92.5zM1348 494q40 0 70.5 19t48 50t26 67t8.5 75q0 56 -31.5 90t-85.5 34q-78 0 -118.5 -60t-40.5 -142q0 -62 32.5 -97.5t90.5 -35.5zM1260 57q85 0 129.5 66t44.5 156q0 64 -36 103.5
t-98 39.5q-79 0 -127.5 -63t-48.5 -146q0 -69 35.5 -112.5t100.5 -43.5z" />
    <glyph glyph-name="fiveeighths" unicode="&#x215d;" horiz-adv-x="1669" 
d="M643 0h-115l678 1298h115zM1432 457q56 -20 94.5 -72t38.5 -109q0 -130 -90 -209t-228 -79q-109 0 -182.5 52.5t-73.5 154.5q0 98 57.5 170.5t157.5 95.5q-55 23 -84.5 67.5t-29.5 100.5q0 123 87.5 197.5t217.5 74.5q105 0 170 -49t65 -147q0 -91 -53 -155.5t-147 -92.5
zM1348 494q40 0 70.5 19t48 50t26 67t8.5 75q0 56 -31.5 90t-85.5 34q-78 0 -118.5 -60t-40.5 -142q0 -62 32.5 -97.5t90.5 -35.5zM1260 57q85 0 129.5 66t44.5 156q0 64 -36 103.5t-98 39.5q-79 0 -127.5 -63t-48.5 -146q0 -69 35.5 -112.5t100.5 -43.5zM788 1223h-342
l-71 -301q49 34 143 34q109 0 167 -60.5t58 -166.5q0 -140 -97.5 -230.5t-244.5 -90.5q-118 0 -183.5 45t-65.5 153h145q-3 -129 113 -129q66 0 113 38.5t67 94t20 121.5q0 67 -32 110.5t-95 43.5q-87 0 -137 -74h-115l121 496h453z" />
    <glyph glyph-name="seveneighths" unicode="&#x215e;" horiz-adv-x="1669" 
d="M602 0h-115l678 1298h115zM1432 457q56 -20 94.5 -72t38.5 -109q0 -130 -90 -209t-228 -79q-109 0 -182.5 52.5t-73.5 154.5q0 98 57.5 170.5t157.5 95.5q-55 23 -84.5 67.5t-29.5 100.5q0 123 87.5 197.5t217.5 74.5q105 0 170 -49t65 -147q0 -91 -53 -155.5t-147 -92.5
zM1348 494q40 0 70.5 19t48 50t26 67t8.5 75q0 56 -31.5 90t-85.5 34q-78 0 -118.5 -60t-40.5 -142q0 -62 32.5 -97.5t90.5 -35.5zM1260 57q85 0 129.5 66t44.5 156q0 64 -36 103.5t-98 39.5q-79 0 -127.5 -63t-48.5 -146q0 -69 35.5 -112.5t100.5 -43.5zM367 420h-140
l488 801h-400l17 86h538l-14 -86z" />
    <glyph glyph-name="partialdiff" unicode="&#x2202;" horiz-adv-x="1099" 
d="M844 885h4q8 86 8 145q0 163 -67 243.5t-189 80.5q-92 0 -178 -49l-41 122q40 26 107.5 45t132.5 19q190 0 299.5 -126t109.5 -368q0 -188 -49 -397q-23 -93 -56.5 -178.5t-83.5 -167.5t-108.5 -141.5t-136.5 -96t-164 -36.5q-158 0 -255 104t-97 274q0 144 44 269.5
t116.5 210t166 132.5t191.5 48q88 0 152 -38t94 -95zM825 727q-23 74 -76.5 118t-134.5 44q-93 0 -175.5 -73.5t-132.5 -199t-50 -268.5q0 -106 49 -167.5t129 -61.5q135 0 239.5 167.5t151.5 440.5z" />
    <glyph glyph-name="Delta" unicode="&#x2206;" horiz-adv-x="1175" 
d="M1157 0h-1139l750 1413h186zM963 117l-142 1145l-590 -1145h732z" />
    <glyph glyph-name="product" unicode="&#x220f;" horiz-adv-x="1368" 
d="M1210 -471h-180v1751h-692v-1751h-178v1905h1050v-1905z" />
    <glyph glyph-name="summation" unicode="&#x2211;" horiz-adv-x="1208" 
d="M1112 -471h-1063v86l600 874l-557 846v99h973v-148h-758l524 -792l-559 -818h840v-147z" />
    <glyph glyph-name="minus" unicode="&#x2212;" horiz-adv-x="1177" 
d="M1163 436h-946v125h946v-125z" />
    <glyph glyph-name="uni2215" unicode="&#x2215;" horiz-adv-x="575" 
d="M164 0h-117l680 1298h115z" />
    <glyph glyph-name="uni2219" unicode="&#x2219;" horiz-adv-x="417" 
d="M414 551h-197l39 199h197z" />
    <glyph glyph-name="radical" unicode="&#x221a;" horiz-adv-x="946" 
d="M629 -25h-152l-252 680l-106 -63l-60 100l250 156l240 -655l293 1298h129z" />
    <glyph glyph-name="infinity" unicode="&#x221e;" horiz-adv-x="1482" 
d="M836 383h-5q-141 -211 -329 -211q-137 0 -229.5 89t-92.5 235q0 147 91 237t225 90q113 0 196.5 -60.5t138.5 -148.5h5q24 38 53.5 71.5t70.5 66t95 52t112 19.5q138 0 229 -89.5t91 -229.5q0 -141 -89 -236.5t-224 -95.5q-107 0 -194.5 58.5t-143.5 152.5zM901 500
q52 -95 117.5 -147t138.5 -52q88 0 136 58t48 143q0 84 -47.5 138t-134.5 54q-78 0 -137.5 -48.5t-120.5 -145.5zM766 500q-50 86 -117.5 140t-138.5 54q-89 0 -136.5 -57t-47.5 -141q0 -85 52 -140t132 -55q141 0 256 199z" />
    <glyph glyph-name="integral" unicode="&#x222b;" horiz-adv-x="948" 
d="M375 -129v1317q0 158 80 252t233 94q36 0 76.5 -8t58.5 -17l-39 -131q-38 17 -82 17q-74 0 -112.5 -50t-38.5 -145v-1315q0 -158 -78.5 -252t-228.5 -94q-86 0 -138 23l33 133q40 -14 82 -14q76 0 115 48.5t39 141.5z" />
    <glyph glyph-name="approxequal" unicode="&#x2248;" horiz-adv-x="1177" 
d="M1051 856l90 -102q-108 -166 -256 -166q-108 0 -207 63q-101 64 -174 64q-94 0 -170 -129l-90 100q51 79 111.5 123.5t146.5 44.5q103 0 205 -63q103 -64 174 -64q95 0 170 129zM1051 412l90 -101q-107 -168 -256 -168q-107 0 -207 64q-99 63 -174 63q-94 0 -170 -129
l-90 103q50 79 110.5 122.5t147.5 43.5q102 0 205 -64q102 -63 174 -63q93 0 170 129z" />
    <glyph glyph-name="notequal" unicode="&#x2260;" horiz-adv-x="1177" 
d="M1104 207h-473l-115 -252h-147l114 252h-202v139h264l139 307h-403v140h467l118 264h148l-121 -264h211v-140h-273l-139 -307h412v-139z" />
    <glyph glyph-name="lessequal" unicode="&#x2264;" horiz-adv-x="1177" 
d="M1104 0h-823v139h823v-139zM1104 276l-823 392v104l823 391v-151l-629 -291v-4l629 -291v-150z" />
    <glyph glyph-name="greaterequal" unicode="&#x2265;" horiz-adv-x="1177" 
d="M1104 0h-823v139h823v-139zM1104 668l-823 -389v149l628 291v4l-628 291v149l823 -389v-106z" />
    <glyph glyph-name="lozenge" unicode="&#x25ca;" horiz-adv-x="944" 
d="M516 0h-90l-375 715l375 719h90l377 -717zM471 180l281 537l-281 536l-278 -536z" />
    <glyph glyph-name="zero.fitted" unicode="&#xe097;" horiz-adv-x="1097" 
d="M1139 885q0 -78 -7.5 -159t-26.5 -171t-47.5 -172t-73.5 -157t-101.5 -129.5t-134 -87t-168.5 -32.5q-85 0 -149.5 23t-106 63t-68 99t-37 125t-10.5 147q0 91 12 185.5t37.5 196.5t70.5 191t104.5 160t147 112.5t191.5 41.5q98 0 170.5 -33t114.5 -93.5t62 -137
t20 -172.5zM965 893q0 324 -213 324q-70 0 -129 -44.5t-98 -118t-68 -161t-44.5 -181.5t-22.5 -170t-7 -136q0 -51 4 -92t17 -86.5t35.5 -75.5t62.5 -50t94 -20q69 0 127 45t96.5 119t68 162t46 181.5t24 169.5t7.5 134z" />
    <glyph glyph-name="two.fitted" unicode="&#xe098;" 
d="M1069 1024q0 -94 -59 -206t-123.5 -193.5t-194.5 -198.5t-184 -160t-179 -139q-5 -4 -7 -6h593l-24 -121h-776l24 121q72 54 160.5 128.5t196.5 179.5t194.5 205.5t145.5 205t59 180.5q0 86 -46.5 141.5t-131.5 55.5q-94 0 -151.5 -57.5t-69.5 -151.5h-187
q15 102 80.5 174.5t155 105.5t192.5 33q153 0 242.5 -74.5t89.5 -222.5z" />
    <glyph glyph-name="three.fitted" unicode="&#xe099;" 
d="M1051 1036q0 -141 -78.5 -236t-218.5 -120q94 -20 145 -91t51 -169q0 -213 -126 -328t-341 -115q-348 0 -348 293h193q0 -188 172 -188q85 0 149 45t95.5 115.5t31.5 154.5q0 123 -54.5 175.5t-176.5 52.5l20 108h74q108 0 173 86t65 197q0 93 -47.5 147t-139.5 54
q-85 0 -136 -48.5t-62 -132.5h-185q16 94 81.5 160.5t150.5 95.5t180 29q96 0 169 -28.5t118 -94t45 -162.5z" />
    <glyph glyph-name="four.fitted" unicode="&#xe09a;" 
d="M1092 489l-23 -120h-211l-72 -369h-168l72 369h-536l22 120l668 809h194l-157 -809h211zM713 489l118 605l-497 -605h379z" />
    <glyph glyph-name="five.fitted" unicode="&#xe09b;" 
d="M1112 1298l-22 -120h-496l-111 -461q38 35 100 52t124 17q153 0 235 -89t82 -244q0 -137 -64 -246t-175 -169.5t-248 -60.5q-350 0 -353 293h193q0 -188 172 -188q75 0 134 32.5t94.5 86.5t54 119t18.5 135q0 98 -50 162.5t-145 64.5q-130 0 -202 -111h-154l176 727h637z
" />
    <glyph glyph-name="six.fitted" unicode="&#xe09c;" 
d="M1135 1030h-187q0 86 -38.5 136.5t-123.5 50.5q-67 0 -125.5 -43t-96.5 -107t-67.5 -146t-44.5 -152t-22 -132q60 75 131.5 108t167.5 33q138 0 224.5 -79.5t86.5 -215.5q0 -147 -50 -259.5t-155 -179.5t-253 -67q-177 0 -267 102.5t-90 282.5q0 77 8.5 161.5t28.5 179
t49.5 181.5t75.5 167.5t103 139.5t135.5 94.5t169.5 35.5q155 0 247.5 -71t92.5 -220zM866 457q0 95 -56.5 159t-150.5 64q-66 0 -118.5 -35t-82 -90.5t-44.5 -117.5t-15 -124q0 -86 53.5 -158.5t137.5 -72.5q60 0 108 22.5t79 59t51.5 86.5t29 101t8.5 106z" />
    <glyph glyph-name="seven.fitted" unicode="&#xe09d;" horiz-adv-x="946" 
d="M1110 1298l-20 -120l-709 -1178h-186l708 1178h-579l22 120h764z" />
    <glyph glyph-name="eight.fitted" unicode="&#xe09e;" 
d="M1081 1034q0 -140 -76 -233t-214 -129q89 -26 140.5 -100.5t51.5 -168.5q0 -192 -128.5 -309t-322.5 -117q-73 0 -137 19t-115 55.5t-80.5 96t-29.5 135.5q0 155 79 259.5t230 131.5q-78 30 -121 96t-43 152q0 120 59.5 212.5t157 139.5t216.5 47q147 0 240 -72t93 -215z
M907 1032q0 83 -48 134t-130 51q-78 0 -134 -45.5t-81 -111.5t-25 -142q0 -90 49.5 -142.5t137.5 -52.5q60 0 106.5 27.5t72.5 73.5t39 99t13 109zM809 406q0 96 -53 154t-148 58q-80 0 -141.5 -45.5t-92 -115t-30.5 -148.5q0 -101 53.5 -164t151.5 -63q86 0 146.5 48.5
t87 120t26.5 155.5z" />
    <glyph glyph-name="nine.fitted" unicode="&#xe09f;" 
d="M1081 961q0 -80 -7.5 -165t-26 -183t-47 -186.5t-73.5 -172t-102 -144t-137 -97t-174 -36.5q-155 0 -248.5 71t-93.5 220h188q0 -86 38.5 -136t123.5 -50q67 0 125 42t96.5 106t68 144t44 152t18.5 133q-56 -74 -127.5 -106.5t-168.5 -32.5q-139 0 -227.5 79.5
t-88.5 215.5q0 148 51 260.5t157 179t255 66.5q171 0 263.5 -94t92.5 -266zM907 987q0 85 -53.5 157.5t-136.5 72.5q-76 0 -132.5 -33t-87.5 -88.5t-46 -119t-15 -134.5q0 -97 58.5 -160.5t154.5 -63.5q66 0 118 35.5t81.5 92t44 118.5t14.5 123z" />
    <glyph glyph-name="zero.denominator" unicode="&#xe10a;" horiz-adv-x="706" 
d="M375 -12q-74 0 -126.5 23t-81 66t-41.5 96.5t-13 123.5q0 75 11.5 152.5t40.5 160t72.5 146t113.5 104.5t157 41q69 0 120 -22.5t80.5 -64t43.5 -93.5t14 -117q0 -76 -10.5 -154t-39 -163t-71 -150t-112.5 -107t-158 -42zM385 57q55 0 100.5 44t72 108.5t45 143
t25.5 142.5t7 113q0 221 -141 221q-57 0 -102.5 -43.5t-72 -107t-44 -143t-23.5 -142.5t-6 -114q0 -45 5 -79t18 -69t42.5 -54.5t73.5 -19.5z" />
    <glyph glyph-name="one.denominator" unicode="&#xe10b;" horiz-adv-x="706" 
d="M459 0h-123l149 756l-178 -107l21 109l204 121h101z" />
    <glyph glyph-name="two.denominator" unicode="&#xe10c;" horiz-adv-x="706" 
d="M621 0h-547l16 80q49 36 110.5 87t135.5 122.5t134.5 140.5t101 141.5t40.5 124.5q0 58 -31 95.5t-87 37.5q-61 0 -99.5 -39t-46.5 -102h-141q16 102 102 157.5t199 55.5q108 0 171.5 -51t63.5 -152q0 -46 -21 -98.5t-49 -96.5t-80 -100.5t-88 -91.5t-100.5 -89
t-91 -74.5t-84.5 -65.5h408z" />
    <glyph glyph-name="three.denominator" unicode="&#xe10d;" horiz-adv-x="706" 
d="M371 426l12 74h57q71 0 114.5 59t43.5 133q0 64 -30.5 100.5t-90.5 36.5q-56 0 -90.5 -33t-40.5 -89h-141q18 94 102 144t189 50q106 0 170.5 -48t64.5 -146q0 -94 -54.5 -159.5t-150.5 -84.5q62 -17 99 -65.5t37 -110.5q0 -143 -88.5 -221t-239.5 -78q-246 0 -246 198
h143q0 -129 113 -129q85 0 135.5 63.5t50.5 151.5q0 83 -38 118.5t-121 35.5z" />
    <glyph glyph-name="four.denominator" unicode="&#xe10e;" horiz-adv-x="706" 
d="M549 0h-129l51 250h-371l15 82l463 555h145l-109 -553h146l-17 -84h-145zM485 334l80 401l-332 -401h252z" />
    <glyph glyph-name="five.denominator" unicode="&#xe10f;" horiz-adv-x="706" 
d="M758 803h-342l-72 -301q51 35 143 35q109 0 167.5 -61t58.5 -167q0 -140 -97.5 -230.5t-244.5 -90.5q-118 0 -184 45.5t-66 152.5h145q-3 -129 113 -129q66 0 113 38.5t67.5 94t20.5 121.5q0 67 -32 110.5t-95 43.5q-88 0 -138 -74h-114l121 496h452z" />
    <glyph glyph-name="six.denominator" unicode="&#xe110;" horiz-adv-x="706" 
d="M788 702h-141q2 58 -23 92.5t-81 34.5q-54 0 -99 -39t-72 -100t-43 -121t-22 -116q71 77 197 77q98 0 159.5 -53.5t61.5 -146.5q0 -152 -84 -247t-240 -95q-124 0 -187.5 69t-63.5 191q0 77 11.5 159t41 172t73 160.5t114.5 116t159 45.5q109 0 174 -49t65 -150zM408 57
q65 0 108 40.5t59.5 95.5t16.5 120q0 64 -37.5 108t-99.5 44q-59 0 -99.5 -41.5t-56.5 -96t-16 -112.5q0 -59 35 -108.5t90 -49.5z" />
    <glyph glyph-name="seven.denominator" unicode="&#xe111;" horiz-adv-x="706" 
d="M295 0h-139l487 801h-399l16 86h539l-15 -86z" />
    <glyph glyph-name="eight.denominator" unicode="&#xe112;" horiz-adv-x="706" 
d="M551 457q56 -20 94.5 -72t38.5 -109q0 -130 -90 -209t-227 -79q-109 0 -182.5 52.5t-73.5 154.5q0 98 57.5 170.5t157.5 95.5q-55 23 -85 67.5t-30 100.5q0 123 87.5 197.5t217.5 74.5q105 0 170.5 -49t65.5 -147q0 -91 -53.5 -155.5t-147.5 -92.5zM467 494
q52 0 88.5 33.5t51 79t14.5 98.5q0 56 -31.5 90t-85.5 34q-78 0 -119 -60t-41 -142q0 -62 32.5 -97.5t90.5 -35.5zM379 57q85 0 129.5 66t44.5 156q0 64 -35.5 103.5t-97.5 39.5q-79 0 -127.5 -63t-48.5 -146q0 -69 35 -112.5t100 -43.5z" />
    <glyph glyph-name="nine.denominator" unicode="&#xe113;" horiz-adv-x="706" 
d="M113 184h141q0 -127 106 -127q53 0 97.5 39.5t72 101t44 123t22.5 117.5q-79 -82 -197 -82q-99 0 -162 54t-63 147q0 153 85 248.5t241 95.5q122 0 187 -64t65 -182q0 -79 -10.5 -161.5t-39 -175.5t-71 -164.5t-114.5 -118.5t-163 -47q-110 0 -175.5 47.5t-65.5 148.5z
M449 422q58 0 99 42.5t57 97.5t16 112t-36 106t-91 49q-51 0 -88.5 -22t-58 -60t-30.5 -81.5t-10 -92.5q0 -65 39 -108t103 -43z" />
    <glyph glyph-name="cent.denominator" unicode="&#xe119;" horiz-adv-x="626" 
d="M600 68l-12 -58q-71 -24 -172 -24q-23 0 -35 2l-23 -117h-71l24 123q-176 36 -176 248q0 75 18.5 147t55 134.5t98 104.5t139.5 50l21 108h74l-23 -108q81 -8 127.5 -50t46.5 -118q0 -33 -4 -49h-127q6 27 6 55q0 41 -14 63.5t-47 32.5l-111 -561q27 -6 62 -6
q63 0 143 23zM330 86l104 528q-31 -2 -58.5 -28t-47 -65.5t-32 -73.5t-20.5 -68q-12 -56 -12 -115q0 -115 66 -178z" />
    <glyph glyph-name="dollar.denominator" unicode="&#xe11b;" horiz-adv-x="759" 
d="M412 -133h-80l22 119q-112 8 -166.5 53t-54.5 149h137q0 -60 21.5 -92t75.5 -45l77 393q-46 15 -76 28.5t-62.5 37t-49 58t-16.5 79.5q0 123 85.5 198.5t215.5 84.5l20 104h78l-18 -104q215 -17 215 -201h-138q0 65 -18 98.5t-72 40.5l-73 -370q52 -16 85.5 -31.5
t68.5 -41t52 -63t17 -88.5q0 -126 -95 -205.5t-229 -82.5zM520 416l-74 -367q83 12 131 71t48 146q0 49 -29.5 87.5t-75.5 62.5zM461 522l67 342q-75 -17 -115 -69.5t-40 -130.5q0 -56 20.5 -85.5t67.5 -56.5z" />
    <glyph glyph-name="zero.numerator" unicode="&#xe11e;" horiz-adv-x="706" 
d="M446 408q-74 0 -126.5 23t-81 66t-41.5 96.5t-13 123.5q0 75 11.5 152.5t41 160t73 146t113.5 104.5t157 41q69 0 120 -22.5t80.5 -64t43.5 -93.5t14 -117q0 -62 -8 -127t-25 -136t-48 -132.5t-72.5 -112t-103 -79.5t-135.5 -29zM457 477q55 0 100.5 44t72 108.5t45 143
t25.5 142.5t7 113q0 221 -142 221q-57 0 -102.5 -43.5t-72 -107.5t-44 -143t-23.5 -142.5t-6 -114.5q0 -35 2.5 -62.5t11.5 -58.5t23.5 -52t41 -34.5t61.5 -13.5z" />
    <glyph glyph-name="one.numerator" unicode="&#xe11f;" horiz-adv-x="706" 
d="M530 420h-122l149 756l-178 -107l20 109l205 120h101z" />
    <glyph glyph-name="two.numerator" unicode="&#xe120;" horiz-adv-x="706" 
d="M692 420h-547l17 80q49 36 110.5 87t135.5 122.5t134.5 140.5t101 141.5t40.5 124.5q0 58 -31.5 95.5t-87.5 37.5q-61 0 -99 -39t-46 -102h-141q16 102 102 157.5t199 55.5q108 0 171.5 -51t63.5 -152q0 -46 -21 -98.5t-49 -96.5t-80 -100.5t-88 -91.5t-100.5 -89
t-91 -74.5t-84.5 -65.5h408z" />
    <glyph glyph-name="three.numerator" unicode="&#xe121;" horiz-adv-x="706" 
d="M442 846l13 74h57q71 0 114.5 59t43.5 133q0 64 -30.5 100.5t-90.5 36.5q-56 0 -90.5 -33t-40.5 -90h-142q18 94 102 144.5t189 50.5q106 0 171 -48.5t65 -146.5q0 -94 -54.5 -159t-150.5 -84q62 -17 98.5 -65.5t36.5 -110.5q0 -144 -88 -221.5t-239 -77.5
q-246 0 -246 198h143q0 -129 113 -129q85 0 135.5 63.5t50.5 151.5q0 83 -38.5 118.5t-121.5 35.5z" />
    <glyph glyph-name="four.numerator" unicode="&#xe122;" horiz-adv-x="706" 
d="M621 420h-129l51 250h-371l14 82l463 555h146l-109 -553h145l-16 -84h-145zM557 754l80 401l-332 -401h252z" />
    <glyph glyph-name="five.numerator" unicode="&#xe123;" horiz-adv-x="706" 
d="M829 1223h-342l-71 -301q49 34 143 34q109 0 167 -60.5t58 -166.5q0 -140 -97.5 -230.5t-244.5 -90.5q-118 0 -183.5 45t-65.5 153h145q-3 -129 113 -129q66 0 113 38.5t67 94t20 121.5q0 67 -32 110.5t-95 43.5q-87 0 -137 -74h-115l121 496h453z" />
    <glyph glyph-name="six.numerator" unicode="&#xe124;" horiz-adv-x="706" 
d="M860 1122h-141q2 58 -23.5 92.5t-81.5 34.5q-44 0 -82 -26.5t-63.5 -67.5t-45 -93.5t-29.5 -99t-15 -90.5q72 78 196 78q98 0 160 -53.5t62 -146.5q0 -152 -84 -247t-240 -95q-124 0 -188 69t-64 191q0 76 11.5 158.5t41 172.5t73.5 160.5t115 116t159 45.5
q109 0 174 -49t65 -150zM479 477q65 0 108.5 40.5t60 95.5t16.5 120q0 64 -37.5 108t-100.5 44q-59 0 -99.5 -41.5t-56.5 -96t-16 -112.5q0 -59 35 -108.5t90 -49.5z" />
    <glyph glyph-name="seven.numerator" unicode="&#xe125;" horiz-adv-x="706" 
d="M367 420h-140l488 801h-400l17 86h538l-14 -86z" />
    <glyph glyph-name="eight.numerator" unicode="&#xe126;" horiz-adv-x="706" 
d="M623 877q56 -20 94.5 -72t38.5 -109q0 -130 -90 -209t-228 -79q-109 0 -182.5 52.5t-73.5 153.5q0 98 57.5 171t157.5 96q-55 23 -84.5 67.5t-29.5 100.5q0 123 87.5 197.5t217.5 74.5q104 0 169.5 -49.5t65.5 -147.5q0 -91 -53 -155t-147 -92zM539 913q40 0 70.5 19
t48 50t26 67t8.5 75q0 56 -31.5 90.5t-85.5 34.5q-78 0 -118.5 -60t-40.5 -142q0 -62 32.5 -98t90.5 -36zM451 477q85 0 129.5 65.5t44.5 155.5q0 64 -35.5 104t-97.5 40q-79 0 -128 -63t-49 -146q0 -69 35.5 -112.5t100.5 -43.5z" />
    <glyph glyph-name="nine.numerator" unicode="&#xe127;" horiz-adv-x="706" 
d="M184 604h142q0 -127 106 -127q53 0 97.5 39.5t72 101t44 123t22.5 117.5q-79 -82 -197 -82q-99 0 -162 54t-63 147q0 153 84.5 248.5t240.5 95.5q122 0 187 -64t65 -182q0 -79 -10.5 -161.5t-38.5 -175.5t-71 -164.5t-114.5 -118.5t-162.5 -47q-110 0 -176 47.5
t-66 148.5zM520 842q58 0 99 42.5t57 97.5t16 112t-36 106t-91 49q-51 0 -88.5 -22t-58 -60t-30 -81.5t-9.5 -92.5q0 -66 38.5 -108.5t102.5 -42.5z" />
    <glyph glyph-name="cent.numerator" unicode="&#xe12d;" horiz-adv-x="626" 
d="M686 487l-12 -57q-71 -24 -172 -24q-23 0 -35 2l-23 -117h-71l24 123q-176 36 -176 248q0 75 18.5 147t55 134.5t98 104.5t139.5 50l21 108h74l-23 -108q81 -8 127.5 -50t46.5 -118q0 -33 -4 -49h-127q6 27 6 55q0 41 -14 63.5t-47 32.5l-111 -561q27 -6 62 -6
q66 0 143 22zM416 506l104 528q-31 -2 -58.5 -28t-47 -65.5t-32 -73.5t-20.5 -68q-12 -55 -12 -115q0 -115 66 -178z" />
    <glyph glyph-name="dollar.numerator" unicode="&#xe131;" horiz-adv-x="759" 
d="M463 287h-80l23 119q-112 8 -167 53t-55 149h138q0 -60 21 -92t75 -45l78 393q-46 15 -76.5 28.5t-63 37t-49 58t-16.5 79.5q0 123 85.5 198.5t215.5 84.5l20 104h78l-18 -104q215 -17 215 -201h-137q0 64 -18.5 98t-72.5 41l-73 -370q52 -16 85.5 -31.5t68.5 -41t52 -63
t17 -88.5q0 -126 -95 -205.5t-229 -82.5zM571 836l-73 -367q83 12 130.5 71t47.5 146q0 49 -29.5 87.5t-75.5 62.5zM512 942l68 342q-75 -17 -115.5 -70t-40.5 -131q0 -55 20 -84.5t68 -56.5z" />
    <glyph glyph-name="one.fitted" unicode="&#xf6dc;" horiz-adv-x="780" 
d="M795 1298l-254 -1298h-168l223 1147l-268 -160l28 141l299 170h140z" />
    <glyph glyph-name="cent.inferior" unicode="&#xf6df;" horiz-adv-x="626" 
d="M578 -338l-13 -57q-74 -25 -172 -25q-23 0 -35 2l-22 -117h-72l25 123q-176 36 -176 248q0 75 18.5 147t55 134.5t98 104.5t139.5 50l20 109h74l-22 -109q81 -8 127.5 -50t46.5 -118q0 -33 -4 -49h-127q6 27 6 56q0 40 -14.5 63t-47.5 33l-110 -561q27 -6 61 -6
q67 0 144 22zM307 -319l105 528q-31 -2 -58.5 -28t-47 -65.5t-32 -74t-20.5 -68.5q-12 -55 -12 -114q0 -116 65 -178z" />
    <glyph glyph-name="cent.superior" unicode="&#xf6e0;" horiz-adv-x="626" 
d="M711 897l-13 -57q-74 -25 -172 -25q-22 0 -34 2l-23 -117h-72l25 123q-176 36 -176 248q0 75 18.5 147t55 134.5t98 104.5t139.5 50l21 109h73l-22 -109q81 -8 127.5 -50t46.5 -118q0 -33 -4 -49h-127q6 27 6 56q0 40 -14.5 63t-47.5 33l-110 -561q32 -7 61 -7
q63 0 144 23zM440 915l105 529q-31 -2 -58.5 -28t-47 -65.5t-32 -74t-20.5 -68.5q-12 -56 -12 -114q0 -117 65 -179z" />
    <glyph glyph-name="dollar.inferior" unicode="&#xf6e3;" horiz-adv-x="759" 
d="M371 -535h-80l22 119q-112 8 -166.5 53.5t-54.5 149.5h137q0 -60 21.5 -92t75.5 -45l77 393q-46 15 -76 28.5t-62.5 37t-49 58t-16.5 79.5q0 123 85.5 198t215.5 84l20 105h78l-18 -105q215 -17 215 -200h-138q0 65 -18 98.5t-72 40.5l-73 -371q52 -16 85.5 -31
t68.5 -40.5t52 -63t17 -88.5q0 -126 -95 -206t-229 -83zM479 14l-73 -366q83 12 130.5 71t47.5 146q0 49 -29 87t-76 62zM420 121l67 342q-75 -17 -115 -70t-40 -131q0 -55 20 -84.5t68 -56.5z" />
    <glyph glyph-name="dollar.superior" unicode="&#xf6e4;" horiz-adv-x="759" 
d="M500 696h-80l22 119q-112 8 -166.5 53.5t-54.5 149.5h137q0 -60 21.5 -92t75.5 -45l77 393q-46 15 -76 28.5t-62.5 37t-49 58t-16.5 79.5q0 123 85.5 198t215.5 84l20 105h78l-18 -105q215 -17 215 -200h-138q0 65 -18 98.5t-72 40.5l-73 -371q52 -16 85.5 -31
t68.5 -40.5t52 -63t17 -88.5q0 -126 -95 -206t-229 -83zM608 1245l-73 -366q83 12 130.5 71t47.5 146q0 49 -29 87t-76 62zM549 1352l67 342q-75 -17 -115 -70t-40 -131q0 -55 20 -84.5t68 -56.5z" />
    <glyph glyph-name="a.superior" unicode="&#xf6e9;" horiz-adv-x="716" 
d="M682 438h-117l13 84q-62 -100 -193 -100q-54 0 -93.5 20t-61.5 55.5t-32 76.5t-10 90q0 58 9.5 118t33.5 123t58.5 111t89 79t121.5 31q125 0 180 -106l14 90h119zM420 487q57 0 101 41.5t67 104.5t34 125t11 116q0 70 -29.5 128.5t-91.5 58.5q-42 0 -76.5 -30t-55.5 -75
t-35.5 -100t-20 -102t-5.5 -84q0 -183 101 -183z" />
    <glyph glyph-name="b.superior" unicode="&#xf6ea;" horiz-adv-x="716" 
d="M240 821l114 592h117l-72 -383q70 96 191 96q104 0 160.5 -72t56.5 -175q0 -65 -12.5 -128.5t-40 -123.5t-68 -105t-101.5 -72.5t-134 -27.5q-113 0 -175.5 53.5t-62.5 159.5q0 41 23 168q0 3 2 9t2 9zM451 487q61 0 107.5 40t70.5 102t35.5 123t11.5 118q0 34 -5 64.5
t-17 60.5t-36.5 48t-58.5 18q-58 0 -104 -47.5t-70.5 -118t-36.5 -137t-12 -119.5q0 -63 29 -107.5t86 -44.5z" />
    <glyph glyph-name="d.superior" unicode="&#xf6eb;" horiz-adv-x="716" 
d="M682 438h-117l13 84q-62 -100 -193 -100q-71 0 -117.5 35.5t-64 87.5t-17.5 119q0 58 10 118.5t34 123t58.5 110.5t89.5 79t122 31q131 0 182 -104l74 391h118zM420 487q57 0 101 41.5t67 104.5t34 125t11 116q0 45 -9.5 84t-38 71t-73.5 32q-53 0 -94 -44t-61.5 -109.5
t-30 -126t-9.5 -109.5q0 -185 103 -185z" />
    <glyph glyph-name="e.superior" unicode="&#xf6ec;" horiz-adv-x="636" 
d="M655 516l-10 -63q-95 -31 -166 -31q-282 0 -282 291q0 77 18.5 148t56 131.5t102 97t148.5 36.5q102 0 161.5 -51t59.5 -147q0 -39 -6 -76h-401q-10 -52 -10 -100q0 -69 20.5 -127t68.5 -98t117 -40q45 0 123 29zM627 918v16q0 3 1 8t1 8q0 49 -34.5 80t-80.5 31
q-112 0 -164 -143h277z" />
    <glyph glyph-name="l.superior" unicode="&#xf6ee;" horiz-adv-x="346" 
d="M305 438h-119l193 975h117z" />
    <glyph glyph-name="m.superior" unicode="&#xf6ef;" horiz-adv-x="1087" 
d="M1051 438h-119l82 426q0 3 2 11.5t2 11.5q10 63 10 74q0 35 -21 57t-53 22q-46 0 -85.5 -31t-65.5 -81t-43 -97.5t-27 -95.5l-59 -297h-119l84 420q0 3 2 10.5t2 10.5q10 45 10 77q0 34 -19 59t-50 25q-46 0 -86 -31t-67.5 -80t-45.5 -97.5t-29 -96.5l-57 -297h-119
l133 672h119l-22 -117q86 133 227 133q57 0 98 -40t41 -95v-6q37 61 100 101t132 40q61 0 102 -38t41 -95q0 -43 -10 -88z" />
    <glyph glyph-name="o.superior" unicode="&#xf6f0;" horiz-adv-x="716" 
d="M442 422q-125 0 -188.5 70t-63.5 192q0 84 21.5 161t63.5 141t113 102t163 38q125 0 189.5 -67.5t64.5 -188.5q0 -86 -21 -163.5t-63 -142.5t-114 -103.5t-165 -38.5zM457 487q60 0 105 43.5t68 110.5t33.5 130.5t10.5 119.5q0 76 -32.5 123t-102.5 47
q-60 0 -105.5 -40.5t-69 -103t-34.5 -123.5t-11 -116q0 -191 138 -191z" />
    <glyph glyph-name="r.superior" unicode="&#xf6f1;" horiz-adv-x="477" 
d="M309 438h-119l129 672h119l-22 -117q44 68 98.5 100t147.5 33l-25 -125h-33q-59 0 -101 -17.5t-67.5 -54t-40 -76t-26.5 -99.5z" />
    <glyph glyph-name="s.superior" unicode="&#xf6f2;" horiz-adv-x="583" 
d="M152 461l22 108q92 -73 184 -73q63 0 109.5 28t46.5 88q0 23 -8.5 41t-30 36t-34.5 27t-46 29q-34 21 -53 34t-44.5 36t-37.5 50t-12 59q0 68 38 115t95 67t127 20q94 0 174 -34l-27 -105q-50 34 -88.5 51t-81.5 17q-51 0 -84.5 -26.5t-33.5 -78.5q0 -21 16.5 -41t33 -31
t50.5 -30q37 -21 59.5 -36t50.5 -40.5t42 -56.5t14 -68q0 -61 -23 -105.5t-64.5 -70t-92 -37.5t-111.5 -12q-83 0 -190 39z" />
    <glyph glyph-name="t.superior" unicode="&#xf6f3;" horiz-adv-x="503" 
d="M553 504l-14 -76q-5 0 -17.5 -1t-17.5 -1q-32 -4 -58 -4q-84 0 -132 30.5t-48 106.5q0 40 10 82q69 329 84 406h-118l12 63h119q5 26 17.5 78.5t17.5 79.5l131 69l-47 -227h186l-14 -63h-185l-65 -314q-25 -115 -25 -172q0 -38 26 -56t66 -18q26 0 72 17z" />
    <glyph glyph-name="h.superior" unicode="&#xf700;" horiz-adv-x="743" 
d="M705 438h-119l82 414q12 62 12 96q0 41 -19 66.5t-57 25.5q-47 0 -89.5 -30t-72.5 -77.5t-50.5 -97t-31.5 -98.5l-59 -299h-119l193 975h119l-82 -430q39 65 99.5 104t133.5 39q70 0 114 -39t44 -104q0 -39 -6 -80z" />
    </font>
</defs>
</svg>
